<mxfile host="Electron" agent="Mozilla/5.0 (X11; Linux x86_64) AppleWebKit/537.36 (KHTML, like Gecko) draw.io/26.0.4 Chrome/128.0.6613.186 Electron/32.2.5 Safari/537.36" version="26.0.4">
  <diagram name="Page-1" id="oh4lJxR3jQruJV_bzsvz">
    <mxGraphModel dx="1114" dy="1198" grid="1" gridSize="10" guides="1" tooltips="1" connect="1" arrows="1" fold="1" page="1" pageScale="1" pageWidth="850" pageHeight="1100" math="0" shadow="0">
      <root>
        <mxCell id="0" />
        <mxCell id="1" parent="0" />
        <mxCell id="ewceiY0vhvfPBOdPjsry-9" style="edgeStyle=orthogonalEdgeStyle;rounded=0;orthogonalLoop=1;jettySize=auto;html=1;" edge="1" parent="1" source="ewceiY0vhvfPBOdPjsry-6" target="ewceiY0vhvfPBOdPjsry-8">
          <mxGeometry relative="1" as="geometry" />
        </mxCell>
        <mxCell id="ewceiY0vhvfPBOdPjsry-6" value="" style="rounded=0;whiteSpace=wrap;html=1;" vertex="1" parent="1">
          <mxGeometry x="225" y="340" width="126" height="390" as="geometry" />
        </mxCell>
        <mxCell id="ewceiY0vhvfPBOdPjsry-7" style="edgeStyle=orthogonalEdgeStyle;rounded=0;orthogonalLoop=1;jettySize=auto;html=1;entryX=0;entryY=0.5;entryDx=0;entryDy=0;" edge="1" parent="1" source="ewceiY0vhvfPBOdPjsry-1" target="ewceiY0vhvfPBOdPjsry-6">
          <mxGeometry relative="1" as="geometry" />
        </mxCell>
        <mxCell id="ewceiY0vhvfPBOdPjsry-1" value="Clients" style="sketch=0;outlineConnect=0;fontColor=#232F3E;gradientColor=none;fillColor=#232F3D;strokeColor=none;dashed=0;verticalLabelPosition=bottom;verticalAlign=top;align=center;html=1;fontSize=12;fontStyle=0;aspect=fixed;pointerEvents=1;shape=mxgraph.aws4.users;" vertex="1" parent="1">
          <mxGeometry x="36" y="496" width="78" height="78" as="geometry" />
        </mxCell>
        <mxCell id="ewceiY0vhvfPBOdPjsry-2" value="ElastiCache&lt;div&gt;for Redis&lt;/div&gt;" style="sketch=0;outlineConnect=0;fontColor=#232F3E;gradientColor=none;fillColor=#C925D1;strokeColor=none;dashed=0;verticalLabelPosition=bottom;verticalAlign=top;align=center;html=1;fontSize=12;fontStyle=0;aspect=fixed;pointerEvents=1;shape=mxgraph.aws4.elasticache_for_redis;" vertex="1" parent="1">
          <mxGeometry x="249" y="361" width="78" height="69" as="geometry" />
        </mxCell>
        <mxCell id="ewceiY0vhvfPBOdPjsry-3" value="ElastiCache&lt;div&gt;for Redis&lt;/div&gt;" style="sketch=0;outlineConnect=0;fontColor=#232F3E;gradientColor=none;fillColor=#C925D1;strokeColor=none;dashed=0;verticalLabelPosition=bottom;verticalAlign=top;align=center;html=1;fontSize=12;fontStyle=0;aspect=fixed;pointerEvents=1;shape=mxgraph.aws4.elasticache_for_redis;" vertex="1" parent="1">
          <mxGeometry x="249" y="484.5" width="78" height="69" as="geometry" />
        </mxCell>
        <mxCell id="ewceiY0vhvfPBOdPjsry-4" value="ElastiCache&lt;div&gt;for Redis&lt;/div&gt;" style="sketch=0;outlineConnect=0;fontColor=#232F3E;gradientColor=none;fillColor=#C925D1;strokeColor=none;dashed=0;verticalLabelPosition=bottom;verticalAlign=top;align=center;html=1;fontSize=12;fontStyle=0;aspect=fixed;pointerEvents=1;shape=mxgraph.aws4.elasticache_for_redis;" vertex="1" parent="1">
          <mxGeometry x="249" y="610" width="78" height="69" as="geometry" />
        </mxCell>
        <mxCell id="ewceiY0vhvfPBOdPjsry-8" value="" style="shape=image;verticalLabelPosition=bottom;labelBackgroundColor=default;verticalAlign=top;aspect=fixed;imageAspect=0;image=data:image/png,iVBORw0KGgoAAAANSUhEUgAAAXsAAADVCAIAAAA5Pcd2AAAAAXNSR0IArs4c6QAAIABJREFUeAHsvXd0FFe+77vBYIJS58pVnZQQOQfl1DnnnJUQImMMDjjhAAZsgzE5CoEEAkzOyTa2ARvnsWc8Mw73nHnnvrPue2/d9/9bu0oqSlLL4Zw5Z8596671WXvt3l1dXd1d9e3fb+/f71dAXRr/+6IqiQ1FWRzlYYoiqqLoECKqooiyMJwVpijIQxcGHqH1078GpfFlhVR7eQiVKyu40smDMQ4egrFx4LT1N0Ha8AFYcBKCEWaMMA0FxY2DQAhjVuSkUU4aFbju92CQY3o5ZhDAPdSz41zbKMeGomcHf0s76LXCPQ96a3gwCtzwe45fJyf1LEY5qWe/Fj38uoi+FsONGK4nMCOBca0RZ7/koS1BwF8hS0tZiezYCeoRJO3gIWgHB8k4efiTB1c6hScYf+KRam/Wk5PS+H71xKa1fqYwwKMsCvIwReGs9F9cEWXhgGuQKYrwl6eyODr0+lWVxP5eKgH+LjvSTEgI95P1iIUfSVkIP3M/2VWG//qURcFHElMYoLR+nuF+leF+RULlyYrwzBD2eYkZ1PkFlSEYG6m0E4xNuA1GWQZiRklTPwaUHAxGGrAhgyjZd1nKCN0g2CvW8NtbGaobSAP7sOGRyuD1cgEKogGC6wa1cHu8PksreG3fBqx+9cvK4EMdeDCPjm2YT8QpTiMrOo0IoUfIvpb93nQ4YcCJvpbEDSwmnDCRuLA147iZxIe0mBXHrRhhxUjbIHCoNY+UiCStHARl5XSHFx2+w0mP8Izi+llPQkLlGe68He48F47z0gM7gn9oofT0Kw53xfEX4AC5EV6nWS/kf6f6/H0URyg36tJ41gMVfpJ+reE+8/+vFAenrRhlQUkzSppx2soJ0CC5wSgzR/8VKLBQ2Gsbp4w4ZcSGwGmTgjIMBtoIWRDYLAOsjIHmkh5etCx9ijNIL4Z/KMPqfitogwwVKBoUoEeHNPB4HllzWT+UAjdwWiMnG+VkI5SbfjBSh5E6Vm4etSRuYO0d48DWRGAmkhWdAS2rOCTjxBgHTtk5eAXJqjhQd1hj59FmA+2d/604Qn34+yvOr8tNcXSg1g5RHIF9yFk6/wVtHOHJR1B9vhVn3aC0lcWO0nbWOLKxitOnMrzcYJQZpy0sJpwewCNbY6BrI8UbszLclTmc7SBG67MycOf1Upwn+/sO3F64Df/CeuE2EqwhK2K0MSsywjAMQ608qNqcInMWIt/ihIH1s4wYZhoEzto4OA7tGh6MsCpIq4y0yAkIQtlQGkoPRvbZrcKfvs/SEbhXQvX5r2HjcDMS0M8a9roTTHoILYOs1/J/ORtn6FEKPwNTFIFO4zDzNX3jwysO709xHaFVKewPZ50OZ80O/RfiRgY5Uxjj4E4+4TnH9XkfCqMsCGXBGBvGOBDKpiDh6cs+C8VFKDcYZVbgxqxi0e9w8Z5XX0dBmbKTzcDJumdukL2Mdb/WDr6qf217A+vrce3veu1wsmLgZqmGafXseF/bN5sDfVUD++0ZMAL2B86RmdmJs6Et60YRfS1KWBHKhjB2VOnAVHAi75G9w07bCX/9fscKTu7wczrkP8LGGTCtM8Cr+rcrDnflDr2ihTbL7+3/PW2coUcm1BplcZSTm19SnCFaw9k4g4SGfyhUGa6fVWv4ibqhioMr3SyPZoiF6iNUHJSGNguvOCRlIfqAvj2nOJTKQbBaw80UQoVSwvlmzslCSTNCmBDCxAqNUQEnO638U8KOYE5XOL9rkOHG7KB62e9BguolmG5oK0Z00NbgWoHdATfOtv3QPfSNcNsL22HeEW4/PFLMMCy4Hj41fCtnn+W+Se5rH9r2/RCYWSFAhptlpEVKWWW0TUpZpYRZgptkuFlO9E3Gcb/1QN2xk2Q/AnuH87OgYAmWINg+POuGno38iZr1NB56tg870r+6MnBCJzjcP32fHTCMpTNUd36vygi3//sozlCt4UaEisPLzX+c4mT9nfhfkVR7B/3G/XLjHnJC9AlQdsWhocRkVRyl1k0wfXYNtMxxs5QwyykrPPMYG0E74MnK2ufcrCSC27IiRy1ZkeHWbLAXDDSXfivZLmMTO2iSYlng/IuhLbw4fwdGdmO+faSe2Y4Hak12ecWNnOX4O1raosgGwlhZ7AgzACg0LBLSAt0ryooxDkLl4ufj4AzdgFnkfrkhs1g63Fk08Bzj/ucGi47wXM16Mg8rMYNWbPsVhx44i/zLijNoxUp48Q5awBIqyO/t/ycpjlBu/oMUJ+svRGl8wl9RqDgCufl1xeENHGjj9CsOSVlY3Xlk42CURYbqxYiB+5+U4CYxZoR/knI9i7G/NUrkEKnCkhWJ3DwIkdz8C+SL67NSIGnISr6scQj6fFljriQ7eVLd34MGdid825An7aNArssKv8GgToHckJU8mT47iD4PbcwCos/LCmbIRfW5qD4fN4oJs5g1c0SoAeFcZnblcTjFEbpXvI0zxMzpU5xBlo7wXB3ufP5NovNvVZzfKDq/V2WE2/8DFIf+hUmcf4dXNdwvJPwV//2KAy0U1pni5IYk+/7rOEtbQVrlhA1nfOrSeMmUpuLJmaJJqeLJ6aKyZFFZiqN4Yrp4YlNpWdOEic2lZU3FEyFFLMVlLaUsRROaeQrLmnmKy1qKJvZRXNbGPdROalGXpXm0E9LasmThhKS2LKktS6gnJgonQIpLk8WlcBxSHNeUwDgs5UDUZckB+5mQ1k5g9zwpo56U0UzMFJbBlkPNDvLjhWXwWeEG3GaCkRS/c7aTZN8OtqoJCVVZnGs1gj7cYGKC+yB9HwceYZJ9o2bNxGb1xGbVJNgWlsFvTDuhSV2WVk5sUk1Mq8ua2IOHI9qpac20pGZqWjM1rZoG4frqKSn1lJRmcprtpJVT+1BPSSknJZSTEpqp6cLpTerJSUzjFeEmBc1O0rFLjf2Kw4bnEDZ2QsfOng92kraxczrQquVsW4yxkYwTV9rZ1in8txOek8Jzdbjz+T9TcQYJEO/KCBXk9/b/PorDlCR4lEXxwXD+4aMAnAgbI/AoqI/3Nv9ea1Kk2s0jjLwS9oVWLqqEEy4cnIHdN2UjCPDjLGouco+bwembNWSjyDDKjFAWlPEoGL/dvyOS7g6nuoLJQ6H0vlhmXzR9MJo+GE4fYumMpjoTSUgydTiWPhxuOhxiiWSOxFNH46mjoeTRYOpoONUVSnf5mzr9TZ3BTGco3RVLH4V7buoJN/UkMr2JzPFI8/Fg63Ff0zFPUw+HP9MTTB8LpbuCmU5f8yFPy6Fw0+F4pjOZOZpq6km1HE8392YyPZlMT6zlWLjtWGhhF0e4rSuysDuy8DhHrO14rK071tYdbj8a7OgJdvRE23viC2EbWdQTWgRHOCKL4HiyDRJf2PdsaBHckn3JiWj7iUj7CfiS9uPB9uPhhccj7EikHT4VbT8RbO8OLjrKvvtR9i2OhRb1hDqOBRbCw4u2Hou1dsVajkVbu0Jw5Fi8tTfeciq88FSg/ZSno9e/qDfe2ptq7o01HQ+1dvvaT/jbe2ItJ1Itx+OtvfCDLOqOdhyLdnSHF3eHWMKLu6Md3fGOnnhHT3LRiXhHT2zxifCSE6GlJ4JLjocWdgXbjqRXnILbdxwLtnVG2g8hGp+MsSgoE8bGLpCUhaIcJOkkSSerPpahLSs9VpK2EYywhepDMu6hUEpPdtQBKhu0JpidfhuHv7J+uSP0tlQwQLcPoWPFyw3sFCd41CXJX0cQZvwPURwuIPJ/McXhtGag4kDvnYtYxUmoOHLSqZ3YFk4fDyS6XaHD3tjhSOZwrOUQVJzUoVC6M5TuDKe6osljiURXItkZjR0Mxff7k/s9qf2+5EF/4mA4djgcO+KNHfbFO33xTm/ikCt1wJE64Eod8CYOwcFYlzvR5UkeDcSOhWJHfYmj7tRRRxJiT3Y7kt3u+FFv/Kgv1uWNdzpSB+zpA77kwWDyUDjRGUkcDad6wqmeRKInkTgWSh/zNXV5mjt9zX2i5ssc8aWP8gTSRwLpw96mw+6WLndLl7+pK5iBra8JPnS3dLnY1tcEB/v1scvT3PcsN869xJ/h3uuYpxniazrma+rhW1fzEVfzER+7Z/aQ+vewsDvY2h1p6Y42Q0Kt3f42SKS5N9LcG2ztdS/stXX0OhYdjzSz+tvUE2w97mo/7m6HWhxvPhFuPRFq6wm3d4fbu4Pt3YFF3f5Fx/2LjgcWQe3jJC++8ERkIdTBYPvxQHsv+1R3sO1osP24b2G3t+2Yr7UruuhIyaw2KWUVKg77lyNUHH4xoa9D0tZs/OcpzqB5nOF05389xeEFT1Wc6DNwWLtGmMogiPr7xyuO0MDBlU7ewIGd/jUpbsqGnyMUKg5Ow1OKlRubUHFypQbtpJZIU08odTycPuGJHnAG37EH3rR7IVbvVpZtds82h2eby73VH9jhDW73hLa7wttdoR2e0A5vcKc3uNMd2OEOvuMOvuMIvW2NvG2JwtYaeccR3ukI77ZFdjsje7yhfd7QHnd4jyu8xxHcxbLHEdzjDOxxB3Z5/LvcgR328DvWyNvOMNy/O7zTFdnljOxyhfd4A7u9wZ2u0A5HZDv3rDe43R/Y4QnscAd2OIM7HCGIM/gOJPS2K7LTHd7pZXFFdjqjEHusr+OK7HKHd3lDsHVGdtmju+wx+Kw9ttMVga/yhXb6Qru84Z1OePwQZ3inK7SbfbjbFtlpje60RnfYIjs5rNGdttguW2yXI7bbFd3tifThiu62x3c54rt8sT2+2B5PYo8tvUffvMfQvMuV3OOL7/LGdjoTOy3pnab0Tldylyexy5naZU/BZ13JPc7kHnsKYkv3dZzJvZ74Xm8/ntgeT2yPO7bHndrrSOyxRHa5mw7Hlp6MLOkJtXVOnLNIQtoUpBmjjARtgm41aSVIJ0QwiyzsszaOLUsLPawsCG1wYf93e1j9Ns6/QXGUheFft3EEmUz/GK/q9ytOFgOH+ftlM/yySzX0x+aWsft057cpDozcI20EMUBxpLi9cHKrL37IGz1i8ezRTFxcgLpEiBWlPCjlQSifnIYglA+hAijlQ3EXirsUBIdHQfQhx50sDhnhkJAOMeUQk04x6ZTSXinll1J+OR2AeyAhCOlFMDeLF8EgKO5DcbgrOemSUk45CZGSLgnlklAeCeWRYi4p5hLjDhFpFxN2GWZHETuucBCIG0W9cswrIdwsThkBYY/Qw+0T7pZFSnqEyAmflPRISB/7FvC9xDRsFYQLw1045sFwl4Rwi0luz245DhHjLhHhEpNuEQWfElFuEenlWvgQc0tQpxRxS1GnBHWLMGc+4SzA4QErMKsUt+ZR1sdV9rFKawFpl+JWKW4XkdZxDBzJo+z5tC2PceQxjnzCXoDD1+b2k0M6c0j4EO4Qg3uWoPBd5Ox7FeDOHNyVT/lV0xZ5MoeiHd2hts7Sme1iwi4nTBhl7lMcOKPHpVkNWLoSig6bAzFAdGAY+n+w4lBav3CCYjjThh8X2jhcnxMdoVc1aLmKd7L+UxWHf1dhhzvKfutG4BOyE8ZqtuU/6qCO8Gvig27g16f1KzVZYNS+rFBKV1b4FDthhwvx4hfC+dj2QXk0ff5U/6wNjBhmkzMf2Ti0WYyaCyc3B1OHg6mjFu8uOR0bJzFhSq+csHHICFs/Dhk7iOA2FLdgmAXF4Eo5t5mCHBCngxAmdmWae61DASWgDwx34ridRCwcBGrBcTuG21ECAvODCCsKg2hhOIkAm4S0iGmTiDGKGKOMhPG4JGJhEDuFOlECKpSEdooZu4SG68Ryou/YhGv5cvazSEibmIKIKIeYsklI7nPBRWUxBZETFvYDwo8pIW0iGm4MjQXMqsDgYr8Ut3LfCXyWtIpIqBpiAioIgjtQzIZiDvjN4HDPEtImIy0K1ICgegTVS3F9PmnIp/QSvC89VYLrc2jDOEafS8HxfNJQQBrEqFmCwl+HowAz5+PmPMI8Hjfl4qY8zJKPmsRw3dCEyCxyuUmMmsfJDWNkpvGY25XYG2o9Em8/qp3SLII/EIzKgRN5tAknzTARlLL2+9q/SXf655JhoNbQP79BOZ+cpcPPKGc1dobOJfPXjvCCGnStCR8OVZy+kWEidITX+3+e4gjfVdj/VcWBopMlJhJaPcIv6NG3NozcKDX+rHLDqH1Z5YZSuoRCI+zzcvMoupTNqRH+WQkVB4emtVBxzHAeh1Wc4qmtoXSnP3HY4t2hoMMFCgsMG8G48GIYgSIlIGISIsUM8OJBDBgCWwUKg1AkuF5G6WVUo4yCGdJczpGCi/0jTTISxhCipFlOmWUkVCIUNxGIgUJ0OGpAMQNCwGxyGcSE4pC+hwRMvEJwHQITzWGYr5jSFdANBXSDmGpAcB2BGGi5kVKYEQyGERVQ5jzaWEAbxKSBfSMTG/hvwjALwaYLwD0TJgllgspFm/IZ2HKHh7G57zLSKKHgwSAEVDQUN7IbG0WUUUzCyEYFqlegBjmiRzAYScR/LSICfg9yzMAnJaA4/NRyFoQwKpAGFKnDFA2oAqZrSbAGOdqgQCASrCGPbMihGvJIXQHRIMGhKnHhkXJEzwEjGDB9Aa7PxRpzWHKxxgKkUaJolMlYcGM+ahCR9rEyqy+5P9R6pGnpyeJp7QUo/EvgFIfLfcNJM684nPoIzxlhn/ethIrzG0WHV5zhcs0HiQ5/7fxGY+cfrziaErh6+suoi2M8nOJwD3kncFBHXRjkEeaFC/vC/Ffhl5jVwPk7Kg4XN8G1fcl7Q61lApY14C2a4RRHO6kpkDoQSHY6g7twTVSK28WIToEbEcyAYPCalxE6KakTk/BK5q5GLsOQv0rFtF6s1BWoGgpUOrHSIGFMUtokp6DESJQWqdKMMBaEsYjVlgI1HJExZoTQowTMpZYyBgljKFAZ8lWGAmX/qxiTWGmSMAY5bcBIHYE3EpgewxsRslFC14uU9WKmUUY1ooSeRkw0ApOP5AQnIkYRoxfTeikNj0FKmxUUzH5kUBOFwTxslITjEnb/BfAt4AiJmyg2Yxsmu7NJp3zmgZyChyFhTBJaLyMMKKbDFXpcAWtKoDjUJgkFkbH1NxBch6MQKKPsV8elaEDFxBoxpJFUQHAE9jFEz6FA9SJCX0DqoWzhelbN9XK0T5JQVqRQBdQmGdpQgNblYnU5OCQPrxdh9VIEUqCozVfUiwlrLmLzJPYEM4eS7d2aSW0FqEOGcQlWFphqSxrguhX0rx8hVJlBfU50oOLAwPQ+cKU9K4TKwcPPEpBqN6XxZIXWenn+t+JA34qXG3Xho0IeQrmBho+g3sd/ZcXh0qPY84ybx+mzcaSYRTMxE0odDKU7rd5tIswtRs0YY4PGBQbtCwXRICMapGSDmNKJKZ2UgGG1CGZEUdgqcIOUMIgonZiBQiBi9PmMMZ8x5TMWMWEWkWbOjuDyjETwKaOYNolJ+CopqRNBm0UnpvXwhUq9iDGyRoElnzHlKE35jFFCwxxxjFUcAm/sF51GMdMopvUSysimHcFEMCltLlCaWRExSBmDmIbvxb4dlAZWIvUYDk0w1hyDqpSvhC1C6NmqNLBlRWRA3hO0tii9iIKfUUTopXgjJtcR8gYchZYXp8USolFCwERQOV6P4A0sj3LrORuNy3RFUKg1CApRYI2sxaRXsK6WBO+zkhAE+l9ivKGAqJNgdXK0jjWOYKtA6goU1blodQ5WPR6rzsVr8rCaAhQixTnR0eUjVk9sd6ztaKbjZMn0JfmIXYrbEcrGqoy5X3FMwynOIKvnH6I4QjNH6EkJ+/8FbJyB9W6GumpCN0pVEhs4wxRRFvdN3zDa0CNYNVFpAyotLCOU1YEiNb6hUBrfIHOGVnmzIohlgPM4vN/EmzBDRziLRlgJJWvpLOEphZMWztNhfRYL5y9wf9FSzFI0pSWYPBBMHbb7t8tpnxgzyggoN/CPepDiQDPHyGXu4GoXwtjFpDEPbVAwcCkEw/U4bS3AjLm0fSxpk6m8IsqRr7TL1A4UN2EIdDpwpV2mMJCMM1+hQzSuHFIvV9tgZBCqh3mMqFFDuDHMlk87HidNYo0jF9eJCAPKWJRqJ4YblZi5WOtCSUMBrstTmkSFzgLGnkdZ85X2HKUtT+3Io824ygZND5V5nNI4SqnP1VgwrYMudInRRjmbVipFGtUalwzVydVmEaMnC+2YEjqYmNKKUBYJrkcYuKIslTfSjI3EzXkFVTLGUqA0yYqdEhUs6IHhRhnagCnNUhyaaQpKJyUbRFgtrjHKVToRWZuLVouwWikOi+BAmUMbEKVBRDdIlLpcvEamNhRQ9WiRRQRfqINelbgSJU0FinopYZBDp08vKbGMVdYWaBrHIeUo1YCTDSqlUSqvlKOw2oYEqysg6vJJSAEBkRK1YrRWhOrEhN2X2B1feCy56ETpjKX5CJxHh6uZ0Lc1wkxRCrbC02OQXSOcOaYYO8XYuQIDvI0j7GQ1dmDcIIwvExaQ6yvzlHVaBw5qg1mhC0N0YUhYMQcmlBdz8XFZinj1z8Y+qp/HrTgPFQRuRDMhMahUFle7Rrh99ngcXlCEm6pL49weh+6X357tRFUlUXXxEErC6pKwthi2KhZlcYiHU1yhDAn7yiLokXFqxbdKjZ/rC32u/pkdD6P20Co3DzezM+ghP93DSxIhSMODGcDZVj1x2oIyEHbhnAsztXKDYsQEvarEfl5xJOw0ilBxFEQda+ZAx0qucuRR1rG4eYRc9ziqz6PNMrUNZgAhOoqyoYR9LGoGajeg7IDxAMwClA4ALwOrSNooRgywlgIOJ2sfw60AMwLSMJIy4konhZlJxILLTbjEgtHekUonwHQAqR+pdQClCeD1Y2gjVRqQShtEuVVSeSNW7AZ4I6B0gDEBrQOQBoA1Akn1KNygIM0FSCOQVwGiBtD1QNUwktEBpBoQdTlqUy5lUNBQ4BSoPofUAaQCPiWvBEgNUFSPxnWjkNrx0Goz0io3ihoVskaEMOWQ+lFUI6DqAV4DZFUilaWANiBaqxiHszBSvF6M14nouvFk9WN4OVDMHUPVPo5WSmhoE8mQeozW52CVQDEbKGYBVTVgKgEC+yPJCiCaIdcYGa1VgdXnKarGKCpGolUAnQ+IuUA6FRDzRxDlY/FKuUo3Ln+2DKlWsJYOrztiHMqNGM+uOCUzlubI7VLcoSCtcC4Jh3XUMArOUvGKIzxhSNrGjQ8aFLpUQrnBGBvvRvEdVoOcQrkR9odTHFITyAovQ5z0ZBUgoR4NVRxuZKCF8ai85yC5yPowu+IINxWqDKcswvfjEqbIwjAPXRgWADW174MJ7B1eTYQOJ6X1DzVwuBHhNyv8xvm+MFScUHn4KHKMcQ0HSjt5hDaOsD8025gdgTMO7BSMCcHhQgw7rwldGAlihWtV/TaOjPKLWV8JwTinia2hR9SxvpVOTBpzScsowlJYt3J+eOMM1/PjC93jSbOYsihoG6Jyj8VsktltTGqLIrNFlXpLFX2djryi8q4r0q8chRvyNc4ClStf6RxXHCgMvYYEX1Y3bwHTw6MJs4K0U7Qbp9wy3E3OaVdGXqVaNitbtmhaNsujz4rcT4DJLkDpkUKvShsgNb4clV1te7I09aoyvr4ws0EVWz85s2l67NX8KeFcVC9V2Uttq2a2bijKrFcn1pVE101MvEA4loPpLsDocpQwFR5mXU71z029NDX5wpT0i9PTL89uek1S1TR+ZhAoTbkamwi3wC+WceQRxnFF9nmpV/VP77O+eMT5/BFFZTJ3onM02aDQ2BDaKMHqxFTDWKYGn+efGVo9I7x6XvipUaq68WS9gjaz5bga8zW1E8yZqalVE1IrShPLpjWtLg0vLnQ2S2ZbR9PlefJ5MrxSpqmXTTFPCa0oSz4xqWlNWXr11OSTSnNmTIkOyOcQpVY5Va9AOCcLzkArEDjXw81Dy7AaCVYnQnUi3OaN74q1HY13nCievoRTHISCdl+/4sByjqyywMKy/YvljyqT8iN8LQuCZssJ9Me4C2PBMJUzK/x5PqgjvC4G9H/RxvlVoeFFZzjFEUbDZO0PjkL+1ZhjXmWE0jOcjaMsjTMlMR6hvcMfurAaEDs4IB5nOAHi9Qh6YYLs2AFfrqCMMf97CAWIV5+sHU6PhCviA/qCLAcuc4ptLQhthI4DBa8izgvjyuJIEGvJ5LZQ6nAo3WX375DTAQkKV2EQzIyw7pWMK99JwLUhKWHOVzofU7msa3rWn/+nlQceSuc0j6GsCq1HQjvzaSdALFNjbwXP/eC68mP87I8t535qO/f9inPfm588BAjDWI1zvNo5WuUgjKtbzv8cOP9D/NbPaOo1QBrFFJzglFHux3Hb7ORbLZd/DFz+PnPj59Zb/631g38OnvtSt/vK6IbWxxibXO3NIWwA1bk2nV985fumS3/MnPvDwnPfLT/73bpz3zONS4G8PldrD285t/T8Vy0Xvnri7o9PXP3jE5e+bTv3eeLoe1LDQsDo5BpnLq5TGzuevfj14gsPOy5+seLcF09f/X7F+a9bj37EOFYBxpBDQCUdTxpFk3yLdt1Y8+4Xa69+t+bad63HP3r9w3+a2/QKoOsUxU45bZBgDTK1ARDzKxa+9PKNr9ddfvhU70dIZWQMrZOpLBJMl4/XAvkM+9pN6z/4fMW1D9Zc/+i1j79+9e6Xa8/cXn3sskYXGYvNQjU1QDqVqvE9f+3BissfrDj/wQu3v3z+6sPnLj5YeeiaqjE1AlsgUtbLMKg4hLyBkDdwK19yhK15Cl2tBhFqKMDtnsSeyEKoONrpi3MVDgnhVNA2OSw5wtk4bLHH/tOAd8l5oeE7QsVBaZiqLtQarp9VbjDVsDYOf8IPXsP6nYrDmwWDfC5B1O6AushZVUZVnBgsNHwCxK8qDi8fgzqqCQlh7h//LF0cp0ridLGQKF0cpYoiFFuCa2DueJgpCpJFAR6i0M+Ba31Z4aRHaAERai+h9pIaH9fhWlweR4i9AAAgAElEQVTl4cCUbh6Ucf0yUHSGFLXtGxlcn5irkGLuX4Ixo3wZJ9KsIK0FMnPRxJZg8lAkfdQZ3KVggjCxk7bCcBvcws6bwkKZKNGI4UY5YclVugBlrV7dtfzMD22HP8+Z3zKGtheQdpnWX6DxA6l5Quwt18UfG87/uW7vA/M7HzVsuuTbenN2YiMgjeOVtvFqJ2DMJanN3jN/mX/sy8aLf0JXbgeMWap0FyjMiMYHMKs2vCF48c+m83+o2/dB9bbrxiP3XGe/DN35c+Vb74IJvnEa91itF5R6azedSt/4c+D8N427b7j23Pa+fTWz8zalWzxabQZ0g3Fjb+zcQ8/Jj+t2nHXsvOzbf7Pp6jepS58bt54Gk5xjNfbHaAPlXPHE9e+ar31pP3LNvv2Mf9+V1mtftV39Mrzr8mNT3GOVZnGRC+C1jucPPX3t2yXnH7p3nq3f1JU6/WG69+6K05/IqlNjaF0uWivB4CIdIOaaXtnTcfnjZO/1xac+QAxpQNXl0QYRYcCK7COV5ca1G9feurfw8i3/7q7A9sOJ3d0rTl5bc+5O5u0udLrpcXzG48p5RL23491ry66+nzz8rufNw6F3upf33nzp6mdLD1zMnWZ9nK7OJ+FcMqZoIGUNhEyHKnRyRC9D4WSQGNPlo4Z8zOZM7A63H40t7tFMX5SLQB+WUxw5xgUuQBOPF5pBZk7WcZgMzBZO+gWVwdUuIVBZVH6OrAlW/CCXZpXVpSI1gaxe1SCV4awEZTE3G/toBodfmFYXx9i8gqSyaDCa0gyPuiTdT1JouGT3qoSyAjN6++ElhimJ0cVQUziIoihRFCULhQznZ4XJohBLn+LwckMU+rPKDa4dMJ0slBhhn5cbXOUZTmIQ2pkdanAZbU5xhvOqhlMckdxSMrkdZk5ljjkCOxEqIMVgzWNOcWB8Ct0op+pRopHAjHLCJi4KAY179pqu9Onvo52fja1sH6vxFzCuMag5V+UHqHtS8h375Z9n9XwxPvIGmJQC01JgRnL8xGCexilSOsYxVqA2T1qy03X5n+e8+6fKG38p3NQLCl3y4kA+aipgnAA3MrENgWs/uG/+nBvbACaFQc2iOZvPWC59Eb32LWJcCTDTYxo3KHJUbHk3cfPPugN3gL4dTAuBCR6gtQKVKafMCQqN9W+cbHv/r+Hzn4GKECg1g1m+6rdPJ658lT73cHR9BqhMI9QW2vtE85kHiaufUctfA2VGMMM2/ZV9Sz78U/vpT8S1qXEqy2halzs/3HTk1qrr39h3vQtm2kFRddGSV9svPlx7508zF74K8BoR2YjQ+rFkFShrsG8/1nzrfujC7Sduf1WWeRrQ1blqUz6hL1AZAFNueuaNZVfvxk9cGFFuBsw0MKVGt+6NtdfuPXXhrkYXGUnOAsQMojHw5LUPn7x9r3zVi4CYBGbUlz/x6qoz7z99/uOZyTWAnD+ehrM2qAIaOJhcp4AGDlshDNNJcEMBZs7DbY74rnD70WhHt3paey5ml9BOOWOXw/qNMPSJq7ImVBZhnzdwhB1ecQZZNLjaBUsODtQaQuOG/6y/JjeD8jl5ZRnUGc6W4X0RTmj4VlUUFQqNujjGRcyoilNZ6ZcYXmu4Dpvq2W/mZFccaMuU9cFMiPOoJib5ca7DPUWXJrLSn1D+yOeCmlUapUsiVGmIhywJchDFgaxQxdltIqFaCQULVXuygqjcg0DV0CwSRgAK+/0Vi7m6xf0tnDY2oYwJelj99xLBYW1ju0huKZ60MJzqiqS7nb5dCjIoQWHsH6s4MAilX3HqSdSI4LbxKg9Qu2asO9507W+x3m9BeSsgHLmEU1IUyNcEgcRW5N5sO/+T8cKPisg2oIqA4jgg7eNJq5yxS3DTWNwISp1Vr54yn/t5ztm/zr/1w5Q918FEr0jrlSmd+RonYEx0aqPrwreuC3+UuNeDCUmg9hXYnvZf/iZ57bs5TVsAZhhT7AVas277xdjFr4NHPgZTQ0DpytN4RhPGHI0tp9gKVHW1b5yMXf4qevIBWBAbMdEHGMP0J95pvvhV5tzDAsdSoDEDjUXtX7PswpfL7/yJaXoeqBtAYWNeaFn60oNV5z+fm3pphKLmcUYnN7d1nLvXcelhSfsLQFMHJpvBXHf7yY/azt3Xv3QA0PVylQllDGOIylFz7eGei5E7H7ou31h57w8LnnoTkBWiEqtEZc6hGwFdZVi7dem5D5eevSurDoyd0AiY+aWhZcvOfbDq0sfFnnZAzR2rqabrIstO3nr6ysd1Hc+BwvlAM+uxBeYlvdeeunTP+/pBoCofparLI+tkfdGDUG4KcH0+AeMDJbipALPmYvZ+xTmmmtqag1rElE1G22BIJAy2hBN5CszMzuVxM3oDWqH68H2MtCGUQ0E5hH9+3H8kQjuFf5a8nY7RHpzx8RBK/yBIVYCHUgd/1cahtEGh+vDCJByEMqQNZ3Wshlo3whFOjHj10ZSmoLf1y4rDVU6hSxNkaRwtjsuKY5LiKKQ0xiEt4UbikmKIqDA6kLBYGxVrwxJ1RKIJZSMg0kIKNNB94MlX+7IiUvk4CpTerOQzngLaw7UFtCeXtOdRjkeQrjwWPq1mUCcPt2UlF7Nkh4uOR615qDUfYUEteZhltEhPlzZ7453BZLfDvxulw3KCDfeCXpWpz8ZhvSoC08sJS47SA4p8U9adCF/4yX/s68eqFwOlq0DpzlU6x9L2EYh9UvRtz+W/mc/9LHdtArg/RxMTK30wEwLRY4xjvNIGJnt1b1/Tn/2x5NhnZee/mNvz8YjyptEMTCmCiqM0U/HXAtd+8F78CxPYALQhgNtyG5Y5ej9NXf++/omDI9UOoLSBYnvtm2earv0xcvCjkdMiBRpvnswIRU1pGcvoQbGh5s2TiavfRI5++Nj8xGNaB6BNZc0bWs9+tvTqtxLXcqC1AKWRcKzsOP1J85kHpa0vwXUoskbiX9Zy/v7S0w/mN78C0OoRTIM6uqbj0idLrjxUJ9cCunJkkR5Ms2UOXV127XPHWz1ACcPwpHh9jrr+sXmOtksf+C7frD16ovXWA8vmTqCuKyi0ihijWGsFRKVh7durr37afuKWZJZrrLIWEPPV9rbF5z/suPDBrOZnADkHkPPxquATp+68cPWBael6oJwDCueBsvLIru51Nz4JbzsKiqseU9fkUHDKhp0zhmVYC3B9AQ5Lr0oxgxj+vnZHbDdMPe84rpzaPkpqzkFt+bg1DzHny2FihASxieSw5RArrFK5lW/liH0oUtQuxWCKmYSAU/sy3M3lqQ3KVlOQXh454ZMTPgXp50EomFiHUCGECqF0GKP6wOkIxoRQ2p8VjAmwhDAmhCvDAoK4MkioQjykOkyqoxyUCnYoTYwlQWkSpDqOqxOkajC0Nklrk0xhQlmUVBWn1CVpzsn6FcXRlMSLShITJ7cqS9PUpBZmzvK61N7y1O7KloPlrQdrOrqq2jvLm/ZXNR+saT1SkTowP763vGl/RfOB8syeecmdC5K7qpr21GT2VaZ21qT3clSn9lQl9lYl9lbG91TH99Qm99Um99Wl9tcm99Uk9vKUR3fxVMR281TFdvNUR3cPoiqyqyqyqzrc11ZHdlSF364MbasMbasIbq0Ibi0PbOOoCL4NCbxTGdzBURF4pyLwTlXgbY5K/zYh5d63KnxbB1HufWu+7435vrfKPdvKPdsqPG9Ved6odG+qdL9e6d7SENxlTx11xrscof2oMirBLARj47INYJw+u8jF5i7oJZRJpPIApXPmcyejF36KdP/h8crFgLHnMbYCpVlS6gJYfWFys/38P9nO/o3wbgKoI18VEqM2irCQOMwtAETjyIpmx5FPDZd/BC8cmX7168arf3jc+ARQOkVqt7TQA2iTJvm6/8rP/ks/M+71QOMBJS5QmbL3Poxd+6HuuW6gsY0p8YASR82W0y3X/xLvvA8mB/I07OQoaUQ19rFEA9Doa948Fb/yh2jXh2B2GFB6QOtL0uuXX/7DE1f/qAk9A2gTYAyUZ/XS81+svPFdadMLgKobqTVKbB1LLn62+tI38xdvBlQtoKqL0+uWXHzYfvY+HVwF6OpRhXow2Zzad2nZ5YeON7qBsg5GMFI6oFjAONpWXHngPXq26OmXF938JH3k6rgy61isHhblU9sBWWt5dufii3cXv3sbK/ePoavHFuoYc+uSSx8uv3F/RvPTQFMNlFVYTWjFiesvXr9vXP4qwGaNK60FxRXR3ceevvGgZf9pMKF2tLo2n4J3m1D0380GFk7GG+G8vrxBhlvzEactsjvcccrX1tvg3z2j4eXZDevnNr40v+GFBQ0vLKh/aUH9ywvqXy5veOURdexIf1te93J53csLatcPoP7l+Q19m1XWvVzJbsNu+eqCekh5w2sV9a9VNmyorn+9smFDRf1r5Q0DqKiHG5TXbeCoqttYVbexuv51lg1V9a9UNKwfQP0rFfWvVDa8yrKhsmEg7DFwR1JZ9zJ8OQQeQFXjxpqGjVWNfdTot9QaNlfrXq/Sv16t21yj31Kj31KtgyNwsPG1GsMrDaZXK+ufnzp7GaWJaSe0wDJpv2zjQMUpjmuLEnRJqnDeisjTFxdu+yyz/fPItk8y+//g2vRBZNsnrfu/jb55P7zpXvP2r5p3fB3Z+iC6/ZPkjk8zOx9m3vk0ue3j9FsfZbZ+nH7jQ5aPM2/ey7z5APLGJ81bPmnadL9584OmzQ8ym+6nX7+X2vhxauPHsLP5Pk9y0z2e9Ov3HrHx4zRLasNHXCez4eP0ax+lX/so9eqHLHfTr7yXfuV25tU7LO83vfZB02sfNr32YebVu5BXPsy88mH65bvpl++m1n+QWv9Bev37qZfe40i+eEfYT754hx/h+skX78Seuxl77mZi3a3EulvJdTdTz15PrbucWnc5sfZibPVFV/Nxf+tJW3i/nAlLceiLwUwomOJk4ZKDuDhdCWUUq9yAds5edzJ2/qf40e/GViwGjDWPseQzxrFKGLGiTr3uvPLfTWf+JnG8DDBrniacp7BQhIUmLfmkASjNOaYnjYc+1Z/5HizZNvXUA+u1P0q8LwG1T6zxSNQuQBgLY6/7L/3sv/CT0v0iUNtBqRVUJS29n0Wu/VTz/HFQaBtb7AFF9potpzPX/xw59mDUgvTYQkc+ocfVdjFpGM8YwQRH3Ztn4pe+8R94b1R5YsxkHyg0FWVeXHz+86Xvfk47nwCkESgtpO/JZZe+ajv/UJ16FkbuKHUK17KVl7955sb3JfHnAF0LSkwTml9YdvnzJec/VYZXA1Xd2CLjY1NtmQNXVl7/zPdO70itLo+BMdMjiMqJsTVrrn/m2XsCySxrvfJRW+8dZEHkcaw+nzTlK60AqTA/s2PVe5+0vHtFUu5+XFUFVLVqx6Inbn2y5OpHk2KrADEPUFVIVeDJs7dfunVft/RVgMwYW1QLCsvDO7vWXP+oZc9JUFIzRl2dT9fKMTZqGeXunwXvJqpA6hBUL0PM+YjTkzoY6Tjjbz/tyHT7Fp7yLzwZbO8NtveGF/aGW0+EW09G2k4FW2GxnlALJNh8YhDhphPhphOhzHEeboNw04lI5kSUJZJh+00nI819RJtOxjInY5nTsczJSKaX2wnfRjK9cDB9Ipw+EUmdDCd7o4k+IomeYKIrmOgUtF1s/1go2d1HoickIBw/Fo53CQkmjgUTx7hqSpH08XAKFmAJJLp9saOeyJFgsjuU6gkkut3hLm/4aChxIhjv9oaPBBNdgfjhUHx/ILbH7NwyYWq7uqSJda9+zasqKkloJ6SJsqbSumeW7/wqve3T6NufBt/5zLnlI9+2TwJvP/C+8ZF/84fhLR+HN33kfe2Oc9Nt79b3vW++59x41f7KJdeGq4HXr/k3Xg29fj30+vXIxpvR129FX78V23Q7tum92Kb3ohtuxzbeiW28E91wO7zhVui1mxzhDbc4Qq/dDGx4BPds8NUbkJevB1++Hlh/LbD+GtcPv3w9tP5aaP214EtXOQLPXww8fz7w/PngCxeCL1wIvXgx9OLl8EtXgi8IeP5a4LmrkHVXQs9eCj1zfijBp89lHYw+fT761MXY2suxtVBlkk+dSz59Nvn02dRT52JPnDPHDgVbe62BXRLCK0JMEkzHzUD/DsVRmcYooSmhTm6yXfgX66X/kePbAIr8oCQ8RuWWwqxIk0TpABqnPLQxcu4nW9e3wPXclF03wld/LM3sGKnyy9VwKgdghsLIRt/Fn/wXfmJcL0AHqsgysjxhPvEwdO3Hyud6gMY6rtANCu1Vm9+N3/iL9+gDsCABSh3jNWax1pqvMo2mDEBtZvXoT6HOD8HcEJjiAUxt2bJNS659s/D4fXFN8+Mq+willXCtar/4edPFh3Tb82CyHUyySXwrFl34fMW5L7SBtSMLTUDVOKn1pZVXvlxy8aEqugao68eXmB+f5mg+dG3Zjc/8u0+DYv04phFODNPVC57YvOaDrw3bDgG9J3nuztLLD4ocSwFak8dYxjPGkZpG4zNvL7z+QfT0hbwa74jSOkAtKAmvaD9/Z/mVjxhTGuDzR6vrserIE+duP3npDqc44wtrgXYBrzgjiqqHKg6Me8YaZfI6FDeKEVOuwuFvORJefMbX8a6v411L+qg1c9SeOQxJH7KnOjmcma5HpI84s+FIdTpSna4kS6bTlen0pDu96U5/ssuXOOJLHPEkj3hTXTy+xFE/W1nNF+/0J474E4f7OeJPHOEKtvljnSxdvugRf7iTwxc66I0c8Eb3PWojB2A/ckhApzfyiED0oD+yr58D/sgBT3i/J7zf4d/tDOxxBfe7Q/DlvigsMueNHXYE97nCB7zRI95olzt4xOk/7Al1hRI9nvBhuGVoTyR5MBjfO23OSmURdKx+xcZRl8aZokjh1BZpSWKq7ZWWbZ94Nr5v33TX9c6njrcfeN751P3WR963Pgpvux/c/H5g453E1o8ib74XfvNW5I1b8a134m/djm66Ht5wKfzKheD6c6GXzoVfPBd64WzohfM80Rcu8IReOB98/lzw+XOhF877nn3Xv+5MH8+f9fcTeO5s4Lmz/nVn2afOBp55N/DMmcAz7wafPRt89kxf/2l25OkzgadP+5/q9T/VG1wL28CaE761J9j2ZGDNSd/ak8G1p/1rT/e1a84E154OrTkVzkboyZNZCaw4FlzeE1x+PLL8RGT58ejKnujKY9GVx8LLj4UWd7ubYDk7s2+7jPIijJ1Q24dTHKkS2jhznh1s4xSoLfnFdoA3FqbeNJ//F/P1//lY6HWgcYPJUVDozSdsuNINA3ZIG9b8TujC32y7PweVy0peOZW+9s/lq48DdVCs8kBJwg3a2AbvpR89F3+gXM8BpW2kxjxqftx84mHwep/ijC90A62tfPPp8I0/u058CuaEQKF5ZKFllFIvnegZo7WDQmvtplNtt/6SOPEpmBcCE22gqGHeqwfbr3/dcfLTMTNDeRo3QHW098mFFz9PXn6IdDwPShvBROOkJ99adftPHScfjJodGFNsBWTt5OYXV1z+ouP8Jwxr44wrNo2eam/ef2XJtU9dO3uBpn4c05in1ANVvXHjwbUff1v72g4wvSbUe3XFjc/nNL0IsKo8tWUcbQDIgsan32y++V7s8pXR9S5AzwLMvOrVm5+49cma6/ckc5wjsAWPEVVYZWjluVurr7ynW7EBYLNyi+tBUUVk19Gnrn/ctufUyOKasarqAqpWIbBxOMWRKuoUuEGEWPIwlytzKNBx0rv4tD7dacgcMTZ1mpsOmJsOWDIchyyZQ5bMAXN6vxBrer8QS2qfEGt6rzW9156COBL7hNgS+2yJffb4XkdsvyO81x6C5dZcEQHhPc7Qbg5XaDckuNcV3Ot5xKMaZu4wLJPGwhZvE2zPvcoV3M++dqeHLQgH2+BOD6zWBvHF9nqj8IXO4C5HABZR80T3+RMHffED7sh+V/iAO3zYGz7iDR/1hLo8oS7Yj3S6/LsD0f3hxIGps1cQqthvUhzlhBgzJTVeE5ru25TY+iC4/RPvri9du79w7f7C+MZd57aPgu/c8265HX3rbvOO+/FNN0Przlan3y6zPK2tX4nNaR1X6BlJW8eqXTkaSK7alaNy5qhcEMaZwzhzla5cpStP5c5Tubl+jsqVq3aPVzrHK/u2zFW7B6PywhGVl30hbHOVHnY/sF+g7GtFKo9I7Rap3WKVu0DlEilhYG4B48xnXCKlu0DpFjFekconVsLZaLEyAFu1v0Dj5RFpfRyDRgQPveJCn7gwKCsMyQpD8uKAvNgnL/blqz2qme2u1IFA8xFvYh+hDcGc776KE4+8KvYmtjBzklecxLmfEl3fjatYPJK25jE26FgVOQFSX5ja6rzy/1Sf+++yFUeAYTXQrxxduTBf60VU3hzSDYrD01+5Er7+Pwxv3AMz2+gnO5PX/7lhw3VQEh2jcuZpnIA0KBMbHFd+dF7+Afc8B1TW0Wrz6HlQcfw3fqx6/jhQW1nFsS/YfNp/83t9z71R/jVjdW2y2iaiMj1KaxqlsQGtte71U8kLX3s7P8CSzxPhp0oWb4iff9B++9tpy98CxVZZSXAkbmQ8Tzad/zRy9WH1vtOznt/dsLk7dPLustt/nLr0dVBiyC9zAbJucuaFFRc+az97nwquAkzd2CLz6MnW5n2Xl15/aN/eA5iafJUhT6l/rNjg3nVy9d2v5699HZTMdx5+d+XNLxpWbwNEjVhry2WMI5ga2/pdze+/7750rmTpGsrfNmvRi21dV5deuqtbvy1ngk6s0Y1XNigbkk9e+3DdB5/oV24E2Ky8ovoRhRXxXceevnGvbc+px0pqh1OcvolkzCYivZbEXt/ik95lZ2Y43iAWrCYWrCIrlpMVy6lyjpV0xQqqfBlVsYSHLF9MLYDQ5Uu4Dt+S8zvoeX2o5nao5nao53RoZkPUczpUsxf3MbNDPX2Relq7enKbemKreiIsIz8UdpakpbCslaNoYhuHdlIL3LisdRCq0hYBbapSjpY+x4cN2NOUpnhIdZTWxuniJFOSUk3IFE9dOHXeijnVa83uN4PJA8m2nnCqy8OKTiDW4492+6Pd4eRxX+iwP3IgFD84fe4qSpMoLGv+FRtHWRrXTEriZbH80vgU/6bwW/dcW++7d3+t3/bAuO2+dds97zv3g29/GN92N/HWe6Ynuyc4X1DMbEKnJBQTo+jkGDk1SU6OilXO0fLGMfLGsbL6cdJH5EjrOXJlDXnyRp4ceWOuQpf9Vh7w/h5GIfmoSYRAChRGDu4hX3JJghrZ+64Z2Y6whZWZpJhFilkkiJVDhFhE+CPEhFVMWCUkLP4kIW1Syj4IMWXJJ025lCmftBSQ9gLKKqJtIlgjxpJPO9TTWiILj7oS+y2+rbDsHm6AAcqEkZ3K6ZvH4RQHlrBRugEFbRyh4rCV6yy5WiegTKrYFtfl/zmn52dDz5+8J77z93zT0vXFDNtzOahlPOUDE1Jlr151Xfw/56+7AiZlJK1vRy7+bN/7KZjZCpSOnCIPoAxU8lXL9b/arv0V9a0DausoreXx+QlL72eBmz9Vv3ACaGw5hV5Q6Ji/5bT39p9dl78NvPvl0jNfrzr6YOWu23mTfXmTQ6DU1bD53czlb1svfdd+6Zul579acfO72OVPK98+DsrDgGmUFvrGUFald03b5S8Clx/Eb32+5Oa3K2/9MXXh08jJuwX2dlCkG6M1A0XFlKYXV178vE9xlPXjCs1jJtua911eefML1/bjgKmVacy5dGPBDE/82NUVd76c2vIs0M6t37J/+Y1PPRu6gFon1toKlCZAVhrWbW29ezd+986qO/eevf7pi9e/XPHuXd++EyOqrICaJ1Y1jCGqkcpQx9nry6/e4WwcTnFiO48+c/3j9t2nHhvGxulzrGCKg0XEeC2J3f5lJ30rzxTqXlTMW65YsAxZsBhZsAhZsEgxvx1ZsFixYDFWsQirXIiWt6MVbcKWqFiEl7fh5e18iy1YiM9vxecvJOa3UvMWUnNamNltytktylltyllt1MwWelYrM5NlRgsztUk1OaOclFZNSLExcYNadtW5JMkLBN9RliaF9AepJKgiAYUpiqMoQWlD7Hp5mI0G5BI7I1wyE8zTLo1TRRFMHUBVfkIboooi6rL01HkrGq0bfbH9vuhhm3ev3XvQF+mxeQ75Isc8gUOewP5A9ODMeU8qi9jbgfzyzDEM/5sQwyZERZPTUwObw9vuO7fdt+/60rzjM/uOh7at91xvvBd9+25o07XZmbckFW1502PItKRqTotqVjMxKUJNihbOTisnR8S0aby8bry8LldWlyevz5fX5cvrxPJ6sby+QFEvQhoGkfXO09zgcLdtFCPsjSXZqC3hXdb4+23LMX2W+1uiJnk/MsQoQ4yDtoF5CezNM7n7ZPL3RcMoGM4H78NLm2WMmb3pGrxdLMJY5UqLXGnNRY3qKU3BzKFwc5c9+I6McsspM0KzeVhs7EZfWSlo9eiHKs74cmjj5NM2kdKRr/UApVUd3eI8/39X9P7N3P197PRfA11fdZz4dorp6dEyU742OmJ6++ztH/tu/b8li46CktjowMveM3/2934/omEVULtyin2AMZLp1yw3fjBf/6s8+BwotI0osj++IGXv/Tx88+e6F3tBkQNuVuSY9+ZZ7+2/2C987T352bJ3v17b89mqHbdEUwPjy/xAY9G9cTZ56ZvIqYe1m0+Y3zjl2Xc5eumT+MVPStpeA0WWPMYBFDpt8JklN7/1Xbw3483D6vaX6dQ6w45THde/aun54PEFoVFF5tHFlmktL6+69GXH2QdM6AmgbMgpto6b4mrbf3X1rS997/Q+xtQr1OaxWD1Tl2k/9+HS6w81znZAz52+6tUVVx607L08rswuZswyleVxZZ1p3ZuZWzc9l882vrHd9cb+2I4TK999f/XN+7NXvNmkvLUAACAASURBVJA/US/T6scQ1Vh1ZOWV99e+d2+o4izcdfKx4ppxymoROdirgktXRIMCN+QhRhHjdWT2B5afcq84XaR/Ca1YgVQtx6qWoJWLkIp2WcVCWfkiWcVC+YIWeXnz0FaxoEWxoJlr5fOb5fObuBaZ14zOa0LnNOGzM8SsJnJmmpyRIWdkiOl9HXpmEz09w0xNqyanlJP67q7D5h5x2dSPcqr5OBeuw6UcDUrg5hOPmMJYFooirNwE2GCcABsNGORiAgm1XxipTKj9hNqPq3yYOiAhnIQ2Mq/mWW9oTzR5LBDpcvuO+ILHQtETvmBXIHIkFDsyY+4adrE89is2jro0rp2coiYlcooiU/ybIlsf+Hd+aXzzvuWdz6zbHrjf+ii+/YHrhbOFtmcfnxgYPyWkmJUgZ6axKXF8SpSanlBOj9NTIqop0aKZiRy0IRepz1dAChS1IqROooAUKGq5hyJYowT2uYf58pp8eQ3/UIzW99P4C3okfIq7X62MTcnrb9lMGRS2UqRRijTK4KrEgLvryhEdX11FgephqjdbxW7gXatN3EOUNMhgmRtYSY/TJliGhi27JyasRdNaHcFdsZZjdv92KeaSExYZYegrXte/VsWtjsOXsDbO3GcG2zhSlbNA6wJoY0n6bfeF/8tw/n/I2vaAuuWgYXle3bIxKrdEExinCYPZHYbeH41n/0ZEtgN1CNiecfV+F730t7H254HKk1vkA7RJmd5gu/mj5cYP0tBzoMQOSuyjy1OOk1/Ebvw3TnHGl/pBiZNTHP3x+6P8Tz1WkZJVNmFz0zlFrrxSPyiyN755vvn6n0I998E8P5hkAdNtczd1tt/+NrTnGii2KiaEgaKRcK1Kn33QfOcP8kXPAWUVmGCShFdmznz8xLVvprXBtCmAVU5re+WJy18tPfuJOrQaKBtzS2xjp7raDl5bdf1L/46TjysbpErjKKSm2LZs+fUvll79FK2PAXSWJr16+eX7K46/nzfTk0vp5WrrCKLctO7Nltu3k7eugVoTKJoDtPN1z21bdf3jVefeG1Nan6use4yoQmsiKy6/t/L6+4O8Kt7GGaQ43NI4uzregFHGXKkun3J7Wg/7lvY6Fp8os76ClC9XVC5VVC2SV7ZJy1skC5pFC1pEC5ok5QOQVjRzQBkqb5YtaOKRzs/I5mWQeU3I3Aw6JwMVZ3YGn5WGojMzTcxIkTPT1KwMM6tJNSOjmsbeSGtyUjkxriqLayY8Ql0ay4pyQkw5gXsqwm4QUZVE2VINsKJDfzAx13nU8omNXIcr5MC1dGGA0vqZoiBX7wHmJ2l8uMrDlEYJbUjB+CfPWO7y746nT3j8nf5QtzfQ7fJ2BqNHw/GuWfOfUhalYb5Vf/ifujSePeYY1pqYlMorik7zb05s+9T95gPn9s9t2x66tt73bbmb2PIBUbcqd3IUnZNBZ8XkU0P49Dg+Pcm2cXJ6gpwRo6bHmOkRzcx4Hm18XF6dg9bnIDU5CCx6NE5ekYfBzlC4ekhcK8JqBcD6bELy8fpBFBANPCKsXow38LBFnhq5VkrCOlhCYGHKgSP8QzllklMwck8I1AuyEaV0rACZMQIWu+XuVyVGudzxQ6HkES7LQYZzNYZhVT2YaA7Tr2BaFlsfzyRlXICwz3v2VObSP6e7vx9b3jGCsoiUDiljE2tcADcUpd50nf9X85l/FQc3g+IAKAuBIq+kJAgTshh3vnGd7ezfGnt/EtteAyUJsGChYc+95OV/0bTtBZQTZmYRlsL4RvuVv1iv/kUWfp5VHNvoqoz31FfRyz+YXjsH1OacsiDQWuZvPe++9sfGwx+AqiYw2T+uxJ2nhuV4cjQuoLHWbzmbvvZHf9eHYEEYTHGCUj3d8XLb1S/bez8pqMqMVdoBYaQ8qxde/Dx9+TP1kpdBiXHUFOfI2mi8+86Kq1/pXzoIigxAq5vUsn71la+XnnnAuJePYBpytGZQZmk9eG3lza8cbx0brdEpSuwAqZzb9PKym182n/1g/AwbYMoL7OlF5+8+dfkzxrwQSBZICy2PUZWGpzZ33H6v+drV3EbniLIaoK3Q+jvW3Ly/6uIHeG1oFF01SlVH61JLL9x66vbH9UtfAeTc3GI4j5PY3f3sjXttO3vHlDXkqGsldD3Klt1BuLuY442c4iiwRglmySecrqYD3iU93hWnSs0vKhYsQSo65JVt8qpWWWWLrLJFWtkqrezrcyPCVl7erKhoQSpbFRUtsgVN0vkZ6fyMfH4TOr8FnduMzW0i5jSRc5qoWRl6JoSZ1dTXmZHhFEc7Fd7eTzUpoZwIPQ+mlC0FUxrTlsYLJyS0pXEtrCED4QSoX3Ei6gkhdWlEVRqEBWFKApx89BeHiSiLuSo5nC0DK+ENqo2nKg6pikPCCnl8ny4MaMtiKONSlYSZoogEdU+esdwbPBCIdEGtifT6gsf8oaOh2JGZ89Yqi6DT9yuKA+NxSuPqsqSoMDrd83p6+0Pf1gfOtx64tn4S3PYgsfVesX193qS4YmqCmpGUT/Cp56SJaXFiWpJt49T0BAczLUZOCqmnRqQq6xhZdR7akIPUPC4p5yqt8fXWhCrTpzUIrMMGSyJhsDASC2/swI5Qevg+ry98B+bjsSVXJAQ8jSREI1dlTsbqi7CVErAG6NBWTsGqmly9Xr6VUXooN6SOIM1cHVKuFClGwbmh4kmtwURnKHnE5Yd5Vb+sODDZknbBtaozP0Q6v3l8wSIAJ4NsCqUDKfECyqiJb3a8+384zv4rGtgMVN4xE+O5JUFFSTBX7QIqNxba7Pj/yHsLIMfuO9/3jGnsoQbBYT6SmpnUUjN3i5lb1EzDTmIesJ3EMKaYYhrjMI/tsccQO4YY42Qd3GSdZDeb7Lu33n117337qu4+v/qdv1qjITvJJpvsfVXf+tfRkRpGNfr0j38nfz948LNLh2/AKuKYZabz/jfip/9L7Q2HMcGvK0+sYJ3l47eHTn3mf+kzPLoNM7lB7engoR8lnv/l8C1HMcVxZUUIK3Ob7zkRfu2X9qffxTqnMcW9khnTiC5c9pYYgli5v/euo5mXfxp55h3MHMOqPJhxWJq/ZeHUD2f3v68ZmF0J7RRQjzNz4qPpU58Y52/G+IHLDTbMHMzuffNr3/nZ6DefxYxDmDJQNXPzta/+dPPJj8sT12FM70p5dEWNc2L3K3MvfuB58AAm9BWXOTChv/vq+655/5fuRw9j1aNY+QBmdS2e+t7XXvmBMbYVY3uKjfYVXKft2l0bXntz9tRLJd2uy4xdmGA1+Oe3vvzOlpfe5m0ZTOhawfcQ/eMbT75+7Wvvjn11F0Y2rzb2YYol/ci+bd/5cOK+PZhkXSX2IOIQJBi5eRuHIAf05KCGHFtHu7yTjweXgDhlY9vx9nOJo+34cuLoO6bPJQ7gZopunWJaJ7mWHGUQa4A7Km6khglZxY2hNivXZiTV0kHQkcrH5TKAzkWIE5fKVeJURIE4ZWEgjinEm0LLxIG5VIWGDKJJIXS+gDi8IcgpAdYAkisSUnmS4GK1TV+Jjj8Xie/1h54Nx/Yh4jS2fY03qA3lX2zjyGXJsnIgU6lhvN79jakHPonf97F317vhez8cv+f9rtknLjNEtTUpsnqcr03ydQlQbZKvTSPBQtW6lFSXkmtTUk3SUJtUqqKk4Fij6VlT3FGs7SnR9WpU30qj77ugtDq4r9P3a/F+nf6i0uLwgrx0BNSq54QPgaOknmheFDrRxNzzz0L6FF7rVRsHeUz5U8eMoq2MKm6cLJVbIEMyUOq+TJznvKFv42y0kDgEDRsakI0Dk5w4WylkuN2tNxxKnPjV+J6fXtm9YYXoWie4iuixUhkmYxnSd3pO/t517Pe49+sYbl/JQVJcK3khrmzwlm18wnH8H7v2/Awb2oq1TmC988LNB/uO/n3b/d/FTNF15QmMdZTHb4u/+Kv4qV9z4Z1Yme/SqtAV1unI0Z8mX/xs5NZjmMm9sjyIlXvMdx6Ov/ZL95PvXtY1t9LoL+FdrCFAip41jBPjx3rvOpo+/VOox2mNYRUeTB42zty88OIPFg9/TDg2YoId48bY0NfmT35/6eVPyya2YWTPGtmO1Thjj51af+oHjnsPgi9WPlo+s3PLCz9Yf+QDY/SaS6SRVSbnZc2B2GMvzr72fftD+zGp93LjCFY+4ti1d9O7P+27+0lM6sAq+rGWkdieF5de/tBy7d0rykZWGccwsdtx/b1bXntr8fnTeIdnldyDsR1Gz8LmF9/ZcvpdU2QJk7owqVfbHd188jvXvfbuwKZvYETjqrL+S8q6wvc/deN3Ppx++OCautFVYk8J24dTQ4g4peSQRrVxConjmXjsDHEsS3jHPN4xq5otk9rOSWTR6K0zF5TOMq23zuCq9JZpXfuU1gyhHKJtJkeclim+eYpvnCyU2DAJUlcVIxtHrpuQatWYTmUKOU1y2VnQQZaOVA4ulVBxFnHy0EHoyZ+IQXCiab9KNDd7VN3EXUic/Aw89SLIG4KM5FMqIrToZiSfsTpD8mGKH+/ovTk6vscXfGaZOM/9EcQxlcGWT40xWeu8deaBjxP3fejf9U7ivg98218qbp4vqkiJzbN0ZUKoGTc1Z5mKsFibFGvSkiq5NqMKiGOqz/LlMVNtsqwmQTC2Ik2vRjdQqhInzxqtru+CyrMG1/UjEcsX6KFOD/fzL0Oj/JdPwA0SWjOCTkKd/klSo3mhO4WDu9H4bnQSDIwKRzNGC0+Y4w8GDuyrUokD096WiTOn2jiIODkbByjDwGgLRBycA2bpORgrka85jj/740us8xgzeiVrww2+UsWD0cOm7F2+U//iOPZbKvCNFUJAI0UJOYwbfOsqg1iVr3HHodFjv7Y8+2nrva+27nqh/p4XzE+/137y5937/g5rnby8PIrJHlPy9vEXfpV4/jPGcyMmu7GywIr2ifCRnyRf/Gz0lmOY7Fhp9GFGl+WOw4nTf+978nuXWCZXGf060U3yTkJwaqCz3NN797HMKz+LP/Puitb4ZeVeTBwum7p58YUfbDj2AzF8LSbYMGGMCnxl5tiHm179ScXE9hVUH1kXubw1lH32O+tP/SD4yPNY5Rgm9dWtv+2rr/7kuld+KgS3YsIgJg1jzf703u/Mvv7JwL1PYxUjmGkYq3fEnz4989LH0T2nA7c9E/jGbtuuJ5MHTk8+/47j7mcx09BVFXZM7LFfd+/mV7+7dPwlvN21Vui+hLIanXMbn39ry6vfq0l/BRM6MKm3tDO89eR3vnb6rcGtt2G8+RKx45LKnsC3dl//nQ8mH9y/wtCFiEPQw4U2DkToyH7wqqixtZQDiLNhb2DLwbKx7fqziaPv+BLiIAwVEkfXPgVh47YZunWGaZnimqe4prNwwzequDmbOBI8nBBQIFl1r8CHMiXyZk7et7ogccTyyPncOZ84PIKOShzBGMl7VecQR1SCvMEvmoKs7KUE+MsklkESneJTdvdD0cQ+NaDzXHT8uSbzNZxyVuP4heM4chm0OPBlGU1Zqsp5y/T9H8XvfT9673uJe95tST2wuirNNc8x1SmpNiPWJvnqmNyUVm0cgA5wR90ej06+OqE0ZMTquFgTNdQlCNm1WtOjpqhyIWQUSC69kLFzxngBM6dXp+/F1RNd6/S9WhxuavGcdATMOlE1oEM2DqkO3C440Vxu+B+2rNwdlUSIPoVUomjYWJDH05kLdY0BbIOiXBTlounziVPgVbFjhcTBWTTQC4ijl4MY74Uuhxd+E9/z0xWdC5jsKq0IreEcUE2jEsf54u9GTvwTdH4z9rWcr5TzrGHHLi/zYA2hjvtOu1/6l54DP4+8/OvYqV/EX/2N/aV/sJz+rOvEz1YMb8YqQpjJI6dvj73wWeyFzxjfdkz2YhXhy3sXvYc+jb3wy74b92PsCCTRZUffXSdSL/198Nn3sebxy41ercFbyo5pebvWGMDEsd67j0288vPkM9+7tDWxssKHSSNlUzevf/4HS0e+b0zchEHNjpP0Xz15+L0Np39UMXszhneuMjmxalviqVcWTnwYevAEVmnDTMP8+DVLJz7a+MInYuQrmDx8WYUTq3NEn3wp+9L7A3c/hVXbsPKRS7qiU0ffnXvxo8WT79/y6o9vOf2jG1//u/kX3ll4+b3E0y9iZUOXm0Yxvmv02nvWn/7u/NFTulbXaq5rBWkxOGY3nPzu5lferZ+4BmPbMbGntDO8+fhrV596o3v9zZjQvkLuvKJuMPXkoWte/d7C48cwlTiFcRwtDZs2YNYy2a+nhkqpsdW0wzXxKCKOafTG84mDPCa8cwYFa9DDc07cijJWU3oLpKtw8ySBXKoLEAdcKq4hKzRk8zaOXAcPQXUZ+IhVp1AUWSofVyoSeckVibzAq1oWivhebM5vzrda3miQd6zQHgRRCZ4jCd0xhWnRLRgDckVIHZDq5ZUYzSea26/PTB32+HeH49Az0dx+LSunvjyOA43jhnGuLFNiSla5b5361vuRu94ef+AD/62n8e7N2sYZpn5SqMsoDeA9MdVRoV51r5YdK6EukxdbnZAaMmJDUqiJy/UJqTaml52rdL3r8DO5qmK8rxjvQ1s78gACBql7PFTuAFnyyiMmf6EhejVEr5aEKdlI6qz/YTTxv/DEaUhLX0BnEydPlgsSB9JYYPuo47hU4qBBBMs2zkwkDZFjNY4T1FJqNn3ZxkGjAtURgkCcUt6Lse7Wmw6Pn/qn+L6frehaVEvyPOsUr7YqhgkOcfyOoWO/GXjht9rE7ZjsKVLChCFcIrsvq/RhfVP9u99xvvi7ynvf1C88UJy+lVq4T7hpX/Oxn/S9+FlJ9FbM6MeMHj57e+DkL8Inf0kGtmOiEyv3r7Rt9T//i/hLnzVvfgzjbaVl4RWSc+SeF1Knfh4/8AnWlsAMzmKDq1S06RSnriKIyfa+CxFn6eQnm078nSF+I8aOYLKDjV23eOqHSy9/apjejpnGLi13YO3BqUPvbH3509FvPIMZh7GyETy4aSPUHH/UsHQbJg9eWee7pCM6vvf1hdc+Gb7rKUzqxaQ+PLhp8YXvL5z4oHfbw8bYV+qzN5iyXx34+reXXnpv6dhba1qDGNuNib2j139rw6vvzh0/rTN71wg9lzBdJtf8phfe3oI6OXkrJvXifYlczfHX7sRkKyZ3XFY/OL335IYTr8XuehJjW/NxHJKCzROQVVRHu8P/InqgWCWOc+JR/8a9ga2HjGNfQpyLQgcS5FN57hQSh22aLLRxuIZsXnnoyHVZvj7D1mf4evhk5aEjlcfzuFEKcKPGVs4QJ48eqRwCxnmdH8cpjOaoxAmdgxtRCSLiCHKANwQFY0Aw+Xmjj5FgSqFoTIrG6VjyWW/wiWD06ej4M4g4SkX2y7PjvGGcq8iuNSYqPV+fuP/9wK7vpB7+oP8re1c3T5U2TND1GVPrrFAzLtWl+PoUVRVD0RyuLsnVJfl6uMmjN6gBqgGlprTUmGIqglJdXG6Il/Jj6/DedXh3YcwYRYiL8Z68EEdyNAFDprtQGqL7HJVSPTmRfcgbP/9EpXfLJ4zjUwW7k/Jabu+GIhoovWHzDd9qWU2u+RumGoOXRLso2o0mv1GsKxc5Tj8ZzTzlDj+As2cRB6Z8sXZk4xD8GM7bgTiCr2X7kciJz6J7fnJF/yZMcV0q2DBy+ArJjfH2qtkHHa/81+4X//ny8C2Y4MAo51rOczkzjIkjlzg2jh34oePU70o3PQM5LNEDjVcDW7r3/Njz0j9XLj2KmQJYhZ+bvtN9/Gfu4z/DIzsxoxtrHtdN3R545dfBF39BR3Zisgsvj14huUd3Hc+8+FPn7jchUiMOY+zAldzQag6WN2Blrj51lkXyme9d0pZAXpVpcuf8ye9vef5HUuQ6mMou2rj49Rte+fHC6U/L1n8do8yY0l/iW5o69t7Vp3/UtHQ7ZhjGjCNXjUwsPP/x0oufdN7wMMZ0YlQHHdoyc+TdLd/5tPnq2zGuG6M6amdv3fz8J4v73i4eTGPGfogccy2kd2b+8Bubj75tcixhdBcm9Y3e+NCG1783feJ0abt3ldy7gus2uBc3nnpn62sfwLQKNY5DDgBxrnnl7a5Nt2J0I8a00KOJpWOv3PjWxwNfuw0TLVdJPcVcXz5XhYijZQdLyT7YJ8HYrqLt9slHfZv2+q4+ZBi9QW9Z0nXm4zgQDwa/qWNa1zWj65pCUoM7k/qOM9JZJ3TWidwdC6TG8zaOSpxcooprmmAbs6rSXGNaaEiL9Wm5Hk5WJQ7bAJ8siGBUQ7BGLIupxIkpFSC5clkQzUWp8XMz6MvZ8fMjxxCdQRKMIcEYkgwgII7BjyQpfiTwqiS/VBbhDX5acvFGj1gGq7IYEaI5Q2N3h+PP+sO7I4mnm9uvpeWUWPEHzMcRjEm+cmK1Eq/yfiN7//u+O15LPfxe69zDa5snS+rTbPMEXTdOVUWYmpgKlOzFiMPVJcXGDFsbZ2piItTpRLmqsLE5uYZQzRyiLw+dixIH719GT7cW79UQuVO92V14lpJ9QBx1Gcj5rEF3llkzjIb4IdzA0qWC7NUfSBwUl8lPmYTFD5xXjRzPIRvHHX5Ix4U1anZc3QMFcR803J9kbQQPFYNFgg+Tg+YbDkeP/jJz/NfcxD207ybRdW2V5ya8Yx4T3crkA7YXftf34m/ZrzzNpe+siHyzPngr3bOI1QbXRm/yHP2p6+Q/rQh+A+M9qyril5hiWP2E/fFPokd+ZfnqXmjCMnmZKSBO4OXfyFseucy+lZrZ5dzzoefkj937Pr6sYxoTHFpD+HLFO/rNIxMv/Tx86GNNZgcbu6E8fF2972uMOXWl7MDKXf27Dk+9/LP0U29f0oLiOEPGiR0Lxz9ePPwxEEd2YIqT8G6ZOfbx7Ms/bNz+EB7eJKWvG7prL1grB96lXesxw+glZXasxhH79gsbX/gktfuVsvHrNaMzjnsPThx+e/7Yu5RnbmXZGMb2dGy8a+uxjzY899ZqawSTe1aUDV1aNYyPpLcce2fr4bfM8esuFfswvmf4+gc2vvLe9NFX15o9l0u9GNNpcMxvOv7W1ae+15S9BhM7Ma6D6o9vPvTqNaffHd1+L2kbr02sn3xw79aT37n21NvkcAzjzFcJvSXsgF6NHOf3F+qYwVKqJ0ccyuHIPuLfuD+w9Yhh9CatFYij65rBO6dUgqjEsYJLpeIGTm3ndO4pgM603jKhFgFO4NZp3DpJQBxnkjBPqqnxKbplIp8az1s3XOMZ4ogqcZCNIzSkhboccfjKOF8eQ27UOQaOauOcy5pc7lydJYrMnLNtnC8kjsodCQwcv3oGJUOIFr28wS+VhRjZTUsuTgnQQpAWxxvbrh3P7PcGHw/Hn2oyX8MoUP38Jdlx6OQ0jLPlmaKyVJX71uyDH/jveiP6wNuif2dR6zTeNkG2JPHGqL4hQjZE+bqEVJf3qpJCXSovZPKcfaqJrTpwr7S8bbWmZ62+B0ZY432leA9sDsJ7QCiThfdriQG1ug+lxns1eH8JkTvVysBeqPEjYYbbWScxsOxVofkDZ87CqLB6jar4cptz0f7cwggxihyffy5XIdto1s6wYwzaeM/5NbivvGZ9NP0czAAMP4LzCQ3jp1gPRzpFwi6QII5x0KyL4FwawVdsimKsq+e6Q5tf+S/po79OnfhN8uQ/zpz8zY2nfl+buQ+TfPLso8EXfz9w6Jfuw/8w+fK/JI9+tnDqnztuOIRVhoSlh1Iv/Nr97KcrRr6KGYNXSJ6VlXGsOuG87aWlQ7/03fYqVpvBDAF26lvjL//Wfuxn0dO/GX/1t9k3/4/4i7+YO/0rZfp2rMx/hRJYpQQxxTf2jWMLr/9j8vXPwi//JPPyTxde/Mn207+WXV+9RHZhVd6xb53Y+Povp55466qW+MqqAFbmEmLXX/3yzza98KOq6W9g8igm25TANTe88sv0sQ8nTv9g49s/X//6p/MvfHTTm78YvuERzDSyutK9uty5wjBSFf7aLa/8fNPh9zee+Gjj6R9On/7+4qs/9N29D6scvVwcvJTvH//G3h3P/zDz4ImVLZ4rTMNryseuMA2uqBjc8OyrN5780PuV+zAOosK+7Y9c8/KHW46/VdwZWiH1XM53y4PZrxx8a8crn/Rv/ibGmzHByvTEtr34wZbnv/uV029uf+v9a069sf30O7e8+uHglq9fVtZ7pdC7lodVhXpqqCB1gPZt9AB3GKjH8WR3Q1/V5qNlYzv1liVtB4LLhL4jq++YxPNZqmV7R01OTavR4mm9ZZpon4LqGzVgjKwbqDYG4mSZtimmNcs2Z7imDN+UERsziC/ozH+OgDLL4VG5LpcpF6tTUhXkrVDqCmXN+fJEvmBHLo+fL5SBOv8s3F551rUcBsScdy57W7B7Dl2r9lGYFiJVdevD8acCkadiyT0tlhsYJS1XTeSLnsWy8QtXACLilJgQcT7y3f1G9P53hcDOYrU6mzQn9S0xbVMEb4ywtXGhJo4ix+jMv1N8LThZ54sHszDOlQcJwVmED6zVQkynVN9Xou/W6Hs0+jxxBrUETGMrgM5ZVTklBCDpglKbG86AJv/wPOLAWl40sLYQNDC/9uI1x2CwqJPYIV3FjanEGaNhT7lPgwfKqpcKiVNK+3DGy1LOHG4oO087GMZFsR6t4FvNey6TfF0zD2ce+F7oofe9j3w4+MA79vvfmXroo1oo+YuJiXuDT3/qfurTsQfeH7jnzd5733R8+3vV849hlfGy6W9N7vnUe8/rl7VOXiX79GWhqxQvxtn6Zh7a/OjHkW0nL6/JYkqYj96ZeOZT9+6PbE9+2P/tNwcffGP0npc19k2X1PgvF5waU6RICKyU/b0bH08+8a7tsddtT3/X+dQb0afenn7sLcXxlStExwrF0Xf946nHX52483mqNbWSt2PsoOjYMvHw6YUn365JbLtUcV7CORmhoAAAIABJREFUDlfart7w2BvJJ15P7H3T+9jz8adfcd+xr3nq1rXN4cvEEbwmtJIZKinzYPrOzuzXN+x+Y/2+d6cPvpPa96bz7v2r2sIY2VUk2VaxQ8GrH9lx4IPQzqcwAUpvShXbGmloXZUjeduerz3zhn/zPVdKfZeJfbb1uzY+9erUg8epzsQlfM9KuptriWx95OVNj5+2Zm4EBrFdSk9q7v6js0+cSD72XGr3c5OP7wvf/nBLcmtRve1ytqtYGs6tRVU3smvVOE4ueEx162FPng0qANNPBhePBDcdN43uAOJ0Tmu7J7TdmTxxcMtcYWocZabQqbJmmjSDiLYptepP7W8A6GQp8wTddhZxZNWNQmf+cyTUpaSaNEoBKypxUHkOlAWWJ4XyJNp3cGYGeXkCcud/LuLIYSBOoc6Ek8OiEs2nzHlDkBZCVXVLfzpxio3JStct2Qc/8t/zZuQBIE6pZYa0TFPWNNE+rmuN4c1RtjbOV8fOIY5YD+afUJcqvJ9HDyKOUhsXqyKE4CjGB9bpoEinRAfcyQtFjlFfwnKvw98Ocdwk44Ydrzni2GHdPRDHV1a9EIXtMU+7ow/qhWgJ49FyMP0fh7UQYBOpcsDrOQfs4WSdJYbgGmN4ZVn0sqrkpTWpoqYZbXlSK0cup9xXGGJXNE1jNRmsKrOyYWpFXfaKhszqiuQKxn1lWfjKisjqysRaJaChbYzgwkWPRvbpTGFtWVQjRUvFmMaYXGMcL2qawcpjl9SlL2vIXFqZuNTgL6oIruOhBlrk/DTh1hBOvDJRVJu4snl8ZVsKq/RdURnUVUeLBEcJM0pVBtdW+4rrgmJtQkeOsLyHkTxFonOdyYXXRosUJy16dfgw7MatDK6s8FxS5cFMDsxoX13pWy07V5JDRaxNK0A9oU726MsCl9FDxZUBoWdWGl5a1xS9oty9UrIXi3bW4CvCBzWKa53BeaViu0oY0XBjUMzN29exw6sVW3G5mzB5ipjhIm5EU+5ZU+G60mhbJYzgCowEIRX3ldyAtsarqXSv5YfWkn1acay4wnmJoW9ti21FReflld1XlfeugIHqPVrZto4cBMosS0PbSphRVSM6qlclzuhayunNPKH2jh8xjW7TWxdyxOlJ6zvT+o6s6iudVYzzxcQB7qg2zvnEkZqyhcRBRW3oc7RccZI5nzho60HhBiehAkp1/kaIQ8spqTL75TaOYExyFdlziMP6d5RYZyjrDNOZJTtS+vaEviXG1CfYmhxxuBpwrwrZfDHiyLXjUlVcrk6IVRFKcherlg4sJ/vPRhyKsS17VQ6K9WgIj6l2IZLdHZt8yh39ll4MlrDQslAqODVqqyeeW+aJuGPX4UOc5CY4h5ZzEsZgqRJYzXvWcYAzlgPjaC3lvEoJr60cXyUGL2c86ypiKznXWtKuF7zwesmrET246GE4B6tujyMEJy56SMFH0B6WD2kIzxqdAyZAS0FNWRyvTJRKAQ3vho52epSn7UbWo5BuoxgkOE8R61gruTXlIY3BSxj9pOiiRKdWrcZeK4yuYUdgia1+lC4d4ih1lKrsXoMP6BmbIngl0iGQdliVp7iKTe7V7Ngaxq6TfRrWhXMeRg5qKGjHL2GdpCl0uW5wFTW2Eh9ew9jXso5SwVnC2gnBzXBuVvByZeES3rGWG9WIDl72EsQoDHUWoYezmBvDeQcre0vwIQ1nKxZhpTqpeEjWrtUOlmoH1pGDRcxwsdolqyeGKQ62fa7mBq/ku1aJ3au4rjVMp1YaYQwugrdr8CE9aUPSUjYgjrrcvYQZ0TJ9iDjraJcnuzu8eCi46SjU4+SIk9F1p7VdX0Ic1aWaJtrPsnEQcaCvqj1n49AtGbYZvCqpKYtCxYg7iDjLxbSoxu3MiWrf8ktWCs2cvyJxKD5YWbtYaOP8ocSRTCm+HIhT4bw5b+Mg4hAdM0zXBNWZ1luTuDnBNCW5usQ55kweOoXEyV8vR7/iUk3CWD+OLJ1ScqgYzxEHGTvLNk6/Gr4517opJWFj7AVdKi3EcS7gUunI4T+fV4VsHOe5xKHcZfXz0Yndsemn3In79HKwhHdpRFeJ5CqRHBrRoRXtOsGOC+oqCH6EEccEg5PkhnFOTZbDxBx7KTuKU0MsZ+Nlj4azrRacJaaQRg7ojcG1vF0rOWnJRfOOEnIIl5yUwUNKdpwZFAx2vsytFUY1gk3L51b3wSJ2OUgbQrjsR0sIcNYpKD5KtDOCneVskuBkiFFB8OD0GGvwEbKbFF2M5KE4KBoiRBuuOEoVm87o1kkOhnOIvEvm3UbFD5FvdowUnZzBy9I2hXWJLLwbOsG+lh7WC27GGCRFD6xdZ+x6wa0T3RrRpTV4V7NjGoOXq42Xco4S2ga74lgnzsICXOAL59Dy9rUUrFHXck4dMSbKARSnJCSvurbFgbOw2xNnneuIkVJqjBXdnOCmyTGKsiHLUU/BVkJSXWIHJQj0YDHRxRnHeMVGcsMMb6PoMZwYFgQP2uqDU3ZouGXGSllV3LCO7UdxnCLG65l4PLJ0MLTlSMVojji67hxxtJ0QyoHOqeXCYnShNoujIA4QJyfVqzqfOCiUIzRnEXHOQKcWamiXdYY1eXtHqoGecqkyLVXCxZmNT389G+eCxIFRG2XjeV04jiOXpfnybJFh/ILEIbuyRGda15EkrEmmNc03pVAUvZAp5zDonKeEmnGlIWNsyMq143J1QqqO0rIHDa/Iu1d54kCI50wTOaAH4eZvgzh2GswcuxrH8Whpj6lhNjr1ZGRmtzNxn1YJIeJoBXXJEe/SCQ51Z/kYxY1R/AjOwGAEgh1i1K0pODdKyQ5SsAmyg2FHKA7GYpQKzlIZDCUt5yQVj5YBHvGCjRHHqGWx0qiG7tUwA1phlK/04zzYIKLsgxpF2FUCIzVI0cXKXpZ3kfQYJzmhxUzfR3NjFGPjJI+WGiV5Jyu6Sdomy36Wc7CiQy/ZtEZHiWIrFW245FL3rIM/CLPiBSdn9Os5Oyt7cXKU41wEMUrSNlr2UAYvzsN0Zw05xspeTgmUUiMa1oEr7hLegRs8Wsl9lb6PENyc4tMTYzzv5nm3RjdIMDZadLMGXyk1QgkeHQ3cpDm3Dh8tLh1AS+IJzkXLPpVQXlr0cqKPYux6YkSHDwNuKBsL4ANri+YdpeQQJTp15CAn2khqECf6cWKQIkZocpSibAQxira+4Gd6+tWWXXZYyw7CdlDOtZbxeiefQMSpHNuBbBxd14SuO6PtSqvEgRx5IXHyuMnbOBcjDtk+QbZl6bYs3ZLhm7NCczafEQcz5wxuUnnKnHOBcHMudNTe8b+KV3U+cSgp+UcQp1gZr3ScZeMUq4lAojur70xpOpN6a5IxZ/jWjAqds4LECDHIz4IKAlVgIqoVyVxNSm7MGhqzYm1Crh1Hlg4pOovxgSI9DNAp1Q/kKwDPIU4eN39V4sBGPYjj0GeIQ7C+AuI85Uzcr1EiRbxXx/lpxsfRSB6OdnGMg2EcDGvnBRc0TEC0YlTN3EMFEHCHAyQxgpOWPTrRrRO9DCw79uvoMYqz84KDVnu7YGeWaIdX8jZecnIS7MMmeYgZoV3GNOdlBT8tegnBTYoePWdXi7U8pOCgRCcluARjABwx4JGHFr2C5KdppyIGaBrqhnSSs9Tg1Jo8uOwl1M1t8DLZpxfcesFdytjBGRTcWsrGiT6G99CcW884SvARHWsjRfg10E5uhnMIkpcRgGhaekTP2CjRSXAOkrXpiRGWcwiMg2cdvOxB+7wpxiYIHp4H44XloaRb4n0KH2RIlxa3UaqxU8KM6hlbbt4QPQY+oOBC8X6CGdNQMGKxhBnBebueHWMEO4wWpYdp3oHToxTw1A21UeoUJPVUcwVqJToaXaThbCVQ3u33TD4ZWg82TuXYDpjCZc3lqrSdWW2nmv++kIFzxrRZtnFwM/Q3qIKyY7w9mycO05rlm7Niy8SfQBy5KiNXZc4yc85Mq4A6wEL0nJ+lQnfOyk8ZImceFgaM89cXjxzniROMPo1yVZSUFMrTeQPnorkqpTwDXpUyXmHfeZZXpfawEd1ZbVeqtCup60jSlixnzvItaa4xydQDdNjacagDrE1yNeNI5xNHapgQ6qBkWWnIGOozcu24UjNuqEsU4YNFMEkHiIOgo8X7//aIAwXHJKviRiUO/NlnXQTr01BuU/18ZHJ3ZPppR+LBUim+jg1p2RBDB0XSz5N+nvLxlI+jPQzjoVkXskHQB5USPKzs1zMOWBHLOeDzw0FERst5tayPlsJ62kNzXopxMoyDpu28CK4Q+mtPMU5O8MI3BKPAy/A+ivXRsFYtQLA+nPPhnIc2hHS8h5QDBO9Fm9hw+P4BDevRC35WiWhpN80GKNoriGFG/ULaECqVvDpDAH4H2o2LAZ3o1wq+Ut7Llsd1ol8v+HExoBf8BA/SUW6a88NWZdmn4WwkDxuQGcYhcC7I0FE2jnGANUSNcZJHT40ygosRXBRjhxewwCBCAPeK5T16zTDLusHM4b0E7eK5IKVzilyQYP0a3qtX/MWMjRMDJOMkeG8JbdNLvmJqjObcJO1geI+Wtxdzdo3oKIHdp3YNbcN5l5ZzalgImZUy9hLaoWEhtKRl7FrGDrNEYN/GKEHBRQlsSXeuY31rmKB7Yndo/cHg5sMVo9th4p91DlXfFPZw5m2cvIHzBxKHMGeRmcO1ZIWWicLCP9QLvWzpXMCrgiiyipu/WeI0t1//RcQp5JBkgtUxRXKiwr4z88CHvrvfCN//DuPbXtoxi1unwcbpyWh70tquFGXJ8u0TYltWaM1wzSm2YZypB/TkuQOZKVXIIISm++pUvg0CMn/LjeZKzXh5Y1bP2ddp+0vJ3BgtHTkIfhbRj5ohkEuFyvnOsXEKuxkK4zh/eOwGJchR9Q0avkUxtryW00wQ9KU4EAPFOHb4/C8TR0f75erZ6ORTkeln3ckn1jLxlbqAholriSCO+3Hcrye8esKrJUEayp2T+hDd1BN+9FQJ5S6h/CAyqFGlJYIEESBJP0l5ScpD0j4SUu8BnAnQjD8nOkjTQYoJUkyYYMJ6JoS2rOlov4bxl9K+EgakVRezaSmfhgkiaVUyauiwhgmW0oFSOlBC+YtJTykB0hJ+DekvpvxFtH8N7VtD+9ZRviLSV0zBTaQSCl6Dfv8iyrWOdhZTTj3pIgk3g7s5vZvHPXipTa+xabQ2jd5eorfDvFccLnR6mAC7lnKsYhzrKEcxntszt5aArZjrcFeJzqPVejQ6zxrCdxXlWUW715FOjc6l0TmKdM7VettKvf0q/Vip1l6qsa3TjK3Rj11J2ldR9rV6+zqdbTVhv5KwXYGPXYGPrSRsqhwrCdtVhPMq0r6asK8hbGtxW5F+tFhnK9LbrtQOX6YZvUxn15rSvpnnAkuHvEsHq2y3kNaNeMci6h2Hs2M2N2Z02ZA5HzREOwR0UOO4OgAw11qFt2cJMwgRh2nNci3ZfGGOpLYQFUDnDHEgfFOdyml5PXdhCHl5dleuzQp1OSBLRyqL5SUbo3mdMWoKDRxD5Kyk+B9g46DseCj2pD/8ZHT8ub8gcYS2LPhWLWm2SZ3ItQwd5FsVEkeuhcYQqfZM71WeOHJtSqxMGOtSpOhZp+2HKaL44LrSHh3MRhpA0EEBnbxjVRg5/o8njlr+B8RhGBfNeMDGIb0qcZ7xpZ+MTO3rdt7d3HtzvfV6c99N7b03Ipn7bjT33djWf0bmvpvUF9zU3nuTtWd7e+/29v5t5v5trQM7zP072vtguRqcfTu6+27u7dveNbC9a+Cm7sEd3YM7Ogd3dg7u7IA727v7kXZ09e/oGNhhHdzRMbSzY2hn5+COjoHtHQPbrYPbLUPb2we3tffntLzmbad14GbLIOx+ax3a2Ty0s2VwW+sAvKazV1XfdsvANsvgjtahbU2gm1oHtrUO3tQ2uL1taFvb4PbWwZvM/dvMfTdae+Bf2jx4fdPQDeaBGyz9N3T13djTd2Nf3019fTcNjdzcP7yzd3hH59A26+BNliGQdfAmeDi8rdm2rWHsppaR7ebh3K/aNLy9aXh769BOy+DNHf2wha555NaG0ZsbR7a3Dm3v7AO1D8B1o/qLWfu3d/Vtt/Td1Da0rXl0e/Mo/HstA9taBrc1DW9vHtkBGtvZNLqjcWR7w/C25rGdrWM3t9p2to3tbB/bbhnd3jECZ+vgDc2D17eM7LA4bwsuHYhsOha++kTl2M2kdSNhXcQ75vMFOLhlDrfMXRA0+ZvnEwfKAi0T4FW1T1DmXDTn/GrAgo/G/5+Ik73/Q/9db0S+9Q53ERuHs0xwZtW3as1wLWmmKck0gqVD14F7xdWMC9VQNJkPeqFQToGZA/SBm+pIHUNtUq5OUJJ7nbZ/jaanhBhEU0sQdP5miANxFpobA+gsE4difXomUNawkJh51pva7U8/E589mJg+FJs5EJ3bE55/9izN7QkvKzq7T9WB6CxsXIvOHojM7w8v7A8tHAzPH4zPHo7PHo7NHY7NHUzNHkrN7kvM74sv7EnM7xtf2J9YOBhbPBhb3B9b3D++sD81D4L76p3YIlwk5/alZkHJuX2J+T2x+eeic3tgs62q+PwBpOjCgdDCfv/Sft+GA74NB8KLBxLz+yZm90/M7k8vHEiu359YfzC2fl9k/f7I+r2R9ftj6/fF1h9AZ3Rpb3RpP/qt4gv7wosH4IO6dDC6dDCxcHB88RAS+neFF9Wn1h+KbTic2HhkfNPR8Q1H4huPBDYf9m49HNx8OLLxcGzpSHT9kcDGY/5Nx0IbjkXXH0ssnYivPxHceMK/+YR/07HIhuPJpePppRPjG09GN58Mbzke3Xw8ufF4Zj2ciU3HI1tPxLeeTG46kdl4Ynz9icQGeGVi08n45udjW55Xv+RkZOsJpNiWE7EtJ+I5HUtvPTK+6WDq6mOxzUdDG46ENh/zbzok9lxLWDYQ1vXqWPU5ffusvn2WUIVq/HKVfgX2Tt7JOsfGIdqnEG7y0KHME4x5gmrNoGQ515RB2RjkBOQ/O/nav3+PjaOYYoopljdwZGP0b8vGKSROCQTJponOTN6roq0TnGWCbQficOYs27YMnYbUGfeqJkec3HghNXh8AeLUQvaKr4wbatOG2qSOdYB7RQyr0AEb5xzcnFNz/B9r40Cm6Xzi6BivqW4mnHk8s7g/MvF0dPK5cOa52OS+4NTTwakn8/LDw6f9oGeXtcc/BQpO7vNP7vNP7/XNgPzT+8OTsMsxMLU/ML03OrE3OvlcYPqZwPQzkelnI9N7wtP7gjP7/LN7/HPPBmf2oJuRabgOzD4bmN0Tnnk2NrUnMflsPPtcbOKZ8NQzoemcAtPPBaafC8M32aN+qz2B2T2e+T3OhT2uxb2++b3RuT3pqX2ZyT3js3uBUwv7IgvPheb3hOafRWd4YW944Tl0Rub3huefBbbO7QnOH/AvHAjOHwrOHwjNHQrNwbV/4YB3/qB7Yb9n8ZBnEa69c/t8M/t9U3vCs/BK99Ih1/oD7oWDvrmDgbmDvrlD7nmQd/5QYPZIaOZIcOaIe/6Ic/GIa+moe/FwaB5WZQYWj3vXH3VtPOrZcCS0dCyydDS0dMy/4ahv03Ef0Op4dOl4dPFYZPFYeAG23PkXjwSWjgY2HA9sOuHfeFx9GZzejceQfBuPBjfsDyw9F9l4MLb1mG/DgehXT/g2HzIN3bhMHLBrVNxMq8TJVdz8ycTJu1dEa+YMdBrTqClarAefIA+df79X9Z+DOLFvvcN7t5dacsQhunNxHNo6wVsn2fY0Z8kg9CxDJ82o40dVMyfF1+bm5ii1E8BpNCfwPPSINWlIYFVDfaChNklJ7jXavmJi8IJBnL8ycVQD54yNA10OHh3txMVAVevCsPebg67bB5y3D7vvHnTuGrB/c6hAA/bbhmy3DdhvG7Df0a+qz7ELqce5q8e5q88N6nXf3ee6d8QOGnDdPeDaNeq8a9R5Z78HNOS+c9h115Drrn7PXd2eXd3eOwZcu4acdww5dw267oAv99zR77lr0H3nqPMuu+NOu+OuMSd81aD7zgEn/G79zjt7Xbf3O28fdN0x4gANue/s897Z5b+zI3Bntw9e6XDe7XDuGnHvGvbtGvHeNey5c9iza9BzB3wTn/qbeOF60HPHkGfXkPfOIc+uAe+uAe+9A957+9339Xvu6fPc1+e5p8d7X7fvnu7QAz3h+3vCD/aHHxgMPzwSfdgeedQZ+bYj+O2x8EPDkW8PRuEcCT08Gnx4JPTIkKqR0COjgUcdgcfswceGIo/1xR7rjj/WlXi0J/ZYX+zR7vhjHeOPqvp2z/hjvYlHesYf604+0pF6rCv1aG/y8YHE46Pju0fHd48knhiMP94ff6w//ljf+ON9qSf6Uk/0pp7oST7elQJ1Jh/rTMLX9qce7k892JN4oD/1cFfi/p7kg83+O5iOTZRlPdm+QFrmSCi+n6Es07RllrbMFto4hdwptHG07VNI6pxjsHEQaPD2rN6c0ZszeBsoDx2mCT5BKJb8xxJHrEyKlReN4/wnIw50OXRkziEOY82oytk7KnSgYQQNPObqYCApCt/INWor2kWII1SnDA2T6ijpcUNtWq5OEAJAR902A1U5peRAPmz8VyUORI5RvwLDuCCOA8Rx8QYoe1ulHdIKnnWkcx3p1gvxUiqEsxDHXVaUYKIUDSIYEM5GdaCYlotqOTj1XEzHx7R8XM+N08w4zcR1fFzHxxguSnFRnQgiuBjJxgg2rufiWiGmFWIEF6MZEMnCl5eKcFPHw0OWjbNsnGHjOB/XC3H1x0XhR8ALIgQXYRgQy8cIMaZRYiVKTCMndCJ8CcvGKQHu02Kc5mMUFyX5KC5E9UJUy4W1XFjHhQkOvgm6qRPjuDhOCOM4n8D5hF5I6Pi4lo+XiPEiKb5WjBVJ8RJlnDRlxapZU/1SVdOmqvoNFQ0bjE0bDM0bDI3rDY3rTQ0b8yqr31xeByqr32xo3Cy1bOHatjDmLbx5K2/eyrZvZdq3MpbNdPsmtn2z0L6Fs2xhrVtoy2bGsplt38ybNwttm6X2rbLlasl6NbygbRPXtokxb6JaN5BtG8jWTXjrRrx1o7Z1g74FpG2cxVsW8JYFsm2Jbt/AWDaS7evxtgXKskhZ54E11hkaNMV0zDIdfzRx1PZxCBvncYOgg7hDtmWp1gzVnGaa0qw6tuJ/f+KIBbkq5FUhG0fbrvZVdWTILii71HemGNXGYawZuiNDWycY1cmCfHnrBN8K2T62IXVR4qhZqmX3KgtDFesn2OqkoWHSUJ/hy2OQMgf3yoaaOYvxHHT+NiLHuRTVMnGgTwrKYUSnlreRikcveEkZNorBnFAlisNFlJSipBSnxSijihNyF7QUpsUoOkkpvHwRp8W4wIFIKU7IUV6M8BIM5cKVECOGeT7K8jGaj5FSlBajPB8VVHEC/CBcierUH8qIUU6I8mKCkRKEktAb1NdLYVwBkUqElSIyH1G4iCJERSlKK1HcFNWboqQxyipRTo5ySoJTEqKckKSEKMZ5McbKcVqJq/8c+CdwQpSVYowUI5UYCfuP4KsESf2FxQgnhBkR/lGUHCHksF4O6cUgLsGbwxvjYtl4Rf20qWHa2DitNIHkxim5Ycagylg/Y6yfKaufLaufNTXMKo2zctMsWmKptC4Z2tYr5kVD+xJS4bVknpPaZpW2Odk8x7XPch3zfOeC2LEgWOfFjgW5a4OhZ5PUuV7qXC9aN4jWDYJlI2fdyLdvYC0buI5NtHUD17WZtm4g25fI9gWmYz3TuUhb5sGoQayxTDHWCcYyxVqnKfMUpbZr5o0dFDb+YhsHbwfi4O1ZrTmTl96cOYc4XOMf7VUhG0esTIiVaFZOrioHJaoKbRzFEFUMfwNxHEScYjlRZduZvR+y47nIsWWGaJ+iVOLgXWm8I0VbJ9iOyTxxCqAzyZknuaYM25hm6tJ56ORy5DnWoNEWqpNVm5Vqs+B8NUygKWfG2kmpKsVXxssaMhpqWEvARr0iVWg5jIaC3nG0sFVLDKkZ8UEd1X/OqIqLZ8eh8gKpYCbO8NnZcTuaaAPFfpACz4nigC80C6bNMnGgJJfi7KRgoxUnIbsoyU0bAnrWS0hBXAmhjzchhxFQGBE+hJwAYsRQXsAaKcRKYUYOMzKwQBQighhh5DAFkwHCvCFMGUOUMcQpIUEM8yK8BtaYSWFBDIsCiJfgxaQB2ETCvqEIJ0c4OcoYYpRJlRJm5CAJzwYpJczKQVEIK3xQFsKiGGSVCGUMkcYIaQqxSoRVcvvSJCUuKzFJjglyhFdgfyPa5ShIUUGOAF+UKG2M0aYo/G5ySJRCghgUxSAvBHghwIkBSvCRgo8S/ZTop6UAIwVo0U+LflLw6SWfTgZpJS9I9GtFv06VXoDCH70U0EsBXU5BvQxvKWGIEGVRsjxGlseoijhRFkUPibKo3hjWGQK4EtKZgqUVoeJKUFFFUFMZJeqSfOuUYp03dCzIHYuSdUGyLgnWRcG6yFsWYHtv5wZdy4zQtYWxLtGWRbZjvdizkTTPMtY52jLLWGYYywzdPslYplTNMG3TlDmni0FnOTUO83EoyySkqNRcFYKOXoUOsnTA21JtHGTm8E0Zvh4+KSjlko/jSFWps5LiFSmhMqe/OHEMfnVIBZpWoQ6sMPhR73hl/VJhdpyRklLZRSoAC+txhPI0V5bRyck6+y1Qj3Pvm9GH36P924ss00THDNmVpTrThBW6HEhrlrJkEWho6wQSsB/ZO+ZJsHSaMuCOqpRR6tJKHVRwC3UprjHJNSbF+qxSO2GsmoRyJnX+ENiQNZPGqmlDzYxYP6E0pCqr4yxng/pAZqSYG1tDD64lezQ0TDjW4wM6fFRHjGnIsVJySEf1gnKrOFEjFQxAQdKRgxRn11MjWmKYoB04ZdfiNpx1wpYYfkTDDGnZQWhxYqHREarXODdB2fXnl3DGAAAgAElEQVS4naRcNOem1BI7hBs4VU+KVmv54Jpz0LyDFECEACV8pOih+AApwJpwJFIIUGIQZhepWgZNzgTIWzqMHMyLlYPs8kO0tYM2BGhDgFGgZwo9xSohVgEG5cUqIdqQE3oWnegmXMM3CdGGALpWGREQ5BD8CPjagmfVbw7fX47A91dPlUTAo/ydwvvL3y0gyAFB8vMFYmU/EiP5OBEE3JECpBwilBAuB3OSVDtICOJnSy8GQXxAzwdwIUiIIUqO0ArA9HzRBniKMkb0xjBuiuCmiM4Q0shBvTHCVCXFhkmDeV5uXxQti4JlPewI71hPW5coyyJjXWKsgB4WAHRGTPs8bZ5jzYAYJMoMF2zrLBLTNps3dlCFcT5Hrg7KgcZxsm2SbZtg2zJ0W5pqTeGtSbwtBWpPowuiLUW0pajmJNWchMwvSv6q+V8YcafOAJSqxpXKcaUypVSmZLUqR6hM8VU5SVVwPye0ZEadiGwoixvK4kYTCFk3F7NxZCUiK5Hc/C112Gj+WlSCnOLjFPjfkvu7IgcE9Q7FB8trF4LR3agep8V8PSsm5LJkIVvO9FUV3kXEwaVkgw2I47n3zfAycfQd04g4pCUJsmZJ67nEOYMeyxTbnoMOyvblUuD1EzBLEcoFExDfqZ5QqiflmixfneBq41CLXDthqp5Rqqe52gmuZtxUGS2riNCGwDrGfiU5tIYd1jB9GqJTT/To8QEtPlpK2EoIWwk5fFHi0AM4M0jzthJdL06P0rxTox/BKTsr+HW0XcfaimCS9jAujNGSg+Ztao2fAwpYWS/L+WjGQzJumnMzgotWS2nzxKFYjyqI49C8Mw8dSvCo8qE/7KToQaJFaAhCYtS/84g7qnWj+lOwejXIKP7zT0QHdBY+W3j/z3+9TBz4zmcrD7hzLtT/i+h/ZICXYEjl+ScnBlTiqJaOCh1aCiDzRz2DsG1WAF6fL1TiTPB+RHBGhg22vBHMLtXyArssL9oQIeUAWHPGCGkI46pxx5TH2eqk0jwjtc0K7Qu8ZYG2zEOMpmOB6lxUcZMDDW+BZ5G49nlYFm6eY9pmkSj1gm2d5Vvy0Dlj7FAQhVgWZMTPEIdpTdMtGSBOCwJNhjCn1eBximjNEG0psiVJtgB0qOYk2TRON47TDQmmHjY1qakVII6hIqXuyTsLOkIlDOv6SxOHNfhyxJEDouxTieNDxPHHdnvVCsAW8/W8ShzJdKFOzosRB7yqAhsHt/4RxOE6ZnjrtGieElomkHEI71dNWq5Rfaj6FFeXhFhy3ZTYMCs0zcDa07px1N5prEwbq7Ni3ZRYPyFWJirqYWFYqeRfRYyso4f0dJ+W6CSJbpxAGXRbEakSBzY39CMbZ9mfUoe8qQPVNXg/zdtIdhRaKHQDBDVG0jYdMUbQLrU5wKPFR4s0fXpiRO0PHNOTDh0BdpCetIHJIzgpbgynh3NmjmrjnEccJzJzziKOCI2USJTkzouWfWe0/KkDdyNn1IDvo7pXuTNvWaiffNjHip495z569s93RsBYMJz5DOc/zOhCddmQ41Zw5q0hCbw29rwTOCsF0ImMHXSijk10MrznfFGCBxpBBLe68d1FCG5a9nHGIG8KccYgZwyi5W2AbMWvmnIBmGhh9FKKn1L8pEGVKUCUB5maBFjfbdOC6itRMPtphumcKyROoY1Dm+eQqLbZvJi2Wa5tDoltBRLln6LbZ6hl5XJY6nwcyjxFtmWJ1gm8LaNvVXNVbRPgUqkn3gb3gUQtaRKpKUU3piB1Bf1D6pomlSmGirSpHKSUw8oEuTwDbZMVBbgBCwg2dqIZ7KjyGFk6X1yP86U2zn8QcYot038scVjrtGCZFtomC6CTFqqzYo26VrlhwlA3KddN0XVTpLolQ65PSnVxpTZmqo4bq1Ny3ZRQPyXVZuW6CbFuiq1O6aVACTms0fcQeBeBd+mInhJyqIgcLabspdQYNOwRg3p1s/j5xFEHWQxqiQGat8lGL04NlWh7eNGt0w3p9dBPDGP9WLsgeQQJupYoDnqvGd7DSTCERYMP6qkhQXEjCwh5VcvE8SzbOEAcSnAVEMejssZJiiBKcuVFy54CnaHPMkpQNOfMec5HnVUggoP+wqM/73+h808hDkSOQMCaiyjnVEpg7PCiB4kToIETCSbynCdGcKFdWjjv0HN2nHdQkptRvKzBx5sCnNHPGf2swccafIziRSIVN2FwUwYvZfDSRh9l8pFGL27w6Iw+sjIModn2aaljluuYYa3TtHWGtc6BzvankEt1PnFYcw43eegg7jBts6x5hm4H5YM7y82cEM3Rt00CYs6TSpwJfWsaCW9JE80pUoUOysOgQKdSmTJWZhB0jGUppTyjqNCRC4iTX1X+ZycOp3y5jdPc/u+2cRBx6E6I45zjVeU9KapjIi+mY5q1gjjLFASS1c4RriHL10wItdMSRIszcjV0WhE1SX31OFuTFmuTckPc0BArq0uYwCCa4Kon5YYZvjYj1E4bG2flqgy0Pup6cG0Xru/U4t1F1FARdN85tJSNIEdIHIizjJvcUFFo0qOHecmpI/pwaoBkBrR4N0H3s/ygVt9hMjp4doAgOnV4R3Fp2+qipiKNWU/3Qc8xO6aHdTFg45CsHQbiqBHi87wqII4KmvyZ96o86P6FbJxC4sC12tvtO58457Om8A5niP1FVfizCq8vbN0ss+ZLiZMjkRwstHE4CfjOim5WdDOC84JCxCEEGJpBCM78G8ubAheEDkwRUty07GYUD2vw0UYQafTqRLfe5Kero3xTSmmfkTpmResMxAEss6rmeIua52qfhWxX+yxyqfKOVf4hYo3QOse3gHulappvmWZappgW2PaLgjtEG/SOoxCy1jypbZuGU5VKn8kca1QG6VqzSGAEtYK9QzSDpUOr/dIQi6hJy9VppTJlqAAbB8ycsmROYNfk6nEQawqJgyydwj7yc2qORWV5zOjZERwUylmO4/zlicP4thcSh2rPxXHwDojj5JXHDdUxwXRMIyHosO0QM+Nbp4T6GaF2mq+ZEGsyhip1U3BDSmmaMDZOyY1ZoTHBN8TkuphSnzA0TELetC5jrMsY6qZNDbPldVPG8gTPOnB9r57o0RC968jBddRoCW3T0XaKGKHwwYJB2WcRR4v3EnQ/zQ1RXD/F9fHyMMP3ajTNa1ZXEkQTL1jLqoas3dHe4XRNs4cQu68sblqn74ARNswIzdsE2cUKdpwagrEy0MyJgsceivXlLB2I3ZxPHN+yvQOhHEod+4DOMy6V6l7lo6rLoeKcV/Vl/lFk2bRBgYw//6lSBuWtzjqBKcve08Wuz/enzr+Ti2ehqJbkY3IqfDPVd1WdsAEheRjQA44VKXrQBTqRP4V8qwL3KmfpANDBFMrtzKYNAeikVwKEMUhVRIWGtNw6o7TPSe2zgiUn4I45h5tziINwk7drEGiE5lmheVYETYvN01zTJNs0iaBDqhO5EHE05mmk83GTg445A7hpS6NT05bWtSV1LSl9yzgYOyp0IEABMR3woXK2jLoaGFaSq7gpZM0fThy0gTPXw3kR4qCozZfGcZrb/6TIMYrjxB56j/FtL2qfIi3TyMah2pOUNUVas0RnDjeFrCE6J+B+5zRSDj2WKc4yxbfP8I3TQv0MXzct1mSMNeNVtbHGunhT43h1c1ZunqAbM0RdkqxNcHUJY2OyuildWRWqqo5WVCcNVWlTTba8ZsJYFuYFF0HDdvp1xMhacqSYAmOExAcpvB+nhmAOS8HUdGTjEOQASfeTdK8gDQvyYLGmiWKtPQPJG2564JXXf/i7//r5f/vXz//n55//988///3/+Pwf/6/Pv/v939350Mkx3xZOGS7SmHV4Jy8OG8ucDD/K8DaIE6tLY2jOCyMaeO8yWRB0wMZheF+BAhSvLtk4J1eV+6ShICvMwVGTULlTDcoGvvAMod1mvBKFi7/AebGfXhghvtj1+THjc+7AlEIphMoC1IuQeqoJLMGXj7irF5D+A6nvtvqGq4H5goe0CO8bp+TeE/U3Dy2/nyhNBgk+kBJiZKhFwMUAoYSY8rhQlzU0zxhb52TzLPhZ7dN8+5RonoH/saq4tplzJLTOqaYNWDRCC1BGapyS4A8nSGqaFJom+eZJvnWKaZsi22CLA64aNZqcdQNeFaIMBIyXhbelVJcqqWtLa8zJUnOytD2hMSe1rXF9yzjRPE41JOgG+ICgQLJQVVh6E0UbrIzlsQIljOUJFME5O44Tlo3hQhvnjyKOKIXEi0eO/73E4Xzbi8054pAdqULiUB0AnS8gDt2ZM3aYjmneMiu2zojNs1zjLF+XNVZHa0xuszzaKo2Zyj1MTQxvmNI1zeqbJumGhFjtLyuzNZXZmgyOSoPXVB4xVKWVmoypJl1WkyQ4l462ryPG1uKjxcSIjhwhiX6S6NVfhDik6kax/EBRaXOprsnt33jixR/+P//2+b/+G7Dmez/41VMHT93/1IG7H9/z6P7nT7/349/+98//2799/j8+//xnv/p/b7ltT22jq7iklmE6WX6Q4WHKXB46X0acAMMHGC7IcDDvPi9UlYPCGbwUVj+KKLOTSyGzsp9TYP3YFytHnOVdrn/uh8GL/XRIfn+ZClPjF7xWiROGIkYpV6ykliyFSDlECj5chBIeONWJzmeIw/nJAlE80BxnvCTnpwUIVAN5oRARrDBGCiAMAYmkMKcWQEHRkximhRAlhuAnKlG+IqnUTgF02mZl87RshqSHaJ5B4szThbgRWmdUzYlt83zLNN88JTSdYY2hYcrQMGVsnFKapsTmKaFlim07Ax1NW1ZrzkVw8LaJPGig1FhNVBFAnKS+NalrS2rMiWILqLQ9UdoWV6ETx5tiVCNMGefqIL0rVMXEyphUEZUqonJ51FgRAf2FiQO4+ROIU5iiyl8L5TB1VC+O14/dPHk/7HKI3v8u799RbJ6Cgkt1sjpjTVPWlM6S1lszKEeOTrwjmxfRMZUX1TGFxFim+NYpuX0egvwtk3KVf8gcn+9M77th99F9H1gdW2vsO9Y2LRFdWyuHN3/txsdfOfLe9anrZu3z5nJXTWVIqUlBkU79pKF+orxukpZCJYRTS7r0jEtHDuP6bpzs1lNDGnKE4O2l+gGCGWM4R0lpN8OOaHSdNNtfrGkxlI08vfft//m/Pv+//+3zA8feC8S/ypp6rygtw9awl5SK2FoKW4tfquWIsuZ+d+qJ/a/8n//6+f/4X5//wz/+61evvVNP1OoIM073EPQghHVgjp+rlLCxMrQ4gN+Uc6yQjQPZFo73s5yP4QOsat1QPCwwhMo9tQ4QEUfNFqNKObVQRQ1n8LL3iyUokJhEexT/8BNtXPzDT3UbkZ+HKq+zlPvp6HdQfPlf9Zz7+Yf5F6BgTe4UfWrFIypljDAi2DjozFUMCuhdzb+3HkoAy5EV/AzvozlvXhQLRQxqHYOXEyE9z0tBTsxn6FFlUBC5A4IMlZYo2AQFlmKIEEN82bihYarSsii3zsitMwbLvMEyD3GA1hnFsrBMGWCN2DKHJLXOw1/Q1hmpZUZWa6aBNfUgVEgtNwN0+NYcdCjzlF71mFB05kxCqiVJtaao1hRpTgNx2hL6toSuLaExq6xpj5e2xzXmuLYtpm+JES0xsjnGNiX4hjhfFxNromJVRK6MGCqjZVWFpk3MWA7WjbE8mZdiSkiGmGSIKKaYoSyat3GQdZM7VZrka3AKL0QliLyqHHFEvyDB/1JW9lJ80FQ9h7Lj4fgzTebrWDEhGhOC6f8j7z2A26zSvu/AAunNcVHvvffeuyV3O7bjJtlyb3EKIb332Im7JVmWe7fjOAVCKAtLh11gqUsnLCyE0JMQ9/PNLQUTILvPtnfe550v858zR7dljSxFP139/KwF85S5ffP3iBMmu0UchCp3njgRKneUGqrK+SeJg1QVYRWQbwWTlUQIcnCspGhZhidz5yv14+A7UBd4QpZ2MkKzk5p4Iq6s5Z13vgdXJmsLd1bZ3HpmvICdSuHlYgRFaH4hllcIFfIw8jHE7HB44ppIRyQiGo40RMC1kYjoCCQ0ehIaAB5ljYCZsbiYiCgdCmMOj1SZbSVvvHNzYhY8+NjbCsO6e5dRFiyh3buKE4ZTrEAL7okg3xNJWoKiLUczlqHoiyKJd6/AUHl6f/eFH6fBj5PgxT9eVmqyw2FqFi8VjXNEwG0kRhYClwSN7Ps7xAlmtYIeVvDb9Scn4lb1DQKfBtXgQkqGDjPAp6BxUMFOKJxxW3DnZ8MndPE20+PXlTLB0E/6L85dpGTM35w/0P6f3GDJUNb5V8KSQw7gr5/VP3jCaOLan2I0ULDmp7qktcEQ8q1miJABgsGnQ6YKNDJ1LRoHuasobJDgUBAnMahbniwMA73y84pCJ0ahE2GYIJWCpk3QuoGMxJ+e2E9eFTENYn0w2YckpMNxUGEhgpiBoTvx/AKKtIwsL8eLIV+JpKwgKiox4hK8rBwvKw95UqGQDU5c/tMGCt8QhCVEASQSv5jELw42akCGD05UhBUXYcShQDJUBAiX5f9yhUZzwaS3+jmjZG4ocAMZOPOC0BMuzY4IKlKSDRdnQ74VLxvNycKwMrH0DDw9g0iHXKrbJ41CJ8lAgoLKUNU4OYdEcZKoOURKdihB/luXKhQ5xhPSbwfN7fvQV8g8cfDQvFoIOv+niIPS5P+WOPN2ze2beQPn9g1SVYRXleDUJVhTFVJVQBamy8m2Q4bcnpyt4LObL/3xC+26amp8NTH2SNGe4Zlr4C/nH29wbSqQJuqpdh49mSLIQwuKkPxSDL8Mxyqmc8torBI0NmMNPBaycVCmCIQuAgWdQxSFiYGgg7SFRxngKDMKZ1m6UmCLrbj6HfhxFlTef2rhasZdS0lLInlIium+cP6CFTQ4Tc3TJukSnDxd/HIE4+6VuEi8MBzFX7iSsnA5OSVj48efzk7Ogq++AyZr8fLVEgQaqiqMQDpQhJRITPxPxPnZugmVk0CfkGDMGEZYCyOsDQYsofpaGAkqtIXcByIUtkASg0FT0toQklDEjH+gYIcB1GcAVdxS7iwMLfuO+un86ex/ZoOhZd/x8THkzNDH9bfr/HP7B5vb/7SgRwl1aUAbXDoGnx7qiri1BkuTMbggjoPrLd8qyPfbI8dRWKg8J6TQCx4qyZmPFoeKdELVlQhS2k+CmkJghLQI/FroTSFnRFGceH45Rb6JKKnCS9aTlZvJys0Y6XqsrAorq8JIKzDSClxIkvWhDV5SgROX40WQCMIyouCWCMIygrAMJyrBikowYkgoSQlMlA8TuWGi/EixO1KcHyFxR0jc4RJ3lLwwQlEYEewyXyMvDJMVrJEXrlHclkGH8laQoiTQIyDE+SiBG8PLw3BycSxXaPpfqAqZyLhVoUOkFwRVRKQXEShuIjWfSMsj0vLwFBeOnI0jZ+Mp2fPQmTdz/kHkmBC0cXCklN8SB45JpbLLUrO7UzJ60nL+dRsniuD6hVeVfCBk4/yHxIF8K6k7XOiM0BZFKfJoCpeMEfuAYp0nufjTS89OfQuKd/SqnE14y6620++Ar2f7t+4+mlyQTDUoiVYWJYnMd6P4xUh+KU5YQeaXUdklNFYJlZWPIWaEwWyrovThSHME0hGBjIVh4paH69A4BwxpWhOlXhOl0lsKv70OvroGYtM23rWUshwuXI2WrkJJlsEECxZirSlFb1z+4ToA30yBj65OPvf65U07Ti5cSVkZyYNhleFI2YK7CUp97jsfge9ugGdf/ByJ0yFxFgI1MRLtwNHSEITkOxIH+n4mpkGdSuR1EYTUcHxqOCk9gpQZTsyICDZbBvs818GI627Rh5QBI2TDCM5fKQqf86sroZtRRCeC4rqjkNTcOwpFyf3nhaTm/vbBkWQXkuyCE3P+jlwwkgtO/LtrFBH660IrjOBE4rNDra0ofCYSl/GTfg54BZtCIKsnGHaBWh8iCalRhHSo0woHTV+OwEFdV2swKeG4lAhcajguJbSPIkAvO9RiFoR71PwKtddCbVnhxIzI4BsRFXxHgntnGMEVQS3C8jdQFNtI8q1o8QaUZBNOcT9SthEh3YCSbEBLqzCSjRhpFVa2ASvbgJFWYaRVOMlGnKQKL67CidbjROvxPwm6Ka7EiSuxQaEllShpOUpajpCVw+XlMHl5pKI8Qlm+Rlm+Ul6yQlGyUlm+QlG2XF4a0gpZ6WppcZjkllaLi+YVLi6OEBZF8Qph3AI4Kx/Jykcx8zGMfCyzCMsswjGKcYxiLK0ESyvBUctwtBIcrQRLLcRTCnGUfCzZjSG5cJQ8yPYJOlkh7vyPkeN/njh82U4UIYdAdf6zXtU8cVLrn85ueQGajyMrgtrYfmPjBE9EzQ+t/9jGiVIVwlWFJH0FSlkEM5RGKPOI8jwhOzmVbqlOdF/YfwT8MBnof1qWspNn3/GX98HEKx94XUXbbNlWkklKjmXS08m8QjSvFMUvxfFL6KJyAjOPzHIzhKVkbn4kLnElzAh1lsPscGziqkhLBMqGxEQjMKbVEQoyw/72+1PfXgep2dsWLCYtgwmWIcRL4aKFa5gGR9Zjz7z2wzS4NgN+mAaT4Ja+uwnGLvzp3mX05WvEYQjNaoR+wb0cniLnk8/B5CzYfaBzWZgITbBjyNBIjWBVyLxjdatYFo1JQWBTw9DJ0P9sck4YARraEEZ2rSG7V5PzV5Hcq0ju1UT3amLuGqIznOSKIIaUH04sjCAV/ZOKJBeGU+6gSFrxHQWjFv+r+tXjhH49klx4R4UTC8NIhXdcVxML1hAK5tcwfH4YPj8ClxeJ/VkRmNygnBGYn4TNhvahFZezGpuzGp+9Gu9cjc9ehctZic1cic1ehctagclaic0MXVmOzlyOXrcKlxN6YcNJrnCSK4x8a11DzF1NzA0j5a0g5K7AuVYQclcR8lYS81bic1cS8lcSipZg3KtIJWjRVqJqD1q+HS7ZilbugEm2hBQl3gQXb4GLNyNFm1Hi+2GiTTDRJoTwfoRwE1ywMSSEYGNIcP4GOH/97YIJKiKFFRGiijBxxUpJxQppxVLZ+iXy9UvVG5dA2rxYs3mRetNC1cbFqk1LlJtWym9pmXzjMvnGpQpIS+Qblso2LJNULRNWLudXrOJVrOZWrGaXh7PK4axKBKsSyagIaj2SsR5Fq4JEqURRKtCUMjSlBEstxlAK0OR8NNF5u5lDIGf843qcf0AcGHrtLRsnqzctpy9EHDztXyROccsr88RZI/2PiBOlKgwRBy4OOrG6oig1NJKdxU1XEXXbYrMas7LBe+//5d0rtsxtSe6Tf30P/Ll1oCklK1car6U6hNS1TLaLxCvFcEqhzDqviMwvCA4MzKcICimCQhwrJxIfD50kC3cEjzGxwrAOOMYGRxuXrhS0+C9dnwSbd7QsuA8fRVQvhYsiyYYF9xEJfNvVa3PTAIQ0MTM7OTs3PQemZiFdnwSVm08uWEy7d6VgSZQigmhfcC81PrVqcg5c/hyQmQ40wQbDRsPx8SjSLRsnZOmE/KkgcdJgFDdeuImu2k1X7aap9jG1B+naoxTVIZrmCE1zhBEUU32IqTnA1hxkaw6yNIdZmqNs7TGO7jhXf4JnqP6HOs413lk804k7im888a/JXM3/pQSmaoGpmmc4fkdxjdV3FFt/fF4s3bF5MVSH6cpD86IpDv6k/TTFr3SQpthPke2lyveFRJHtJUv3kKV7QpvQjyiyvSTJbpJkN0W2l6bYz9IeZOsOsfWH2frDLN0hpvYgQ3OIqrn1LpAUB8jKg2TlQZLiAElxKCS8dD9BdoBprJEnt5ly+425/arsLmP+oMHdZ3D36fN6Dbk9htweo6vL6OrS53TpnNAaVIcuG5oZBikzEJIhM2DIbDNmtBnW+fUZfk1GqyqzVZHll2b7xTl+gcvPyfOz8gL0XD81z0/JC1DyAuTcNkpQNFcbMwcS3dlGdfqpTj/ZBYkUXCk5reRML2Wdh5buYaR56GubWYlNgth6qSOkRml0gzS6SWaDJDXVK2wNSmudwnJSZamRG49y5DuIzFI8JedXMR2ojZO47vbYze37vxfHiUKlkNllaTk9Kf8GcXCMgpCN898iTgg3EHGUxdCYEm0FQlcEV+WjRPlkXjafZXfqY+tSEj8Z7pn+4caWAw3pOXtPtz4yULixxppkJRmkjLUsWiaDW0Jgl+E4ZSReKZlfQGTnUAUuMh864BzPzycLCjGMrAgUlLcKg0HnGUWgbAisdQ1cbbAW/TgNLj35wfJwzuI1nNVo6VK4aDFMvGA5s2TrqR+nwMTEFAAAzM2EyDMzPXnz5uTcHLgxCdp6HlywFLsMKVgEF94dyV+GkdyzDF/bNDgxB07Uj921kIkhxyOJiVHYuNvjC/PEgWPXheGKsILdTH0Ny3CSoa9jmxqZJg9N38QweBgGD8vQwjK0cIzNHGMz39jENzZxTQ08cyPf0sS3NAmszSEJbS2/0vyPBNEtguim30pob76jRPbmf0lCu+eO+ntP7I53Fto9fFszz9o0L66lkWtpZFua6aYmmqmFamyeF8XQdLvI+kayvpGkayDpGsnaBpqmjqGtZ2jr6Zo6uqaOpq6lqWtD+/nr8xcZ2nqmvpFlaOKYWngWL8fqZVs8TJOHYWxhmb00QzNVf0sUXRNZ20jRNpA1tTR9HUV7iqw7xY/zm/LHYiov2svPW8rOmkvHLcVj5qLT5sJRU8GIJX/EVDBizB8OyeAe0oeUP6DPH9DnQaiC5OozOfssOZBMzj5z3oDBPaDNH1IXDMmKhyQlQ/yyIW75MKdyhFM1yqoaY64/zaoYZVWMssvHOBVn2OVj7PIxVsUYo3KMvn6UWjlCXg+JuuE0tXKEUj5EKR1klA4xiwcZBf3c3D5ZeqdmbUjdmuQuTXKPLqlHl9yliW83Jneakzr08T5jvFfraGAr9iKI+XiK67fE+Xu94/odYWQAACAASURBVLfbOARCOh6/dj5yHIlM/i8Qp9Dzp9T6p29NHf21V5UXyo7f7kmF9nAVlCNHBLPjoRU+b+Aoi2ESqL82SuFCaQtwqjKa1CWTxEUzhXWxhsd2lIEfv71w4bHY+OL7c7dXxyXvVZuUaLGcn85k57CFFQR2GZ5dEpxeCp2RShHkk/jQSB0CN5/CLyKw3ShK5hpEHHRKEZSrioahjUtXC7sGnv9+AlgTy+9dyYgiaH63mrMEJl6GVCxYQj/aOAJhZnIKgNmZiRtgZvKWwOzk1MzNGTB47rHfrcItQXKXYCSLMfIlGOmSCCada/7+JvjLR5NUdiwcb8FRk4NJceiEKUhQjhxyrNCYFDg2M5xQRhAd5hibGcYWqt5DM/oZ5gDZ2EbR+yl6H1UHia5vpetbGQY/w+Bjmb0sc8u8mKZmptELscnkY5l8TGMr0+hlQtiCyMU0eufvz7S0hBT6XZ7FOy+ONfhhs0HrLy+2cKy/FXSf4K+0hj6ibEsz2+IJysey/CToed4S2+LjmiGxLT7o82wKfqp/udINzcFPeBNV/7MglBg8RKOHaPThIfmxRi/W2II1tuBMHqzRizN4sXofRudDaz0oTRNK00TQNZO0HoraR1N7aKommqqBqmoiqxtImnqSpoGkboGkaqYoGynKRqqqCS+vI6kaqVoI8Syzl2Hy0o0+qqGNbAgQDe0EfYBkDJAMfpLWQ1J7yRoPSVXPMHnoxhac6hRaVc2MadU4T1tKLxpLzhtLzhqLxg1Fp02FZ4wFY6b8MWPBmK5gJKhhXcG8oCt697Aub8iYC8nkGjQ6B0IyOId1rmF17rDSPSzLHxYVDnOLh9mlw/TSIVr5KLV8nFp2llI6Ti45QykZpZaeppSdIZedIZSP4svHsOVnMRVnURVjiMrTyPVj8IpheOkwvHgIWTKMKhpC5g/inH2cjF5xaq84tV+ytl+W1CdP6lMl9mgSuhQxAW0CxB2Fw6uN9+vjfTzF/iice54481PW/0En5z8kThKJVZqW07M2uy/d2f8/eFW3R3ewNCiyGEnI4TsO5ze/lFL/VGbLC5ik/VAcR12KVBVEyZ0IRS5SmQdTumHKX9T+heoAbxUEKqGUOUIJxW7mV6hDV1EGlxcj1W640oVW57PVOUKKdJPVcr44sS/D8P1Lj9+8ejXbWRlnii9TCC/u35om18u5ViY7lcByUkVleF4RRVSA4zjxgkK8oJTEK6dwyumcYjqnkMItJPMKI9GJwcNnTDC0eVWkgiVI+n4KPP7CZ3etZK1AKhfD5Ith8pUozb1hgruWMVr7Hr05A6Zmpufm5qYnp2anZ8AcmJ2dnQtaO99NTQ889Phda/D3IXn3IqR3wRRL0fqVaMXdy8gNgfPfTQBn4d5VkRIsKQ4qSfgptBnMdidDh71Bmd2McEwhWXSIa2phGr0UU4Bk6SCY2/GmAFbvIRhaSAYP29ZJUrewrT1s6wDN0Mmy+RnmZpbFRzM082PaWBYf19YjcAzw7X1cWy/XOsi2dDHM9YI4D9vSwbH2cK3tPFtAGNvJsrXyYto59gDP3i60dYpsnQJLu8jcLrR2CG2dDFOrKL6PYfYLo9sFtoDA3sG2tnJj/ExbMz26mRvjY0V7hXHtnGgf29oqiukRxfVS9D5+bKc0oYNtbeQ5fDx7gGVp5TramZY2rr2TZQ1wojuEsT0sSxvTFBDH9hOVTQJ78KalDbr4y5Vp9jOCoptaadBn3gvJ2EI2tVDMHmZ0J17nI5jbMSYvytyEtbWgzI1IfSPJ1oHR+XD6ANnaGaU8hTE1Renq0QYfSdNOVfo5mmamuo6gqCUZm1C64zhLHd7ox2n9RJWHrmmhq5tJsjqSqhmnqKPqGjnWFpaxjm1pxspPUswdBEv/GkU7xtKHMnZgoW8CH17eQNd4Sap6iq6Rqm/GqWrJpma8oYFs9hgLL5pKHjaVPKQvGFPkDOgLxvUF46aCs/bKS0r3sLp4VFcyrM7vVeX2atyD2vxhTd5prWtU6xozOEcNzmGtc0Dr6tfk9mpd/fqc0/rMMZ1r1OA+w0pqM1U9LHAPCEtH+RUjnLLT7IqHGOWXqKUP0youkspGCSWD2OJRxqaL6JJ+XOUZdOlFTPnjyIqHo8rGV5cMriruh1WcQa6/sLpwEFl5HlF+AZE/Rsgc4ueeY2WdoaYMCtNGxcmDYkdAn9yrju9UxXXI47sUCd1yR5suoY0j2YfCFxCoufOnO8znraDNb7ocghXG0DScUK4Kh0/DYpNvnZ6KT4xCJZM5JSHirHMNCBQ70EQnge7CU6CqnJB+rsf5H4mDTt6/WloYHLkIEQclh4gDDYhW/txUNd9dFdoglNC8Lmji2S9UjNKUR0jzUZp8uCKbqHejmLpElf7Zhv3vHMvvSWO/M3AcfPdhS/1JV3LsA3bhd4/2PNh8TMniMxnRVAFUK4Fh55MEbqq0GCssxgrKSdz1FE4Fkw0Rh8yDhCSkQtlxJJQsXxYmchYf+n4KrN/luTdcuDBKtggmX4pULYqSrcZo7lvNrveNTc4FgzjTs5BjNQtmpqahf2BuEkAFx61D4wsWR92HECxEKe+D6+9ao1yOUi9YTovP3PDNJGj2n1+xho8jxiDRcX+fOAVk8QGuqYVhaiWb2omWLrylE2cOUOwdDHsb1dJM1JwSxXfQjR6K3se1dzPNPp7Dz4n2UA11dFOTKK6LaeqAWGPrZRg7+NGDvOhurqORY2/g2NqZpk5+dLcwtotu9IgSejj2NoKmXpEyyDa3sfQ+qb2Pb/CLo7uYRq8gppMX38mxtwkc7XyrXxzXJUro5scFJKndzBgvw97CtHmYNg/N2CiI6eDZO8m6FkFCHzu6jWasZ1kahHHtVH2TKKFHENtDt7Yxo9tZ9g6SsZltgwAkiO2haL18ex/b0sW0tN9RDHOAYQ7QLAGquY1i8pONrUF5mXY/UdtA0vo4jn680Y/S1qJ1+xG63STHSay5lmz24zSBSIkXqfFjDM0w7UlSXBfa4MNImtmqFq76MFu5n2NsJGhPke21KFM11tiK17WRNT6KBjJzOIZWirKRID1OVu0lyrYxdQfYxpM8WwCr8sDVAYxlAGHuCVe3YAzNFHMLRdPINjRQFPvQou103UmKvp5p9mKVp8hmH9Ue0BU8qMk7Y8g/bS0ec5SfM7j69NkBS36PrWxUWziozu/VFw0YiiAzR5s/bHCf0brGdM4xA6RRrXNI4xpQ5fZrXAOm3HHtulFt1pAmZ1DpHBZn9yqLR9TrT3Py/NyiLn75GfGGS9TCc+Ti0+TSbsaGfvr6YVLpALViAJHbydz0e3LlI7C8QULVmaiSbtKWM5j142vcA9StD6MqRqKKB1FFw8zKCzT3OC59mJ49zkodEaUMK5L71fGd6oR2RXyHNKFHltgrjWnTJQS44j1onDtYoXPrPJl/gzihRn/kL4jT+3+QOHBV4a9AM3/zl6CZ505+pNyJN5eskmSgtXkkdSZPYjpc6nzZszmQBLufsaB6He7Jzo0Ne3KyDaS1+AXDGxyfXWqpSjXLRAYcIw4vKKQqNqMZToqwmMAvJvBLSdwKMrecximmcQtJUDlyAZHhgvrIUdFwjGX5GnH3yAvfTAC6NHHBKsZihGQRXLoYIVsUJVmGkN4Txh69+McJAG5MTk1OTkPAmZ6BqANmZ+Zmr01MX5sDr354ZQmSuRQluSdKugxjuQ+mW4nR3hPGDsNIPvhi7vV3vodjVBi8HZqr8HdsnDBcLkmyl2NqoZtaieZAiDh4UwCtrsdrqvGqA0TVbpp2P0G+Ey/bQdcf41lbKNpTLOtJtu0UN7qZY/WKY7tZJh/b3CqK6WIYPHy7nxvdwLbW8aJbJXE9DINHFNcliIFsFmFcuySxi+fwc+2t4rguXnSbKAZapUmdbEcjXLqLG9vAszdJ4/x8RzNacZgX20oxNzGivbz4dmlKDzfGL47v5ka3MawtirR+us3DtvsEsQFhXDv0mNFtHHsbzdTCi2ln2VqZdp80rQe6T4yfZGzix3ZyojvuyJrQxTsSh2LyEfSNVIOXpvWzjB0UQzPNeNSYcdjmOsywb8Pr9uIUJ+nGHoLxNErbT7D48aamlfyjNKOfq23mKfbb1x6wpuyjy3bRNTU41SGc7gTF7MEpG/HKerreS1A1EKS1XG0zVbw7JuNIdPoevu4Bpmo/1+ijqFtJ+jaiOYDUeXGWVordg9OdIGmOsfR7k/NO6BO2cfQ76erDBOlRoqqWFdMZqTiJNjRElz5szh2KKxoyZnoTirxlu9vzt/gcrpbovB6Lu1+fN6hxDajzBvXuYb172OAcDho4o0HijGidIxrniDbntCZn2OgaUWR0a139urxBdV6fOMfPyjgpK24WFTVy3C10l5dd0MUu7qAU1LLLm+juOlpeI9nl4ZcPYDOaSbkeWnEzPOswzl3LKOtkVI5h3T1hKSdJxV6suz4quzYqq4VaPEJwDZMyh5npo8K0UUl8tyahS53Q/rONE9NqiG/jSfb+/4I4GEMhXJ0bpc7HG9xYfjSXyWqoSnq/s+hCBfKF/bTna5WPntQ9VOt42rPuwnbZ2fsF3z22+2CulEfGC2RJRGE+hl+GZxcRIYummMwrJvHKSbxSCreYDI0odZMEbga/CI5NjoBDYeMwmOyVd66//zewEiNesJK2CCW+DyG+D4KO5L4Iwd1hrCON/TdmwAwUNgZzc3Mh3EDkmZ2ZBmACgEdffHshjHVflPCeKNlipH4xTLsCpV0Kl9y1nHru8Te+uQG4oqQohJFIDU7txUEFxAgC5FIFa4jXInAZYTgnUbqbZZ4nTgfB3EkwBZhWH0V3PL6oe2/TiztOPX2g5YX1B8eViQdIsl1Fu59+/jJI3zAocpxi6qt5ljpprEcW5xPYGsWOZo6pRpXsZRurZXE+jrFendLBtgbNEHuzwN4osNezrNWC2Eauo5FlbeTavZxoD9Naq81uO9Lzvj6rgWXaL40/lVwxtNPzjiTZy4trkST55Wvb+bEtfEcz3+7jOzyi+GZ+XC3HUceLaeI7mtnWeoapTpbUzrLUQfdxNPNjm9n2WobtJC+uWZjoY9ub6TYP3dbKsnewrLf0K/rME2fezKGY/BSTn2Zrp1n8bKOHoTwhsp5gKYoe2Ha4u2+Up02VRG8WGo6Q5fVIVS9c04fQNGLUNUR1ndBUL1cfFEvyDx6srW3wCyVusXYXz3iIYThO1tTTdB6G1kNU1pE1tSxtNUeyWyovran17t5/iCdOVhq2CbQnBcY2irYBitSoa9H6UzjjEbr1gMC6m6/JbQt0PbBlh0CWobXvF+mOMnV1BH0j1tSE0tdRrfX2nG5n5WBOWUtSxoaz58d27ty+Lmdniqs+3t1lKxg05I9o3aN695DBPWR0DhpzIOjoXKPaIGv02eP67HGT+5wgqc1SOGYqGJGmt6ucnfbKoebHv33yKnj6e+B/4QfH9j5GxvH7B948+wUYugzGLoNzn4L0E0/QMutNm3sCr00+fAOMXQVu7yPM3Bp6rp9fPrB55IMzX4Lxr8Gux/7KXB/AuP2EgkFMVj8lc5iTPsKL71In94W8KkV8hzKhU+HwGhJaedI9GELef2jj3Mmr+t9l4xRGSNw4QxVMUYwUp4uUDjUbPbwr+pOe+I+93CtdnE97+X/tF386pPlsQPNJl+yLfu3Xp2MHtvKMnDVspoQmykGzi8ncUiqvjMopIHMKSNyiYFE5ZOAQBG4Sv4ApKCHRXeEwaxTKBMdqP/4SPPrcB/eG0xcj+ffAeAuRkkUo6UKkZBlafm8kD05W9gxdnAFgcmI2SJzpmembN2/emAPgxhR44/0rOofz7lWMhZHiRTDFfZGKxXD1EphyBVJ513LqsYaR69NAbXSHRakJFKhNIYQbaKz6LeKkIXAZq/HZeNlOlrmFam4jmv1EazvR1Ek2trHMLTjp9u0nn/jbFHj3Crj8Pbg6C17/G1DG789Y3/MlALlbfQzNJoFpvzaphqnZxtXvoyt3SGyHheZDQtNxbYKHqz2uimsW2o5RNDtlsSfFtuNM7U5x9EFZ3BFZ8nGaeZ8gvo5hq5Um+1nW44V7HvroJvj9W0CTvJeqKjvV9+rnAMTkdzCMB7jWQ1zrIZ7tMEu/X+qolcacksQe4Ni2MYzb+PYDDMN+tumINKaGpd8vsB7mWw/wLPtZht3ShGMsyz6idrcwro4f28xxeDmx7RSzh2UNsH8SMxjNCa2hIE5opZpbKSYftFraiOZ2krFZYKnhKDeKVC6N0tB1vOqV8y3rEqLlMrtEXshVHsDr2rDmAZSumWauoyn3UnklInaaXWEd9Gy/NHQ03miVi1Lo/DyuZh9Fdpyl97N1fpK8mqY9QOAXS8XZNqX5wb7953u3O3QKhTiZK9xElxzi6Guo+mpGtJdgqsZptxDkeRxxfHKc46WLJ0eaK7QigVgQLxRXspUHMcpjFEcrxliHVu6jyTYnrN2zLrVoe6Xr5YuHhxrdRRlJaWsrHGlHbK6AsWBE7R5R5w0Y8weNzkHTz8QZ0uacNmReMGQ+pHOeNeZfkKcPKDMH9DkjvLjmlgvXPgbgzGs3Tr/+zbtz4NLHgJ2yq+XJK28AMP7R5NgHN/vfvJmwd1xR7HvyK/AWAPUvfPjYdfAqAFWBJ0jpR/ec/+JlAB66Avo+mH4GgIPPfw3LOYXI8+MLhzHZQ8SMEW76kDilT5HQrYrrUMd1aOLblQ6PKcHHle1CE/IIVOd/O47zv4s4xdBMWXkxTl1ElSfKRZyTm2zv9qe82UD+up85McaaGudNn+FNjbInhpnXh2lf9ZE+b6d+0GVq3mIV0Yl0loMuLCZziiisYog4XGgwO5FXQBDcEolfQGHnM7iFkQh7OFyPp1qvXANjl15dsBy3DCNYiBTeixTeAxctQsrvg0uXIKULFhN50uhvvpuZnIICxrNzk7Nzk9PTk3MATMyALbtOLViEX41VLUOqFsFUSxCaJQjNokj5CrRmwSLS9sMdNwDQWQqh8V3E+OA40eTQUNF54sDwGavxWXjZDqbZCxHH4iNZoWgO2djGtTRTlNu3HDt3dQbkbajnqtPLdhz9eg4c9T6TUxW4AkDe1tqE3OpLL86+8jF49TLYWf2YMfngo3+aPtX+qspxkK/d6R/6PHD6iti+rf385Tc/By+9B7YffZgidZftHrjw8s360x+PvQwkyV5pkpeu35d7/9DVWfDNLOg59wZNnuYZeebzGWDJPJ65vuupv4A3vwQvvAc27H+QrXqgZOvYk29OeUdffv0KuPinqdLdZx58cfblT0DvQ1fUsbsV9h0Juad+/2fw2qfg4ssg1u2n6/fxbLXc6GaGySNJHODY2kNiWwMsa2AeOr8iDtXcCskaYMb3k0x1+pRqd/mxwvyCI5tT3ugr/tuFjW27UkrSHGV596c5a0n6mihtM1JTS9IfMaceL62ornIW7S+K+fNY8fuXquq3xJekJRcVHYhbV8dQHaUo6ujKOqb6WEx2Q37Z0ZJs5/Gq+HcfLn/zvPtwiTbbYc1zHYpOrmUo91J0x/H6apxhf3RRjXvT3mJnetO2lA/Olbw5nHukzLLe6SwqOG6MqyZpqzH6eoSmmmo4lFHo2VBxsHp7+dnGvE8fynt9MK1xa8LxPTvu3+5JKQlocrvVUMZqUOPsMeUMm7KDLpVrVOMa0jpHjJkXjBkPydNGVVljtqJL6nUjhqwzhqzBxNKhnK2DgvgKRXrVy1+BV74BsRUNvkcvv3wNKN07qYklsoL91NT9GwLPvwfA0fFnSKkVlu21b86BkTe+5rgOvQjA+IdAVniEkb2154OJJwEQbeuCF3jhRf2IojFCwXla1hgnbVCS1KuIh4ijjW/TOLymBB9HtgtJzP0vEofKDkWO/y8QpwipKvopjlMM5aduE05biVcXMAwZJDZjU7781eHM504iwZMqcEkwd5Y53UcH/SzQRQbdmJt98Ov98MkB/Cd+9rtDxUcqUgRUKZORwuYVEOluyMDh5RP5eUR+HuRPhXrKeYUUViGV5YahHBEIHZ5mvnIdPPSHtxaswC+Cs5dgJPfARXdHie5DKhaEixchVVEU430riCEzB/KpoHgxFNC5fnPmky9+pPGsi8MFK5DqhRGKRTDVMpTu3gjpUrhmKUK5YDF1X/XAtRmgsRZGYsw/EScxeHRMwi3iYNNh+KwgcXayTD66qZ1s9pCsXrIpQDa2MvSnGLqd20+e+w6ApNz9UWRDSuHmr2ZBfcef1pV6rsyC9PKD60pqxh7/vHxnYPSxD7+YACn5h0Yee+fTG0BhL0vKO/j1DNh+/HTPhT9/egOUb/M2tf/hxhyo2NK0q6b/awD+8j2oGfiAZzspsjewNHvX7xz/9ib48zvf3QTggf2NTd0jPwBgTX2g5IHAwENvlW5rfvSFK19NgsR1R7btH/4OgLc+m2jqefKv18BXM2Ds95eHLr73zSw42vSQ0lZ85Rp49IWreZWNz70FXnwXKOOOSaPreOZGYXQ7VevlRnfMEweCzk9mzu3EYZj9dFMrw+ynWv04czNSvSsh/8jA6JlXn+p47+GNV4YtXw3qPx7Ofmv84GMjPZWbq0mGrSjDMYK1Bqu5P73kyJkzZ959qvP9B9d/ds700Yj8rZH0P509cuH0hdzSJpp6N0V9jK46ylHtcFfUnT977o3HT33+ZOVn46b3emUfn8t7+5Hqc8OD63IPMbW7WdZGrLGGYN5RerDu8afGPnyy5fOzVVdHYr8YiXlzMO/NR3y97aPxmTUE1RGEoo5obKbpD9y/p/vFP/z+lfE9n11wfXfG9FGn4s3RgqfOnPL6e/O2duoLOjUlo/riYXVOryl71JQ9rnOOayHiDGidQ8bMc8bMC2b3w5qcc/K0UVPOOU3qiGndkDG9NdpZq0vbkr+r7gsALrx6VZqy5cmPwNuT4LUfwWN/mzly7mVGxt76xy+/NQWKTnRynHulxUef+2rmxe9mEw/5XgGg65Xv6Clb6FnbqvqfeRaAtS2X4EWe8OKe8LKzyIqHEc5RevYZ3to+aUKPKq5DG9ceIg5XvhtJdv/bxIGOBvplripEnNTsn4kDneXwU6IKT8n5d3JVCGX+fK4qlPOeDxXftvm7xEEqimEiN066jixS2qz0P/S7Xu0UX3+QPXUe9+MwanaIAtoZoJUJmgnAj57pjpgaiJzojvjcg/98aN1j9cXRXI6ME81irIPixJB1EyKOi8x3k/kFFG4xhVvKFlbgKdlwdEwUyoDAaz75Evz+xQ/vXk1aDOfdG8WFvCq06u5I+VK0fiFc+7sw4b0raSKl48rXExPBzPiNm9fnAJicAfdvr/ndElIkXr8UrlkcpVoMVy+Mki9Fqpch1AvDpfesZB9rPHPlB6CxFofBjRhyyLpJgJHiYKQ4BCEBiuNg0xG4rFtelckPEcfSQrJ6QsQRxHixok3bay58NgFefAc888b05Wvgsx9BfPZx94bAlSlQtK1OYS/bWzvuH37+zBPvfjkFth7tNCaXfw/AxgMttR0Pf/wtMCZt+PQGePG9r7tGnhs9/+drE8DbcWn74cDn0yCprIGo2SRPbOGYTimiT1ZsPfP1NbB1Z9PFx9/6YQr88Z3LVydBau4evaOyru1Cz/jTjz3/4bUZULLBs2Fb4JtJsH5nDYZlfejZzz67DqTWXLEx5+pNMHLxtdLNp67NgktPfdw18spjL3z/5QTIKu8XW05Ko1t5pjaBtYdn67odOr8iDtPSFkJPiDg0q49o8zJiqlmGIpMt2n8s950x9zfDhu8HlR+0259ocq3PSRHKk2nG7XhLDUp/lGzaxVBkxsTauk9kfnTB+dmg9K99wrf77GfrnRkJ6RxJAVWzj6I7wVAfYyu3s8VZa+PjL7TmvXs6/uMu4dVh9UeDif0H45JtBjo3kaU9gJZXY4wNJOs+oiJmXarx0QbnN2Oub4dt35yOebMjabTaHWNJYkiK6foTeF0DVlXN1O1jiNLyM1Of7yn9eMDxw5Dqm2HdmwNrA0fXFRaV2HMOqFx+SW6fIrcPqsTJHjdmn9U5x9W5o6EslTFz3Jh5TpV5Wp93zpAzbsg6Y8ka1yV3xeR0yOzbKw9Ahu1b34HUqiO6jB2Hup4+88pXnU99+PIPkCf1QO9z9Y998FcAcg/6GBl75SU1z12dfP7ra8nHml4CwPvMJ2LXflb2rvuHXvgjAJmtv1+ZXYPYNLqkaHRF6QVY0YPE/Adp6UPclF5JQo8yoVMV4zMl+Hjy3Rjiv0McPDElWP73j4gjku/AEKC29X+KONB5Vfhsnv1QQcsf50/IWy0tRCiLUepCuDIXIYVKchDKQqge51YWPJQL/zkjHjoDDB48N+PWCh0kVgTNWuc7eEKavzr9+S791w+Kpy4SfxwNA2cJn55Y+rJ7wTv593xccu/NI1GgCzXTD5vpRXxWF/V2Nfeb8a2HM+1iNFPASaawoUE5OH4BXuAi8XMovFwat5DGrqCxK6jsEgrLhcLFwzGmMLjkuVf+9um3IIokvWcNYylKEvSnFEvRxrtWSe+L0CyOUqxByxYsgheUPXBtYub6xOTU3OzN6bnu/jMLV+DCUNIVMOXvVktWog3LULqlSNXv1oiWIdT3rRHfs5LdMfjsW+/P0LnJCLwDCY1MhwycXxEHjs0ORo73cox+hrGdbGomW5pIJigxzLZBcZwHah79dBI88grofugr7+l31pbV0+QFVXuGvp4FacUHfcPPfT4BynZ6qtse/g6A3TVDdNm637989S9fgE9+AG1Dbwi0JR9+C177dGrrgc6t+7oOHh9Kyd6+40TvVQCi809xYw4qUjvYlmZpdEPRprEfpsCOfZ1qY8GHn4MvboCrUyA2Y+fwxfe+nACVu2oDQ09cB6Bsc1vFlvYf5kDh5pM8jfvBZ75590tgTKnSJpR/9C3oPfdyXsWxH2bBwIOvl2zx96SfagAAIABJREFU7q15qGrvOU1itcRWL7D6hLZurqWHY+2cd6xu38y7V0xLG93UGhLV3Eq3deHUJ0S2Q3pzXqpO8ErvpssD674cXPvFaNkJl8YkjRZr7mcaajHqFqy2mayr4Wi2yRXxBYmcN04XXe5fe7kn+e3+gl1Oo5SdIFLvp2qqibpamvYUR3NMptsjE8StXyv6y6D76lDqlb61H/aV3J8gUbJNUtUWuuwYWePDaP1YzUmhabtSaDiYIfh0KPeTvoRPhzNe6yhIl+GNmiyBbhdRAflfONlunmmfSFsh4SgbKix/HXReHYr5qMv8Umfaxixhbm5JTG61Jr9bnDukyofSUvrsM/rscXXOmMI1rMzrV+X26zPHIOUM6VyDuqw+feaANqXblN6pjDu2+cjZTybAsx98He3eLIorMLr2KtftYMeX4QzZiZuq3wcg8MLV+wOP/hWAgz0Po+0bTBub3wPg4Q8/lVdsfwGAi58CfsZ2YlJV+xvXXgZAvCWAKmmLqBxaWXFhdeUja0ofxpQ9gnGOkTOGWKkDwpReWXybOTkglO7F4fOIZKjL4Rd5cXLGr+pxblXiENbiICVDY/CxazGYFAwmCYOBBuCjcAkRiEQysyg1u3ttVk9GTr9Qth2Nhzo5/1PiIFUF/yFx0DI3RWyPtXIfDmT+uVN48yL75tmoqdHVcyOo7xsiPtm44qPC5R/kLr55AAPaCdOd8Kl25A0/6e19mO/6nI8ccutweCErlsbLxfGLMIKiEHFovFw6p5DOWk9nrSczi0hMJwIPEWfhCubw2T9enwE8ZeK94cwlCNEytHIpUr0oUvm71bJwnG1JlBxGUC4OI8an5YUcqhuTU9MA7D5Us3gVYfEa1rIo6Sq0bjlSs2AVfzlGtQQuWxwpWw6ThaNVz7/y1cO/v7xijRxDiI9ExQSJkzhPHAQhZOPkhLLj3N8QhxPtw6v2ba556vIEiM3rxYu303Q7SYpNbM3m/M0DX04B1wb/ibanPp8Ex1p/P/bkZ5/fBLtPnqVKcjfu7/vbBPj0Bsgs8RCFhcf8T385By698MPjL9184U0gMpQc9j32yQyIr2jH63eLUjqF8V0MfU3Jjke+mQE7jowJ1ZVr80599C34BgBD8r6xJ7755AdwxHP+yVe/vToJijf3bd57/usZULStk63ZOPrkj+9/D/RpuxWx9799FZx9+guBqfip129+/APoffDynz4Ctd3vcYz72eZTAkcb3RAQOAb+GeKEvKogdNrIxjaOrV3saBapyqpyi18Z8zzbsemxOtdrvbvb9z3A56ULTCepOh9R20Gz9jBMrUJzHYW5dsf63LcePvWH5pKnm8reOnuyftdWubSEp64ma+rxunqStpaiPsFWH5fIC49uKf3oUu2ztfkv1pa+OXDiYGG+WpCh1B1kyuvxYg9K5sUp61nKvWp5Rs+hDR+e3fe0r/ixxsI/9R3aW5wvkRcylPt4xlMU1RGO4RhDvUes3yGXJA9Xb7989uDTdRkv+QtfHz94ZLM7KaXClt2oLxyV559V5o2qc0dDxFEGiaOAiDOgy4KIo83uU65rN2b3W7IHbTlD6kTfnrpXPr4BPgdg9Nn3ux59veORv1ScGH/5GzD0x2+rx/708PsTf5kBJx78WJZ3/J1p8NY02Hv27dFPwLsAVLUOM93bm16++txN0PLMlRNPfPwsALWvXqdUeLGVfciq8fD1F8MqHl1deimi9FJU4TlE7hgme4S2ro+XGNAnt4ul+4g4N+n/SeKo8n5p6QSLjEPWzS+PZEbIizCSPIrAUJGjfak36+Me0ewF9s1R2NRQxHQfDATwE0fwfysN+0vmwut7CMBPm/Cjb7Zi5jpYH+5DfNFkvty1JZFJkLCsZF4ONJrrl8RhQsTZQGIUs0Wl0FAumO7epcy84v3XJsHmnQ0LVzNWwMVLYbKlMEUY1rA0Qr4kTHL3UsY9K4lL1hDOPvL0RDCEc3N65sbkzDsf/I3KVi5YiLpnBX05UrYcKVuKkK7CKe5dw1kYxlsWJlAanJ9/BQ4dG1m2Wo4jQVOjgjNZfkMcrDMc4yZJoBoQprEtZOMQzX6SqZVu9lAMJ+KLB+qHvjRlDjL1zRxri8jRIrY0puSP1wT+Zk7zSqIPHGl9dfDSd5sOXjrV+XpGeYCr3aSJ3/XpBHj0la/J4mKx7QBNvy2xrKfv0YmeizfWH3icpd+atWWwYfwzU2E32V7LTephJ/SwolviSkYahj5MKwtwdPultprcLWP1gx9pU5rkiadq+98bfer69pNP1Ha/58jqTMjtbxn+wuFqp2uPVx197VjXJ0zbXkHMoZq+D8sPPUJQblCnHN3Z/EL/Ez/W9H2YUNpPMR4SJbXy4jspJj/b0cu23dnGYf1UghxyrObNHIaxja5vIWpqBOY9jXUjfa2dhZnrzDLByR0PdHqG1QnHmTFtWHULQdtG0LaiZQ1kZR1budXbOtDlbUzTWRKk6up9u3zefqVpD1NTQ9LW4nW1OF0NRnMCqzrOMTzQ1z3SuGd7ptToVDg8u4+11/coVcUM4VaurIUuCVCVPoKyhqbcZY57oMvfUbd3m0WszIpJ7aqv9zV089Sb0YJ9bE0zXdFIEp1gq2po8t3RCTvP9QzWb6/K0OnzouMH6lqajgQyshtjXSOa3HNK90V1/rjKBZXeaHNOK53DCtegIq9fmTukzRnXZZ3RZUMdD4asPl1atzljUBXfWtPx6RtXwKufgz99Dt6+Bl75Ctzf8Fzfs5Nv3gRvz4DXJ8HRs+/LC9vZGQ1JO3seuwqenAW/nwMb+5/l5B8m5NXyNvYc/cMPzwPw2Cyofu26dP/I8sxqeElfZMlYZMmF8JKHI8ofCSu/uLriwRUlZ1cXnEY4hyipHcq1EHEo+P+IODj0/wUbxw2x5l8gTgFe6cIzxXsqrC+2J3w1JJ8dp82Moif7o6Z74KCbAho5X5RHvp2x5PpuKvDzJrzEaT9lwke7ehz/8XHxX3s25MjpEpaZwM4MEqcEz88jC5wUnpvGvWXj4OlFDGHpGqQ9HGWMRKiZvNjvb4IXX/3ivuXU1UhJFE591xLq3Utp9yxnwNAKjSnrQHXrn97+eAKA7ydnZqC6HDAdrNC5/Nl3h2va4lJL1mBEC5aRFoWz7lnDWIkURqLl9yymHjja+9mXwGQtDZ5CA827hKbtEpJDjlXwUKqgjXOLOHu5Ri/T2AoVtlo9IeLQrD5BrJ+sO4IS7abrW2h6qFeAaQpwTW0icxtX38Q1nFLENZHkOwni7TTlHqJ0iyLuxJOvg5c+BB9cAxlVXq5hl8Rex42pZ0bX4VSHieojNONxTnQ12XiAbD3MiG9iJLRS7AFydDsrNkCLrmXYDnJshyQOnzqpV2BvpJtOiOJa2dENJO1+inYP03CIpj0ktnsF0V62qZZpaZAmQl0ROPUxQYKHH99C1B9h22vFSc3ipEa0cgdeuwcm2UI2HeEneWnRzURTEyO2kx3bw/4pV3W7S8Wxtd+ROFDrg8HHsQSgkkLTkeziZnN0JUeWpbOVczgJa7NPCJJ9a5T1SHUz2dhG0LaRDR1YWRPPUpfqrlHqc5WyIrnELdNmJucdENuOU1SnKLpGnLYOqzmJ1Z2KUlXTLIddZcckglgDv8gqXi/jZ+a4jkl1DzClexiCRraknalooSiPE6U7xZbtRVWnRPI0sbyELy4wmPOTs/fRVXs5Jh9HE6DJPAy5hyar5WhrrMk16eseEHItSmGeVlIWZ6hyO+sdyf7o7HPKzLMK1wV13llVNpSc0jpH1M5BlWtImTugzB3S5Ixrss+o0vrs+eO6jH6bc1SfPiCL9ZvXdVky/arkI/rManV6jTK9XrHWw42t0bm8ugKvKr9J6GqBOiEKRoSFbcTsE/Ld/fiyenJxAz7fQ9t4DlEwgHC14gq9hIqWqMJTUSWtYUUd6KqzkcXjsNIHw4suRJQ9uLr8woqqhxZXnl9cOr66YBSb2S3O6OQp9hAI/5FXhUMn4TAJIccqKuhVQeeO/xe9KriiCKkqgClct8Vx/iXilCIUbrxqHZ7N3lul/WO34+sh8dwoZWYQPdOHnOnDgk4aaOR/Xhr5bsbKH3dxgE866WXOtNGnfPRPDkR9cEL8Sd/mPL1AyLaSOE4CvxQvKIVqcAS5ZL6bwi2kccpp7AoyuwxHz4vCJsBxdgTGGImUX3r8nWs3QUJq5V0LsUtW0eB4icmR0xI48/a7VyfmoDK/63Pgh5tQufHMzNzUFFQPODMLpoPdD5MAvP3RV13Dl+Izy8LQ3IUrSYtWUHAk7atvfHvm3GtIpB6LiyEQ10FnyGDT4LiU3xInDOsmSXZzTU0Mk4di9lAsrUSzn2yGSvsFsQGevYVtquda27m2Hg7UWtUDNQoYW7k2D91Yy7bW8x1Qy7UktlUa55PEejcefcM7NpFaOcKzHRY7WqSxXfzYTqa9TZjUS7NCpcPydT2cuBZOgoef1M5O6OIlDYpSRzmJ3fykdkp0jTi5VZbUL4rp4zvaJUm90uR+rqNdltzDiW4Wxvgl8Z2KpAGWpU0Y2ylO6efFDfAThoTJfaLkXm5cByO6lR0TYNp97Fgf09HMjfdw4z306HqKrZ5u93LiO5iODoYtwLG1c61tIXFsbfNiWVrnxbD46GYvw+Jjmv00HWT90Sx+krZa5qhha/cwjTUs00me/jDPWkOPa4cZPDRHO8ngQ8q9FGM/ThNAyap5tpMM9T6a+CBfX003bMdr76eZagiqWqoOaqrCqxrw+kaY5hTBVE1TbxFrd/IEh4SyaqF6v8CwlyzZyVJWs8UtHEkrU1LL1dVT5Ifx4u0c3W6y9AG2ppqjr6Gpt/Ct+2jqk3RNK0HUTFP4aTIPXdHIUjXQZAdExu1K2x6OdD9XcoQv3i2UH5CYPcbMc2b3I/r8i7rcM5qcQX3OkD4HamUItjgMqXNHNc4z2pxxU85ZU/aYPKnHlD2mTR+xZp81rBs0rusxZQbMOQFjZqdybYc6dUCzrk+Z7lM62xTuTlZ2BzljgFN0keQaIBT2Yiq7o0r94QVt+I3no8ofRVY9EVE8AivtwW7siyjtWF3ag9h4Fl710JoSKFEVWXouovxcWMW55VXnF60/v7DiwsrScYSrj+Psomj3wMlOHBWaQPrvxXH+3yAOVpFOF4s35ovfGkn9olcARmiT3ai5AexML2GmjQzqWZeLV76fueTmLhrwiie99LlWCggw/7j+3s9aDB8N78jQCHhsG0NUROKVQl0OwVJjgiA4bp0H5aqo/Epo2gYmJQJlR2BMK9bw45IqJmbAS6/+7d4lGIU26cVXP74xCabmoFLjm9Nz301OTAJoD7VvzoGZqVmoz2EOgs71ickbU7OTAHw7AW4C8Ncvp9KdG+76HeLIsa4rV0FyyiY4XEshJZPJmRjcuiBxUmFEyLEK2TjQzDocFMchSndyzHUMczPF5AvWvAXIZj/UkWTyMA31XLOHDVlAbSxzF8fWz7b2CBP7mbZGYaKPHxegm72ShF6m2cu2tlL1TXhFNVFVzbbWc2wNLJOPb+8RxvULEgZ4cT3s2A52XDvZ0sSO9YmSu3kx7VxHOz+mmx/Ty7AFpGlD/KRObkK7OL5PGNsjju8RxHXxY7oliQOypH5ZUr967TA/ul0a3y+K6+U62tkx7UxHByumkx3TTrP6eHE94uRBsrFVlDJIt7YJEnuYdp8wqYtp97EckEvFdbRT9B6eo4sbHeDZArcTh231s63+EG5CG4bFFxLTHDRwTFCTJ1nfRJRXk9UNDGsvVt3GNPtJuoZIxUmMqYVi8eI0jVh1G0bbgTN1UaK7sZo6nKqWom0l61rgykNk6yms7hRO00jVBEjKVpKqmaxvQuvqsbpTdONJhvYkQ+Glq3xUVQ1Nc5yhrWWpGniKVr68lSk+yVPVcjQNdE0dQXqcZ2mlaDxETRNGcwSrPkxWNNBVrWSVj6Fvp6q8VGUjS9XI0zegxbtIqsMsdQtb5RXom/GC/VR1Ld3YIk7sUWeN6HOGlOk9huwhQ/aQPmtQnwMZOzrnmMZ5WptzRpdxWps+ZMoeNWaN6DNOGzLHFMm9mrXd8kSvNq1dndpnzjmrTIaaoaLzh5UZraKsTkHeiKDoAinnDKngIWzROVTFaeSG06jN58NKz64qexS26enw8vPh5SOo+8cjKoeWFw6tLj+3rOjMsqIzURUPRpSPR5SPhVWOLa88u6T83KKKCyvLzkcWDFALuhDmnSvpWWj6f404FEbR/x4bpxQuh4SQF2FlLqbUmB3PeGUg87NO0dwgY6IDOduLnegm/OgngCb6h0W/ezdzwc1dMOAjTXjQcz7MjSb0Cxvu/aov8RlvuU3E5HHj2NJyCreUzC0n8QsJggKssAArhMqOybxiIqecyC6NRKesgUdjCY4ohDIKJnrqmfev/wj27G84ffbx6SBfpmehMRVTsz9Og6lJMHlz8kcAwNSPN6He8ZuTYGZ6egoK7Nyc/HEaQCO7vrkxe2MavPr6pympZW+//W1HxyUEXIbDWEiEZCQiOQqegsCug+OCxCGGjvpNRuLSYbic1XgnUbaDYzlJtzSSzT6SpZ1i7oCayDVNdEMz3+LlmlqkMVB3JcvkZ1u6OI5BstlPja6lOU5xYjtY9h6axc+MDrIjtpMfF+DFttJNTfyYNr6jQxTXy7O3c2x+ps0jSe3mJwb4idAd+DFtInu7MrFP6ugS2AKimB5J4hAvro8Z3S5N6JLGBaSxHdKELoEDMmeEMR3C6IDA4pfFdMnjOqVxAVFsGz/Gy4v1CuJbhXGtgtj/j7j3gI7ruu69qWeRAAs6pt3e7/ReMeh1KjB9BoOZQe8ESUlWsWSKvYgiKRYQjZ0S1Wy5xHGcvCQv1Ynj2H524vXiFxfJjhPHseOmyjpvnXsHA5CAZNlxvm+t/9rrzMXFYDDE/LjP3vvsfUHnW9L7Lll7XsQbzjqjr2o6L+p9l8zdVw3ei5qORa7prM1/1eZ73tQJDrJ/eOKoOxc1neeUbbPK1kV9F0h1adtf5NteYluusY0LBu9FquWssmuRaTtLt55jOi/DzYuy5gVFy4Lc/RwttNGhW2fhxjNI8xzSdJZqXmLqLqrcF1UNs2CH1XSabjiNu04Qdc9xLQuk+wzbfFrddpawHgOhGec5teOsyvas0npM6zhtalzS1C0qnfNc/Rmy4RTjnac65tSN87rGJbp+jm6ZpxrPaFrmScMRY+Oc0X+BaDjBO89o62eVTc/RTc+oOk7i9ftVnccb0le8o58OjP9+W/bVtswnW/s+0Zb5VFsOnOcUjju82pz9RGv21c6hT7ril5vSr7RmP9mafbUt+7Jn+FV3/HJ7+rXmxCeb459qir3UGF9s6F0C25/MdV3ueS73snLsj9HhP6J3/mn1yGuyXb9XPvWa7OE/rtnxherpT9dMfwLa+Zma8ddkO/64dseflE//YcXM56sf+lzVztcqp16unHq5auYzFVOfLZ/6fOX070vGXiYmrlUEPvagIQ2pf8fESfat5KoY7kPmqlSDErLP6DsgZMe/2Dv/ZSx2oMI5pqgDJ8XldQNyJxhzIWTHhV3V/Qny94scT0EuMLKKsfi66pV/utj3L8+3vnddd/MqeeOS4t0r6DsXyPyS8lvjG/6hb8Ovdtfk58n3ZuX5JewHByq+uR/78Wsj559MOnR6g61XZQcHOIGMADRC54oxxjTGmCZ4y05CPa4gkjUKf7WkGcNaq6qN/uDYjZv5X/4q/97N/FvvggNU+fytW7fevJN/6w5oIgr64wAn587d/K1b+Tt38rdv3L717u1b74LmObdAqQ7Yc93Nv/H9N//0z/7Pl/7uXw36IKRwI3AHToRAP3CiTySOMG8zLNYfA+KQmWoiyzgfN3Qe03Q8p2o/p+pYULcvqtvmDZ1zpvaz5razTu+8rvG4tWtW3zZr9lw0+q6qOhZssXmN71lN57zJf03vuWD0XwCdK7rm9J6z7vgVS3DJ6F20dV+yBS5YfAvuyCVX9KLJf87Ss2AJzjsjF+3BRVfgfJ3/vMu3VB+87AhcNnQsOcIv2nuetwcWGsJLdcFFR3DRHb5YF7pg9S40Ra66Axeaw1ddvoW64KI9cM4WPFcXWbD4TztDC46eRVfogtW/aAlcsAQuGTwXrMHLNv8li29J33HO7l+ydMzbPUvm1nlb13mLB0SCTJ4FUQbPglFowWPonDN0zhm7wC+u7TgnStc1q249ZvSc0bXPqprOGdovK5suks45bfslVeuctu20pvWUqvm4qu0U03SSbj5Ftc1ibbN05zzbPks3niAbjtDNx+nWWbL5LNVylm85xzjOahvO6RpP8q5D2qbjyobjTMNzus4FzHWUbTqubHpW2XBcXX9S7T6hbzjF2Q4bG46b6o9rbMdUluOWxiW187S24QRbf5RuO0k0PKutP21qPku5nuFaTqraThH2/c62c1rnMcJxRNlyWt9wUl13lKk/zLcf5VoPsI1Pq1r26ToOuUJzvoFXOjMvdWZe6uh7qTPzcmf2lfbcK60DL7f0v9TU+3x7/4ut2WstmattuevN6Reakpfb+q42915oTV9pTlzr7PtkU/j5rvSLbYmF5tRCS/ZFS/yiPXvJMfKyMvuacugPqMHPsNOfQ2c+ie/6NDT5CXjqk9TDn4amXpKPvYhOv6YY/3Tt2KerJz9Vu/2TtTOvKHa+LNv+PLT9BWjqFdnEK7LxT8onX1WMXiUmL2ztfuIBc1qi68OUvTgPhn+IeyuxPw5NJ2k6KfasIIXBZGDiGC1MbgDZ8SiGRQq7KrwHxUMyKCz6OAJxrv9G2fF+hM9KqF5T4MDQua9ETv9t78LX4OjhcteY3D2sAJOqhiDXKFw3sYo4xaPh4gIUGd9TibMqb4XU71TWZw0a5dHt7W+80vuTq9Y71/k7V6F3L8huXSbenCW+v6f6X56seusIkT/L3z1D/+J47RdnNnxvqeOHf7A/3mqxO7yYLkU7H8LNM5QJEIc3ASlNE0rTdqV5hjdtZwzjMiwmVQRQLEDgXSjSWFNtWpz77M1beeC+5PM3QLBGPKr5Hmj9VzjCeVdY3M7fuim4NXfeeettcMLzTv7Ge3fv3Mr/+Edv/9EXvvL3X/lJW8d0lcRNMkGc6iGoCEaCcVTi5ClhDow4DSYO5i6RfTK6H9dNqeueMLTs0zcd1NTv09Tv1zbsNzQeMDQeMDUeLKj5kKn5kKH5sA50HT2sbdqnbdqnbzmsbz4K1HLY0HrE0HoERDeAjhRlaj1ibDtibDskytR+2NR+1NR+1Nz2jChL+zFL+zFz+3FLxwlLxwl713GnIHvX8WWdcHYua/WXPMfsnmPWjmOWzmctnc+aO8CTFDuWgpajbUeNbUdNrfdIfJ3glQsC7T6bD2mbD4HWn+vooKZxr6D9msYDoPtqwxFR6vqD6ob96ob9qvp9QO4DyvpDvPsg497HuPdwdXs4127OtZut2804C2KduznHHs6xm3N8nHc9xTt33yPXUyqnqN1qh6in1I6nNLYn1danVJYnectTnOVjnOVxzvYYY3+CsT+htH1Mbf0YbwdSOp5UOZ4Qbi5cUVme4G2P0bZHKfsjrPMRzvVR3vGI0v6IuXlPY+BEW+RsZ3yhI7bYHJ5risy1JBabEkv10bnG+EJTbL4pdq4xOtsQOesOna7vOe3uPtUQBqrvOV3fc7Y+eMYdfM4dfNYdfLbOf6oueNrR85wlfNoYndfGFlWJRTY1z2YXyNw5MjeP52bx3CyWPYNlz6CZ01j/OXTgHDY4hwzNIUPn4MEzqCAoexrOnYFzZ5DcKbz/OTh9uML30U2O/kpTWqZPKbRJRN1LcCmaTXF0mqfSHNnLUr0idEg2jjExMEaZjqJkCCNCReLgaA+KdSNYj1QRYlVjycyVWN/zvdkXVhOn2Azn/WqOReIkTYF9BeLMfx2KHi13jUjB5F+ROOOriHMfbkCh4PrEqRtXuCaQhodrNTGjtamngf/zufR3r3T9+Lz25/Pw3Wt0/hp355L65oLqzoI+P2e8dVL1i8PEX45u+N5Z+8++8NizU131ZovOGlI2bJcZJzHzDCkQR2UcUxvGVMZxpXEHb9rBm6dY/agcj8qgIIL6UaQThVthWZ2s1vJXf/XdX72Zv3k7fxvo7k1h3yR24bp789aNd98DrMnfyt+5effODaEJKQjovPfunbu38q9/9z/+6s++/rdf/HZP5FEY88oRL8lGICyIECEwBo+MFYgjjMETBg+AiUgw1SvB01IqI6f6pVROSmQlJBjVoGAHZWROSuVkZL+MGpBTA6KV04MyaqgoBTNSFMSOrpWcG5WxIzJ2SMYOybnhZY3KOSAFP1YUpBwvaL3nWfvM4hXhSSYUfEFyblzOjcvYMRk7JmVGBQ1LmRVJ2OFaZqioGtA0vqBqaqCaGqgh1ypXQ2VryNwqgXtqqUFBwzXkUEHESDUxKKGHllvQD9RS/UVV4ZkqPFOJ9VWg6Qo0XY70lsGpMjhVhaSrkd61KpfHKxSJCkWiEkpWwakqOCXeI1yMVSpilVC8Gk5UwYkaJFmNJFdb8XrBYqlKJFGBRCuQaJk8tE3SXSGP1mK9CDdM6adY4w7SsB3VTSP67YhxJ2zYAWm3Q9opWDcNCxcxvdC62zANa8ZhzZhoIfUoLEo1hqkmMdUkop5UaCYluslqw2SlcXqreXqLbarEPrXRMfURx+RHHOMPOMYecIw+4Bjd4Bp7oG70gbpxURvqxja4xjbUjT1QNw4W9sENltwGe///cA08YM9tMCS3WVNVpqREn1RokyifolYRhyPXEIeJYFQYJ8M4HsbxKEhU4YA4MN4tVYQY9TrEKeKG4N/3lMMKcYbnvgp8nN8pcaTWMa5h3NoUVTHE7tGWf/7sIz94oed7pzTfPyL7z2OSG6fQO2eI947jP90ne+OjFd/YVfXTq6EffWbn546/33NuAAAgAElEQVQP99SpzEa3yhrDLaOQcRKzbCfNoOGx6ONwpknatIM2z/DWadYwAqbHwn4I9irkrSjchqOtUomD5zrOn//82+/k33w7f+NG/q23boOeFGInLpCbEnCTv3nn9rt37t64ffvmrTu3b7x35yc/efMb//s7X/vqt//0f/59Z2eustpZJW0mmDBKdkNYkGBi6xKnACCqF2FzEJuF6BzE9MNMv2gVdA4RZrCg7DDCDRctyo8gXEEoP4opx3DVOK4ax5Rj76NRTDmKqgrC1GNAqnFMNY4qx0SJD1fs+z7V+j8CV4K/eFQ5IQrhxxF+FOFHi8+/dgGrxiDlaFEKfqQomBu5R/ywnMmtEpg5I0pK9q/SoIQYEJSrJTKiavC+1RK/S0YDskvIbOE2rFdG9K0rKZ5eT6laNCHBkjI0KcVTCrxXRvRCRFpOpkUrXilaKZ6SUalaPF6DxaR4QoLFa+FItSJUC0cgIk2qh5Wm7cDpNm4nDdsJ4w7UMIMDTYugAWMC9JO4fhLTTQgaw3QTuH4c14+TOiBKO85op2jdFKUD34IYpiDjlMw0VWOdqrRNlduntjkntzgnN7vGN7vGS+rGS+pGN9aNbHKPLmt8Y93YJtfYxrqxjc7hTa6Rja7Bjzj6H3T2l7iHNjcMbanLbbOmKs3JGkNCpksgqgTBJWg2xTApwcEpEEcc94yCIbERgJv/VuJEz3ypd/7rcOR34+NArnHYMU46h3hnwtnoM6mJvdv9fzY38G+vDv3nVf/rh5Xfelz6+m7o20/CX38UeuOo6VevDvzr555efCLpt7N1JqvJ1s1a0nJtP+3cSVq309YpzjLOmUdY8zhtniQsOwjLDG+dZPSDMjwkEkcua0OhDhLvIrCOykprebkxFn/ki3/7xs1b+Z/9PP/Tn77381+8/au33nznvXdv371zJ3/3PdCc6+bdfP6dd299941//dsv/+Of/cXX/uZv/+/BQ0t6fWetxEIwPpwOFR0cikuAlsbCAEnRtYEJYd6jMIETIVMyLA7mPZIpMNyayyJsBqZ6pXgCodMQnUaoDERnihahMgiVKwql+zFmAGMGULp/XcFMP8LmikK5fkGDKDcIC4C7zyLsAM4Ofnih3CDCDImC6cGCmH5IICbCDtwnmB0Qh2GJM61ECwmcFe19rwdmsnIyLReG8AoWfLaXlZGTQIAXeLYgok+4WLynsJARvbVoYq1qkLgEiUqQqBS+38rRuBSNyZAYuAGK1EDhGnkIwEIRqoGArYXDEigsQSJSOCJa8cp9tgruroSC1YqgBAnJ0LAE7pHIgzWKYK0iBJFJSjXA6EZALyfTNGmcxnQTlH6K0k+RuklCO4ZrxjH1CKYcxlSDhGaY0AyT2hFSO0LpRindMK0FYjVg9iylGSO0Y6h2FNGNKvSjEv1IrXms2jJWaR0ps49scwxtdQ5tcw1vcQ2XOAdKXYOiNjuHSh2DojZZMiWO/q3O/lJnrsTRV+Lo2+RIbbImttiSFZZktTEh1SUUahE6wNMBYzmFiQ7iEQcQyqHEIE5Y2FWFMSwibqnW83FeLO6qPpSPgypzUjplCuwbnvtq9MyX0svEkbv/q7sqyDUOmQeUDVOQMck54mp7p1qtjbSYzj/Z+4+Xd/3stUfe+fTMf7zQ/+OXJ37x+Y/94NNP/NnSrp0Zf5PdoVHZ9Wa/3gFGu3N1O3HzFGWfZmyTrG2CtY3R1gnSNiWOImNtk7RuQIr1AOKgPpm8E4G7MNSLYz6M8CJYR3mlvVbm7B/Y85d/9f0f/ODmm2/nf/qzm2/84Gff/t6PXv/BT777+k+++X9+8PV/eP3LX/n23/zdd/7mS69fvPQ//YHp6morhrUiWAfJ9MB4N0aFMSoCYd0wFkbwGEYmUCIucgehEisiUzjThzJplOotTtQWJm334kwfxvbdZwk2Iw5LxBmwWH0m5QPW4j/q6lHOlGqA4NYXxQ/+piL5wXuejc/hXPb9RPA5TBDKZVcLYzPrSXhzmOIg4zR4rwStntspgBhwGaHTCiKpIBJrJcfjawXhCQUORgbD2P1WgYCRwRAKhgivtnK4W4p0r7UKpEeG9qy1UiQgRQIyNChDg3IkIIV8UrlXpvBJ5X453I0ScUqZURpG1dZJofn/KK0fo3UTQPoxRjfB6MYEjYh8AVY3xGqBON0wrx3mNEOcZogRRKoHCc0goh1Q6AYg45DMNFRrGay1DVXZhyodQ+XOgfK6wa2u7La6XJkLqNw5UOboL3NkyxzZCjuw5fb0Fltqiy25zdG7zZXa5kptscXLrPEKU6zaGJNo43JNHFElUGUCZcH0ZIJOiMShqARNxGkyihMgjoNhIQQJYUg3ggYRNAhhwcKuqu+aEMd50eL8uHiu6tcTh1AN3EecvoVvwJGjFc6R/zpxEOc4UzeJmgcJ5xhuHyAcvSpXVG9q1lJ0vM7wULfz5Ljv4mPJuY+mnh7x93rNTpNKra9Tmrr17qzKPsA7x0jzmKpuF2YeZ+3bGdskY59g7BOUHQyfJ+w7SfsMYx0XiSOFfBASUEAeBPLCCh+KdUOwn6RCJNODk77ySkdFlcNuTz3+xOylK1/4X3/+T1/88ve+9OXXv/jlN/7kL/7pc1/4+pm5z45NHm1uGyvdZiqvdBF0SCrrQrBuOeKXIwGMioBZy2gIxsI4lUTw2PrEoRLCXO1ehEpAREyckA0RMTBRmy7OwBbXhSvilDKS6QOzylixAa04qhUMqF+eoFhcZwRIrViSA6NdBa10tF5NK9DzbT2BE33rSfheMDF2mYYrPwtMLmcza60w4zyDsb0Y27di6TTGpLA1dnkieHGEeeFtgYgYEJ5QYPHVEme0r7UCWcIKPCrHQsL7XLBg7jvWvdYqkB4FGiza4j0y2C+DfaIF+IC8ogU3o4G1Vo74FahPgYJGtzKFV6rolCu8CsAdj0Tmkcq9CB6hlGmlYVhpGGb0oucySmtHWQ0Qpx3jdCOcboTRDC6rn9WsSKkZ4NXgIaMaYFQDlKqfUPdj6hyi7VfoswpDTmrK1ZhzNdZstS1b4ejb5khvdaTLnH0VDkG2dAVQb7Wtr9yaKrMky6zxMnui3BHf5oxvdcS22OJbbPFtlhiAjj4uQAc4OxCXgJehI+KGw+MMAYiD4j0o2oMgIRQOwnAQRsDbskKc9Au92d8dcUCiCuSqQORYUQ+yV8t9cFbHj1cix8CpWSXEOU44JjHrGGweQR0TkG1E3TKtrMvpnDG1tsViarIY3VqVmVNaVQa31uVV18dIa4awj6NCxQ1pm2Lt20nzhNK1k7JPC5qk7NMk0Axpn6Hs06x5jDUMyYmwFPIpYL8C8qFwAJL7JJIujAhXVrcp0ACE+mqkLQQdQLCOsgqbHG5EiTac7tQaIiZbilUFZHBzZW3dtgpneVUjhAV5VUaBhBE0LpAlKiSnIigBFhgZw6kkSohfAm4ORq7ycagETiUJOiXgAww8JJlecVcsfi+wQrarYMkYySRJRvyWpICY1AfawnOKeU3RiuOHhGn22bWWVfavq7V3ilfWMK6QQ133VRFcCgBolcXZJM724iz4jYRf/H5beAeoCHgHxLdCnDW+/N7iVHK1YCwM4z0fYIvsEGkCo90wGnw/CyFB8N8SHAB/KnBADvmAYI9oZQqvDOoSLbgB8YoWQsCfkGgViBdCPRDqUyBdCsijgDoh2AsjPggGAJIpvHIkgJJhku/ldf1q0yivB+J0I7wWiNMMi+K1wKPhdYO8blClHVRp+0Xxun5e16/U5ET08Op+Xt3PqHOUtp/Q92P6ftiYVZiyMmtGYsvUAMqky119lU6gKkdftT0tKFVlSVVaExX2ZKUjUeFMlDuiW+zhUntosz262R7dao2UmyPlxmiVIVqrA9yRKKNyLipCh6JSDJ7ksSSHxwkighGhD0ecAYof/C19HHTZx7mPONL635Q4EzLTCN/4UcgyidimCfcumWUUtgxjtkHWOcQ5c0pnhnNmuLos7cph9ozMnMVcO2DbLrLuEcg4SdlmcMsEaZ4AlLFuB+PlBdAA1tiAWPt21jzGm0ZgKiFVBOQQIA6GdCsUfgQLS+V+CA3JkUC1tAOjeuRwJ4R65LAHQj0KpEsOd0rkbRW19dWyJpQKyJBOjOqB8R6pIoDgMQUSJag+GIvDWBSn4nIY7KdIJgmeEA5RbLro5txHHIxJoXRSvLjKxnAK/K8u2CgYPgPCckDLxEmQTJJiwY4abKpXrYsXlxcAAcuU6aO5PobPCH0k18ENzWXXxQ2r7H8/4gjXwdPep+WfXniF4kOBNSnRCqxJrlgK/LJrVQBNkTjL0EGJ6H3CyAR4A/EIyA+uEcDQKgHuiBKYAujw4SQXBoHIYY8MBn8boEU/AlKT61oBNz6BOB453KmAVgSyFohXDvkkCo9E4YXxHkad0VnGef0Irx9V6u6XwB2wgeK0A0rNgICYHK/r57Q5VpPl1YKUOX5ZjDpHq3Okrh8zZAF0zH0yS1+NLV1u7y1zpiscQJX2dJWtt8qWrALBmniFJV5ui22zRbfZwlvs4S3OyDZ3vNQRLXVEN9siW62RMlO03BitMMSrDPEqdbQGQCeOsgmCTNLEauKEUTQMfByoR/RxIGw5V9V3Lbbi4/wmxJFQIDsuxnH6Fr4hEgduGIYbhsG5Ktc45J6Qu0c/gDhw3cR6mkSdM5hjJ+aYwRwzqGMKsY8j9nHMPkY4J0jXOOUcJx1jpH2UsI1Q1hHCOo5ZZ1D7TnHHRNqmaOsUaZsS+LKTtO8kbbtI+07KtpOxzbDWadYGdsusflSKhhVIjxzyQ0hQAfkU4P8usIbxHjnWLcMCUtQrQzqlcEetvEuMyyhQMHMGwr0Q7q2FOxSET477BQXlWLcCD4sqePvizkjwaERvRdxV3WfB7onqRejeVRbsGhA6CUgkeK2rLcYkVj6ibHL1B/j918LWBgSAMsv7qQ/aVVF8/7pavfNatS7u0cCisIMDXsy6WmYNnwIVZXwK45IrYkBcYK3W7KoK2yuEigm6x2EUNqdgAOFaFf+BFHhY2FiFBLvMnSKAlhfC/ii4xgZksE+C+EQrhby1sHe1LX5VivqF/TWA0YpESAlWquiUKDqlkFei8NTKPTUKL0REKGUGBGiMwM0RQzOgea5mFOeyrHYYfEkgDqcdWC1WeMir+zkeiOeAZZXA0yE1OUKfRQ1ZyNSnMPfVWvsq7X1lTiBhVwWgU+lIAbl6K129Za7EVmd8qzO+2RkrdUQ3OYEAcewidGLbLLFyc6zSHK82Jmq0MeDpsBGEihFEjEUTDBoVz21iWARFwxgcKu6qamXdtGo8nbseS7+Qyly31T2NEP2/3sfB+ByhGkBUuRr6v0QccOZzPeKgLpE4ADeYcxq3T2E2QBzUMYE5J1HHBG6fwG3juGWCNk9ylinWOkNYZnDrDGmbIm0TtBWIsk/T9h0F3NgeJm27GOtO1gqyVEBmMNpBhglBE7gbRkH4BoL9oCwS9oN/e8gjw3wKwgcTgC8I0SNReGvlHggLomQIwgBlEDoow3wyTIROUIH3FHUfcYRtFNhb3cca8WGROAgNuLMsQBy0GC5lQZSuKPEjirPgs0pw4HP7AbYQQxFw8+GJQyoBdO6zJJcjeBD6WW2X0VPgzkrMaH3ipEXQFO0KbrjkWtaIV35z4sTW4gZ0C1n+L+Fe4oQKEZxl0BR9nzWsKdBHAvslCICOBPHVwoA4q1X8khT1i1rNHTAlTcCNuBAsiARVyz1Vsi4JHFSQEUqVZQ0jKiMI3zCaIVY7zGnHQEwHEEfcYa1wh9UOrEgDKCNCRyQOreyn1QOENofqcqghqzBmpOa0GM0pBHGETVaZM13mTJU5QZwYhIpdADclrtgmR7xIHODp2CKbrbGtgoSwTqJSH6tSRyXKKMTEMTJGYnFKIA6YUQWIEy0QBw5CWHettOd3Q5zY6S9l5n9DH0cI3IjEQV0T94lwTIoScDOJWsdQ6xhmHxNcm2HaNkpbxljzOGuaBuV8ph2seZK2jAkaYayjrGOSdkwB4th2kQA3H6WsDzPWXSJxlBZAHN44KcPicjQG9j4CcWAkIJF1yWAfQvTAVLcC80ig1lpFE2iKToA/SnHPL/w5BkGPZEUnuBPvluNBOb5CHDnWvZo4YoWxGNBZ3gKAUA5KJEXBRFL0bpZZU4RObzEps4IegUEY24twvaLFuTTKpz/AijHaYtpo9Z65sF6TsSL5QVw5uNYS3ADGg/TWanvfEwo/KINzH6DCq0V58MoRrvC7YGzvfb9m8SEieHxrLUwlBKVgarUSYM7yepLj0aJkWESUHBOIg65jwb/4WqFBQJxVqoV8q7X6SxK4AJ0ifUQeyWCPBPEU2CQ8VY3CXyXzVsm81ZAfoqKYso81AE+H1g6T6kEQRdaP01rwUPR0xFyVaGndUCF7pR6klQMsvyJa2Q8CydocrgPQQfQ5uTFTY+2vtGcr7SCKXOHoK3Omt7nSWwWVupKlrmSJM1HiTGx0xjc6kxvtMdHHKbFHSm1Am4vcMUfLDJEKXbRaFQEBHVoIXBJRcSSeUHMcw+AQgnQjCHAkf3vi4OqCj2MI7hs599UicaocI+vuqsQhv/fEj9+fOJhrApAFCLgzqBUIsYyitlHSOULaAXEY6zhjmaLNM4xhJ63fzpsnwHxx8yBtGWFtYwJxtgu7ql0Cax5mrA+z9/k4pknJKuLASABGAggGIohSqKta0SGFO2DCg5BdYKaVtAOACRcyF2gAIXpQMoQQPRAGchNyBPxVgcQn1i0oVCSOmHICXsw9EYd7iAO4I+yqPpA46eLHD2VS4qdUtOLn9oOt8Pkv5KrvAwR4uIY4uBIQZ60wHrBmrVY/5zLaPoA4mdWv9r+BOKl1cQP6hKxPnAjwcdbTOrgRACRbhRuRL6uJUwv53g86RfdHwI2n4BkJ99dCAXDKT+4D3FF4JHgIU/aK0KE0Q6R6kNKMCMQpeDpriUPrhhgNIE4ROhQPugiLqStCm8O0WUSbVeizUlOu2pKrtmSqrJlyexqkrpy9W5y9pS6gTa7EJlcCsMaZfNCR2GhPlDriJfaIqAJ0rLHN1tgWS3SLKbJNH63QRGqUURkbkQuD2FAStBn9dT7Oi7/BrurDE0cqxHHuI46iblRMTq31cTDXBOYaIxyDhGOQdIwR9nHcPoHZJnH7FG6fIF2TpGMMt41h1jHcOo1bdqDmR3DTTs4ywZnBtAbaMsLYJ2gHqMQhrdsBZSy7gABuQByHsU0ztmnOvJ01TgDiYJGijwPBfpnCC7ISaEAKdckRL0L6Edwjg9owslshxAVRIghj/lpZe62sHUJ9KN6Dk2GSjpGsEN8loiBmiQspWzFxC2wEJqOilrmzTBw8heIpkTirEuHFjDiI4xSyxXQa5IwFoUzBL/gNiVNAAMFnBYGd0ToS6IMr+9eVWESz1q5+ng9PHMH5SgupceCvFX2cwm8t/u6CFasH7rFC3cBKTdPq+iahyGA19Itrse5GtGIVgmhBBcN6gpCetQLlNiA7vo6EHLmvaNfcA0I/okTiCAFjj2jF75LI/dVyT4WsowLqkhDdmLKX0Q8y+mFGM0SpBsRd1bIVS3LAlkr0cWjtMCXcRqkAdABrlolTgI66H9dkMW0WMuTkxpzEnKkB0EmX2wvEKXEC1gi4iW9yJDfaAW5KbIkSe6zUBlRijZZaw0CCs1NiCW02hwTohCs0kWpluJYNy5gwRIJzm0LkOIIouiEoAMNgQ7rs47wkxHFetLn2ftg4Dq4egNQgjvNrfZwPII7COfZ+xMEcA7hzAHg0wNOZJB2TlGM77Zpm3TOkE6BHYNB23LmLdDxC2R+iLeOsZQTsqmzjYt0NZZuhrdt5y4zSDMRbZlgrSFQRDpAgZyzrE0dIf4JSGgUagPFuhAiihB8lvOWV9soau0TWIEdaIKxNjrTUyhsra+orqt0yqIOgQyQTRrBuGeyTIwGQlCXjxb/y1QGFVcRJAtYsC+TO6dXVNwXorEscwB1hV/XfRRw+R/43E6e4B8S5//+J8364gdHQWtwIV4JyaB3cyGB/kTX3LZbRcz9xpJBXBoMgjpirkoBSnUCNwlsNd1bAHZWwR0J0o3yK1g1wOnEzVbSFCsDlCA7YVa0lToE7KrCxEpSlVFlCncXB9ipTiOlYQSUO8HGEzZRIHBC+cSRL7clSW0LQ/cQpsYZLrOFNltAmAJ3IVkN4mzZSpgpV8gA6ENmDYKAYB4bDiKJboQhCUECB9KwizoupzP+3xFE4xxTOsdXhG8G7mcBcE2jdmMI1gLgGcccwaR+lrAJKLONC0fAEZgNeD+GYJF2TlHOSsI4R5hHCOAKaUdimQI2fA2AFZMGtM0rLtMoMpLRMs1bAGiELNsPYZjjTpFQsNkXAuyPuqmC0Wyr3yqEgTkZgtLuqpr1W0oER3kz2qUNHLnzu81/56j/8+3e/f/MH/5b/5rfe/PO//v6JU58eGD6o0YerJHUyuIXmehg+gpLdgkcTX80acb2WOBiWRvEUqCWhQUL9Pgn1Kan7LMCQ4BGIVvQUPtiuThuRfB/QShHgPZmmQlRY2U8qc2u17B+JXtKKXf1sK5FjsfBvTfy4+FLFVyVU4vSKViTsfb8vQQvvz70VN2L1jZgLX2sFTzOy1oL/DJa1ehsFo4VYgxhxKFqQZFkjCAHEKVTliLU5y1YsrllrV9+8KmDskSg6xSgySFrJuqRyUA1YK++qgdqr4fYqqK0K6pBiQZxPcdqBYm2xWGFczFgJ0CkAiNEMUqAC8B6JZYGMOgeS5aosreojNRlCm0EBdNISM8iOb3MUiFPiiolBnM12oerPmtxqSWy2ApVaokCCjyMS50FLzyZLqNQS3WyObNFHtqhDZapQDRdSCLsqFA2LxIEg4Ob8zogzPPdBcZz383E+gDiYawyMnakbxB2jpGWYNvSz2rRGnVCpE4gmoTBmIOs46pxB3FOobRjSxmDap9UktbosbxllbJMicRgbOK4pEkdpmeatYDNF2sWkO9he8eYJKRFX4FEICaIoKBlAkG7g+8F+GPNLFe1bypw0F96997V//l7+F+/k372bf+dO/t9/nv/W9976p+++/YN/z//0V/k3b+Tfu5v/t5/kn3/5b/yhHTVyZ2Wtg+YDKAUKulCwyYotC3wAlomz4uBgeArDxeo10FhEIE4Sp3rFTxQoC6TSyyrWxaVwgTiiJTgQiP0AK36wKbaQlib5XkFF7uRodoDkROVEdixnqXIUD4Z7CBIAxAHKCFQScdMnMmh1umo13Vavi/WH4kstcmf177J2PyVeKW45hbdF2MCu7KpiGJnCCVCGg5ExMZYM+kmD/WxIUDFNHrq3GAfU3Re4gxXWy3srkEwA+YTCriooFgEK1TpgLRJEKKcQSgHFhPdK8bFPpihILg/I5aDqYl3o1Mjawf4d9kgVnbVSETqAOBXS1lq4oxbuqpS1Vcs9MBmmVX2sJrs6HQ7WmiGlcL6BA/msIU6bY7RZIVQ8QCuHKOUQrSxUITOqAU45zCkHWWWWVfYx6gypTeO6NGJIg9SVtbfcDtyczULAuMSZ2OyMFYhji28rQCe2mjilgo+z0bxCnFJ9pFQb2qIOVShDUhZAR4GHwRso4AaAGw3VyroZ5Xg691/bVYnE6Zv7OhI+UuUAs/EU7kF53YDcMSp3jUnqRiTuIdA0p254eTrVaHEBucYR5zjinADlNrZl2UeQuhzi7Kcdk0rrhMqY6WgYipp7jkzv/9jTs4bOMUNwT419F9T2FNv1aDi37+DH5h8J7UpZU42WHG8YoK0TqsZHCMMYZ5nizNsZyw7SuoO0bhfOWE2DUI4QQqb1IwidBFVJUg+BhWB5kMTDJB4iKL8cbaiWWR964sz3/hUw5Xs/zJ+++AVPbDtj9Eip+q1S60fKtbV4A8K3tQUn9h2/9vVv/efbdwB6Pv35vw9GpyulRkblhfEOGO0mqTSOpeWyMM2kAXGEWePCkfFehOxDyD4hXRWn6D6cSCFECCWiMJ5BiH6cTBN0miB7SSJN4jmSyJBkHASMqBS4ToP4jmhJBlTrkgyoo6NYUHcDLOicBBBT+JwzSYqJkywQLgismSQ4ssCMMPQ4TU/SzCjJDi17QABAhXo/dogGAjCiOeAcCYTKCXf2CoTK4Ww/EDhIJRYTF+i2TJkMOIrBFESxGXFXVYwZi3k3mC2enLpnAbMpGZ2U0UmITIKZgmQ3TIXkFLgC4pR0BCd6CTyFEVGYDMvYhITtlZLgHKyU7JZSATnRIyfCwJIBBQEqHhSEsCA75USXHAtJ0XAN6akhPbVYFKQvMXAUTpQCiSqQqAztkWEBsRKicIhBAapGYYVPLCCWw51yGHgrQvw4UAuBUjeZPCSXhSBpGJKFCtyRF0m0XGoM+YoOkeDgeEQrUXiqpR01si4pKA4UyzK6GWVKa+yn+QSnTmv0g5xqgFcNabUTSvUorxoBNYG6JKuLceo0oxrk+HFGOcqpcpw6DYp0lMMsNwnED7HKLK3qpTW9hK4XMaTlht5aU1+lpa/M2lfmypTak1tc8VJHuMQe2WyPbjSHl9PhkS2WsKAoCBhboputsRJzpMQcKTWFRW02hksNoS3angpVoJIL1lDBGiwgE2r6QfUJFKiRBhnlaLLvWrzvejL7ktHxFExmSWX/6jjgOv1xMD63Oo5TqAD8bYkjnhQvEge3jWP2Edw9gDn6QXGNYVhvysTbR+bHnvrKpU/kb+efPP5CfeqozP047j3QOnT6S1/5cf6n+eu7ju0Nbu+05vTmIVg7QNimKPOYCsRxdjLWXaRtF2EHJx4Y2zRvmeEtO3nLDKUbhqkECLsgAVjh48hkbXU7OMxJduFs02f+8O/fuZv/zg9vPLHnfBXk2FBCfqRGu7FG/2CtvhJzb4Mcm2XmcsT+kQr+gTK6XKFLDD7yxa+CYQ//8cv8s6dfUuAOmGgmKVTH2EAAACAASURBVLCP5ah+HEujaFSBgloeMPwXpHJF4vQKafIoSYkbqwjGxHB6AKUHUSqDkCmS6iPJLIUPUcQgSaWEs7l9BNVXPHmEM33i+QCxJnBlR1P85AMAZWgWdFEqujkEBxoOCK2VAHEAbuhpmhkn2SFC2Usoe4HLI1BGOEW1mjjiFkwYosj3CXdmCX4tccCTCxIJCF4DxWQF7gBL8FlMCfwjIa8PUlc4l0E4UA0gcOd+q2CTEAMyejgVJ+gQyoQUTFrOZuRMDKZjJJGmsF4Si6JkWEbHZUyvnMyAxhGFftJhSEigwFRIQXQriACMB+DlSisIHA2PSki/hPTLsIgcjYtnIxChg5SQqwqDE5gCcYSzUYK/AwXEAi4I9kJwFyhGR7ukqLcW8tXAgDgr0JF3QzJQzi64OQUL4n2gannFgoCOApQRyhQgpiOVe2rlXeDI1TJxwB8PE2FVKV6fUeuzKl1WrRtSa0d51RinHFVpJlSaEZUurdKnlJocrxrhlZOcepJTibXI/ax6hOOnaIE4AEOqDKNOC25OBtb1yQzZalO2ypors/ZttibL6nrF8j+AHltsqzMpQOd+4gDomCObVxGn1BQuMYZK9MEtmsA2lb+c8VcRoHAJlOyDN8pfLfHR/EiBOLkXReKsxs36/XF+t8QB8WOHUFK84uOM4fYh3DFMuaZJy7DGmHIrO4+GJ17Y8fH8z9777B99rTN3TBvcb4o/M/L41V/+KP+DP//Gkcj2EUfKTHebnVOEdZKte0jlmlFZp3gL8GhAHaBwnKpIHKV1B60fkZGxWsgHo0EM70EgP0OFJbX1Jmv8G//0y1/eyF9/7S8xVdNHtnAyokHONJYj9tJabSVurYBNFYihDNJt+Ij0wQpWQti3SDQbSjEZbj3w7KU3b+XfvJX/6y+/YbJHcdJDUTFZbRDHUhSVwKjIMnESAnF6ETIF9llkWEi3d8O0D6IDCjoF0RmI6ZVToBYZpTI4MYgTAyiVFhoGZmGy/54z0/TKWep7q2DAx7iQF2cyuCDhZDY4jy7EgPrA2UtmkGBGCGYEZwfBMW4+hfIpwWcZFE+oCzeANQ7qiYUU+7I7I5IC57IYKz6/eMy9FxT1FSJNfStnwZkcWAtWrNkh2KxwMj5TtOB3BLXX91hQfk1FcDJC4QkKjxEkOJGvoPpkdFZGg1aKJJpm4DQNxwg0guAJCE8iSBpBUsJxkzCgDDhjFUfQBIzEETiGId3gQDMSgaEoBCVgKIEgEfEiCgdROIDCARjxCeeeuiC4S/y0QFA3ogCCoOWjVeLpquVyPgkCCkerBdVAnhpIqCdWtEsV7cJRTwAUUcs1yl1SqKsW7pIoOsWbl217taylSt5aI2uvkndWSjurZF3Vck815JWhQUbbx2r6KGVKqR9S6kYovp9Tj3PqKSDNKKseYpSjjHKcUU7QqnFaOUSrBxmVENzhhkkezPOllf0sl+OEBaUCBz4hbU6my9UYcpWmXLmpr9Ke3WxNlljjm+3JjRawvdos5MILuyohmlNwc9YQZ5Ohp0Qf3KwFxClj/ZVkQCK0pgOp3iJxhB6Aiex1o+MpiMj8NsSJnf7Sb7erEqM5sAM0xFnt5uCWUcw6CjvGCfuo0dlfx3c81d630Df9b3/zjXffzA8/umiN7lN3Pjp76S/zb+V/7+DpI/EdKUvcyMd0ju2oeRK3TtOWcUo3XNxVETbQKIexTDEW4PgobaAVqZxK1kIBUK2EB0G3CqKLVfq/9o+/fPdufvfRSxu2klsl+irYvqXWsKlSs+EBmdLSce1Tf/LNN376zz/6xV9//TvPnX/F3hLdsJWsUJirYGtpjWpjJTPxyKF/+emdd/L5i8//8dZyE0EGWSrJMGmZIkAwsVXESYG9FZUQiYOzcYKPo1yPjAlJyaSczSi4PjnbC3MZmMnC9BAQkwVdu5ghiBmC2aFicxnQa4bvF4WpBpfVv7wYBK1VuBGCG8EEofwQqhwQhSuHgfhRHHT2GsZU/ag6h6n6C9eVw4RqZJWGxLXYqwVT9QsCZTuFip7ldHsxfQ5+Cj9UFKIsrDF+SPgWYIVGPP2iFfr7ZO+3TB9KJ3EqDjaYRJogkwidltODUmZQxvQpqD4CH6TQAQrN4lgaw/uBsByGZVA8DRNJoZ90GCLSMN6PoAMomsXQBIYmULQPRXIwkkWQDKHIUIoUAYdx4bjzSjQH88KYF0aDCBJB4KSgGIxEZCjoYiEDp2REFTpU1CLBWsRfi/iAUE8t2lkQuOJf/qp4j3jbWgu+sRpur0G6amFvpbyrUu6tgbqrFcEyma8a6YHZFK7K4KqMeMSc0oyA8QHq7ZxmJ6eZYdVTjGqSVk5Q6klKPUFpxgSNUBqAHlIzQKsHaPUgpxzl+XFeNcaohgnVEKYZgLVDCv2wzDRSYxqusY1uMWZLLOmtrmyJs3eLu09Mja8mTqm4sVrj4Gwy9GzSBUo1/q0q/zbOX0EFqnGvFPXK0S454q+S+SnlSDxzJZ55Iflf8XF+V8QRoYPbxhnnDGmfVtjGEfOg1pK1cV396vbjPf1/cmI+//M7p5e+0JzeYw8+9ndf+Un+9f+Yz40/FRxvV3Yb9VnSNIpZZ0jHLqVzu9YxA2qRzdOUBYgG60naPAPqBk0TvHkC5bISuIfiErWyVoLyQGjjH/zxt968mX/oqdkN27gq1LFZYtgqM1UorIy27cTsS9/8zo/fyed/dSf/dh4Mivnl7fwvb+b3HLmwVWKsghwPlqtqCfuGjfKxRw68fRfckBveVy2tRzHgVLN8SoGCcDJIY4FKWZE4MeFKWI4nIDqjYHsr8UQZnK7A+svJTAWerqLS1aDven81ka2h+qrpvmoqV00OLXfbBP00i+01JfSAlAGfQyBWWLMD4kJOD8vpUcEOr9zDDIqtSAuWG5RxhSsQO3yfVvUqFfqW8qCHKRA3qGAHFXQONDCkBhR0QaDbngAFKTMsYQuqWV7IqCHQRJUYBA1VBSvFB6REToL1S/DsWluD99bgvRI0J0EGatFcDTZQjo+WESPbiGwFnq1FRmTwqBQalkLDtch4LTJai2RrkXQNmqokYhVkTwUZrsD7KtHhSvlglTxXo0jWKOJVinSVPFOpyFTL+mQ1/YqaPpkkJpGFquWxCnm0XB4vV4QrFIEKRaBK3lMtjVZLUtWSdJU0USGLl8liZbJYuTRWLo1XSpYljVVKI5XSULmsu1weLFP4yxReUdvkgTJZoEwaXLGyQJnMBx7eb31lMk+ZvLMC8lTIPFtqu7bW+stloTJpeHNNd5kssk3WU0umcO0wqh6EuAFYDVo7gj6QyknQiZGfQPlRQSNF0GOqQVSZQ7ksosygfAbl+nFmjGSmSWYSZ8YQ4T8wOT8gUQ5VK4fK1CPl+vGNusGNpoFS19ADjr4NtjioyrGDYhxRmywRUJhjiZaYI5vuDeKU6AvEKVX5tvKBcsZfTfpqcK8E65Ki/kqZn1YNJ7JXE9nrwtzxD9cfR9xVFc9ViTXHvxMfp0Ac+xRiGMcsU7h9irSPaq1DLkMsyDYd6e5/YeLh/Hf+/Wtf+WFL7OGe4cNvvHHzO69+fjEzMuyO2xmf1TmBm6dIxy7ctoMwjlC6YdY4IY6sokwTjGlMABAgDqkfVTu209phOR5HybAC6SirNj/8xJm37+Sf/9RfP1DGb5aZt0gstVTDgxUaCe780td+eOM2GF/1zt38jfydt/Pvvnn7xnv5/K9uArL4YjMPlqmlZEOJxFCBWTZslDx5+MyvbuX//hs/UaDNENJB0WGQAsN77iEOKFoTvZ4oTA8xhofUTtCOm7J+nHbsZZy7KceTrPNJ1vWE2AOcq3ucdz/BuT/OuZ9Wuveq6vaq3LuB6vao3fsE7dU07FlR/T5hvVvTsFvt3qsFelrrflpdL8i9V+3eq6nfp27Yo27cDdSwR+joflBTf1Do6L5P7OtuaNynb96vbzqobzqoazyobTqga9qna9qnbQC937WNe7WNT+vrdxfk3qN379HV79HV79OB/vBA6gYgVWNBYF23B7xs19NK19OiVQkdzte1nOsp2vk46foYY3+ate1nbXsZ+17ScYBw7iUcT9LOpxj7ftZ2gLHuZywHKeth2n6IsjxFWR+jbI+Tjkcw1y7M+RBm/zhu24cb9xLG3ZTpMdr4Ucr4OGX8GGH6GKV/UqXdrdU8xesfZo27SOOjuPExzPQYbnwUN8wQ+mlKN0PpdlLaRwjtRwntR3H9I6QRiDI8yugfY3RPsLonOO0TnPYxVvswq93F6rYz+mnaABr6EYIo3fQ9Elr8iY3+REsbwP3LmqT1I4wB9OUi1OOEeoLUTlGa7bh6itBMy7lhzvqQvXO/vfOgte2go/OIte2wve1IUbbWw9aWQ9bWA7a2g9bWfdbWffYWIFvzfmvTHlvLblvz07amI7bGZ+yNR+yNh61N+yyNT5uaPm5o2aNu2su1HuA8R/Gug1jwABreu61z+0fcmQcdgDibbFEgS6SodYlTqg1s0nhKVZ6tSh/YWNH+atJTTXRVY54KhY/SjCRz11YTh1YOrN5YvW/k+EMSR/aBuSq5C1TlFHdV4nFNobx4O26dJs0TuHYAU/Zp1DE30zJZH1pKDP7qD/86/4v86EPPREYPfeEL33j1iYOnIv3dOo9VFdY5plDztHiIXO3YrrGDMj8GsEZUgTgUGPAwoXHOcIYJmEqBbklYu8YceP1HN7/1w7cqUWMl5ixDXCW11o21lo9UaXtHn3rvbv7Grfy7N/Pv3ATkuQmWN9/J337zNiDO0bMvbdjGVaDOEpnpwVp9GWYukVB/8sVvvnc3//Dj50q3GCm6B8G6xXw5OGZVOAQkEicME0kpNsYa91ianzO1ntE2z+nbFw0dC+q2s/qO0/rOU4aOU4aOk8auE8auE4au04bOM6bOc6aus6auU2bPabNn1tw1B+SZtfrOWX1nBXvO6psrPPSftvhO2bynbN6Tgk7ZvGcs3lmLF9xv8Z+1+E8L9pzVu2D3XLJ7Ljh88w7fnNO/ABQ4Zw+ccwiTZOz+JVtgweafFTRv889bfWftvrM27xm754zdMwvUdc7mWS3wgyzeM2bfikze0wbfaaPnlN57SrSGrud0nufWtVrvc7zvJOs7reya13QsajsW9e3z2o55bedZVedxVcdJddtZVds83zLHNs/TLYtM6wLTeIZpOkU3HydbjhGtx4iWk0TzOap5gWmYVzbMqRpPqxpPiFI2nlbWnzG4TxvcJ3QNx9QNz/CNJ9nGU2zjKa7hBFd/VOk+onIfAlMiGvYq6/ex9UfZ+qPqRmGYRP0xrfu41n1KX3fK4Dppch03OY+aXAdNrv3Guv36uv0690GN+7C6/rC27oC2bt/9cu/V1a1I7963IuduPdAerX231v602rFba9+tsj+psj/JWh/X1e9x+Z5riy21Jy61J661xa+2Ra+0RS+1xS60RS+1Rq60hK629VxtC11uDZ1vC18Ai+5rrcGXWoLPt3RfaA6dbwpfbAxfagpfbAqfbwrNNYbOgBER4TPO8Kw1PG+JX9TFlzR9i3z/mTL/Rzc40w/akyW2xCZrHGgd4vSUmno2G3tKDd2bdUGROCVqzxYlcHPKWG8F7akguypxTzkEiHOvjwMS+b+eOOLZcbFbRdHHQUPrZMdF4gip8XWy43LXmACdQhwHdUwUZJ1AjKOcZYo3T7DmSb11xGmKBHWtz/kT/+vjh/Nv5q9c/6Om0PZHH33u5NAju9x+N91gNSc1rinK+RBq34lZtoNIjUHoHStAhzULHSqEXRVlnuFs25W2KdY4gdC9CqJ7a5XtwLPX3s7n0xOPPlBFPlirqyabH6y2laOND9YYdx+7eCuff/c9MI/zDhjDeeNG/m2BO7ffzeffvJ1/6TN/sWEbVUPWb4bspQpHOebcUIbVexJv3sr/6V++TnNeCOkALdHEVsdEcpk4KbC9IsMQmarFxljTAXPbOUPborJ5SdlyUdV6gWsBU6vATM72OV37rCjh4YK2fUn8yGk7z+o6F3Qd53UdF3UdYC6wwTsHrGfJ4LkA5J0zeGdFmTyzgubAlKiuJXCP77zBt6j3z+v9iwbfeaPnkrnrBXPXNYvnvNm7aPFeEGXyXTD7L5v9l42+y0bfJeG7zhu9F4UfsWTwLOiFaVP6rvP6rvPGzgvLOm/sXDR2zYNZVJ5zBXXN6zzzWu+8yjtXlNJzThTfNbtWXNcs5Z2lvHN013mu86Kq/aK6/by6fUHdMatsP8m3n2LazlGt81jzItK8UFDjAtI4jzSdRZpOAzWeQ5sW8YaLdMMFpmGJbVzgGme5prNc01m2YZ5tmFfWn1U2nOIanmUaTtANs5R7nnKfo91nWfdpzn2Scx/j6o+wjfvoxgNUw3Gq4STf8Iyq/qjKfULlPq2qO6N2zWpcZ3Su53TOowbnEYPzkM51SOs6onYdU9adBHI9o3QdUbmOrLKHVa7DSuchpfOQ2nFI5TqscYIrWtcRreuIxnlY6ziscx7VOY9oHAdUtj0qGxhlo6nbravfo3Q9rW861Bhaaotda+i52hx5oTl6rSV2tTV2pTl6pTn0UnPoZUHXm8OXm8NXW0OvNPd8qjnwmabgp5p7XmgMX3FFL7nil+ujl92RS+7wUn1ovj50zh2Zc4XPW3sumKPXtNEruswV7cBipf/xDbb0RltvqS1RYo2XvA9xSozdK8TR+TaqO0rUnlKVb4vSV8b7tjGd5VRHOdG5DeoiNIOJ3OVVPs6H6I8jdqtA1f21ZMLg2zM697X4mb9Ln/vfWPhohW0IqhtUuAelzpzCOQa5xqWuYYl76NcSR+EE0BHjx4h9nHBO4JYxlXWKM05Txhld3U6M94Sbo1dGdiz1Dd/47o//+Z/+I9b/lD8wlWuMPv/0qXZ7iOa8uGGAsO+kXY+g5mmVfUZpHudMkwJrJjnTJG8ED4GDY55Rux7mLFNKyySj6a+UtVGawA9/nv/H1/9zi5wtx/QbKtWbpI6tcEOp3LWhTHX2yufeA3PG87dvgznAd+7eeO/WW3fBEJlbN/L5d/L5T//RX23YDG1DbFtg14My5yapYxtsfGAb9onPfemd23lfcEdFlZMgwyQFjlCBsb9kCiJBdQlEglQLRKaq8AHGttvQ+pymZZZvWWDbLrKtl9jWS8q2S3TjvLJ10eS9qm69oO+4xtYvmf0vg7Gc3isaz4Lef55vmzf4rpv8L+s8zxsDVzRdS8bAFYPvqrbrmilwXe+7qPMtaDoW9R5ADYCq9iVr4JrBe0Xvu6QLXFZ5L2gCFzX+S2rPJW3XFV37VVvwJYv3sqZt0dB12eS/Zgm+oO28aPS/YPA9r/M8bw6+aPA9r+26AoYLB15Uti5auq9rfWCauM5/XR94UQPmFF+3Bl/VdV6x+J/XtC+YBEip2ub1HjDq1+C/rPZeUK0nvmupKK5zURTrWcLaTnP+81THIt1yXtd5Td16gW08pe08y7WcZFpOM+3zWDMgDtQ4K3efoDuXkKbzUMMi1rxItc6j9c+R9Wf5lktU3RLfdJlpWGIazzGNZ/mmc8rmBb5+kXMvcO5ZvvkM6T5M1B3Rt11QN14kLeeUbjDSl3WcYB3PcPVH2cZ9VN1+su4k03Carzusajisqn+Wdj7Lus5wdWc19bO88xjvOGhoOKxx7VU5nuYd+9XuZw0t53jXc7zrBOc8xjuPsY5nWPtR2naEtR/mHEd451HeeVTpWGWdh1XOZ1TOE0rLcZ3rObX9KKp+wtz8DG99QuN6Ql33mKHpKXX9k4T5ow098409F5sjLzT0XO1Kv9Sevl4XXKoPX2uNvVofvN6Z+lRz5IWO1PXG8JWW8Ctt0d9zdb3aFv299tgr7vBFS8+CNjhbF79WF7tq8S24es7bfWcbI+fd4Yv2nqu28HVL9EVt9JKub7Gm47ENxlSptXezNVlqiZda4iXmmCBQifOgoedBQ88mQ3CTIVhqCJTo/aU6X4nWW6LuLFF7StS+EqV3M+/dzHVuY9u30R1bEQ+hG4rnLscz13qzL1pduzEKdNT+UD7OBxNH5sjBjt+WOI4xzAoOiBO6Ia3zYdK0E9ePmpuHf++1v/j2J3//eDz9d5/6Qv5mfu+ha909O6ZSO/K/yn/uU19kNX7eOabQj5K2XUr3o2BagxHMbxCJwxvvIQ4tnHvQWKcZbbZc0hTNPPXzm/l9Jy9tKEc3Q9oKor4MbSyV11fgLQ9UG5+Ze+VWPn/jxru3b9+8fVuYzJm/c/P2jdv5O7fyIIp86eXPfqSSKJWbHpQ5NioaK8iOCtSxYTPeO/LkW7fyR46/WittUGv6MDyO4SmYSAvQEYmThImknExVEX20/Qld20lV6xmudY5pu8i0XQFqAR91vmWOb57VdVxUNy3ZfNeZ+jm995o59CLbekrjX7CFr6u6rqrarhmDr2i6zptC19iWcxrvVb0HXDcGLut8S5ae5zXtl3SdV+zBV82+F4Ab1bpo7r6m9l1UBS6pg1fNkZf0wSsG/2VL4Iq+fd7ovWj2XbEFn9d7Lmo7Ljujn7L2vKz2XDEEr/Mdl809n9B4n1d3XDIHXzT6X9B0Xtb4r+l6XuY813jPdZ33Va7tqqrtitH/orbzoiP8orJ1zui7ZA5cBaNEWy/ovS+oPddU3iuqe63Sc5nvvMJ3XRIt13GZ7bjAdVwGV7qWmPZ5pn2Ra1nStF2kXSc1LcdZ90G+5TjZeBJrPEu0nkebL5BtF7iuBUXds2jrebT1It40B1mPatpOGDufw8xHtU3n1S2XKPe8sn2eaDpN1s0y7gXSflbbdJ5ynFI1n2Lr92iaD2jrTzOWM7xtgbXMco7TjPOkpumctuUM6z7M1R9RNZxlHc9oXXsMDU8bG4+Q5v2G5gXacYp2nNQ0n1XVHeUcewzNh9TuvZxzr7bpOPv/WHsP6KjK7e/fKyC9pk5vZ2bOmd57PdMyM5lMekgvdBIwSDEQIIT0QnrvhdAUBRXLVa9iVxCUDirSe7MBIcD5/58ZiHjv/d3ffd/1rvVdzzqMMyRZks/aez97769mE11R7ScOIJeqkq2uYqkqIWUpXV7sJ85fz1K2qpIuqoDl9WxJFSwrlaGbIGkeolxBFS6kCOcEs5Pp0kVszQq5o8IS22GK7lG5WhSuWp6l1BTfb03cpgzvVoZ3aiJa9VEtSned1FFnjh5QO3u07j65vYmrL5G5a6RR9ab0AV5YA8/WbIjdqvL02BO3aMM7dN4etWdQ5dmmiNwq8fbKEjpxppfH8GZPkSROkSRMFsdNFsdNFMcC+Xr/AHFEADd/JY7DRxwAnRcQx3jYMYFtncyyTIYsk0gOKj8zLr37/w1xSJFl/hgHr8n8X4kTqp0H9DSrGo1xQJijnE9Xz6EpMpnqHKJwAUWYHcJKTcup/fGn2235BbNlspezFh387EhN1TaHfb6IZ/ls75F797GMBUWBzEiWZglTlUsWgqtxrjL7CXFE2WzRIkS0gC0CMQ5VuoQhXMSRL+Erc2BR2kycoaHz3d8xTGKMfG4KZSpJNp2qewGnnkwyj8dr/zZLtOPt/SPABe/R48eP799/8MS86hFIsoDX+N3hzw+emIrnTMJLxwQrxoWangtQTSPpxkxHQunay7ewL/ZdDSGYmKxYIjnqfyLODFoiXbmKZ62GLQ2QpQWydvqJw7Z185ztLLSKYSjhoNViR4PAuknpbYeMdTxnO2zdBNtrJJ4elrlNGr4dsXYLnB0Sb6fA2YHY2hXeV4SuQY6tiWtv5to6JO4hvnVAaBmQu7bKXYPyiAGeo00Y0cPz9DDDOviePpalkeuol4bXKCPqxWFNHEujyNUs8XRIwvsRayff2S31DnAdHeLwQa69XxG1Q+gEX07qGeCHgUCJYmlFfNxB7AOC8C3SiK08eyfX2iYN7xE5O0XOThhtFTj6Rc4tPOtmvn2Qbx8YPXm2fp5tgGfr51r7udY+rrWfY+nlWPoQtAec1l66vkXg7GOj7eDvNLcIzDWm2EZDdC1iKuXaG0FKZe4MUXeEqltgRwfFUEMwNobq6hjGBo6hROlYo3OtFqrX89TlkKqWY+2EbA1USxPN0AUZennmDpamjqdvZsgLVK41GvdqvnK9VNOgMPRxle1MdR2kayAr6nDiCkhdzTfW83WbhKoim70gLGy9TJXHla6HZZVcXQtFUgOparmmWqZ6I6zdwNasp0nz2ZpSnrmBra+jyovpqmKmtgzSlELKYkhZzFKXwNoytrrkn+TLs0oRdR1LsQmSglSLrciHFcvZskWxWfWNA982Dn07/+UBhiyLrVhiiqxyzm43RtWWdBwsbDvgShvSR3bpIlvdGb36mJL4nM6m7Wfm5r2pi6hBYxtcqc2lHft3fHSrtOtbe0ajOmqTNWlQ7+1Ho7erwnq1rm59eLcpvE/vHtS5t+nDt6rdvbroTob25Snw7BmixBmihGmi+Gmi+Cmi2EmiWNBeLI7ys2a8wDNe4J4kDJ8IYpyw8TxAnAm+MOcFxPEC4hgHW8ez0ElMy3iSnSwAxIlN7k9M3SJXrSMxwBqm/zbGCaIniNwb5rcejK//OqXpICmybIYvq/on4oRo/k1W9Z+JQ1FkUGTpOHEmXb0EVuYyhJmryzbv/ezw6kWLmwrW7uwZfO+1f7zz2r4tgx8vXV5aWNHy2zCWX9QWCodTxJmQdDFbls2SzGeK5z1DnGyOcNEocViSpRxpDk+6gCfPIDAcH39z8cIdbAZFNj6YP5WiHBcsez5IPo2G/i1Q/vwsaeuWD+/cw+7dBwZVjx76HTiBKfBjDNxeDWPYl9//MD4QmoSXvoBTT6M7xhNMU/D6SaHysTM4e/dduHQTY3HdoTgbnuglU0BWBZpEQDIF5PMdT3pCHEstjLaAwqelmw5inB62vZ2iLzWndcTlbnVmdUYt6DPHV3FMq3m2cmv65rY9v7gXbubaN0nDuySuPpGzHsGQxwAAIABJREFUExRfXbVid7MkvB02tUjcvTJvi8zbJIvoFNraZGG9YrRLZG4XW5oBvJw1Ym+rIKKdH9HLQJvE4e3a2JbIBe2K8PXqiFp5eJ02pt67cIfU1SZxd0s9rRJvs9jTIvN2cW3tIneXIqqN56gWORoVkd2CiFZJbBfH1cqyNYs9feLwbq61SRDWLHY2Ch31Km8n19YgjxgQhPWyDD1Cx1aBbXBUfOvAqHiWfr+4aB/H3OsXF+0F6LF2Qvpakb1eE17DVS3JWFxT1vS2QLeEb15PN5TRzC2QbTPV3EfRN/qIU0VDKziGIqlxWf6GpuKSVrkiS6rKE5lq6NraYGUxCW2kmTcTVV1MbR1fXylWF/PEizaUdaxYUymVZahVa8WKSq6iDlLVMI1NLFM3S98Ba6q5ygKxYpVGtbi5bFtO6hqNOEWjXq7QlSLyKo62mWtsg9TVHFM1pCoUWatgXRFDXWyIG+JZGkHdx1gJGyqY2lJIWQQpi5jqjSxNEVv9z4JVRbCqhKWs4Grr2MoSJigb53PUK+p6Dt4awc7dwW6OYFfuYoO7j9HFKaaIdWFxFflVH1x6iL366W2FswqN7bIltBpjSp3pxV/9jJ3+BUtZ2qdyFjiTNx25hF1+gH15auTaQ+zMb1hYSq0YLUOjBtSOPoNzyOAcQCMGTOEDRtegyb3V5N6qd/ai3m6OJm8WKzmInxwgTJgpiJ8ujJ8miJ0qjJ0sjJooivKxBuBmvMA90acJ/LAJXMcEjm2Cr5QDcMOxjUUs49imCYA4VrIg3Uec3qTUzXLVOiLd51/0tJPrf+w5Bu4xnPRniZPceOA/Ewf/17mqZ4kTqloQqlqA88kf4xAkKQzdPKp+UbA4A8eOD6WF1ba+duX67yePfH9431cnDh07+PXx77/8+dihq4dOXTz088Vf7j9eX9IcQDeL0aVMyXxIOA+WLIBEc30NONks0RK26ClxpNlU6RKmeAkYKBdlIpJERBJ16gL26cHLE0PEk3GyCTj5uGDZJJJ+IlE3gaCdEKoRG5N+vvz7yGOfLzDwF38EYPMYezCCPXgEoDP/xfUTguAJoeK/BUqemyUdE6KZEKqbitc9NwFq6Xvvj4eYzpwegkMJJA+JDKxOCLQYPN2nJ8RJmUFNoSvyeWgzbO6E0C7I0kO3DECWHoG7k6Bak1v9wZlh7NwwdvkRdhPDht77Eda/tGDd25cxLGvNDtiQx9YVsDRFDOV6rnmdzFXE0uXxzMVCtEbqqOOa17H1qySuUq6pkKXayNGUqey1cmuFMryEoX6Jia4nawtA/Ozt45qr05e/dnkE69l9SGrNY2tzG7cdvfAAc6b1Cu2VbGM+guYh1nymca3U2cBFy1n65QLbapG1iK7MgwyrEfsGgnIVbC4SuzbxreUSZzWkXsMyrIV0a0SOSlFYDagc27vErq2Iud+HmwGBDYhv7R8Vz9LnFxft5Zh7EFM3ONEerm2AoW8Q2Gs42uVK8zyBGK2tLnn/nddcYXECaQxXlwsZS8naVpKhF69ugizNLGslQ/2SRLNILnV2NhS9vb3NLDUZlBkS4EFexbA2EkxtFMM2lnkbXV3BVaxQSbIsSveubY2DXRtQpV4nidNr14hVpVxTLUFZRVa1sgwtiGKtQDxXp0xwqu3fvr71lcpCEyw3S2KkokUyTalA3YBoWuiKWsTYRJEVsfXlVEUhpC2zpe2SR/RQlUU05QaafD1Nvh5SFbK1xWx1EUNe4CcOrC78i1RFVHEBJC/i6SqEplKBbh1DmD3nxcHaji/V6CJrxLKfrmAnL2ASfapQnZK1tOnqPey9r6+p3ct1rgqDq8Gb1Kawrtz54enL97EX126RGJaaPYUbqj+4MYxVtL4lMaUuWNlwYwTb+fdL5vBqja3ZFrHd4nnV4Bw0eAaMEf2m8AGTewh1bzE7e+zeLqFqNehH5SYH8xODBAmzBPEz+XFT+TFTBFGTBJET+R5/gOMjjnOiwOkPcCYhtkmIbQICsqqxiNVPnBeY6AtkK1GQNkocmXLtf0UcEAIhGWTkCXEW+mKc5MYDRG/pf4hx/nviEJTzSao5BGX6dEESU7+Io0qfv6Ty6/0/fPTxZwcOfnP8xOEL56/euHL3+oW7Vy78duSHs18cOvTZt/uPn76Sm9+KZ0ch8gU8RTadl86SzP+fiAMJcnjyXI4kE5bEy/RJ137Hdr53+PkZ/InBCl8FRz2RqJtE0k+hGCfitM9N4yoNUbd/w0B88xh7OAJ07+7Dx4+xkRGsurZv/HRoBlE2mSCfRNL+LVg6kawfF6idQTY/N466sXroHoYZLBmheBMYCKJEP5lppkf6emFjfHWcUeK0wuZuyOwr4qCbIUsPYm+h6vJX1r93DcPW1u+KnLuuquf1OxiWX/N2cm7nuWEsa3WnMnx1RdeRXZ9gXa9fS1zSq/GurR86vrr6C7mjQoRu3ND0ZXH7Z+KwZbklb+z+5EHfq1dSFwyI9Mvmruzr2HUyp/S9TVsuScO7lJ4+ibVm3qrXfsGw24+x8pYPIWlKy47Pb2CYPWGTI6mptPvrN76507b7ZNySbqmjOPnFHV1vnFxZ/dq2v9/Y1HPIO6+psO2zN74aXln1odK9QWRdbU+qbX3l9BtfPajsO6SPqeZaisTORr69Q+QcEjq2+lKqPv/pS6l6fSlVjy+lAifH0o2gPbC503dt18MPG2ToqpXhJVEpa8Nd3oUp1g+2vnTsw5Ky3KhI1Oj2zFc711FUlWz7IGTpY5hqpK4NqGeJxxWXm+75cueK4+/llyz2JFhdZlOO3l1N0ZeQzY0kbSdRXqvz1oeFvxSPRuSnOA69vfLA27lLY6WRGl2Ce5lCtZKtLkLQFoqqmamssLrWeF1pqS5rQYbl7JsFx7atWGznJZosUfaFJtNarqyIpaiBdc1MbT0XbeCYa2FjldzbZUnbiSa/AmnLOKYqIVrD0Vf4Yxy2ugTWlPpTKl9cUwSritjKjX4JTNU02QZIVoAo1zNEq2TGAqZgAZ2TTEfiRIqkW79j+w/f5km9WjTt6M8P7jzE5rxUsbJ4cOHy7a7YepU5r7D6vct/YNvf+T4+o6ioeo89Yl1B2Z7fH2K92z7XWFPrOnf/jmHfHLmntRZYPV2oe5vesQ2NetUYNWSMHDB4e42eIdSzxeTqDfN2i1SrcVAKAUnCcRNDeAlBvPgAXtwMXuwUXvQknneyAFyHT3wS4zhHU6pJiG3yE+LYxiLWMTA6hm18gWn2Eyc2rTM2uTcxZfBP4rD+bMn5N/04/w+JE6KeH6Ke/2yM44t05oeqMmnmxSTN3EBubGZO9ffHrr215+8//HByeOTur/d+O3f55oVLv16/evfK5dtnzv1845frR08dO3jk1JlrWGxGOSQA9mAc2QKWZD7oNpYsYYqWsoVLOMJFiHARHcQ4S5mCFwXKlziSDI4kXqFPvHEX2/X+8eem8CYGq6eRTRNCNeNCVZPJoJozIVQznaibFszff/DM3fvY7V+HffEN9vgR9ugR9mAYU2m8U2YKZhE0YwNE43CyMTjxmFDpmCDtDLLluYlQce3Q7w8xrTl5VpCKzgS2YWB/As2Lo3vwPuj4iJM0g5pMV67hoYA4LFM3hA5A5iGmeYCNNtI0a5ZX77kwgoWnF0wjq7Tu5KsPsNatX6W8WHsDwxKXFiXmbPrmB6x/98UDp7Hzf2DerKIPD947chGTovmO+E1nf8Mqu98v7dp9A8P6Xvt+77f3rv6KxaQW5pX2X32E/fAr9u4BTOXpklg7eJqSnNW7rt/Dzt/GbtzDEhdsbNi86+zvmC22YMn6Vw9ewHr3fHv0GvbjHUxieXl11ftn/8B+uo0dOYdduYed/QX7/gJ25AJ2G8NWFL1q8Kz66jh28CxWO/DN6d+xXV/cEzg28G1VMk83bO7kOzZzwsDdFiesD3F0I45exNEN23tge5f/ZNu62bZOpqWTaWlnWjpZ1g6OrQs2lcZkVbz51ntf7Gk9+tayn3Y5L+12/LAj+ZvNL7+/YyB/bYfcWkZW1RLUjSxz+aJVLe+/89ZXb9V/9/rii+97j21T7++P+Xxo/Vtbdy1b1cXSrmBZShj6Mqpsee76wY/f33tid8MPmzN/2mk8v8d+aEvyN1sL3+4dWrm0VaReKzDWU0XlKnNxZUn7J7u6Dr22/sdXM268GX52h+37zRlfbCv9+yu74mPzpdo1bGUJrK+ja2sV3l5z8jZH5qvuBbstaa+gqa9aE7c5U16xJmyROVrYqnKGrJipKPXfUsHKco6ylKMsRRQlfrGVJXTZBlhbBmo6ikKJoZwrzdeaNsrUyzX63O8OP77zO5azrIYM6YZe2fvHQyyvsCE6bfGvGLZt11GpZuHCFzuv/oJ9c+iq2hz75t+P/DaMLcxucoa/fPQk9vsw9ssf2I3fwAXrsTMjrphKq6fD4ByyRr+pdG1ReAc1Ub3qyC5t5KDeO6hzd1kjOwTqJ8QhchLx3MRQzuwgXvwsbuw0XvTkZ4jjS6n+JM5kxDYVtk0CMc5fiDOOZCEK0mLTOmOSev4viSMOL/yXGGfOv63j/NsY5wlxfH2AvuIx6Ab0XavPC1akE5RpXGPWB1/8/Obbn1+6dOXuH7/cuHX18vVr127/duHyrXPnr5w/f/HS5bOnfz5+5uyP+w4cPv7Tb+98fJYjTkXEWUxhhj/GoUuzmeIlbOESxEcchiSbIVnCFLzIlb3IFqZxpbMF8ugLt7D3Pzs/ZoZoKsH0/CzFRKJ+AkE3JlgxNkQ5kaifhFM9N5bsiZ43/AiEOQ98FRxQNh7Benp3T5nGDiaoJwZKJobKx+FkEymKsXjJRJx2Ck733ERmad322/cwq2vupGliCt1NpHrwNC8gDs37LHF8d1VrnmRVT2McJtojcLZRlC+v2vTeTQwb3HOypuejTw/fuDaCLVnXm5xdfQvDlhY20KWexXmd2Xmb27cc+gXDste0pmRX3hzB5r3Us676ncv3sMjM/GPXH+7/+U7u+vbK5j13hrG69neXb2y/g2F5m95lqJfrvD1yW4dAV7Ykb9eNP7Cy2oFDPw2fuIS98em+m48wT/IGKZo9d1VNblFD9669dzAs88We+Sv7fsGw5UWNDFH0h1//cm0YcyWu0roW3RrBNu8+nLWs4eYINvjm0fmrO7a8d/b8MBaTs5lvr+DZG8XuAd9d1V+IM8oa2N7DdnSxbd1MWwfT0glZAXHAFZW9E7aUK53L0jOy/j605ue3515/w3BhM3J6wPTdwPzKFYt02mREtQ6xdJB1LbCpXKRIys5K/WRr3sndKae2Sq7v0Z7eGfHV0Iur5s+XypNFtrVM80amoZBnXM1TJK3MzjmxPf/qqzHXdsnP7BSd2ub9oGnOy6lpCkGcRJPPVJQKjU18+SqVyFGRm3L8tdzT292XXpFeeEV1cCDqw56XMqOiLMYsjiQXVpUihnqappqmqVRGdVlStxqTN6Ppr1jTX3Wm7TTFDAjMdXR5MUNWjGgqEU0lU1EKK8HVOKwqBZ9VlLCVADqgfKMsYiqL2MpirroYFq/lydeQ6FkGS/6hY9jNO9jCnNpggjpt7vpf74NtKifP3j976/H5O9ivI9irb534xxfXfx3Bzl3FTp27d+1XwJefz2Nr1m/Wm+evym9ft7FtUe7GOyPY3v3XNLZ11sgug3urKfJ1tXdIEzOoiepWR3ZpvAM+4vRYI7v4qrxQRrJvL/VsEpJIQGaHcuMDOMC/YSo3ago/chLfM4nvL+I8JQ4XBDg+4tjHwyCrGo1xnhKnKyapb3bKoFQFsioKMx0M2T0t5fz7GIcCp5PgtEBavMi9YZQ4hIiS6dI5IcoMnDojRJkWKpuDV4AGvyBV1uhCHJzGd0Xlv6gCd1VzQ9VzcSoggnI+UTmX+OScyzQsmMKwlbe98dFXJ785cHzk4ePr169evHj+yy+/fPOtd7t7BvoHNu/99OOzF346cfL7c+dPf/7FN198dfTyDSxtbjEV9nLkWZAoCxLPB/MNItDXA4tz/AJlHWEuLFrKly2EhckiRdKRnx6ePIdNJagm+kowfwtQv4A3jicYxuF0E0mGMYGiGQTxpJmM0prO30ew4cfY8ENs5DG279tTDEgVTBBPCxJPCBBOISqeDxWNIUrGk2RjA0ShDPNzE5idQx+fv4HBgogggpHMcONpbjwNQAfsrADLj+MI1AQCLTmQks6QreGaamG0FTTjWHshSw/L1iYIa6QpXs4tBsQ5ehk7dBH75Di2pvbvbPWijGVddzAsLbd0bfXg7UfYjndObX3z5O+PsdXFfVI04fszv3104OLhc9ibey+pwnJ+/g07dhlr6v+0pe+zrs1fv7i6a0PN7svDmDOtkW8tkznbdBF9HG1R+tKhXzEs5+XGyJTia/ewq8PYtQeYIya/fct31x5gPbs+2P3p99dHsAUv9eXmbwdQW1YhUMzd/f6tn65hpsgVSsein65jW/YcW7y67cYI9vpHZ5q37qsb/LZ5+4+ujA6Js5bvaBK7e7m2LnChDtTPsfVwbH3+E7F2w5YelrWLjXZDaAfL3MW0dIJXbL10Ry/T2coyrNGgiUke/qf9SVd2RZ0Z0F97K6kuR2OSWkWqVZCugaLvJms6eaYWtX6dkh+2MFJx6q3lp7Z5f9gSdnRHytoUuVZoUxny2KYiqqmKrq9BdOVSfZ5SYMmL5F3clfHjdsPhzZoTr2bmuNgWvlUpW8LTFDJ01ZC+nqcu08tzzRxNaZbk3FtpZ3Zajw5Z9m9ZkGZFDGJUr83hy9dzNLUsTT3H1IyYakIla7m2WlvmDnPaDte8N6xJW/jGKkRbBmtKWapithowhauvYKk2+ks5LNVGlqKQqSz0n0xlIV22HlYVCXRFbPEqliDH4trw/Qns3kOsqePv8alr5iwuS1tQPrTzyMCOE2/848oH+65dG8FOXcUq296v6dr71icXt7x59M2Pzxw9j/2KYR99c23xyubc/Na5ueWJc/Pe+fTkrUfYquLdpoha1NtjCN9siNii83TrvJ2GyC6Dt9sQPmQO34Y6B+2ebr4sj8QAC0aA8TQbbDIhwrNDkbhAJHYmJ3oq1zuJGz6R5wISAOKM5dle4FincOxTYdtE2PYC2/4CbB3HtoCUimEZR7QT+Zmx6b2xyYP+2XEcLd3vC/KfiAPmquB0MOVAjRO6Cha2Hoyr+yqp4VuiBxAnVJWJU2fgFGk46Vw/cYKVfyHOX6DzLHFUc4nKuWQFEEU5hyxPE5gz3/3y9Fv/+ObyjTvXb9y6devWV1982dvds3Vox54973R0dLS0NX/59Wenfz754w/Hjx078f77n1+98ai1+x2IF8lVZlJ5KZB4HiSeD4lB47IfNxxRDiJcQucs4slegoXzeLI5ZIb7vY/O/jqCceQxYwMk40NUEwi6ySTz34IUE0mGsSHySXhZAFkyfhpZZXIP+27EH2LY/QfY0tyCF8YTZgYJQsiaSUHSmVTjNJpxHF7+XIAAFKGDRFOCJB98fm7vN1dDqGYS0xVEsj4hDjXyT9xQZ4fSUvzE4Zg3sdBmyNLNsPXSrd0sW5vQ2cTUbVhV+eXVx1jkvC6m7iUEXcM2rWaqVyzI33XuDyw1t2bLO4ev3MPSchpbB7+9+ge2qeNDSOoqbNh8ZRi7g2Ep2S1s1fwt7529cBdr6P26pv2Ltz+6xlfNW1f17nUMi8/eIbDXSMN7hLY2AVqVuWznjWFsddlrVEH60rXbbz7GrgxjtpiNn3yH/XQLS1ic3/fGF9cfYItX7ch++ZXbj7F5y1uo3Mx3P8FOXcOk1pdMUet+uIHt/OC80Djn3O/Ytz9jeVV7+t66tK5hH2zaIAtvErlaYbSFH+bHTS/P1sux9XCtPf7TR5wu2NLFRjt9xAFhDmzpYlp7qLYegqmeY6sWG+enJrgP/b3y6NZFh/rTTuzOrc1LlEuTJGgd3dhJNQ8wjH10Ra1YVa5TzJ8fF/HVq8VHXln+VU/Wibc2lixN08nTxdoiuqGMaKqh6RohTa1AU6qRphZmxv64e/132zK+2zHnm215K5O8qDRFLs9nqopphhqKtpatrtKqSoz8uKZVKSffXPHtYOLBbQu+e6NmbpRbJYlQqJYJtWV0WSWkqqGrqsAkhL5MF9vlnve6LmGzKWmrK+NVqa0eUmykSQsgxUaWqpghL2TIC54lDlMJiOMXV1/G0ZUyFesR5XpEmkeG53X0H/19BLtwA7t5F/vjMfbLCBabWh5CixVpVirQtfHzW689wlq2HlY4lhu862S25VpnHqyY9+4Xv11/gIXFFZi9q45dwG6MYDcfYFfvYaWtn9riazRh9ebIQaNnizlqm9Hbrfe0Gb1dxohek3sr6t5hdQ45wnv4sjwyI9W3TQ3seKOxE0ns2QR2QggcG4jEzkCipnAiJnLcPuiE+eo49vFc22SudTJi+Stx0Al021Pi9Mf8SZwnTkT/C3HI7DQCnOonzoKWA37iEMKLZ8jm4pWZRHUmXpGGl80jKkCKFKqc449icCoQ0fyrnsQ4qrmEJ9DJoqqzQvjRiYvL9526/em3x3+9N3Lx4sVbN69fPn/h6y+/Onn8x6tXbu7c+XpLS9vnn3/+4w8njx879MMPP+zZ8+HPZ37d9/11rjSBJ8ui8dP9uIFEi5niJzGOnziIOBcRvwgL57OFGaEkx8byV2/8gaUtKhk7iz+VpJyEU0wiKJ+byZ9B004hKsYFcp+fTBwzObRz4NXhRyDAuXcPlJC/+ubk5MmMcS9AMwKV00N0s8jWF4J0z81QTMLrpoRIJ0znStTxZy5j1Q1vTA2Qk5iuEIrdH+D4V2H6fazwtIRQWtJMaiZVlg+jtZClhWbppln7aNY+hq0HMtezTFWpq97b+TnmXbAVMhUyTBt5zk2wqTx6wbaPjmFRCxt00fkfHBz+5hTW9/qlTw9jc1cOslQpCuein25jnxzF1K6NEluBInx93Zbj353FDp3Ftrx5TePcsLTgnQ8OYZbkfjZaq4rZIXT28cx1Gcvf+fQQtjDvFXlYkRBdW9r1+Z59v6vDSyPndH98FPv8x8dDH5z+x/cP4+dvzsh97YsTWPzCFqowt237rd2fYrKwIomtYNenI0Wt34isqzyZjW9+OXziJvbVaWzhho9pukKBq4nv6uC5e9i2Tl/5phtUZ+xdoyfbBko2LGsH09Luy6fACf5o62DYuhiWFkl4KyRbWFTW+M7O/oJ5sYu8qoG6vP7ObqNzPVNbQ9I3UcydbFM3x9DKUZbKNcsaa7vf3tGzNME2363aM9DYXd9tNK3masshUwUVraYZmyFdE6Kp1hvXbm7Y9mF/d45XvyBcvaertbe6Vy/LVqhLecYamraWYWxgqCpYSJ5N++JbfQPvdJbkepQb0iN3trY3lXeJpSlcea7AVM7WVUHaKpJsI0NTyrfUmOL7jQn9iAX0RjvTduoju2FtOaQsRnQViK4C1pYzVcVMFWjMYalLmKpif0UZnKpCuqKAKlkLyQrklmpEvo7CyXHF1MSl1KUvaI5PL0/IqMjMaRdqX+Qql6vQMmtUa1hSV9bKdyKzNlvj25xJvcbIZnNksyO+PXnxzszc3e7ENktUTWbuK3llH79U8Hbiwl5bfI3UVmLw9Bi9WzXObaaonabIIX1Ej8HbDa6rfMSxuIbsnh6eHMQ4NCiZAQEjabAxlg02KOHhuBBO3Ew4ajoSMRlxT+Q4J3Ad4KKKB4gziWOZBKMT2FZ/gDOObRkHmV5gWMYSbER+Zkxan584EmU+geq7Hf/PWdVojOOfcvBnVSkNB8iekpnSOXh5BlGVQZSnESRzSbL5BOX8EEUWwZ83+c5/5c4/EYeozCIrM0IEkcs29uw9cPbU+RvX7/x28eL5a1cvXjp39pebt65currv6wON9S39vZuPHj525vTPx44ePnz48Hvvfrxv/+mfL2JK4xyWIIUtnccUgQDHTxy2L6viiHLATblsGYO/kC1axBHPY3ESvbFrfxvGXn/36HPjKbPIsikE0UyqdHww97kJhL9NowVSRRZ3fEf/9jt/jNx7AG7GH/luyu/fw959e5/Xu4jKsE6dqXjueeS5yeLpJHQKTjeLoHp+ImPp8robv2JRCaunBarIDODhCYo4YPmuf/NurG/EISGEnjSdlkmW57PMdXS0lYJ2Ua0DVOsAzdoHWdsRewsbrYXRal5YA4RWcVytXFeH2N1L1ZQxjBsQy1q+fS1Tu4Jv3sA3gKlupauka9e5V/beuYphSza+zzMXi8OqedaNPOsGkbVIYi2FNWsFxmKJrULiqpNEtAk8vSxrD9feLwzr4qE1Kle10lkhslbJI+ph82qRe6M2uo2DlvNs67m2PMSySuEtF9tq2PpSmatUGFaoCm/moTVCWx0PrVJ7mjiGIp55o9heIrIV0xQr2cZ1PEspy1wu9bYLw7sYaLMgYpDt8BWJHR3wM2Lb29n2dpatjWVr87UXt46eTFsb29EFmZpYxnpEt3554Zbo2bkykdOkjbZY45et7VCG11J1dTRzC9XUCunbOcY2tnqT2FywqrDfHZGulttRrcesi167fkiDVsGaOhZaTTNX00yNkLGNqa1XWjatX/tauGmuVRljFHniHAvXLh/QajYg4mK2rpYgr6BqagSWJpm+Ojy8csPLLWFKp0vsMHPsqd6XVq/qhyULYO0qxFRM05ZAhgqqsoSpLeOhNZKwJo6pmiBZz9CUC62NCmcbW1PBUpcjuipIWcrWlLHUpUxVCUtd6n/wdwb6uQPrSkDDjmojrCqi8FfJzGU0TrZAtRziz6XyQIGSwslCZC/JzGVkzqqw2Vu0EZ1yd6vO26WN6NR4uozR/cbIPn1Ej8bdaYkd0IW3m6O6tOFNYrTcGNGocdagsS3GqHZr7Cu68FdUYTuM3tf1EVt0EX36iD69Z0Dv2mJybTc5N9s8PVxFHgFKpUDJdEaif4f4CrStAAAgAElEQVSs3/2ViMTj4bggOPpZ6DxpNfYRZyKCvgBbxrEtY9mWMWzzOMg0jo6OJdgIvIyYtJ6Y5MHZKUOgjkP75+VK/6aOMzpX5e/HWdT2XULDNykNBygRpTPFWQRpOkmRTpSmEsRzSNJ5BMW8UHkmQTEHr5zjP/HKOaH/TngleI/vbZkUFSDO6sotn3539viZyzd/+fX8+bOXLp65evHcLzdvfL73k77O/oHuwX1ffHv65M9HDh4+fOi7EyeOvfP2B//4+ODVm5glbCkNmQ3LFvq3VUCiHFA8Fuf4oLOYLcpmibLZ4hymYIFE/SLCT4WQmGM/Ytd/xcTqyFlkwfgAynOTA6kcRfK8Zf3b3z720+VhDPttePj+44cPsUfDI3dBJ+BD0AR47w9waXXzFrZ5296sBcVMgftvU+DnxtGnzOIFExXvfXjqy/03INgTiDPS2VEECvDYI5CjfMR5YhqJp8X5iUOSr2OZwa8NBe0hWQdJ1kGqdYBkbGdYOpjWVqa5CbK0MG0dbOcAzdJN1neIvVsRZxOElosj6niOathYJbQ2CiwNSk9L37v3PzqOrW06wrVUyMO7ELRJENYgcjcI7Q0iW5PM0cJH6wW2RsTaCFmaOa5efvhWnnMINnfK3X1iaz2Qq4ttbZBFtfLd9Yi1medsl0d1SLyN3LBqvrNBGg56/CThLRx7rX+OVOjo5lrbOKZGbfSA1NXGs9Sqozq5lk0SV5PI1Qz6nsPakLBOjqsXDuulo+2+UjEIcGB7F8veOSpQMPYJsrbTbU8EWdvJugauHUy3sk11LO1aRPey0l4lNBTS5S9yLQV0Yy0dbadamom6eqapk65tpWmaYHQTpF3G0i6WmVeJtMuF2pUc5Tq+rh1StbLMdRRjJcVQTze1UTSNiLEJVhQojBvFijU6Y7FCuYYnyJNra2FpNaSq56BtNE01pK0AV1GiPKV6hU75olWVZ1askUmWCxQrufp82LSBYSgkawsZ+nKGppylrfYNeW5iqsro8o0sXTlFUsgz1IGhKmUFW1NBlxczVWV+sdTlLHU5U1X2lDgg2KHJ14O5LW0JVbSOqy7mKDawRC/zlKt5ihUC9cs85UpY8TJbms8QrWcrKgwRg7qozWjidl3UgD560Bi7VR3Rr4vcYozdqvX0q93d5pghc+ygNrzDHNOLxvZpPa3mmG5DVJ/B+4ou/DWD5y1dxC5V+JDaM6j19OrC+7WuIb1rC+gJ9HTBipU4sD0ymQY9IY5/dy2IdOB4PBIbAscEIJHTkfApiHMSYh+P2MYj1okIOgE2j2OjY8G9uPl5lmkswziWZhyDt+C56YA4KaDnWKpaS6Jl0li+MOc/VI79+3FInHS/7/iitu8S679JbTw4ShyyPJ0kSSWK5pAl80jSuQRpJkkOcOM//yfuPEschm7uVMi+pmrr/pPXDp74+cadXy5cPHP+3E8Xzv6476tP+7u7NvcOfr//0PVLN8/8cO7nU6cPfLvv/Pmz23e8/uVXp67cwMx2QByGcA5TuBgS5fwTcVjiRcDBSgyCHZ50MUc0F0/2LFnWev8R9uobXz33t2lMgbxvx6vnrt28j4EK8chj7P7DRw9Bv/HI7/f+/xue+w9GfsMeDz96+GBk+OF9X4Z1/wH2xwhg1rbdn2jQuOfGEBcvrbh4BVuSWz9jlopICaNBUX7cEMgxwEDiGY/aYFrCdFomSbaGadpENzeRzZ0USz/FMkizDrDCBmgmkGX4b4sZaBfDPkAwdDHtW6nmHqatjWlvhMybEHuDIKwLNrWIHd0cUyOkK+VaKqiaYo61nm1slYVvFrm7aLoqaXgfmA4P61F7hySuPrG7V+QdQJw9iLMPtvfJPNuFjl6OoUnh6uM7ekQRmyFLI9fVJY3aijh6YUc7x9GqiBnk2Nt5jh5+WC/H0cp3galRgXNA4OiXhm+Re4ZgExhkl4b3sU0N0vAevh1MsUsjermODpatjesCl1C+26hOkFtZwfms/DmU/4SsIKvyi+fqI+uaGPoOnqOPjTZChgamvpuibuE4Wunmeoa5nahtppobSIZamqmDbu4haJrpaDOElrOtpZChgmXaxNRVsvWNTFUvQ93DNDbS9ZU0fT1kbKPpmmm6RgRtgNSVfEMLS1orUDeINPWIrAZRNcLqRljXQJaXQJpSgXGT1FSDSNZJ1WU8ZINB2yDTViHKDbCxCDJupBuLIHMZZKhiaqpYqhq2sgZRbeKoK/3VYqaiGNFVsVUALoimHNaCEwQ4ShDjsFUg2GH6e5F9WRVLtYEuXwPqx5J1PE0JLNsg1pQg0nxEmodI8xiiFVxlAVu+gS7YIDa2asIH9DFb5O4eY9w2VUS/0jNgTXpdH7VN6R4wRG9D419VuHvkjk69t18f2auN6NZGdOoju3URfVrXVkPELnPkHrV7p8o5qPcOacLB+JXGNaBzDeqd3aaIdrZ8RSgj2b+u/+me/CcLs33O8fFEJC4UiQXQYbsnsR0TYcdE2AYCHMQ4jg1w84Q4kH4szfg8DsXz0mLSuvxTDr5Jziwwyfm/Z1Uc0HMcwABTDqPEoXpKZ4myiNJ0igwQhyKcQxXPo0jnESWZZBnAjf/8J+6MgmY08MErMxm6eVMhe8qSii+PXD544uzZS1cvXT53/vwPJ44e2DbU09naNNjb89r2na9u3fnOrndOHT353cFvjx492t09dPbCvS/3X+PJktnCDLCRSwhw8y/EWcCWLGbwFyKSJbBgsVCWwxfNgbnxR06CJVtJmdnN3X33Ho08ePzoHjgAaR4+fvQIe/gAbKd4gGH3fRPjdzHs/sORuw8f3X/06NGDkUfDj8CY1d3H2N6vDmlNsXs/Of3a6wdokGNmgIZC95AoXjI1ikCOIZDjcH75oUOLDqYlzKSlU6R5sKkSMtbRTS10cyfN0k239tDRdrqphW3rJOsaOGF9TGsPy7GZ5djCtG9l2gfpaCvT3gzbGplog9DZg1g6EHM7394hdbVx0GqBrVHu7kHMnWB0E22RR/Zz0DaupZOPdotsfWC1hbNb5OlGwtpE3n6+s5uDdkjD+rXhmxF9E8/ezQ/rFbh6EFs7P6xfGrEVsXaK3QOQoVnq2ayI3Cp09gmdPXxHJ9vcIgjrFoUN8G29fLRT7hoUWrtF9i5JWI/Y0aUI70eMDWJXl2+uqoVjBcPuAlc3Yu0ESycsYPXEs4ItXSwrKB6zrOCiyi8I7aCZ2yBrJ2zrJ6iauPZeurGTottMNQ2FKOqYlnYE7aGqG2FbM9PeijO0kNBuGtrPsvXiteUEfRlJV0M1NNF0jXRdO109yNINQLoGJliC0wAejE10fQ1NX0rWFMOmFoaqEVI2MhV1kLSGrayFVbUsZYXAuIlvrGDICxBtGVdTxRSXiJS1AkUVR1kqsm6iKNdBxo0MQxGkKwXRjboOUdZxFXUcRTVXWcHXlsKKAo6mBFKA7j7/bRSsKWYrN0KKDaDfT10EqwtZqg0sZQFTWQBO1TqurpClWiMwlgj1xQzhaq6sAJGsEygK+PL1PMU6vmYDLFvLlK5nSgohaSkavVXj7TPFbdF4+4yxQ2jCDpWnTxMOhsjV7n5dxGZdxAAavdUSu0Ub3qPz9KIxg6aoXnP0gDF8mzFip9Hzmtq5TePqN3j7teFdOneX1tVrcPXoXe1mTzMi+5M4DCjpT/kW9dNZ8RR2HBGJC0GiZrIjprFcU1jOSWwbCHBgw1jWE9w8zzKNYegAcUKNBG5a7FPiyFXryPT/jji+hbjps+hPbsdn132d0nCA6ikNEM8hycBIFEWSShPMoYnn0aTzSJJMigzgZlQk+T/HO8+mWnhlJlmZQZLOFhhT//Htuf3Hzv149uL5i+cuXzr7zTef1NWV93S2DPX3dLS0tja0vLFz99Hvjhw9evTd995v79x6bxjrGfw0hBzGly0EqyqEOZBwyZ/EkSyGxQtZYrC2ApaBtkCeJJcCpfGE8xFe4rKVbXdHsLNXfr356x8j2MPH2COwD+cx9vghqBM/9k9wYo+G7//mg859DKwzvge48+ieLxh69Mfw/REMu3rz7vZXPj5x8p7DsWjGDBmBZKdQwym0KBwh4t8SJ4QWP5OSQpOu5BlKYUMl2AVlamahLWxLK2JrY6ONbLQRsTazzc0IWNfQzrR0syy9ENoBO9qZaB3P0cRzNHEszRxLK9fcwkUbRPYGsaNBEtYktDbzzW1iR7fY0cG1NkmdXZKwbqmjR2jpkDt7Jc52vqNJ7u2A0U2yiHZpWLvY0srTNWrdA2JHF8/WKgzrkob3ca1twrAuubtfZO+SufrEji6BtV1kB9tzJM52ga1R5GiVOrtE1g5leK80rFPq6Ab30+5eEdoitbUKrc1yR7vI1iQNaxXYGoX2Bi5ax7e0cS3t/yoO2oZY/hSMtsJoKwttoZmbOK5uur6FjXYyjS00YyvZ2EdDB1nWLpapiaWpF5pb2YYayFxLRBtx5haqsYOqbWJY6qimKpqpjmlupmhr6foWEOBoe2jKalhfzdHVQIpyrr6WrS9nGQvZaAlTV8nU1rG1DZCqhq3eBKur+PoqtmwjRwWWafG14AKbr9vE09bw1VWIooSnK4NU69iGQqauADYWIXrQX8NVVglUtWJ1DU9WxpUVijQbeeoCnqaQKV0j0G/kaTew5Gu4mgJEtY6jXu8/Oeq1iCofVq55qjyWYgVXu5opXYEo1ghUBVxpPl++nivNFyrWc6R5XPkarmo9W5rPkq3jqIrQ6F5LXL8+sssc3WeK6tVHdFliN1vjhnSeblPUoD6iR+fuMnn7tO52XXiHNXZA42o1etqsUWBNl8m92RA+pHcPGjw9Wne7wSejq8Pk7jS7Wi2eJq58OZ6R4jcO8uMGgpJ8mg1Bs+lQgg868QQ4NogVNYPlmc4Mn8oOm8i2jGebxrJAPgUEGccwdGOohudDjXhOqp84SSlgkvO/JY7fd3wWPV4cXri4/Xs/cWgRZYGiLJIknfaUOAzRPLpkHkWcSZVkkaV/iiTNIkmziLKsZ+OdZ2KcOaHSNJoqM4DlqO1+59tjl4+fvnL63Pmz508fP3Hohx+PHD367aHv9584fvjI4e8Pfnvg6OFj+/YfqKlvOXry4s1fscj4PLYgiQan0Ljz/cRhisEgFUuU/XRLDohxWJIctnAJLMiBednAeYObgvBj3v3g6DAGOm7AeooRMCb+ePgRIM9jUK95OOKjzpOm44e+i/IRDBt59Gjk4cOHoJyMYb/dHdn7+feHjtxcsaJlwgQekYhSqOE4fJjP5DPyfyIOjpHGFOUKdRsExhKOrhxcZxirEGMl11zJRcufyFzJQatB+7y5HkGbYHM9jFZzLVVcSwXfWilEawTmTUKgKjFaLrGUSywVYrRSZKoRmmpEllqRdZPYUitG6yTmBjHaIEbrxODFCrG9Qmwvk9jKpNZKhbVWiTYoLA1SW73YVvOkpmOtE/k+6PtUg8RSL7HWSKzVEmuN1LZJaq+S2qvElioJukmCbhKbq8XmGrG5RmqqkfjSELG5WgperAbfDFopspSL0EqheZPAXPNvxUNreGgN17xpVIipmmXdxLLUsk0NiKkOMVYxjZUMUx3DVMMyVXKN5SLtJpFvgx/bWEG2VJIs1UxTPdtQDRtLYONGcBrKfKpkaepYmjrfWr8ingbszQLSbODrV/P1eRzdGkS3wbfxD+z942gLeep1AnW+UAUkUK7hK9dzlYVcZaEPIvlcTT5XuxoByge7stSFfEWhQFEolBcJ5YUCRYFAuRZ8SpXHVaz6F63gKp6II18+KkS+DJEvg2VLYVkuR7aMI3uJK13Bla7gSV/myVbyJSt4suVc6Us8xQqWaCkiW8GRv6x1VqLeRnNkozmiCfU2o95mi7cVjWhBI1rMnlazp9nyFzVZPE2otxF8xNNqDu80uTtN7g6ju9nobjSE1ZlcDWZnk08NOls5T7acxEj1Z1WjxGExknyazaQ/8UEjs2IJcGwwHBnA9ExlhE1iWiaw0BeY6BimeQzTNIZpGgvpx9NNY3AmHJLinx1PStmi1BQQqb6NXP9NVkVE0v6VOEHiOWRpBl2eQRWn0oVzQQOeZB5VkuXXs9Ah+6DzbJ41GubglXNwskyaKgsviAlLWHXs7L0DRy8ePHLq6MlT5y+eO37q8NET3x87eejQ4QNHjhw6duzY/m+/b2ju2Ln7g+HH2PbXv6aw3Ux+MrhBkIDo5mlWBXDzLHGY4mxAHP4SH3Hmc7iZCC9Ba0q7/TuoyPxy9+HwAwCaR/ex4d9HHg6DZ78e+8bHwTbAByPYY+z+/fsATGBfF3blyu/v/v3Lw0eu5K/tmDRJwGA4GcwIKs1DIHlCcC5g4TaaVVFicE+zKhw1NhAfi6Olk1gL8MwFIdDCEFY2Dl4SgmQHwwuD4flPtTAIXhwELwFCcgPBQ04QsjCYsyiUsziUk4ODwadwcDYBWUjkLCByFhGQxXh2Np69hMB5kcBZ4tOLRDiXCOcSkFzfi9kE7gISbx6JN4/CWUjh5NCQZVTOSyTOUiJ3KYmTS+QsA8/IEv+nwIm8SOHkkLiLfWcOlbuIzFtE5CwicrKJnGwCspgA5xDgpST2s8ohsXPA68hiv3CsxaHsnFB2TvDTM9j3PHoGweA/BbKzg1jZgezsWUjOTDg7kLU0iLU0kLVwJmvBNPaiKfCCmax5QdA8PHUxkZKDoy0OgBZNRhZMRhbMZC0KYC4IYj7dMA/NAQveoXkz6QuBGHMC6HOCqfNCKQvw5AUE8hwCJQVPmx1Cnx3MSApgZAbQwRsC6enBtMQQaiKOkowjpYSSUkNJqcGkTLD4nZYaREt+qtQgWmowNS2EkhZITA4mPFEIKTnIL3JiIGl2ICn+6Rnve44PJMUGkuIDiDEBxDjfGTOLEO3XTHzUTHxUAD4qEB8biI8PwgEF4xOC8LFBhLhAfGwAMWZaSAR4MymOKVrIEmUzhTlPtYQpXALxl0L8pQzeEgZvCfQXZUO8bEiQDQlyIH4ug7eMwV1O5+bSuUtpnGwGZymDs5TOWkJj5jDgHBZ3CQNZQH7aAcjwRTd+3LDpSWx6EpOeyGAk0KEEGjOOzIrDsaJDoMhZkGsKwzYRQifQLaDrD/JdVDH043wxTiicHJvm7zkeUqjXEyjp/20d51niJNaDuypaRNkocWiStH8lzj+hhyTN+ifi+KGDV84BHuSKuWRZajDLlV+x+cx17NN9Jz78bP+nX+37Yv83h08ePfnzD98dOfzZV1/vfuPthuau9/d+e/sumCVBJFF0brRAvYAhnAPLcyDR4lE9JQ7gDvg/JM5mCXL8MQ7MW8Thz0X4qSxujDsyd/+ha/cfYTduPbp96yGIW3zz4o8fg7zq4cPHIPQZpY9vjPzhQ+yXXx6dOH75o4+P7N17ctXKphkzZFS6k0x14vB2Gj2SSI6g0KJD8B6f6TWoHANRY3G0aCBqLIE6G1ji0dNwlNRgcmooPSOU/vSfNT0xaFTgX3lqEDUtgJY2i54WQAcGD4GMlGA6UAgtJYSWFkJLCWUkhzKArQqOnhzqexHHyBx1WXjyQJ/jezENByXhIeA/h4cSSYxUEj2LRM8iQOl4KJ3g+xSenuFTJp7uVwaRnoJnpBDpwNmGBCUTmEl4RhLwogBfMRWIlo6jZeBoGaHU9L8qLZQKvsNgarJfQTTw8PRX98+HWbSkQGrS6DmLNnsWbXYQJSWQnBxASZxOjZ9Mj51Mj51Cj51BmR2CT8WFpoXiUgIIidMoMVOo0TOosQHk2GCfwUsoITqUEB1EjA4gxkwnxkwlxkwlRU0nRs3ExwWGzg4JTsIHJuGDZuODY0Jw4YH48FmE2BnE+Bmk6Jkk7wxCWADOGRTqDQqJDA6ODgoBCgiNnoWLnIGLnIWLnBUa7VdAaGRAqHdmiHNmiBN4S4WGBeDcs3Ae8B5c5IwQz4wQ99MTWBoAhTqnB7umh4RND3ZNC3Y8q6mBYVMDw6b5ND3IOTPwWTlmBjpmBIdNnmmeFmybHmKnIUl0JNVvEk9lpwIHZ1YacGpmAn8xn9KpzGflMzVkpfocezLJUBYZygKmjIx0AiWNRMsg0TKJVHBSoTk05lwaI81nbehPppJYjBQWI4VNT/ETh0lPeAIdKIHEjCVCMSFQxHSaYxLNMpFinUC1TmCYx9ONL9B048j6McEGHCspNq0rOrE3IXmzTL0OT/GNOPw3MQ6JA+o44vDC0cqxP6siSzNosnSqGNRxns2qRnEz+kCWZo3Wd/zp1ZMqsmIeXjGfoJgH6xeTRbMhSVxD93tnrz7+8eLvH3996L1Pvnxlzzv9r+zsHtrW1ju0e88/Tp25cfMutnf/OTWaTuV4OIoMuiANUWTThfNHcQPajkVALCEQU7iYKVzMEuT4oYPwF8P8BTB/LouXQkdiBLLZHb0fXr+N3b2H3biGXb74GwYacB4+fPhkpOqRb+fogxHsPpjtHDn5w+XPvji695Pje975zuVcNHmycMYsLYc/G09wMlgxgcF2AiWCwojBk5/cjgM/ZqqPNX8SJ4FCS/J54AGvThKUTGQkhdDi8VCC345yFAp+bzw8MGxKxNET8RAQgZkEfu2hRCIDPJCgP0VmJBEZScCXDljTJfuMd5OJrGQiM4MMZZChNJ+rZwKFFetzB06kQGnUJwZ4KX7ru2ct7nw2e8AGz2cEmui3AwUNGk/98HxfGnz/AF5/Kt337D99kAK75eOfFY4Rj2OAnxf8yL7n0TOUHhfqW+4BJkKoCThqfDA9eibknQ55ZzKigmhxBFISiZBEIs4mkuJCqRFB9HCf+W8EgRIBWA8sqHwm4uSIYLIngAoUSPYGk2JwhHhS6GxySDI1OJkcOptE8OBJrhBSVCA5JpDsDaSEB5KsQUR7CN4TiovChUbhcN5QnDcE7w0i+ISPCsFHBeMig3ERwbhw4H5HsAUTLIFEoCBiWBCwqfIEErwBOHcAzvn0dPqencBOLzRsFs7nfodzzAy1j2pGMDDGmxVsDwh5osBgYEz+p0Id0wNMM0OtgaE2iJvo9yBncjKZnEzYZ0bORrLYwJfqX+VzH+dkMrlPLMkZcAYDzmCyMyBWOpWeCrEymey5TPZciDWHwcyiQ5lUKrBvflq+eUIcP3dYDH+Y8zTSgRKojHgiFB1Ic0+j2ieRbBPItglUdALN9AJF/wJJPzbYgGPPjkntjE7s/j8jjr9y/G/vqkiSdKo0jSJKofKzaOJ5VMlcojjDTxmaOMsv/x/9SdZoTQcvz8IpfJLPDRJngpFOYQZFnM5RZ1F43vjMgrf+cfzMdezqH9j52yOnr929PQxGYG/fxa7cwWradsOKGCrfyxDPpgtTaMIM/0QVXbzQ5xsDvByeEmcxcBTzhaAsIXiGBaNaKFQsgYVzGEgylR2jMc4bGPrihx8f3B/Grl/79dLFa+cvXL106dalS3d+Pnvzp5+u/vDT1eMnL3657/i+Az+9/d7+VXn1BLI+JERPooQx2QnTAywUWhQVigFGwxQvmR7ln+H0dQCONgGCAAdHjQVea2TfjBUYswLLjwm0OBwtmsCIxkHgJDCA3S2RHk+mxZN91nrEp7+xREYCCZpNZCSAB3oikZEIPIIBZYA3OYUOXiQzkoGgeBIzhsSMJTHjSVAymZFKpqdT6clURjwVivEpFtDE13/hZ4r/Lxk9qQxgdu5TvO9TsTQIWJ77HdCfvM3/1RnJJHrSk6/LSPU9+E9gYUxiJJAYcf8qIhTnl//nfXpGE+iRJFoUmRpDIscSKSA2DKJHBDIighiRIbRoHCWGSIojkWJIJC+R4iJQw4ChOMWJJ7uB4SoRiEgCuW0oxR1CdYdQPCGUiFByJAH43sWS8QmU0GQSLp5ADMcRnaGEiCCCB8CCZA8ioUEkawjeE4L3jtr4huA9fuIE4yJCQoGCQ93Boc5gnD0QZw7EGWfhjTMJxlk4y8xQ68wQx8wQR6DP1ffp6QgM9cvmA4r16WkNCPHLPivY9lSWgGBzYAgaFGz1yw+doBDHjABTQIg1KNQGjMZZ6X5AQKw5fl4wWfMh1hyIOe9f5HudnQaxUyB2CoOV/EQ+V3gmKx0CVvSpdEYKnZ4GQRlM5hwIyoBAXOOv3SRBjJRnxWAk0umz6fTZDAbgDoPx/7H3HtBxXVXft4EkJHZcVKbP7XXanRlN7zPqvbfRSKPe3Xu3ZVu25areXRI7cUgIEEJ5IMBHTQiEEJ4XQgstkBASIBU7LvF9v3PvaDyWrRQeeF++tb61/uusM1dX0kj2/em/9zln7xoM/F8tS8WKlsN5S9Q5i+GMu5HQ3Yj/Hsh/pyygYGqFqOp0dcMDFvduBdYU67D4/vtx5hGnbviHDSM/RosOJhmbVWlR2BKFzfUw14Ka2kTiIOZmkD823VDsylxGWUwkK20tgDu2Nti3UmnvYAPrcEeHQlutdTSnotl6V7g4vGn7wNlP/dePHvvm/7rw+NOzD31jw65xZ3oDoi+UkjmYsRo318uoSszcBmBnBMc4BeJ0gGZVgsehuG6g2xBnJc2tIvW9uLaLMfWyxg6tqYlgy/3Bjh07p5/46jNPf//5X/z8Ly/85s3f/u6dF37z1s+ef+2ZH7/4+Jeenr3vC03t23TG3Ds+SStUIYIqVqoL5apilAD9NlOkeQRTA9pU4aVyJHZwPBE6InHEeoAAIliFGrR8qICIChg01S4TBIijxithrBpBgWJ9ymM0qUMAPgBiBF4IrXiJOpSow8iwKAErdTBZCdFlQFQluB9vxPAW4JmJCEZVYVTM5gg9eUGbYISqgekamKyFBHjBZLXY3RwTPA5GVSFUlUCcMCp8uxjpRLoJowCvWAPihHnkBrMIgVwJI0xWAzIm8EiNV6rxchg0Aq5EkCoEroGRKiVaqsBK5ESZEi9TYWWgMw9SCiMlMFIEoQUqNF+B5quQQtHmiE3E1cBjFotNgUFfYEFquEQNl0oyEpkAACAASURBVKmhKjVUoUTyFHCuAioC0AEOJVsCPE6uVF0qV5XK1QVydZ4wFkrVxVJ1MfA+yiKZolCmyBf6hWdLVVkpysxkVXqyKjNZkZGsyAIWRhFHTOIkK1W+oJKlczCSp6fKghJ5SCrLEJQlleVIZDlSee6K5PRUabZUnstqgTGJ8YVupWjQiZxmOgF66I7YSHeAuShgYZrIGHTqKKaOpCIk1UBSDRQdJSnxFFU9SUVppommWxi6RXA0tyEOgUcIPDKHmzCFh0EuGa9GyUolXpqCCtCBshbDocVwAJTxlYaUbLiq8VRF3ema6HmLd4+CaEK0LeAw5wcSB9Y1iR6na+LHdcM/jI4+95GIg5oEBi1AHKWraznXkGKIwtZ20t4B6yNaRytmrIZ1xUloQM5kEpYilCtQa3MQbb6SydM6Iwq2hLI2KLTVqKlZSofBwnxaBy5IOF3VQRo7SWPnLcTpYrkuluuhuVU0t4bQr2OMWzDtGrN7B63vMNo6OUsDguUgcNCeVlWcv6audk99XV9l5fasrG6bM0yyWUuTjUtWcMtSLARTiJElSnUhjFZgZESqKldjwGXIoBKIqJBCBRBZKpyrmn/WQYFWy/EqGQb+dMvRMiHmKlVhZWq8XIGVyvBSMd2jRCvVSDUEAyEoMDsQWgOjYQSrEyMyoUk5CM0gvH5OdcLFMIxGYDSsxstVZImKLFKQZaDxOdoodjRHsHoEr0EIgDk1ARI6KjysIGpVRKWCqARzPAwiIKISGBDgpECkBtqBk2Jn9Do1FlGjDWDEIqq4wGclaO66GgtDSC28gCCkNi41XKOGa5RItQIFEn78GkRVi6iqIahCDYNNlYAgMb4Ug7gVKlVCpXIhgJLCJVK4SAoXyaAiGVQig0rkqmLADmWFkNwplkJ5UjhLgmSkormpaK4ESZcgGTJVQSxEEpqCpyrzUxVlqYrSVFUOCJdUeeCKOl+izk1V5UiVeRJFrmBewAhyN8qCJEX+cmVukkKImATcCC4mJ0Um6kasNGdkREeTkSyNabk0c7k0M0mSniQNJssCyTJfijSQIg2lSDNSJFkpkuxUad7ypMwUSW6qNI9mGii2EWeiOANGIUpqvGUEodOcWgRCge7jFF0v4EYkThRYGyICYiiBQcDs4FEciwiJm5uII5ztBDfjWB2O1VF4hMLDNAZEYtU4WQWT4D9PKla8FM5bAmUsgUKJxCmPnK5u/OjESSXqTAX7OkTijD2LFPanGtugtGbM0oyYohjXgpmBxwH7cW42OLipGRf8Dma+sYwl2hy1FXicVEsL7F0NO7shC9jRgxmbaGsrY2tBjbW4tRYyVqiNpYSlBuUqUK7K4GlRactoW1TBVqg01bA+otLVI+ZWxNwqQocydYDcDddJcQA6pOBxhJAK5HQE4nQJOZ01tHEjYdjImjcjbK/GvAahGwyWdquz02yMaplqAivH0TIILpYr8lIlGcDrykMqJAvBCzCyRK7KVUFFOFkDoVVyqBJs80MqIKJGBhVJoQKUqVKghbcQp1IoCVgZJ44SFx57vBz0sULFOoFlSrxCPGsOEIMAzXkcgBsUj2AE8BEwUSf6CBAuxQIZIedCRhCsHpCIqFKT5YIqADKwKIy3oFgzijegsSisGiJrVRQAihIkgEBWJT4HfBH8DkjTAAHvE0vZYFEIi4qYU4MUuCAhhSQmnm6MgIZ1MBoGrFxgFD8a5w6oDC0QUI0BGCFwLQbVYnANglSAmoqgvFmBAi8AE3CIBCwICrn5MjlSIUfL5GiJGEPJ4XKhTXiFUlWpVFUo1CUyOF+GZErRjFQ8JxXPSsUypEi2DC6UqwsFL1MgUeeDCEtZJlGXSqE8CZwlhQokUIEMzpdCOeCKOlemygcZHGW+RF4wly0uSlYWJCtBpkaiyBaUK1HkShQAT4m6kaYBcdYNy7NCBiKyFHm6oGCqIiSRhyTyDIk8SwI8Tq5UnrciOStVmieVFzDaRoptIDQNOFtPaMBE1I2XbCO4wjbOqUkgTrMQQzXEDQ5JRSn6BoYATYgISUUZuulWjxMnDobfIA7wOGgtgdYQwv5AhKpR4hUpcMEyVdZSVXCZOuNuSbqKAWtV5ZGzicSJG5wF6xwL+3GaUvCIKX9/+/iz4eGnm8eeRQv2SbgOzNxOprXipkacayLMYA8OyOOYWnHjDRHGVlE414QZmxBjE2xqgtKa1WnNamuL0tYmt3YorN1qSydkbkWMTZgxipibobRGtTmqNter0uqV5ghsjKAcEGKogw21iL4W1QEh+rDaEFZwEQX4rFbc2MYaOvVct9bYTXGdINAzt5PGTsbQSRvaGK6dNnYI6gIM4sASo5hRFpHEGjs0XLvW0GLg2jhju97QajC2GIwtjKYeQiukimIlVA7+iwsd79VIuRopV0I30jSxAEqowqXEStSoqFI1WircDLISInQUmHi886ZRAI2Imzh0qiC0Csaq1aCJcLUaE/qXiyNeLTqam0YhuRO7ArInIEoCAtkWIZUTC4LmUj8EyDqDVMst49xnCXfGkjXiHKRsbqfwTe8EF18C2wW+Ph5GhCsIHgZmUPgRhH5eID18k7Aq8VCI+ItSI+CXJqhcBZcpkBI5GhdwiMAkQqVKuDg2wsD7iC9VUGlcSnWRAipUQPkKKB+YHSAAEZkq/2YVyFQFElWBTAV8jTCKiAEGZ54kitwU5Q3N4SZ7jiY3YSVVnjWXuIlncBImMdyI0ImNybJQkiQ9RZaZJMlMkeUkSbKSpdkUGxGSMlGSiVJsY1y0RgydoiDLE3NAjYIPaiSoKEGBAGq+xBxNbI+fsDh1yxUhXxMGBzvfR1QtRtbgRBj8aQRrJkXJiqylqcF7U7PUVLSq4XRFHWgEDNaq0Cj+oXtyNqXgDab8fpE4TWM/RAv2yblOzATKfRLGZpyLEkLOeB5xRNaQXCvJteJc0+2g06awdCitnQJx2kD8BVLIMeKo0qLKtCaFuVFlaoQ5IJRrUBvCsAHgBtPUINoaSFer4CJyrkFtaiFM7RquS6/v0eqBxxEPXpDGdsCam4gT505sPUvMK4upZY2hR8v16rlu1tCuM3ToTJ0aXRtKNUjlFVJVlQqqBk8IXCGDSpRwPGgqnYebhYgjQOcm0MwdLi+/hTgx+sRwI0InYRQysgAr8xV72mMImEu43MqOf/LK7chyW9zMXbz5HcZ/nHjWfN4k/guZNxH5IhiZsvgIiAPCqw+QUl0Ul+hoxPFm3MyjT+zlPNDEX8YRM28yR5wbLka8siBxboebFHk6II4UJIwF7mQnSTLfhzgU2yhklGOjyJoYcegGgr4FN1RDLCWcSJxb5gsRJ540FM58CtuRsTohqVyNIGUKVUGqPGdJUpYKi1TUnS4P31dbLxAHbgAnOeeSOAt6HKEL8AcQhzDEiAObbvI4hBGwRhRhmE8c0elAwrlzyNIOZG4TQiSwBAab6wWPA6CjMjZDRoAblItAXL3aEEb0YURbi2hr1doaoRB0RGVoJEztWmO3Vt/JattJQweW1nHD4+g7GEOnGFXFYith9SrGmrm1c9awSsOtB9KvoXW9GkOPzgyqJlO6dgivl8FVUhXIvyixEmEdJFuJ5wlVKco/BHHKxT/X8x6k+Mt/GXFufsJvOJ1YSlhwPf+D+XzA3fLt3ueGOG6ExHlsne4jEUfkTuL4/3XipMrSb6sUaShZEkyVZSZLQNo4KSUjRZJNJ3iceTYnkTg3zW91N+KVWxxNfFE8PlmIOKLlEbkDTj+QNSDFg4N9yRhWAaOlKqRYIE5DRR3wOLX1D9jcu1VI9MP25FRrbiFOXp/M0EGYOilzO2FsJgxR0tSEmVsSiSPihjC0zKlpHnRgE7AzqLkRmBpwJqtTbe6AzG2oGezxQUwRGERVUaWpUSQOZmjAuIjKEFFwEUhXB2tqYE2NWlOt0NbKtbUyTRg1tWrNXayhk9K2gYL45i7U2EFxQlT1EYnD6FfTul6WW6k1AbFcl8bYDZGRFGVpirJYhhQr8CI5livH8gXWzBFHKKUuLo3fElWBKAwEYrGKOfMn/z7iiAiIRVj/A9aIX+F9gPKBH/rXEkcOl4Jl7w8yOCqoOG5wlOqif5/HWcjdvL/HuS1uUmXptxInOTULLDaBpW4QVX0gcRaMp/6NxAkTRBVOVKBkZZK0CKVbqhvuq4ycq4tesHv2qNFG4iNFVeaCg2JU1Tj6AyR3t1TfLuy7ayMMTdQN4rSIeZxY+kbADaVvEdSE6xtxfSNmEARSNiBrgxsjuKkBMbdCaZ2qtC6VqR0FyeYGzBSBjXUqU4Nqjjiovh7V18u5BjnXoNLVQxpQFVFN1yjZGrmmJoWqgrlmOg1ETKQB5I9JcxfGtd9MnPh+nB6wBTkug3AGQhgZ4yqQ4gEr6520sYMB7T07aWOX1rKSNHQoiWiyCmw8l2GVMqxcCpfE/97GbA6owgV0E3HAy1hCZyHiLHRdWDAG6+XzlLiofPP8ljjro9iQD6TGQjck0iRxLr63eW9ejVfeStiFfgPi9fjvWYGUiaz5dxMnHkAlThKSwWKeGIz/BGvia1XCslTotuM8jzNHHCFZA3blxEQxwqa+OQyRTJQQIilxnJ++mbM8Yj44fn4q7msSJ6LHeX+nk+hxSKyWIKoIshKjwIoKpesMNz1YFXlAJA6ENZGa1o8QVc0R5ymROBJdG6ZvAwkafSOpbyC5RsLUhhhbxLQxYWzFOeBucH0zqRPVSOoAcRK5g3NRnKsluAhqaobMbSJxEGMTbqxHjXWwsQ4yNqi5qNIYVXNRVF+PGOplhnopF1XoImq2Tk3XQFS1kq5WMNXJRJlSGyHMLaA/pwlsySG5blxI6IDMcczjfBBxAIN6xM3Kc2lmgDBx8UuTtoo29kB0swSukcBVUrRKBpcnPgmJ0Lk9cW5UBZzvcRZ63m59VsUrN1MmcYvdfxZxFnr/84iz0I8fv574e44TRwnSwx+QxPnnPE4iZeLzBNzEV6Y+gDi3Td/EcZMsBbv+FlKcOCmSrKSUjIWIE0PP/13iCDsDSayWxCuBzSGrYKxWY+iJND5YWXcedAF27/6wHgdhm1VMcwoWNRccFjzOU00jP4BzdqVomxAtCJQIXT2prX9/4hDaJlIHiBPXHHoaMH0YN9ThXBQ1tapN7SpjG2poRrlGiKtTG+sgrg7i6lWGiMrQAOsb1PoGqR40KpVr61RMOLZqK0AnFS+TsdUw14inCR2BBeKIVgWslBu6KK5b3HOsMaxcSCwHirHPeZ8eMePDGEBcRunataYefdpKxtCJ0A0KtFoGx/bUxB+GucdD9Diir4kvWsUmiVT6MPOFntiFiZNIn9hcjVd+pPv/iZsXep8LXU8kztzv7f0oHP8ly2GwDSeufwdx4oiZN7ktceYbHEVG6pzm1rxvWoQSs8LJspCohXCTGFV9eOKI+/oW8jWJ1xM9zo1SODcnjxM9zkJzjKjGyRrxoxQeJvFKHK/EiEoIrWH1vXXRB6o/KnFgza3E+T6SvSuFbYQ1gCAicWhDM3mLx8H1zbi+mdA2JRKH0EYJbVRED65vQPRh1FBHGKI414QYW2CuGTM0Y4ZGNVevNtbBepAkVnFhlSGi1jcq9VGZPizV1ao0IJ4SN8iqySolWSUhSqVMhVJfh6a1kFYQUpFcNzjlIMRHCxCnR2NIENel4bq03CqNcRU4fsX1aLguYcm8g+W6QC9zcCCrU2PsZvRtMBUB67jgoGZsmVbYzic+M/9ZxBGf+X8CIh/pUxYiy0LX/yXEUahL/qOIkyLLjOMmVZHxLycOSYdBBmcunrppImZ2hJ3EcbIIG/xut1A1t9s4kTW3RlgLUSbheo1IHBCLCccjhI3IlRhRrYZrGF2PSJwPzuNgbKMohG1EtC2Irj0Fi1qKjnROPlcz+L3m0afhrJ2pmiYUhEuNOCtks3SNIJIytuFcC861CNQAuIlHVZSuMS5SgA6hjWK6qFrfQJhbCF09ztZSxiYVU8NwIBZTGqNSXS2V1kga6xXaKjVwOo0yTVipq1EyFbCmGmVrZFAJQtUokDKUDcup8hSyVKqpRNOaSLtw4kEgDtgEaALnOUmumzR00foucHyc66W1nWApnes2mlfiTKMhrcdkW8ka2jRcF6VtI6ioHKpCiTolUo0SdTjTyGja9OZePddrsq5jNB0E24KTDTBRp0CElXIhHwz+/AoTGVQSS9zEMjg3nI7ga97vj/mH+YOvRBdcTU98khOf9oXx8dGisMSvmThP/L4LzT/Mj5ZI8MR53NTMmyxEnPjZKIWqMFEfdUV8btdfbD9Ogs354DzOB4ZUYOV7gahKzChL5Fkp0gxxrerWqErMDX9AhngucRPHkDhJ9DhzNUZB3b+F8jgJlAknzIWFKsHjiHuRhfPlVTgJdpBrDKvCDQ/WCHkcoepoM8G2IDQ4zi7qRmX1ecSB9CJxDt8gTvb2VE0TJhxLxdk6go6Q2ihpaMPAvhtAnJgSPE4cN+AkqzYqQgfTNan0TTDXgrN1FFOjMdRRmmqNJsJoGyBjgxRs8wurmUqlrhoyRaQsaGSBMmUwUYDRpTBVhtLVKF2rwirAZlOyDJz3YyugtEbS3kWkdQOPY+oljN2EqZMwgpfiuQfG0M0aOjnLKjUW1hs7KLaBs3YxhkawT5coU8IFFmdTadWu5o4TXatG1m461dY9VFC6PT17E0pWiv82xrROu2s1Z25DiWrR2oDSB/J8iKhKkuWp8UolWr4wcf4FuPn/iRPnzkLESaRM4vyjEmfhwOqfJE6KLPPD5HHE5arE1fH/A8TBqY9MHPFIp3DMCpx+iJXRIcJqOJxAnIdszl0oBogDamt8COJ0Ch7nJuJI2CZM1wTwIRwPAzuvdS2YvoXkWueWw4FVuTWqAvGUQBwSeJwmpa5VrWth2KiOCTN0KUsXa5F8o6ZKramATHVyogxkkS1RmaFapQW4Yck8PZlH04UQmocyFVK4SDgnXSnFSlKxIgldBpvrcUcHbgGUocy9uLkHnPA0CTUrhPoV4hZkDdeuT+vQGJtZLkobImqihHM0bdh56ltPv/DH1y6+cw2UOH7zMig1+v/2e36X5//6Fv+tJ/94+PijWXkrcboAJfMsjnrOElbhpSmKPJisFM2LCquAiCo5LO4zjnMn0eP8u4lz0z6X+LLRQmtMH/V6/AvOm8zbVpPwMraV8cMYHCUKUmPiibNEgxPbWzyXvolvJhYmt88cJ66Igz3Hc07nA4kzDzGJLxMMzoKZY+FIZ1ayIgucJl9AK2QZccUTOrediDsAk6VZK1IzkiRZBB0WIqlm8ezCnLuJkjfvKqaoSFzzrA04vSmsZAm9N0H7zXl6f48jMiU+irghiBqRODR2E3G03GrR40QaBOLg4AjYhyCOpk2t67hBnKHvgKgqe7tEEyW0MeIAM8bUE9pmIZcc24Aj4iYeVcVzxiCJMydM1wQbOpR0E0GEOabOqC13cmU2dYaLLSS1xWpdOWVuVmnqkthKhbEW15cyRLYJCdjwdAoOYlgOrqmQo8VqEpypkSHFyUiBhCyBTBHM3o5aO3FzD5HWi6V14ZZuIq2XShPCKw5sQWa4NlrfpDM345oavaVBb430DXzmj3/j//4u//dL/FPP/Xx45uzabbtrmzvCLZ09G7bvOzL2re//4p2r/Fvv8m9e4r/27Req6zdjTEhrKk1ztcJkpURVoMJAQkeFVYinjcXdNwlOR4RO4qmI/xF6FopcEh71m9DzUcmy0P3zQBN/udD3Fd/nh8TNv5w4cdDEJ+9PnES+3Dq/LXHmZY5F4izEmvj1D0OcxD3HInHAX3eQxPk3EicxsEqInmKRVJw1cxNQs2IecUgMFDxQw2Ett7oueqG2/sFIw0N21270f0IcNAsQB9eA1AzJCOEfU49rmhC2EdMB74PpmuLEES0PpgNZGzFtHB+Bx2GiqKZFp23VEdWkOiPHWrm7bvN/TXz+t796u6HrcKhol1zfCLu7PWVbh8cff+UXb51Ye2RN2SorlYnDASWSIyOKlBQgjhQuSoYKJHgxxNXhjjbM1olYAGsQSxdh7SFtvUSaEF5xbZSxTWNq05qa9JZmNVlQUrPzqf9+6x2ef/7Fa3uPPEDp8+5aqln0SezOpeTdK6hPLseXStg77sUW3Q1pzLltvf3PPv+3d67xb7zLf+Vbz/uzmjFNqd7SDJHlcqRIgZSkKPIQqgbsTIPLRCVAB6xeCc9e7ICVeHoodthKrBZ4y5h4T+J84Sf8JtDEb4ujYf4k8bjWh5knnLRI/FKJ7+2fmAs5eHAs81aPI/4axTAq0d0o1SXK22WORXcTR4w4iad1FiLOrXxJvHIza8ARzXmgib+Ml9q67WSFLOtmZayQhW6r5dLgcmlwhSxjuTQ9SZ69XJq5QppNauuFswsLEociG4A+osdBadCBE6WB31mIOHOIEetUxMebiEOhdWCBPE4cw9qFiCPmbRbhmqZ4BgdjG1EmCvpV3eJxWkafTiQO2AdJ1lF0jDiIJopqG1EtQE8sqhL2AS5EHIQFtQgpMqrDazgyryCtZH955+f3j/Fv8BOzX8mrOawwdRiKdleuHP7j7y5e/M0bJ9q2d/hrLWoniwVVWJaSBkUeUqBiGVSUqi6QYjHioPZOxNaJWrtRazdmE4hj7cHTOkhTG2VsYU3NBmtLijJzw46zb1/j37jK7zl6Ts36F90FL5e75GimROVbdDd1zwr9osXEJxaTdyUxatKzRMJ9YjF5x3Jq7dbjL/z56j/e419+g+9YPcYaGxiuHmWqIKJCBoEoD5idOeKo4LIb0AF7jm+Dm7llL/Ek9E3jQvfHUfIhJ4l0uGn+YSgz757bQWeh9/lhrsdx8+GJI+LmVuLEg6lE4sRxI1eCU5q3VSJfEue3ska8EkfMvMltQZMkz74ZNIncuT10lkkCyySBFbKMZZJQnDiEJvIfTxwAHQyvg+F6rWFtpOFCbeSh+uin4h4HVEqdW5j6Z4gDjs8zdRQVoZkGUtMsfK0oxs6HDq5vFokzbyS0UZRpIOlGmmrWkXUcnutDHDv8Ree71l/+3asv/v7d8qYhLne/pmjP6oMPX3ub/879jx6p6YnoQjaVVYP6ZFAgGc2R4CVKskoOF0tUBXK0GDEIHsfRgdg6EWs3autBbT0idChbN2PppIwtuCGSCuXu6P/UP67zv/ojHyho/cQK4uPJuIx03CuzfHyp7o6lWoOrbOWW4+t2D+VVdjHWnI/di34yRZMCW5erzIs+JjG4i7733ItvXOHfvsq39ozDVAVtiND6eiVamiTLA5ndROII5xsAd0TiINXKWxTrbBVvcTU3WeiJXRA0805jz7286ej5TQQJq7EPr4Tz6zd9kdpbf6LYlQUIm/hzfVTixNyNqkSluml1PI6b+CTOnTh0boubeQtS/1PiCMUAxZKA8XG5JOs2kmYK4dVtbI5InOXS9GWS0HJp5tLU9GWpmRgT/vDEYUiQzfkweZx/zuMIWZsbHofE6gSPc4M4Om5dpOGhj0wcWNMMazuSsAZzMVgdrx16smX0aSx7h4xtwjWNjLYRnC6LEQdcEcs+i9ABL3VgM44wxqIqMbaKR1hCf5wGAo8yeK2RLLbKLOusmaNV0R89/Bh/kV+96VxW3QjuW/+Zr/2Bf/XSfRu37S9uylZaTAobjYXUZF4qnifFC6VwoUgcKVqGGOpJexvm6IBtnbCtG3V0g4mlC7f3ss6VGkcXaY4iuqqWNcNvX+ef+/UlOq1w0WI8CbIsVRuXyHX3ygwyxL7zwMTfL/HvvMe/eQUUPH31bX7q/scpU/pdKfRShTEZs38imVmqNn/uG794+zr/s9/wzmAnw9WR2jqMCWN0g1QF6mMCpwOqzxUL+49jNSuEolM1CiQiQxqkaINQdRyMEqROGhdcL8xrJWitDFQmbxDG2KfI0IgMDcuxWkH1cqweTPAaOVYnzOvlaKyqOSjAjtcBgftv91GhGLsMaxSqoEflaKNQsB1URJ+bROdNQCl1saZ6bIzVdZehYUE1MrRGhoalWFgsqC6828i8UQp+BFBoXRylSN3cj18rRaqlSLUEBZIitYKq5Ui1HKqSQ1UyuArs9lZXy9TVClWlQl2hhCrlcLkcLpfBlVJ1NRBUKVPHiooohImYWZOoSyXq0lR1kUQFChKnqkABY1CcWJQyX6ooBHVFFcUpqvwkdX6Kshgco1MUpSjEIjgFK5SihJfy/ORYgVGh0qgsP1lemCwrjpVSFwuqJ4zLJHk3SZqzXJK3TJoD6hzPD7WAA1omyVgmyYizZklS6N7kTJgKY0wzxrRidAcQ1YZRLUB0k5BFbiKoFoJsAyPVJKSTowTVJHwU3EaINwsjSjbfECjGfqNvTDx5nJjHuTWqWoA4tSRWi4JKbHU645q66HzixA0OxjYCjyMq8SqqaUE0bcl41Fg00D7545rB77UOfx/P2KagQAEOQtMAuEuBzLFYnQyl6jEmAiQWDRKTxDpwJy4UEALtpZgIykQAWal6ggV1ngmygSbqWKzSjuaUqZ3HK1oe2N7Hv/bu44/+r+zCvbnlh157iX/jOz8Yq6vvdhdaUi0aJFOF5gPWkAWg0i2UoyYrlquKkrBKytGNprXgjg7E3qWydShd7WpPp8rWQThXoeZO1tmN6Kv9Ratf+gf/q7/wWlfpHSnaZWr7vUrbUoVl0RJszZYDL/3lLdCh6jr/3nX+4qVr16/zFy+DtlY/+eXLmMG3aCm+WGm5F3LcKbWuwDzf++mf/36ZP/+Zp+VwutHSajB2wUijRFErU1fLkQpQlwvPU2C5KqRQjVTCaFgOVUJ0s4rqkRArk8mVyXRvErtaolmdRHalkN0SsltC9KTivSlY1woiupxoSsJWLkNWqXSbV+ArpfSGFGrdvVBrKt2RyjSn0m0Saq2EXi1n2+SaZjnTpWBWy+k1cnqNlFkjNJ8BPWckmjappk3Klcfl4AAAIABJREFUdiSTHRKiR0quWo52JZHdyUxXMtOVRPQuQ3tSqV4JuyoZX7UU6UymuiVsTwotiFqVQq1KoXtSGdDRJZVeLWVWid1g5EyPoC450yVnOyRMu4RtlbAtglpT2U7wKczKVKr3VqXQvSlkTzLVM2+UkN1yoj0Vb5ZqO1MY8G5VzJokolVKt8mxDjnWkUS1rKDaUvDOVKxTijXLsKgUrldRLRKyMYVoXoZ2LUO7JEx3ChaVY/UqrEGNNinRqAyvTSGqVxCRJLJegofleEMKHJWgTTIsmoKEU8i6FAJUcYfgGljVpFI3JBEVy8iKJKwhFQENZJRk83K4KoWsXYpVLsVrluP1y+FwCgSKh0lUJRBalaoolavDCrglWdGYpAonqWpFLVdULpNXLJNXLFdULpdXLJdXrFCUJykrxKN5oDkMVJmiLJUjgKTJQiuIVFU5qAqmLEuSFcggAEQJVCiBilOUxamqsmRVOcl1Q2wXyW0mDVtJ/UbSsB7XrSa5lbiugzKspHSbSO1WUruR0K7Ftb2UYSWpX0Vx6yj9ejW5ktCuZ01bUc1qXLeW0K4nNBsIehNJb8DJ1XrDWpxsBFvPbimF877cueFxAJJQkMQhwZ5jsANQZwSZY3HPsbAfR+g8MRdSLUgcnI0Rx1R8pG1KJM4PiPQdInFIbRRlwwQdodgGsSxQDDcCdHC2XhShaQAbcATiiFdu3EY34EwUVCcja7V02EaWhuT29b6ik5HGiz/62d9/e3Xtqslo0+B/f/elZyanT5aXVGjdRqVLqciQ4aWpWLEUL1QiWRCWo8BKlqmLUoga2tGLmVsIWzti71La26WOJoW7VWFrRx29pLNX4+5iHJFPP/GLN3m+sGHNx5LppZB9OeS8V+lYdA+TWdL++kXQRebipcuXL18GrWOuXhN75r1z6fqb7/Lb+kcW3YusQF13yu0ryKxFK3SkNeNvV8E6elHFBoqpsVhXGU3rUKJDCUdAYTosX45nK/EcFV4MSoXDNRAZ0VjWct5DrOcI5T2C+w9jvkOY7xATOkr5DukDRw3Bk6T9COk6ok0/zAT3a4In9OljqOMQ6TlKuo+DvnHBY5rQoVhDON8g4z2p8e3T+PtYzyHWfUzjOc54j9O+47TvKOkfIAMHaf8BOrCP9u3XhY6BZtj+k+acadwDPkqFjmoCw8asScJ9hPYd1QQHzbmTpP8oEzpGB48CBU4CBY8DCXPKe4T2Hqa9h+JifIcZ30Hat5/29dG+vbRvL+Xvo3z9lPcwaAHuPXqraB+4eOuo8Q4YA0e07n7wBb2HNc6jRv8Q6e7XBQ4bnIf1rsOU5wDpPcC6DrHOfq1zv9a5R+/ca/Ts1/v2MZ59pOsI4T5COQ+wnr06507Oucvo2Gew92md2xjXFsq9g/bs1rl3sbYdGsdujWO31rFL595Du3ax7p16+0aTZXOaeY8xbQ/p3oh7NtKOXRpbn862S+fcybi2aP3bKM8m3LkRs28h7Vt1ru1pnp1G5warb7PRscns3mWw79fb9ulsO3X2rYI2a22bbsiyUWtdL2idznJDnH0ja1pNc6sMaeuN1s168wbWsIox9Npcm3XmXlALwdihMXWyZrB7nk1b68o57Mo54c+bdOeMOTJO+vJG3Nkn0kvG/AUnXdnHggXT3pypQP60N3c0s3QyUDASzB8O5I5kFc/klJ5JLwDXg3mjOaWgD2dmwWxW3tmcvLPpGWPpmSf0hlUwGsbICKh6k8CdD0GcqpgDQgFuBOKA/+oCcWKnHP5J4rRPgz3HbSM/JDN2KukmnAE7a96HOPH4EKXrEisk4oLNEaED0zVg+x9dTRHlerbOTBdzEl0ZbRyrqvjv6Rn+DX7gwPmiss0Txx88vbqnryDkkEIm1K1UZ6joyhSkTIIWq+AcFZwjUecuVxXIqTDj6CUsbZi9HXJ0KZwdADdu0KNGbWnH7V1KXU1Fa/+bPD949suLlmKLlZbFSuu9Skcy6lv0CXT9rqHLPP+Py1eE5lRiH/Kr7129BtpX8fyb7/LTD35h0XL8Dim3FPPepXIvJ/yLlqI9Ww69fZW/78JTEFpg4NrMaetRsg0hmpRYjQwtkCKgjI5IHKUa9DyjzevSQH/rISp4HE8/joWOocGj2pwRNmOQ8Z9gfMOa4ClN8BTpH8a8A0zomD57iPIPGnOnNRmDdPAoGTzCZBxnMwbZjFFNaIINjrOhESY4zATGaP84ExxlgsN0CIhKvyFNxgQVGDFkT6POE5hnWJN5Sp9zFg9OEr5R3DukzZzRZEwzoXE6OMZmTpLBUSYD9OQVRaZPxpQxToaGyNBJYRwCLYwFCd96lA6M0IEhAUxDYO4fBQqMsP6heaID4MqtI+sf0gVHtP5R1jduCM7qnOMm3xTlGtT6R/XuYb1nUOsd1HpPcO4TBtdxnfukzjVk8ozqHMc536DOe0LnGzIERijHgMY7oPUe1HkGDM4hg3PY4DwCgOU8pnce07qOaez9Js8Rg6tf7zjIuY9R9hOse1Dr6Nc59htsB3W2I7TzCOM8wlkPG60HOddhxrlX6+nTesDIOHdTtr1adz9l2Ulbd1DWLYx9C23byjh3YeadoHewq8/g3s159nDeXQbPToNnp8mzy+zdzbl2cK5tRuc2zrGVc2w1ODZx9k2cfYvBvs1g32F07OFsu1huK8tt1Vt2cLYdOtNGmltjcm7j7Fu05k066zZN2haDY48zaySj4j53zpi/eCpUMp1Vfja9BDQOzy4/78mdCBXPBgqn/QVTvvzJjNIzzqzRjOLTvtxJAUOz3pwpb95ERsmMJ2fIkzMSyJkM5MwGs2eDWRM5+ROceaMabfjPJU48qkLZG1EVyUTj5iWOG7E5SdzvJOIGYyIwXUMwNSRVRRPlWjaswfJZiSYPZ0YKsx9qjfJ/fP2Zbz5fU7NhZdPGLfmZ64Jp5pQUFjJgZI6aqUqCyqRoBYQWSRXpYB8EVKDWRmh7N2ntRK0dKken3NUhc7dJ7M1qZxfi6MTsrbi1/otP/unv13nWWfLxZN1y2HNnqmWZyneP1P6JJP3I2cffvsK/+Y93hIjqytUrF/nrV/nroH3V5WsgrfPoV576RDK1WG29Q265S+VeAnvvlnEpqOW3f+H/+jYfSO8l6RqtvtPh2kyy7QhdD+qlowVyBJTmVcEVcqhmhaKSTNtgDBxnfYOo7ygSPI6GTiDBk5D3GOo7DlprB6ZQ5zRkn8Y8k5hvCPUdhdwHce8g5DoOu44QwRN44DjiP0EERgj/BOGfAiOYj5GBaUHjZHAED4kaxUKTWHAaC85AnjHENwa+oHeQzpxG/ZNy+zgWPEWmT5Ppk4h7DPKMMelTqH9U7R6lMs+gvinEP4kExoH8U1BgCgqMQ8FRODQsaAQOTqCBKTQwjQdOAXmncN+koHHCOw46f3uFiXcE9w7dKsI3fFuh7pOkf4xyTWq9p2nbqME7QbkGWf8o5RpknIOs86TGeVznOKpzHGedg4x9RO+ZJkwnWNuQ3j2sdR3RegYY11HKMUC6DlPuo4xjnLVPsLYhrfW43nJCZz1JWo/p3Mf1joNay1694xBjP4pahkjHGGU7RtkPUvbDwGDajlOWY3rTgN7cb3AfJu17Wed+2tLH2vZrrAdoyz6NvZ9x9FOOPsq1l3Ltprz7GP8B0tlnCAwwtp2sdafGfkM62069fYfGslVj2aoF2pwoxryVNm3VpO0y2PZq03bp03br03az3FbOtktr3qIxbdaYNjPGLTrLTm3aDly3Fef2Bkvut2ePuvImXLlTlvQRf/GsK3fKnXfaW3A2UHIqVHbanjXuyJ7w5J/yFZ5yZEx4s2d8OadDReeChWc9+TPBohlP3qi/YCpQOOPLmfVlzvozJ7OLThntO2GyBSHr/0M9jpwEzQBxth5hajESBFZiYY44cUCyZm6dH6Xr4tcTL8auk6D9DU3U0nQ9oc5NQ52Ndu+FuspzlUWvPvEt/rXL6zr3VGdVrcn0n9vQXhdwEgoMQQNKHIS1qVClGi2RqrKSVZlSvBAzNlG2LtLeBVs71M4uubNT5uqQ2FshVxfq7FDoq9OrNr/B82c/99Qdqbp71fY7U22flLjvkbk/tsJ8V6pxYPzCZcHOXH3vynvXL/PXL/PXLr13DXQlv3wd7DyeufDFj6dQK3D3omTDMiJ9UYp5mdqxaDG+dd/MG5f4DVtmMbLEmNbJaMTzWS0IU6vEy+QI6DGgBDXYQbdJ2radCw1S/mE0cBLNHEYyR+GMESZ3CvKeYDLGtVmnIfsM6rlfk/MpLDiD+sepjClt1mk6cxZ2DaP+cSI0AftHUD8AAeo/jQZmsfQRLH0ITZ9FQ6ex0LjwcgRJH0VCk0hoBgneB+Q7RWedgXyDdM642ndC4TqBZ5xVOMeQwCgaHEF8E0z2WbnjCBocgbzjkH8GDczCwWk4OAGnT8KhGTg0g2RMwZljqswRVeaoKmMSSp+BQ2eQ0P1o8BwevB/3n4mhJzBDBqbx4CQZ+MjCg+NocIRMnwTEcU8zzlF9aFQXOsaEjhL+k6RvSOs+qXMfN7iO6txHNe5hjXuUC8zQtmGtY8ToH2JduxnXDoP/GO05xviPAcPonWI901rXqN4xyDlPGlwnKcdRU2hIY9mhTdtu9B5h3SdY7xjrmWBdQ6z7BOU9TPgOUZ5DjPOwwTJgsByi7X20e7/ee0TvPKK3DnD2ozrbEZ1jgHb04879hKcfdYNAj/Dsx519tLuPduzROPaKYu27WPsurX03kHWn1rpDFIi8bNtFGV17WdsOxrJDZ9vFpm2nDJtpbrPOus3k2ml0bmNM63TWTZq0TaRhvcG2y2DvI0y7HdkT/qKzrpwzoeKHg8UPBktPhcpmnXkzrrzTrvxZd/6Z9PKHg6UXfMWnvYVTmaXn0wvPOdJnXZmnfQXnHLnT9uxRb+GUI2fUkz/jzT3tyT7jyZpNz5/RmLdL4cb/OOLUDj3ZNvJDKnOXDDRFBzXlYRp0TROJg8fTxmLyOGGcB5p4p0fALDwslJIHO5dwRWY+l7WvpHIyPzhTGPje0UP8a29cODnbVVTZ4TB+rm/d6b51dpaB5WlqpFAOVSUpK1LVBalQdjKapdSU0tZWwtKB27uhOeIoXF0KVxcEeg23rCDzNg9ceJPny1o2L1rGLFE67lUGFstCdyS77pG7Ft3LjN732N8uXr0K+HLlOkgWX7l65R/vXQPtxq/y4MTDhS9892PJ9F0y8z1q910q92LIl4qFFi1hTO6qd67zDz7yQ4wqsDg6OTM4a67hukhdM0LXKdFyGVQmrKrUpsD1uGWbNjBIBUax9BE0YxTOGFWHhtW+E2TGCBkaYkLjXO4FffYFIjhLZ56mglNq5zFJ2j5t9hQVnME8k0RoCvEBRsC+ScR7FvGdQoJDUHAI8s/AgdNQYBIJjAoaB8bEfwry3S/orNw1TmfPoKFhlfcokzNNpM+SmTOIfwjxD5Lp00rnoMJ5FA0Ma3LP4aHTsHdW7ZuGAuPq4Lg6MKUOTEGhCXX6iCJ9SJ4xrAiNq4Iz6sAptf8M5D+D+E6hvhnUNwXknxQ0jvpHBQkvxesJI+afxgJT80Y0MIWkj6PBMdI5oXVP6XwjtLtPF9yiCW7GA/2E9xjrGtA5BljXAOM6TrkGKdcwIIXzpM5xXOfoSwtsNPs3MPYdINHjOUx7T9IeAC/aPcICZzQAMkH2g1pnn9m5xuJep3XsYpyH9f5R2nFS4xpk3cdw/yHMv4/09NHOvTprn86yk7GvM3i3aK07zO4Bnblfn3ZYazvEOg9STkAZyneI8B0ivQcxx16N7yCatp1y9DGOfYxjH2vvY2x7Gdtu1rpbY9ujte7UWHYkaLsw344bN+mcIKPEWLcbHLuNrt0G+za9bTOq7RJarfXo7es45ybC0Etxa3T2rYR5vda5J1A448o85c97ILP0vC3zkK/0aGbVtL9kIlR2xpY5ESy+YM+a9BYNuwqOu7OH/Xkzgbyz9tC0K+eMv/icM2/KXTDlyJ10F5zy5N3nzT/ny70vveiM3rZXTXX8JxKnffSZecSJe5xbiRMHjYiY+Mv4hGTqQb83GizO0WS1Vu5vtebO1kVW4ctXk0v2+Ayf2bp6oKGuyWYskN61Ncv0rVP9NQEblaLBVVlqVWWKomKFunA5nCVhCiBzJe1qg9PaMHuv2tIpehypvVPl7lba2xFnk5Irefyp3798idd6Su5INXxS6lgsC92ryLpHGlymDtyRrH/sG89eEuBy+fqVy1cv8vwVQVffvXz1rUvvvcvzL/zlyidStHcrbPeo3XconHcp3Hem2O+VOaSo57lfvf27P/FObyNBV7C6JlBxmetlAXRaEDICNqeoq2RQOBltxCw7dMERNn2CyBhHM8bg9Ek0fYrKHNdkj2KefnnaTqW5T2rsSzXuhJz9bGgI8xwM1E/S6fsJ3xATnNZkTNChYRBM+aYJ32nMP4sFxtDgBPA7/rOoX7jinwXXfWcx332Y9xzmfYAOPQR5TlHpp+X2Y5rcGYXzyDLdDoX9IO47waaPE75hpfUoE5pEXSOQY5T0n0K9MYgg/inYN6n2T6r9Y+rAEJQ+DKUPA+8TnEYDs2hAAEdggvCPicEd4R/DAoKCI+CNCZGXeOetI3iT/umbxtAk6hnVeKc53yQXOI5ZV2ZVra5ffZANbKK9/Vr3Ia3rCO0eotwjgCOuIdp+1OAeMLkO6G1r61sOtnQd05pWprn3612HtO6TjHuSdk9R7hHKfZT19mu8fTrnQZ1lfXPL7mjTNp11jcZ+IM0/zFqBhdF4DhH+fjzQx3j3sO7tWucmg6OnoXV/WfVmjaHB5tpmMO0yWA/oHQdZVx/l2k16duOuXZR3H6CPbY87f0xgzQHG1Q8kcIe297F2wfXY9mhse1grAJCgnYxlF2PZobHv5Dx72LQtlHGj3raVNq5FmHbG1OvL3hXI2+0IbYSYOsrYYvVvYM1deudKxtbiyNmeFtifVXrGnTXqyT2RVXWwpHkgWLbTlrPNlTvgL5xwZo2ESscKo4M5tQe9+YdM3gOZJadDRfc5smd8Rfc7cmad+bPe4vtdBfc5su9zZt3nzJh1Z0+Spq0ytPk/lzgfGFXFmbIQa4QbanFNDUpXwyzoFanFC2wy8war90K46HzEM13FnQ47jxeahioD4/XZJ8vt09H0J46sXJXt4JbDWqkHlhXJ1JXJaMk9SHaqvhi211LeDnVaK+roVVo7IVe3wtmpcPXA3tUKewvkqMfsFc/84eIvX712t0L3sSTdvUrfJ1OD90iy7kz2i8RZv+fkuzz/zrXrV3n+Ov/elav/uPbepevXr4Fl8iv8xff4c5/93l1S0z1K510K111Kz90q773KwBK5+85luk89/swb/+DTHDUafY3e2KYDPSFAqR3G0E2wTRBep4KqJaqaFKwJTduuCQwzoUksBDIjUGCKSJ+lQqMKy67atZ879fjrF5648ui3+ZFPv5TfclrGra9b/7lfX+TDG8+R7v2ItR+178EceynPCcozRHhPkL6TQkJklPRNAPlHSP8w5RuhfGNxCR8CeRY6NE0ERhD3QDBy//lv8gXt92PuXbT/QNOWr888doXLGNYGBln/EGQ5SPqGSJ+YfxHyTd7DiCA8eBgPDuAB8ZsOg+8VOEYFjlCBASpwhAwMkn6QVMICEwJ3JvDADBY8dRuJTEwYCd8s4ZumQ9OY66TeO2p0D5i8m7XWks1bex57/AG7r8bsWWtyb9W791OeIdwzRnmGWPcxnWufxbfD7VvvctacPHrs1MSUK60i3bfB6thucg5oXaPA5ngGKc9BxrfN4N3g9G3xOOpmhwdGBvY47FUW22qX74DR1md07NN69hP+/URgr9a31eReZXE1OF0Fj5w/fWDHRqsh4HW3mC1rjY49Otdewr6D9uxkvLtw2zbauRfkkh39xfUXHFmDlGM/7TwgaB+IyBx7ROKIlJnDTSJ3dlBpW2nTFs65y2DfxhhXN3ad+9b3+dcv8W9d4Z/5KV/ZcBjT1JhdnZSh3pG+5hcv8Y9/6xWdfbUrfb8/9+C6nZ//+Z/416/zf3qbPzz5NbN/kyf7YFHt+Je+8+7L/+Bfu8o/9v+8UVw36kw/FCyc9OefDhSfs2bOeIrOufLvt+fcZ8+635v3QCD/XHrRKda2Q0W1/kcQB9W2pxCNxqIBcXW8beSHeGi7Qtg1hLP1YuZYOIFaL3qcOGtQui4ePcUre98MoGqYLlLT+bC2HMVBBidLjpyvzf9c2DNWoH6gUfdYj/0r6wKf73I93u39VJPt/gbrQ12ZxyuDmRLImmIiU7NU6vKlcOG9VJHSVatyRdTOJrWjQ23rVdt6VY4OpatT4Vops3UqbS2Ur1XjD//+H/wXn3x+0Qr8bnnaEoV3iSL7HlnuEnlWEpJ5r9q2aDncf3Lq4nsghrr6HtiUw/NXL1++DNbLr/Hf+9Hvpbh3scJ5l9SxGPIvhkOfVPiWKILLVP6PLWYODT387nU+u6CXZMoNpnY918vqVzJ6UFRQZ+phDZ042SiH65Yoagn7Dl1oFHUPwd5hPH0KD50m/FP6rAmVceO6/v969T3+Gz+++rVnL77wBv+nS3x+w1j92nOv8HzVqgHI1GXLGSiITmbVjrCuPsa511l0QB/azoVOGNLH9OlH/dXjpG+zNrgts3YsKzyJ2zew3i2uksP+yhOkb5ejZEKXNYw5DyL27a3bP/eHy/xPXuUD1XtTtNVjj/z0lfd4f9lRxLzGnteXWz/kLDpAOjewvt2W3EP20v26nM220v6M+jGZsdeWfzQrfNYQGEDTtpsyDhGOjWk5e/OjU/rQPtY/gHuO04EpxDVOB08J/mX6tqNg0KbFEWSdvVME0CTpHmRcR03ew7S+I81e4rWzD49Hfvb1vvoCj0XrSTPWaa3r2fSTStcxOnCScu3VezbSurI0LpDvNX/h9JrvP7q3JdvjZdxOfV2aZbPJfRKEXZ4jrGcPntaus1alaUOVIfeTj2z85oOrClw6N5eepqtxOjZYHLvNgYO4Zzfp3aqxtOl1+QGrszLI/PobB78w1phtUgTSvAxVpDH2al07Gc9enX8fwI1jF2bcSlv3mHxHixoedhVM4LY+0rFfadhG2PZo3f1Y2nbGtlvn2stad7K2HWC8SbsN9j5N2h7O3seatmnNWzBN1/TZF156le879OWT499+4xL/7PPv6a0RgzXKGiPf+v5bf/sHX1i5zWBpJbX1DW0nXnmDf/Ev/OGhrz79U3A2cPu+x92hLd/+wbt/v8SfeejHsw89++pF/hs/vOTJ3u3KOJxecsqRPePOv8+Ve86Zc96Zc96Red6ZdZ83+1RG4ZTWtkWBN3xU4uB4NY5XCsepakmkisAqCKwCxSuU6iott6q2/lxV+Fyk8SGbezeEReeOJcQOOtx+ByBoavVRiJOIm0Ti3IoewCCqQkXlElyhHEs367JsUni8ofzTYdcjpdhzfXnPDRQ8eyDnh3tCz2z1/mCT98m1vic3Zn2+1f1oe+GJstJgEkUvtRFI2VI4P8VUq3BHFO6I2tUKOTvjxFE7O5XOlSpXL2hznlbL+mr/fI3/7Def+3gKcY8i7a5Ux12pobulOfdIMxbLfWBjDmJUEMZX3rxy6RpYDr90+eLVq5fBppzr/GWer2ncuGgxu1TtS8azP57q/JjEebfSf1eqa5nK//Glmh39py+9x5fXbCHoCoZt0ulXavRrWAOoYQrCKwNIJ+NsxxJFLWbdpg8NU4FxsDgdmsH8s3RghnAO0M6t6/Z95k2er+noT8I8ObUr3+D546eeremeePk9vmH9/qrOkz//E//S2/yf3uIvPP43W/rm/36Jf+TrfySta7ngviee5c9/5WVr/ponX+D/8Bb/4tv87Geep53R9Qcv/PJ1/uk/8D96iced+7nMQaVhTWTtmb/x/F+u81955lW1sWTowSdevsJnVezt3fbwL/7M//kS/6eL/OnP/kquaejZ+ZnfX+K/+5urf7rKP/cSP/Gpn//sJf6Pb/E/+CUfKO7H09o3HXzshb/zL7zO//w1vnHjF7WBE6R3lPRNM6GzhE/ATUK+Biyu+abjI+mbJn0x1hDeKdozqvWeMPkHSmpnDh957NC+3ZMHyn/1WNVLXw5/daT+8Kr6g1uHOnvO4J7duoJxzNNvzu6vaD5xfPDcwe0rzw3UvvCl5r98vePRfSXTmzsOrj+6quu0wd6n9x3ngsd0rq2da2cO7h8/urXngf7K336x4defr32wv+TwusZjuwYbwwNG62bW1UcG9tHeTRu3nB0/PHawp/yLx0v//KXwi4+HZ7dlHFzbcrx/tiJ8lLFv0fgOaDz7acceV85weulMeskpT8FUQfSR3OjDlrxRX8Vpd/GEMeOYxr2PtO1g7btAasmWoBvQ2a237aONO3WW3SZnn96yxWjbQGlbtKYWJVyAkPnPv8C/+Apv8zRojBXHBr/0xjv89t33YVS+2dpAskWz93/t0nV+5erTBnNTpGXP29f4L37l5Yq6g+9c4b/6nRdNzkZvZu83nv7zXy7ylU2DocIjnpwRX94pd+59rtwHnDkPOrIfcGSed2fd58+eySyc0Fk3KUHH14+2H+f/EHGI9B1yMipmjsW1qrjHESa1uNAbFCNr5gkVGt0jeBWCV8FYpZoog5gCiMggiXQ7Zj1SWzOYb364mn1xoOTnfdnf3+z+2tq0r63mfrDW/HQv91RX2pOdjiearF9oDH51dfNKkzNtuQGXhVLQQszbqXI1Kt1NkFMgjr1b5ehWOzpUjg6ZrVPtXgk525VptdpA/ctX+Yef+OGiJGyJyrpE6VmsyFwsz7lHlnmPwrdYab1HrlsiYw4PnrpynX/rImDNe/y16zz/7lX+B8/9Xo46lsqdi+WeOyWuO2W+pVjmYnXwLql7mcq36B5q+4FTb7/Ll1ZuQdBSra5Np1/AN+7CAAAgAElEQVSlNazVcKsZQy+tB7UHQe890+oUrImw79AGBmn/KJM+RYRmcO8pxj9rzByDTat3HHns79f4xtX9OnfR2r0nX73CH536flXH8F95vn7NLkdu27ZDnw4Vbx86/f0/v8NHVx7aN3LhlXf5YOm6sub+V97lO7eOf+VHL/3mTT6jfF3v9qm/XeVX7RrffuzsK9f5Lz97qWLlA6zvmDE0Rlh3tmy48MoV/rFv//frPD/76NN7hs++wfO29JXBou2b+x9ML18588j3Xn2Xz60+tHb3Iy9e5D/9zV80rBv9yR/5v13jdwyc33bwoVfe4U/MfCO9dNUrl/n7H/+et7jjwa/+5oU3+bTs47R3iA3MKi2DVGA2tn4vruL7p8T4Lj5S3inSO056JsWR8QzrfAMax9b03H1TE5/9X98994evr3n5YfffHrL88aHinz646Yunz7e1HteHtqs9O8nAPsq9Ibd625mz9z/7xNDvvtr9ymPe35/Xv3Au/49fPPDlU2erircY7Fu07n7OvY+zri8r3vblhz77p++M/+rR2hcuOF75XODXnyl7/vEdj4wPleau4uxbuNAJbdYRyrW6s/Xgdx9+5JX/Ovzao9UvndP9/TH/zy7U/eQLw5PHxkOZaxjbZtS8R+s5TtsOOzLGMivvL2x4NDvycDDyUGbjp7ObHkmvPectndIFDpO2Xaxrj8axm7JuE4izTWsFitFH4I7Wsptz7GNN22jjRp1lvdO/1RPaYHG0GczVew6cf+cyf/aBbydJLV2rjvzjXX5q9utaQ/ELv+MPHXn0jrupz//Xk69f5Lt7pkMZm2sbdvzhFf6XL/Drt5x59zp/7uHvBjJXOgIdj3z5J2/yfOfGs7bQLnf2YKDgjK/gvCPzfmfWA86sB1wZ591ZZ/zZU5mFE3rrBoho+L9DnMRD5PM8jrhWFScOxkRuJo5Y4Oc2xBFZgxLVImtgrBJCKyCsDKZKCDpPj7ga/TmD5Vn3VRjfOtv1o032H622P9lr/f5W37fX277VqftmE/2jLutTzeZvRo2fKdU+3pB9PlqfC5mIZCuqqYStrbC9BXG0ovZ21N4JOXpUjm6VQBy5vUvh7ISc7ZizmXKHf/FX/uvP/v6Tcu0dqbp75I575KE7U4KfSPbdkepconQkY867U6gkpebnv33lqrBM/h5/7crV965e58ONaz65jF0qd66AQ5+Uee5RBe5S+j6WartL6kiC/YsWk8dHP/fq63woq5ckqzmuR68DxNEKxCG1HaS2g9X3ao1rUN0qnXefPnAC95wEm2jSZ0n/GcY/y2WMQsY1mw599tUr/G9e43/7V/4tnv/pS7wjZ2tk1czL1/jGTfud+U0PP/HLb//48hNPvf4Wz2/YP2LLjPz1Gj8w/enJT339eXBz12/f4H/68pWvPfPyN57582uX+OH7vrTuwMhfeD6/9SjsWMv4T+iDE4yrP7rmwiuX+cb1+w+MPf7qdf4Xr13+zRt8VsX2kvrDX/rei0/88MWnfvb6X6/y9V2TbevP/J3ni1u3StnCz3zzT799ndd5Ckz+8F+v8DOf+u66vRN/e4//+o9//fXnfveNn7z+yjU+vOrzhPMo7Z9kQ6dA2ghsGopJAI2QbPJNUIIAaOZEe8YZz5Ap/YTJv4ezrg75Kvf05v78c82vfir01/ttf3mw4OtHKsLBbPP/Zu89oOQoz3xv7q5RmNGkzrlyVceZzt1VHSbnnPN07gnKGeWIcs5CIJJIMsFr7PUaX+z1GoMDYgk2vg5rr9fZ64wBCwn6fm+93TU9PTNC+OK7+33n8/mf57xV0zPgI82PJ7+lg3rfWqZ6b2ndMYNvi7NiIhioOnpX4799duwnjzt/8aj1t5/qvrK+vN3l9TnH3BXbac8Os2un17/VbQ43uyrv39L488+N/vzJyp884Xvz0Zp7Nng7/R6npa/Mu43y7id8e8rKN9NI44Cv4h93tf/2avt/XrH++CHbd58YvXu80smUOlxjpewWxnuI8RwjnUcY92GL/3hF90ONsU/5hh8Pjj1RG7pqrDpCsbtx9zZIHNq12chu17s26V1zEMfs3o6Z1picm9zlO432VZh+rNQV0+JNd22//O7N1Avf+KmT6/JXDP7oJx/85WZq190PHTjy2NvXU1/7+i97BlZ/9gsvvfN+qqFxvT+4orN/9c9/l3rt2zcmV5x5N5V65KkXfJWJ6uZV91998VfvppJrH3CWb6toueCpvuhvfMRb+zDATd2jbPVD/toHgnUXq5vPlTrWa/CRj9oB+PH4OMKAFTjMjKoGTr6YOPPyhxInx7XByH7Br9FhPWncgOa9booZoHT1PsS1v7/3QofnB4eGv7GBu7be/WLMfEh/xzrdHdsMd+w13HHUcsc/dqDfiNheGLN8rs/wVEfZF1aGJjwBp8ZtsvQpmQHcniAcSdKZIFzjYKLKM672xpXeuMY3pXIn1e4Y5o0oLW1feuM3//FWSmUKLNE48lWehXJfvqq2BG0s0FYukDoXSEpLdLZFJai/uhUGVm+/++ebqdS+wyf/x0J5kby0WOcr0lb8vdi1QMndIXUuUHo+IbWVINwCkfnqP1z7zvc/sDtCpaVxs3nKZFxhMK808B3r0MdhTEsZ8wqidJWz9rCn6SITOIX4jmPl5/Hg/XTwsj54EvdsXrP/M79Npc4/8a9r9jw9sekRe/0GzL18YNUDP/sg1bV01/2fffnX76fqenZt3v/sr66nNh18ALH0PPWFf//1jdQvrqd2n/gS45z4zq9TP/hDqju6a3jq4LLN5501o+sOXv5VKlUTOoSXb8EDR4jAKbV9+8CKx3/ybmrNgQdw9+CTX/nJT99L/SaV8jSs/eTnf/6jP6SCHRPbjj72nzdSQxPnExuu/Px6qn/ZftQxevX5n337Vym2LWarjP7gN6kLj369cWD9H1OpBz/zlZrBZeF1ZwdXPGytP0pyR0n/Gar8nI47hgfO5IgInBEE4q+MaN8ZxnfKEjyBWO6yslurKhJtPvNLD6/+9ycmfvF45AcPRY9Gy90EGwhusFfuZgIHcOcha+AIW74lyHUO15uvPbH03x4f+OGj3d99NL5nyF9TWlvhW29ybaU9d5dxh1yevZXeLVWWlnUd7u98ctn3Hh367uODbzweW9pM1dibWO8aC7uHZg8w3D6rf285t7nO0nxoxPfjR8O/eKLnJ08OfflCdKzGFHBVWKyDesd6PXuYcBym3cco1yHStZ9tuw8SpzLydPngFZzbi7m2U+xOxruT9mwjHXdZuJ3Qu4H9OJlUzna9c6vRs83MbaGsq2jrcod/vcmeNDrG9h75h3ffTz329DcYS70S8axYd+zt91L//rPUOzdA+eI3b6X+9E7qq9/82cYdR/5wPXX3oatLRPaptbv/9EHqyU+/ORDe/8f3Uq99/8+1bUuDjZNv/PCDX7+Tauk/ylYfCDbdy9Y/4GsAGRxv/RWu/mEOJHHuD9ReqGo8b7ZuVGMhjPhoHYD/l4hDVm+VAwcMzGQKPg5Bj+LUEH83aG4whZH9EDQ5uNGh3RplhxVp7DB6zg63PhXlvru3+auryr620vL1ybKnW9SPtaD31uj2mRcesnzisx34NxK2F0KGL42Znm4nPhNvPDHYV0WxBryFMkZoS5yfQEnSjnHUPaFxjyt54qjYceDsuGM6V0jMNJ1+7F/+mEr5WsbuKMCKELYIqfy7Eu/flXCLFP5CbVCM+fNk5js+IY5Mrb2RSv35+tvvp95798Z7p85fujNfCYmzQOb5hNyzSOv/e4Vrsdabp3b9fYlJa6i89q0/fvbzP8SJzlLLuMW8wmRcYTStMIA8zpShjL+4xryMNq3UMsv8TSfrBx51NN6LB0/q/GdQ/31ExWUicArxbFu577kf/yXVHD6rKp00BHeQvh0Kx4bw1i/86Eaqberksn2P/fRm6pkv//FL/5r69fXU3tPPqQ1DPbFjv08Bynjrd5q5LcPL7//ub1Lf+WXq1R+m3vxJylo+sXLP479KpbiBY9rgLrruIhI4q3Lt7V/16R//JTW1+3GdO+ls2fzP/+vmr1IpV+PWY/e/8dO3U59+4Zdfeu3d36VSA5MPxtY9+fMbqdE19y3Sdj39lb989w8pW/0Kxrf8B79NPfPP72C26MmHX/pNKvXKf6R+cTN1+IEfqW3b6OAZlD0NmpurzuXgBs/CDRGYxg3pP0P7ztD+U5TnaGn5cXvFQZsrvnFq9eufu/Ls4dVXNg1+68mDT57YG/SOWDzrTf69Jv+xUu95s+NoqX2LtbRv/+Y1r/7Tmaf3j336QPhbnzp2Yetdta6o07HJFtiP2XfqXXvZihMO29YqV+z+PTvf/PSpJ/eFnjkUfuPZo0fWL7fpu+2urfbgAdy+AzQW27a6XNu8pr6rR3b99LkTj2xoePZg6F//4fymiYjLXhuoWWHw3GXkDhjYEwx7nHIfMPgPVg9eqRp8xNZyydl+uT7ypLXhFOnZA6Dj3q5nd8CcMc+aTZkmQJg/5itWri2kbb2Z22L2bGRsy3BzZPPdz751M/Xnm6mv/+vvX33zne/9KNUzsKWuaWVz28bK2onY0p2gL+yp1xzsqNPX/+r33nr7fZC1+ekfUr94K5VYfsnmXfbgU9/5zfXU17797qv/lvrde6kT977ird7jqz/N1l4qb3uCa7zibXyYbXwQqP4Bf8PlQO09lQ0XjNbNavQj9xz/v4w4CNJtQPsNxZ6IzXbPIPvcSte393BfWUq8vNr05QT57Y2VX4qyJ53ifZaiTw+5v7mc+1KIAgrrH22QPDnkuroq0UC7TbrGstJxoyFhMibNlqTBmkSd4xpPUumNK9i4wpNQuRM6NqlzhRTmzqHlh//zRmrv2cfulBmLEO8iBfsJibcYqRMT9Quk7v+nCVCCuq1sw7U3/+1GKvWX96+/ex34OL//81/K63uWyE13FOj/TmwrwivyEP8nVPZFOlch6r6jgOwJ3/XjX6Y2b7+iVrdaTFNlpWvMptUm02r+Yix479UUn0hereOJ0zxyNdj7SGnzJdBA7L8XK78fKz+L+O52dx+Nbv2st+McGTiK+U7pqy9rfWfdPVeHNn7V1nZKX7Wlf/WVtQeerx86FVr5lKt2V1XX3VW9235+I3X5099WMBOO6hPask1VPfdObPrymp1fr2g9bfHv8Hee6F/7GUvrOXXwhCpwEal6QMmesLdfGljzlKfjIKjOlO9mu4+Nbfi0o/4I5d3Wk7yy/sC/1PSfHFz6hL36sL/t3NDKTzkaDtL+/U3hT/Ysfwb3bdcHjvVNfLFl5FnUtoNwre+M37tiz3Ohdc8agkcZ/3lj1UMIe4GuuRcJnOabAM+hwWnhgekZCDgJkRVYnSG8h0HI6d5mcE6dO/2pQ9uP1HM1NS5ucnj4nnNXqtt3mMr3IvYdtvLzdu8Fu+uM07W/omLDpfOPbF+/qsnDVlvdG8aXnTv2iNe90eE9qGd3GQK7LeX79ewui3uXx7vq6qVPbY6PV5isjax/dTRx9uhDgarNFvcuvXNrGbvTFThgdm4ly1ZWN2144NJDU8N9lXpTt79m59ptp47db/f00rZQqX8LDRLShw38AITRv7eq7z573XGKO4x7DlT0P+LkK1Za22ZIHJNnB+PcbHRuMTm2gGEF51ajY7vRsV3v3Kl37qSdOwye3bRzG2nbaPFu1ukTm3Z//tnnfvfJZ3/8mS/84n9+5ffPf/l3TW3bVdoOm3OpStfm9IdfePmPa+96RokMUpYxb8XKB5/43qvfTz38qdf7okdKPXcFao8F6w8cv/itr30r9eVrqX0nXzK51gbqTtZ0gLKUuxYUxb0tD3sa7/c2XWYb7ssQ56LRul2DjiPk2EeacvgbEAfcEhMTE6HSNlAdHzj5tcSZl6GPAxwwMMowgJH9YF8h8HGAS8aHVNBOOztC+iY7pNLpOhikyyJxrq4M3DfKfWkd982NZS+MY9dWGV9cbvpSsvSUu+Au3R17zIUPNTL/0IW/EDN/cZj8atJ6X2XhE8Ouq2sSLXona+gw4sNmOm5mxs2mhLEsiTuTOjdIGyu9STU3oXTFtd6EzhXS2vqs1bGfvZv6zi9vFulsecrSO8WWhVLrAoltoajUUd6/cfe5f/zSK3+6AQYa3rl582bq/fdT732Qev8v/HL1r7z8/X0nH/M3RAu07v8hNuVpnAtklkVy8xJF6Yl7nv23n6SClVMY0ed0rjEZV5jNa0DmmI+qKNM4ZZpkjMv15rWkeZ2v/mTDwKNV/Y9z3Y9YGkEJGfHfY6i/X8sdoqoOyJ2bNZ4DVPAC7r9Px11mah5Xei7KHMfpqnNM9VGFY4PSvob07dCUbbdWHXvlP1I/u5F64fspT9tua9URzHGQ9B4nvcfV5n2o9QDlOkJ7j1D+I5KyndrAKU3wAtN4FXQJ+88TVWdLLBtw/z664oy+6pzKtVsBZqbBtBfh3qM038Vw+7TWbebgKcJzVG3fbag4gXiOot4TSsd+qvwMwV1AnedR53nKe85ae05t2yo1bdC59hDe05j3Auq9lyp/QMOCrpxMCzJsRIaDVxeEqSsik8SB0KF9Z0juOMEd0gcPllbsrmrcZrQMWF0hrny81N7LVa9wtxxQOXeUVZ42ek8a7Ced7Hmb64jLu6WuaZXHN1ARTLLuiKWsr6Z+s9Vzt5U7jju36/17DIG9qH2r0X/AU7GnrnqVzzEQ8IYDvpjTOdTUts3K7TC495q9O00ufqzJuY1ht7jrt5Q3TZXa2znXqNs6UlbaV92wppQdt3Crzb6tjHcn4doFkty+PZR3m7PuGGLbQrruJt0HCO9+Y8URwr2bYe82+O7GHVv07h0Wdg8/5ZBmjYAbvWM3ZQe9PLRzh9G90+TZYXRuIkuXKfBRLR3CTVGZtkeJ9lvsy2yuNYxpyu5dZ3QmlEQfbpykLavp0uWYaUJFjKGmiJLqlxFDdNnmqqZLwfoz9uC+Uv82T+1ed8XdVS1nuNrzFc1XfA2Pumoe9rU86mp8wNlwWSCOr/aeioaLJtsODTqOEWPC4Hj21Dg8z9qS0w/XUwjVcRIF1XEMS1fHB7Oq4xp8jDDCpX2zquPZeRzMFEYt0RJyrKz9QPzCaz0nXoydAtsqFDg/ZsoMIlQvSoKNGPy/6DBKDIGyN2/hdksd1scrnSrWYp1aLL2IU4u2ElgDITGNV1bcF2v95vaur69wvTjOvLzc9NJK6z8lS58cNj/QRh/jZDuov3ukSvl8t+H5Lvqfh8suVauvJuoeWJFoMrq8THMpPWggwCJBSg8u7cNsUSF/rHInEf+E0hlCvGGSCyksLece+/Jvb6bG1+2/I1+dL8LZyrYtu45+7eXv/O5PYL7hZkY3Uh+8n7qZ0Qc3+dGq6++n3n0/9cb/+s9DJ694gz2Li5hPLEbcXPeb37/+4CPfwMhOSj9sLJvUm5cyoBlnBW/hYYXetIoxrcNNG7jaM/X9j9T1P1Ez+GTVwNO2pisYdw73nSXLL9AVZ/kWvrN0+SUqeAnlLhKBy0TgXjJ4iQreQ5Wfo8B8NpCl9hLBHqsfe3p4zReZ8oNaz26wdMJ3mvJf5HUP47/I+C+mE7SB82DWqfxS1ugTGBAnK85QFZeo8nvBCGjgPO47T3Dnad85feAc4z+rD1ygA/cAlV+kKi7SlffSlfwny++hAvdB8eXt82TwLO4/jfvO4r4LOHcP5rsX893D6wLstREs33RzEfedB/UpXrTvAu07l9EZkjuB+46T3FGKO6jn9hq43bx2Wvy7TP69BrD74rjBd9II5jbPmNhTZu8xi/eAhdtZxm4vY3eWsbvK2J0Wdo/Jc9DgPapnwUiEIJN3n5XdbmM3l3m3QJV6dxg9d+u9+0Avsnef2bPf5N2n997NeLeb2M0W7wYLGO/eaPZsNHo3GbxbGO82kJ3x7ma8+4BgezG0/BvSs5f07AFy7ybduykX6A+knTugGMcO6NroHbsNzj0G5x7Gvgso/Z7P7Di3gJErsPIC7rtYa3SsM9jXQjH2VYx9DWPbQFvX07a1lHUNXbaKLFupd6xl7OtIy12MY4e76lhVx6XK9ns8tSfAuGbjJa7uXm/d/WzDI2zDI56GK666h5y193sbHvDWXfbWXPDVXfDVnDbZtim0EZwYybqhoZ/C4T0NwmJjcEjzhV9pTKC9JNpNIv28wBkSR63pNVuWD4483DeQ7seBxMlmy3Q/TtZbsMQPtUQgcaIXeeKc5DPHPHEIehCl+zACEIcAOzUAcRByGCGHdcSQlujX4BA3faAyxRencoiDYbWY1DTR0HpqqPm5ZQ1vrK96ecL8ylLjV5KGJ3uRz8ZdX15Zf7XXugW547hp4Tcj3IuD1v/Zbznuk1+JtlzddletwVuGVDstYQMVppgoAVa7j2FlY6g9qnNNat3LlK4EFlim8kRU7lGcC8tL29pCW/6YSv3Hb1Mqwh5KrvrTu++DKvj7KTA8deP6zZvv3fzgxvvvv/8B/z9QH+d1/fq7H4BGZACht/8CaubXb6bu3n9vcbH+zJlP/eAHH9TULUfxLoM5YrJO0eYJxgL2IfHQWcGYAW4gcUjzRn/DmeaBR+v7H6nte7x64JP+rsfsTQ8QvtOE/xwVvEAFL4Bffj94pMsvkgEggBv+S2lbfg73n2Yqz+m8x3Xeo0TgFOY7oXIepMph5zGADvgu3vI/AVSIiOAMC0tIoPUucA9TcR9Q8BIdAKiifRcY/0VIBMIPXBLMfxYK/vtAS/gvfCSlKcP7NYz/PIDatE7r/UC0/ySYh+It4zvJ+I9Dq+dO6LljBvaEgZ1pvUcN3sOGGfawAXQbHwGj5DPsISN3wOQ7aOTAqh1oDex+k3e/gd1v9OzTe/dBa3DfTbv38gPie/XePXp2F7AzlR5o8OxlPHtp956MdoGBcs8O2G1Mu3dR7u3p6So47uDaZQDjDrv0zu1Gx06jY7vBvsNg32awgzHOjDbp7ZsAUHim0La1tG01bVvNWHlr20DZgUj7WkgcyrqGsq4hS9cSljWocTViWqt3bndWHfU1nOOaLrANF31N9/mbH/A3PcQ1POitf8hb/xDb8DDXeMXf9LC/4bK//mJV8z2VjWes7p06LE7gIzxlIGs+nDgkMjdxNGpAnOHhaeKoiDHMGMliS/jDiRO/8Frf8RdjGeLg1IhAnPTdw+RImjjUoI4cyBCnB8F7s4kjbBrXIu2IphEtsTcZnJei/U+H/W9uqP6XIe0rCfL5Qd0u7I6jtkUXguo99J379Aseq9F+vp35fKvuc130Ibfkc+sTxyLJAOZ1Ml16aojRg/u3cEMINY4ipmGkLIzZJxD3Mi27VO5O6HzjGm9Y5RhGvUM6W+d9T3/trVTqvic+98K1N0GG+O13b9y4DtqL//IOWPyX4tECAQPszQ+AiwP6j//yHuDO9feBK/TWu6mf/uKdlSv3/+iHHxw68JRCXmkpHTMYw2W2ZaQ+AdwcC2g7hjKaQCJZb1qFG9f46o83Dz5U3/9Qdc9DtQOP1QxerRx6srT+ElNxhvCfIPzgP/IoexjjjtHlp8G0gZ+fWgieoqZ1Ql95urT+PBk4rnLsYSpOGKpOUcFjYAiLO4axxwn2uGAx9jjGHSMDJwl+cEGwBP+GCpxm/GcNgTPwF57xndL7T2c9nqT9J9P/Vvy/GMEem1M8I8CHZ+kU7QdiAqf1/lNpBQA+Mjpi4AQdotkDNLsPWsZ7gHclgDVxh02+g9BaWDBLBa2ZPWBm98+0+80c2DJh8e2bYX37LL69Ru8uIDcY74YWjDu5d5g8u0zsbrN3d/ZXjd5dBu82g3cLb7dlWxMHxh1mC35e79mq92xOW9D7t4nfX7HZ5NrKF622GJ2bQFrHuclgA4tvBOlt66CMjnVAmSVeRidY4mV0rgYODtAq2raSsa2krcuhCMtS3LIcMy/TmZcj5lWMe4uz6mCw5ayv8Uyg6UKw+R5/871c471sw31c42Vf0/2eukts7UVv9Vmu+lRFw+lg7VGjbaNcPUzgw3P6NdnxVLaPk00cAk33HGNY98dAHGvHwcTF1yFxyOqtMKoSiJPt48CQCuKG93GyyuGZeApCR4t0KGQNZrTOozAeH+17Yqz82uqKl8LUtQjxfJfqiYriyz7RYcOCg/qFVxuo54cc/9hOfi1UdsGTd7qK+uq+bVMVbTYla9P3g3u/9FHMGAMemXEUMYyg5jG8LI44JhB2mdgGtlVouaTKPYaxIbW9y92U+MlbqT+nUj/7/fW33+M9F7CS4r3U+/wD3/mXcW4+SL1/E6zIAYOcYKAc1svf4wn05vd+/q1v/e6ZZ15jmFa9odfhSpLMmMW+jDIkafOUIMY0xZiWGoxLadNy0rKKrTvU0H9PXf+9tX2Xawcfqhl6pHbk8dqRq57Oy8aak1R5Zv9eBdjFp686DmWoPmGoPmaoPqavOqqvOkpXHCIC+8saTxuqj+L+fURgv7nuBMLuMVYeNVYez5G+6jj83jls8KgpeNTkP2LyHzH6Dht9B/nzIUvwmCV4xFyelrHisKnyqKkSPh7mvzTDGn0HDf4DsyxYjsUL/GQg/jNG/4HS4OHS4EForcGD1uB+aMsC+yzBtMoC+wRZ2D2Cyrx7pgXCqBztLGN3lnp3zNK2Uu82m29nmX+nzbez1LfDyu0QrMWzFa4NNHnBOhujZ4vZvcXi3cwv8Vs7vcove60fOG80ujZmlv6lV/+Z3OuyZXavM7nWQnaYHGtMjjVm51qzc22pA8hsW220rxasybHawm8IBNa50mxfYXSsMNmWGuxLTbaletuU3r6cti9jbMsY+xRtm6Rt44wVXMTG2KcY+5TBsULvXEVZV5D2lRbfZm/d/oqm44GmE77641zDSV/jGV/DOV/DeV/D+UDDhUDD+WD9mYqGkzXNpyvrDlkdGxA0/JGJg3YLUVU2cWBU9X/k40Di9J94KX7qGrtO7FUAACAASURBVMgcY8CdwakBkMfBu1G8F8f5WyOwPni5mgbv06K9vPh4io+qBNBokQ6Nrl2j61RrukhtY6msNOH1PZ7s+NSo6ytRy8sRw7fGy14eM32xm/nKsPOfh5yf77Z8odfy/ID5sj//oHXBV+6KXZlc2mmqseoaDOQQaYgh+ghijKavyjKEcEOINEXwsrjKltBxy5SucaUrjvknFbYhnXsIdfVsP/7Eb2+m3k6l/nQdOCx86PTeB9ffTt3kBxyEdA7wcWBgdeMv1+GmrtRb7773Xir12rd/+I1Xf/js516vqBnXoHVljjBjAf9QsCCybIqwTMzUFGmeIixTlG25vWIb13TA23SIaznCth13t55wtZ10tZ4uqz+K+XcpHHcpbOtUjg0qx3qFba3Svl5pX88/blCBtDF4VNrXa1x3QSu3rtW6N6mdG3WezeCTthkSPp/5CetVDiCFE0jl2IA47sKcmwjnZtK1hXRtIZybSPsmwr4RLV2Plq3DrOsR63rUtgG1r8PsGzHHety2AbetI6zTlrRtJOzraccmyrlxlgU/Csh2F/iYdQNhBd8LrGUNUboKWtKyirSsIC2riNJVuGVljgjzSsK8ki5bQ5etYUpnqWwVk6sVTNkKsPQ3V0spy1LCMoWXTuHmScwyCS1mmkDNE2TpUqJsKbSEZQqzTBIW8OdFmMcJc4K343NY0ySRrfSHE/y3pC1pjJPGOGGIQZHGOJUl4Jjro4Q+ShhipCFGGCOkIUIYIwR/cwGhB3+TcQbcj4KDy3NHdfpRrYG3zJAWaEBHDWroQRXZryT61NSQRj+iooZlxICSHtUZ41Zuo92/2RnY7gjutPt3lfl3l/n2ALG7bOwuO7vDyW5zs1sdno0m8zIMG+WJMyNrk+3dwHPGx+kjsT44SEWg/byAj4Px+viJI0NBygalB3RkTw5xhOuQtGivBunRIF1atDv7jsoMbtrBXU54n1rZoFe4WAVxpK/l6WTrZ0ddn+nBn+/FXxo1fWXQ8OKo9ble03P9pZ/tMp11FewrXfD55a1f3L5ukq31aYI2osdkjKF0WGcAN4JiRvCnRRoipCFMG8CFWTJjCGVXaj1TSkdS6YypHRGNa4zkQjJTw+lHnv/dDbD15ndvXb/+3k0AHeDj8BtHBTcnE1uBzE4q9e6Nm2BRzo3US9e++9Vr3/vUP12r7VhRrK0we8MmbxyxjJHOCdK1FLNPobZJnX0cteVKaQzrysZ1pZPq0gmNdanGvkxhXSa3rZDbVihcq+WONUXmicV0NI+JFOpj+fpooT62xBDLsfn6aJEhucQQy6eiC8lwsXE8j4ktoWNFhmQ+Fc2nwkvIaZtPhfOpcAETzddHeQvPYfiYh44s1g4tVPbfKe9doOxZrOzNU/UtUfUX64aLdcMiLS/dkBgZhhJpBgWJtUOChHXiOYdi9SCQaqBYNVCk7CtS9hUqegsVvSWqGRIru8XK7hJVb7GyB0jRJ1iRok+k6CmW9RTLuqAtkfaUSLug5V92zLQdxTJe8jZwECy4aKGtWNlRrGovUrQXKdugLZS3FSpal0hblsiaC2StS2TN+ZLmfGkTtAWSpjlVLG8tlrcWyVoLpS0FkuYCSfMScdMScWNeSa2g/JJaQUtEdVAFxbVQS4pqoPKKaxYXVS8uql5UWLWosGphQfnCgvLFRZWC8oqrBC0oLP9EYfmCwsCdBf47C3x3Fvg+sYT7xBIuX1y5oCS4oKR8kbhykah6gajqzpLKRaLaxaJGkbpHQ41p6IgcC4k1oxLtmByNqLCECo9psIgGDeuQEIqOIcgwohugQFT1X0occPeLJSImxmx8VAV9HKpmmwwHPk42cbCMjyM0+0HQwAzOLO+mXaNrVyPtYm0bbug10w1YIdlT5r6UHPvkeMdDXZb765VXW5QPVxc/0655pg274C3eb1x0oZr80l0jX9i5akWgshbnvFizCe9njBHMGEOMUZ0hhOujpCHGGOKMIao3hAhjWGOKqkuTmHu51j4uL43i7FKtK6a2j2CeEaW5afWue9749z/+4b3Ub/988/dvvfPHP/35/ZvvvX/zPbCgAsRSIKK6eSP13g2QJ76RSv3+ndQrb/7k2eeuvfDyT85c/ry9YlRM16ttfSQXoQPjqHcC5ZYi7DJ+xgLsygCtz1nSuMcJdinlW465l/I32yxHvCu03pVa32qFe5mKXanxrVGxKxWe5XLPlNKzVMkuU7PL1b4VGm4FtCpuuZpdztuVKm45EliLlq9XepYrvSvU7MqMlmu9K9Vs2oKfwC5XepYqvEt5Owkt/zipdCTlpVGxfrSIHCwkBoqIARExKMYHi3S9JbpekbZbrAGSaXug5Dpw8QC4zoWXEu2/teAtN/yVMuBiGRn4rl7+9oIeuQ6qS85f/wIvgZGpu6SaLqmmW7AydbdM3cXfHtMDrUrTq9L2QKuAt8dkW3iZjLZTrm2Xz7Dt8HYEsMIN3BgDrFjdJFa3iNVNwq0J2e/BWdU0p8TKRrGyUQTukGkqkTeWyBuLZQ3FsgbhgqoSeb04SxJw1UyDWF4vkQGJpXViaZ1IVieS1YpktSXSmhJpTbGkulhSXSSuKhJXFYqAlvAqEFdPS1K1RFJVIKkokFQsEQeg8iWBxSLfohIOarEosFAMtEhckSeqFKmaNUQ/YhjTMWNqclRDhbV0BCwYJcIIEUbxEIaN4tgwSYzqqbEPww3IJYOKeEYfv4/zocRBqF6E6MYIcNkwhg/AQjjsvklni9FuMLSJgjtwtQgQH0+liaMgOkTqGgSpRWQuq6K0jjAeGe77zMb4Z1Z2PBXlnhy2XulkLtZjn45WfnFF7wvblj6xblnIzdVRHIfXuZgBAz0MvE0D8G5wfRSnYxSd1Osn9Pq43gAWv+OWmNoYQ8smtKVJil2hsSVV1ih/m1WICUSl+gZrxdCVZ1/8z3dTf7qZ+uXv3/3Vb//wu9//8U9vvfvWOzfeuZ56973Uu9dTb19P/ew/r3/z9f944eUfffXVn3/uX364bNNFwtqttnQj7IiGG0P8cZljVOObVPumlOyUJrhMwU3IfOMKLltgG6HGk0S9E1oPuNlG451QeyZV3iltYIXGv1LqGZe4kwpuSh1YrvJPKX2TSt+Eyj+p8k+qA1PqwJTKn5bSNylnJ7XlKxXclMq/TMFN6SpWKbnl6sByJTsF1x7OsNy4igM/LUcqH1g+r/bGYVu2whGVmIcKiK7FutZCXXuxrr1E2y7Vtsk0HQp1m0LdptS0y1XgviepuhVeAsX/VoPfZPhytpWoWvhf6bQVqZrh76pM0zJD2maFpkWhaRErm3MkVTRLFc0SeVOOpPwb/ne+YaZtECn433xFHfj9n2lFynr+avB6/grwOsHyl0ZV85dngluiimRVvK2ZzwqXTOX8fPi9PEGqsi3PkYpiUVWxeIYtElfMqRJp+h8NL67K2Mp8UTBf5E9LzOWLuTwRmydiF5V488RcvsSXJ+YWi9g8MbdI4s+XBPJKAvmiiiJ5nUzXqiUHUGYYoUd1xDBGjxHUGEmHKDpEkWM4NkyggwT6Id4NLGMJuPmbRFWUOYqaw9DHiZ1/te/4i/FT1/DKzdk+jg7v0mE9CNqHoKAWLoAmHUzxrBGuSYQHeFmiQtMs09bLNTVqXT2qq8VkXrLYwKoMnUbL3X1tDywd/szm+HPbJr64a+VzO1Y/kBjd0thUQzr8VLmbbrLTPWb9sJ6/+xxcf24I0/oYQ08w9BSwTII2jJHGEcIYxk1xzBzHShNo2QRqAzeRI65xlTWCemIkF9HZu5XmJq4lvu/8J69979e/+P17v3nrxi9+e/27P/7d69/91evf/81r3/3NN779q1e//8d/fvmnV//pjQ13XykNRovxJo1lEHNHNFxYxYUVbFTJJZS+Cbl/EkrKjUt8SZkvASX3J+V+8AuvYsfBDg0WSMmNAy4AskwqfUuF7+UPE3L/BP9dySwLXwKrCEzlyr9MEQCcmok5gDy5PynlklIuPlsyX0Lhiyl8CaU/rvIllWxU4RiTlw0XEh0FupYSbasK79Si3eDPS9ms1bYrta23L7m2VapuFsgi1TRBybSzb+NtgLdlgg+om6Hk6uY5JVM1CQIOiLpxhlU3StSNYlWDWFU320qVdVJVDbTgAl9l9WwrlteIFVXAymt4JH2ozSZXNX+POLAiWbWItyWyCpGsukRWUSKtgrZYWl4sqQRWWl4kCUIVSIKC21IorYQqkFVCFcqrimRVS8TlheIAL18+T5x8sVdQnsQ7LTGXJ+YKpP68El9eSaBIVsVfUd0DlouTgyQzhhPDGD4EEjfkKEOOktgQppvRfZPJ14BL70BWeC7BrA2G9fPqzTx2//V5nPmII8Wm8zjZxMnGzXzEgbjhbbNG26hU1yhVdVpNg05ZpZGwlMxl1TrcanOT0TXo9A3aPT1mZ5fR0UI7gpjLzTSU6XvM+iGDYRTcQWwKUaZRxjhKG8YYJqanJvQUIA6tT5Dgcr4RxhihjFHKGMdNcdw8jpZNgCSLYynuWaaxx1S2UZ1rDPEMq+1damur1tbUE7tr3a4zF64899TnX3vm+e888bnX77361RP3/8/lWy/WD2zQ2TqLiDpFaS/pS+DecYV1TMNGVFwkQxzADsgLmW8csMYfkwfiGWQAhwVQhpeCG+cJNQ0pmX9SFpjIUlIWSMoCcV7wDC34jDw4CRSYylH6230JqT8t/ockJb64yB+X+KIif65KfJESX0Tkj8r8MYUvJmdDCteotLRfxHSJ0FYJ0qpE2oFzqmvTaFtVmhal9iNIqmmSaZuhpJoGQXJ1w5wSqCTVzH1BeM6NvQA3uaqXqOt53NTNtgA3GQHczCWAm4xujzjTSOJxk77VF+BmlgBxMoLEEWyBJCgoBzcCd5ZkcFMo/jDi8PSBTtDiEu8ScUCkrFWibSjZQ9CDoJ2FHCJJQBwSG4LKSeL81cRB8TRxsjsAb7cf59bEQah+HdkDiQN7iwFx+K7i6cZiPpLK9nEE4qjUzYiyHpHX6RR1OnWTVt2kUdfr1HWEps7OdNnpNgfRZEfrrEh1qa7KilWVEs0GwzAkCGmKkqYImSGOXj+mZ2LGbOIYwqRxzGCM6g0RRh8BhQBDgofOFGafwpzLdI4JjTOudsc03rDaM6ZyD2vcg3JTi9LcqjS1K4xtCmOHytyltnSry7qWoNVqe4/W1a92DaBsROEckVpH0cCkho1o2IjaG9WwCTU3yWsCjFZwCSUXU/niKn8UWF9S5ZsAUUxGvAuTzZcJSTBHSUlwToGPScsnpxWckmYEf4gsAH/U9LeL/PGSAIBOSSBeEogKKg5GiwKRQn+40B8W+aNSfwxQkotq2IjWHVKa+yV4u1QLLlnW6NrBH9xHwY1S2yLVNMi0jQoN0JyIyXn5ocTJvhRcppqNm0aJ+pbEUdbJMpIqaueURF4Ddds+TlWJIq0iWQUU8HHmkUCc7EOxtBzeNQ6tgJgCWWW+PK0CWSVPHN8SCRD0cfJ4X2batRHcHP79YrFnsdiTJ/Lkidgl4kCJokaNtKBkN072EtQAQQ2AUQF8AMdBzpgmRnjoDEP7IcTh1/1h/Ma/bB+HryN9rMRJnH4Fr9wsxYa1+CBC9WupuYkDEzdC7kYgjoAbpbpFrWxCpPWkoglXNWtVjUpVk0bXjpP9NBOylk0ydJRARkh02ECHjMwICcrwvYQhgRonUOM47L7hiRPSG0J6JqxnIkZqXE+PM8w48HH4ipXBGDXoI3pDlOahg5uSuHkcKR0HBSPHBLiVnJ3QsAmFNyJ1jYnsgygb1TrHNI6QzgXCLsQd1ThGVbYhhB0jAlGFc1Bi70MDCW0gKXdHtf4JsHWQjWg8YHQLdP1AcUkNG1NxMRUHPCAVF1NzYMILEgeyRu6/NW4m5sFNEjJlGjflkwJuwKF8UiCXuDwJJakY50EDcRMvDkYFlZTHCnnoFAUixUFAIsAdX1TJxRB/HPNG1aWDErxdrGuRa4Gzw4dUH4E7Ck0zxM3HQpwc3HxU4kgzrIHQmRM3UkWtQBzJ7QZWucTJRgnkTvab2WfBzcmCTjqYgujJk1XkySqWSIOQNQJx0rgRc/MRR3i/uMS9qNiTL/KLFVVydQMOJpOAcLKfJAcoapgkRkhs6CMRB8ZQKN49mziqWVMOt+vj0CbQ5CLkcfpPvJQ4/QpRteXWxJmdJ1ZpWgXWqFQgKaBUNquVzZiyhVC2YsoWtbxRrWzWIl0EOUIxUQyPYeQ4QS8l6EmCGSeYOG4Io3QY1SdRfRIzJkDPgjFMmkDQxBiijB44MnomxjAxWg9EAujE9KBoBYjDGKKUMUoa46CwZY7htgnEkdTY43J7ROGMqdiE2j8OEhneuIZN6LhJxDcFboNwxlSuqNYbU7hGVd4xftMggIjcG5F5ojJPNJs4OnYCSssTR8PGoAekYWMwO6v0gmwODHNuYQVk8Afop+S4P/M/lk+KgxM5kpRPQuIUB+I5KgkmioHXk34PDv4YCLK8IQUb1fkSiCemKhuR0j0SvFNBdALufAS1KDTNSnUziMXUzQpV05yCGZxb29msgW+kyoZZqgNpmnkkODgyZd3tEadOLK+DOZ05bCb4EqIwyBexrFIkrYASaDLnoURSDpWT0El7OpIgoEy2gHfDLpGw+VKYHuYWSeYWgJHEu0jqgVos9iwSuReL2Hwxt0QcUCMtOrwTo3rA/ZT0IHR2CGLwtojDezdC6w1warB+IBy25qX3HOfMVf01xElceE0gjgQdgj6OhuzOjqpA3w2fKobejVCWEnADDjxuIHEQdZtW2aJRNGvVrQTaS9MjFD2G42MoFiGYcUq/FKMnECKGMQlcH8WYCMHEQbuUHqSKSUMYRFiGJGNI0voEAA1owxkDVh+hmXEgfQzwyBDVG2N8OBYljBHUGNIYRhFbDHdPoN4kuJ7cFZG4wmJ3WMbGpN6o3JuQexMyd0LuToB9F2xCFxxXslGNP6HxJySusNQdU/mnFGxSxQGswKhKcHBAfzNwcGJKNgwENvUkld5xcGOfP52REfIs8DATQNlA+YjEmYUbSJ85iQNe+mIiP4i2RMGEKJgQXCGpPybh81M6XwL1xpXWERHTI8Y6ZLqPRJxWiJtbE0ehmjdlI2Do1sSRKQB30pZnDQAK79Fk22zc3CZxJDJAHOjszGVBxkciT1twkFVCQdwINCmRgCQxtAJ6wKM4mC0hi1yUldMpkATzJQFe07jJl7ICaxZKOSjhzSIJSBsvknoXiF0LxI6FEvdCiTtPAiIs6OwUS8uV2iaM6iL1/RjRg2A9GD5AUnDK4cOiqv8LxJHAfpyPSBwBN+kUgLolzZ0McRQqUBOVqpuVmnYU72WYUZM+ZKBHGXLYbAjr9WM0PURQwOWjmVGKHiGIQT01AqaomEFaP0wD4sQpwyRpWEoYxkHXpnGENA7RhhGeOBM0M0XqExA0vI1QoD8wTBjHKFtMVxrSlIIASutNqH1xBRuVesOqioQ8EJWxERkbUfgSapDrTUjdEQUbFztDUncEwMiTVHgnFewykTOuALWeiJyLKnwxPlmThJYvAEX4L4XlXBxcDcqNS1i+esXnSmRZVuqLZrLL6coUD6AZYVdWRnn2+zTF+EAM0EocGJ8Wz6ASfxKId2cEK/LHxVxCyiUlPiBR5jOiYEJaOSH1JyRsTMHG1VxS44nLSodEZJdUm/lDFP40b3lQa1qgVOpmpappWpm/A/A/P+BvQlrz+EHKRvlckikAaOQzbJ1MWSdXzLY1MmUNJBH0gECVai4JvowQXkllILOTsQAxUlmWlVdI5BVSXhJZuVgahBJJAlAl/EGwJZLAtETBkizx9PEXi4GKJGkVitOJG+jdLJF486VAi3gtlHp5cQtks7gDiOO4U2JbIHUulLkWSV0LJe7FYvciEYiwimQVCqRZS3ahZA9CdKNEH8EnkgU3J5NRnlWr+lsSJ0xYoogZdADa2w8mz782dOyl8TPXiKotEnRIgw3o6H4tAXwchK+O67C+bB9nTuJk/mKBqEquBl1YMl27Bu8jmTGaGqOJEZoY0lNDBnqYofoZqo/RDxj1QwwzzLMG4EZPDxiYQYYZZvRhWp/IJg5hmiYOqFgxE5QhyTeVR0lDhNYD4vDVqwhuGEXNY6g1gjhjGmdU7hyTuSIKX0zkHZUHoupgXOGLSTwRHjHgt07JJVS+JLjI3JtQshMK76TMMyVnJ3nigFSrwhdT+pNZissD4IcAsvjAb7WUG5dy6QIWLGOBWrUvCivWOcSBj7ekDCALzBDLAsAPglYSnBDxuBEsOAQn5iOO1D8u841L/aCWX+JLFPuAm1MciBf5ouJAQuKLl7jDUm9U7R9X++JK22gJ0ibVglYa2D4zw3VVN8NH+CUFiKRaVBogNR9VKfmoKm2VADHKLJv5i/G3JU52tDUnbiSKWoE44kwKOcMayJ0s1kxzp4JnUIVYGhTxxIFWoIyIpwy007iRBATcFIsBejL+Ti5xeOiAYArGU/lSEFXlEGeGpyP1An9H6l0ocS6SQtY4F4gdi8SOxWLg7CwqduWJ2CJZhVzXhFE9pH4Ap/sQrAcUy7F0/pgnDsAN6LuZqzROoL0YBrKrMKrC+MCKzyX3/pXVccQYRqxxuSkspsOO1gOTp6+NHH1p/DjYjyMhRhRIn5Yc0JF9am2HVtuJYf1apIvv8WvX6NrUfCWV/wvXCpM4ClWzDPjP6V4vubJFqmhW67rBLcDUCOhE4puRaGqMoUOAPrwoGhwo8Ib/APjYGK8QSYdIOkLSMZyOZaKtMKUPUQzYXEExcYqJM0wMpnhoPtEjWDi9AndxaG0x0IjsSSo8Mbk3WyC2ghKq2ukDO6HggPiaVGK2VbBxOQeWEEIHR84meTcnKWETYi7G+xRxiS8p9SfSdfRM546U47+FtwBG/oQ4kFY6/IFBUFbtaWYdCvACUkPIzoA3wcRsgUgq89MyZax0dhn6QcJXJb64xMf/P7KOialuwB2kQ4m0y5VNckUD9F8U6gYYH82uN8H381m5snG+oEl4PytZI6Rv5oieAFZ452W2vR3KZBMH9NTIqsW8zY6qpDyYhDcieSX4jLwyO3rKPheLQdMNtNmhE2gI5FUEbaY3J8uvSUdSEDd8a98ciZuFEs9MuflHEEwtFmckceaJeYnc+WIeOkWeIklQoWkE1Su6FyP7tbp+HExXjWDoIIoM8JmdfgLrxtEuHO0idD0Z9RG6ARwZSOeM0UGMbyDEsH4eQ/0oMmgyLhsautLb/9DQ2GMubruKGCPMsQ/ZVoEYwxprTG6OiKiQs+XA1KlroaNfmzp1DS2/qxgdlqP9GqJfS/Tq0G4UBR2AAD2gFj4HceB/wYSGLvAfQE27StuBoAM4MQyAwoQpOkRCuPBnACAqkiMeMZHZlkdMdLbVMxE9A5LKQHxeOW0NcVoP/v+jpghSFtU64loX2E+q8ORqbuJkmolVLMjyQGVzR8EChwgK4iaLOAkYxfDEAS5GDnR4vwk05sn8sfmII0RGOYecxLDwOBs36Tcz46ycn5bzKAGxZ1xSNlJMdUFnR6ltzYRLDYpMi41U0yTJNPsJiZhbHASs3OJwa+Jkey63jpj+OuKkucOXrrJ5JJzhB0SyaiFHk3PIpsyM8+yeYx462TWpTDAFs8X+RZIcAQDNwg1gDY8bWB1354ncadxkoLO4xJVf7C4QcWJFFbgei+jC6T4MH0bRERQBBIFVc7jlbyZx+ggdIA4QCnr/YL8ybwFxCLRfpx3UM5MjI4/29j80Grrq9u1QEWMIGEwNC5pjPw4Cxg5j6rK4CB91tR6cOPXy6LGvTZ1/VRvYUIgNq8lRLTmgQrsQrAvFwYC4QgeHGNoyPk7au1GqWzI+czP4r6KyRaFq1eg6wcQ5WLIzynslYd5nAZ4LxUyfM47MHJTJ5s5s1sA38xFHrwfEIfRgPAK1RICb44irXPHZ0Lkd4mSzBp5zWDPTx5kmDoAOl8whDmxTVvBez38r4oj8caUfTEXIS4dKiM5ibRNI64DMTjNwcDLEkatBb/EtEJP9pVtQJvtL/1XEEfMODrRCWifnkP2ZHNAIjzMok3FkgNcjqZwW34IMvyVDnHQkJcRTeeJs3Ew7OxnipEEDcXMr4oideSL34hL34hJvgcgvklfy0OkmqWEEHdBp+3B8gCSHYCcxQfTjSI8gHjcCcWAvMpiQyCEOQ0+EQk/09D04Grrq8e9UEWCwS8ANbphrIxdqCGstEcSaLEaHXe2HkqdfHjnx9ckLr2oqNhdiw1p9WEcNKnRgYEqHdymxLhXeqZ7h4GRVxPnquEKVJo5K0w6CRmqAZMZIZuxvR5y0dzPLxzEYEnp9nGIAcVFzWFcKoKNxzkscIbwSDjJvQgZirtisWAzEZbcmjpibhg6f4pmeh4C44YcPwISEQBwhwIGHHO9DeBScmpzDx+LjgEyzN6ryJbXeGIAO3lbCuzNyXcvMRj6AG1gIz4bL7HM2U259/i8nTg5lsh8/HuJk4aZYGpifOGBgitc0bvh8DYyqbpc4i0WOPLFzcYkLJHSKPNDT4ft0+Do32oPjfQTRj2EgUzM/cbK3VQziSB+vHhTt02oGjIal0eiTnd2Xh8bALcAaKoxmOTjzEgcxhVBrvAQddnccjp+9Nnjq6/Hzr1Itdy/W9avpMS05AImjxjplWLuS7OKJ067WtmU34ChUzSpNu0LVqlC0KJWtGk0HivaAviNmCMx3TCuEM0BgOQh/mGkjODOvpzOfj0MzYZoJM3qQNgaVcj6w0jMxgz6u18f5zYFh1BhCzGGdNQrmHjyAINmamdmZzvLI2JiMnX7M+RjkUY6VsAk+j5MQc2llEjpxATQ5BzidkIObOXMuEDo5oBEePxbigMQQF5WAFuq4xhNVWAZK8LYiTUOxuiEnjFJkylK3k6O5NWvgVz8u4ghx0G0essky+5zNGngWni2pfgAAIABJREFUnJqcw7w+zgzQlBdLA4UyIJ44MxwcvkQ1qwdHqFiBPI6AG+dCCZQb9hzDVE4mqrLnie2LRbbFIgdQiYsXCK8KxQG1rhnFu3ASdNbwsUsvjvdhWH+GJpApwPKeTg+JdgEhvRnHpw9HehCkV6XstdvWxmJPdfc+MBx6wslu01BjuPnDt46C30aiNC7CRpydh+PnX+k7/fWxs9fY2H0Ltf1SdECND8CxBhXaIUXbZBhYQAFxI2SLM/FUq0LVCnGDYb0UBYpNNDNK0KMYL547aeLMBI3w8q8nDsXwHTp8Z6CeiUHiAOgwgERgV6k5DLI5tpjaPQM3gv8CLqKZKZAS5nPDOe/hYw5r4GMObjLciYm5mDBjmU0cqX9GZjebO4JTk3MQEJNz+LiIIypPgjIWG1b54lo2orAMFGOtS9R1JbomkTadvpGrQRVcrQT2/6vEmc2aj4M4gSzi5OCGhUVxUJ8SWv4yuOF9HAE37gxuAHRuSRwAHYAhEZ/lKXYuLnSKZeVqXSNKdCBYpw7tQPFuHO9D0WnQCOiZkziYrhfTdSNIr0LRU16xKxx9sn/wSij2lIPbriZHMdN0EmduHwc3gKZe3BIT46P2zkORC6/2nP3m0Nlr7dv/sYiJydBhFcZftol0go4bpF2ma1WBKpXg4LRByiiVwLtRqdr4klYvSQ7R9AjDjNLMKIyqcixBjwo5nZxDTiJZeKTp6JyC8Rq0sBcZEsdIQ+6AZmWS392FlUZROxizynZwbpM4kD7ZNps40LWZ7eCIOcAaQbAeBK3QH5hNmexzDmiExxzQCI/zEwfOWM0oUQk/bcbBnywOJIsrkoXBeLE/IoHTG56QzNIvojoKkSYBOgJx1MomxVxNNHN21sCX8/k7/918nI+POIAyUNC7KZT5CmUz6lOw+ya7BwfWxTMWdBVnOTjzEmexxMnLvlgCfRxbnhj4OyC84v2dRcXO/GJ3icyv1NTqsBYE6+QnGHpRFEAHRUBxilc6eiKQLhLroNEOcIWDrofHTS+q7dLperTawfaO08Ojj/UPXgnHn3b6dmiosdsiDmWOYuaomBizdhyM3PNaz/mXB85fGzv+dbVrjZKKqLABBO9HtV1abbsG7VBqW9XaaeKAMIr3a5RK4N1otZ043kdRg6CxmBqGopkQqGfTY5Q+JJxBLhlUvkE5PNvOWb2C0JkTNzQdnU0cMGLOxAxU1EjHDPqoHkw/RIC/d0vi5ARNci8IqYSoCp5nWD7LI7g2AnQyfg2MqqZxMx93simTfZ7Bgqx6k4CYnMPHRZz8QLS4alxcmShiQxJPSMWBsTK1czQfbS5EmooR4OlINSCJo1YC/f/EgeHV/FHV35Q4M6Kq+YgDcZMndi6RuhcWlC0ucojlAS3aiJGdCNaJIJ2g6WaaOGncgEQyCogDhHbjCCAOgvQC3Oj6CCo6MHy5t/+hrt6HRqJPAuIwIcIS/ZDMMW4IY6aw1hiSkCFrx8HQpdc6z13rPfdK6PS16sj9eao+BTakRUEeW6sA/otW26lUt6k07VBKNfBxFKpWubIFQXpBFY0YFFiTJg4oh8OOmxmWJEYJcnQOS4YJ6iMIukgwTIO1LYqK0FTESMdMTNygBxOe/J0zYawURFUqV1TuniE4PzU7dIIejdQbzZHYG+UVF3vnkIiNzqmZxAEdwFI/aMwT+UEr8GylO/pgl3CWFZUnP5KEkU5wyExXgQ5AfwyKf8l7N4FkYTCZXx7Pr4gW8jOfEl8UtD6yUbU3LCsbKKTaC3RNYrRVpmuRKkEfsEbbeosJhhx3BnoxOS+FR4mifh7N3Tc8XxV8vvdCeTvnADpusspVImkVVPbL7HNmeQ1cYTNt5yNOgdRfIPVn54nhshuhOAXmpyReMP/ND4VnalK5eWJ+msE122ZHVdnEgd4Nn82xQQvfFEqcecX2xUWOIgmn0NYjRAecgUDQPhTrh/VyDOtHkG5M140hnTp1E0P0UmifTt2Favt02j6tphfDh+sbDnT3XRocfrxv8PH+0cdu18dB+TqO2hQSUSFrx+HQPa+3n3ul59yro6f/NbLnX0jv+iXqHi05LJO1ELoeRNMtl4NRTLW2Q6lukytbZIpmubJFqW7T6DpxnO8mooZpeiTbx+FnvsOzLU2Blr8cUXRIGNSEIdJtWJCp4efIQeZYSB7DW4ONpjiYtzJH8dIoZoujzqTWO91fM7vLJrsKnumaSeQcMokYodFmxkEgyy0P06nlEl9iTokC43MqmxrZ5/l8nKJAZFoZyhT5YzM/P14SBCoqT0DiFJSDHRclvoiYA+GV3BuRe8bEZf1FZHsh0gzdHCF0EqiRc8gOlOahyTRl+HFKOFSZY2vmzAHPR5Y5PyyW1+SARnjMnvbMzhxnUyb7PHsuHL7JSSQLj0XyIBQfUoF4CqpAygHJfUtkHOwwhjZPzmWJzZOntVjmnVOZ2XFPnsSTJ3Vl5MiXpAVBIzwWiB35Jba8YnuB2CNWVCh1DTCbg+K9CNaDomlhWC/s0MGQDo2qRaPsIPBhAh+RSNuksnbGEO/sPds//FD/0BO9A4/1jz7m8u/UMWCA4UN8HEAcS0RjDkPiRC6+3nH2la7zrw+dfW3tpe8OrP+HBZo+GTWiwQYkkiadugfD+uWq1iy1K9QdGqRHh4GRDZIapsCg5ghFjk4LhlfZb/gzmJ2fFnB20v4OBbYl3r5mJqHTuWeKSncDQhhhprBQq1LOdHDkbjAgLvNE54uqoIOT8WugdzPt44jYeI7mAw10fCBcRP7k9FRU9oRU1rmYn0iYbT+SgyMqT87wceAWCzjlkKZPosg/rYJAbEkwtiQYKeA5xU+Zx9LQ4aJyb0RiHQDQ0TaUaBrBZhxVfQ5l5nzMRg+/ta9htuW3hdb/n9v5yAX3Dc9lQc8x2OAnrbodzefjFIj8cyrj3Uzvu4Fbb+DmULhCdDG/VHRRiXexiJ3p40z3GS8Qu3nlujl3ipx3ipwLSzIS2RfOkHWhyLqoZFp5Ymu+xLFEZM8vcSwp8ZTIgkpdA+/pgNIVgnQC7wYDBSy+hgVubkCQbp22T4cMqFR9MkW3wZSsbTwwOPLg4OhjvQOPdQ88MRR+0hPcrWPCZOmH9RyjxhBaGlJbQiJq1NpxOAqI82rn2df7z74+evSb0YMvBMIX/k7dXajtIU1RkaRVKmuTqNqk6jR0FOoOlbZLh/WBLYcZ3JBwEwdPE4oc5YfFR/g5hhlRFUWOkhQAE2/HQC8yCWxOIvlDHwl9OEvgmg5YR+e3r8cpYxQ3RbHSqM4KQirQjzOzNC5kjrOnNOEZjlDB3I2Ejc1SbiE8k8GZI3cj5mI5xIFhlDgwb1Q1p4MjCozP9E2mJxuy/Z0Z56xdOWn68MTJ/Bzg2ojKJwQVBuOFQRBVAc/IHysGAs5OiTckD8RVHIBOAdECoKOtlyFgJeiclMl++d+ZONBXmu0Z5fhQwgcE5+U2DzBbDGOrGRGW1L8kI7i9OF/iy5f4Mtni9Bin8JghUXbFCpzhqgrg4Aia9nRcMJGc7eYsFtnyxNYlIntesX1RoT2/2C2Sl4PwCm8HiWSsE0W7YJMOn9zp0em61JounW4IxUMa7agaGXNzmwbHLvcNPdgz9GhX/+O9Q58cjT3jDuzRULfj4xhDOp44EmrU1n44dv6NrjOvdpz7Vte5N3qPfmPw8IvL733d0Hn3QrQvT91ZpOhUYQNyXZdU0yFRtYmVrVJ1uxLp5peqgsZi0OlHj4Hb7MgRghwBKAGPwwQ9nLGgWA4+QIPPgHbkGXYUJ0ENa6bb8iGPMHMMoQNWr8O7gfgrH0hDDDNGMHNUVxrRWKNqR0zhjAEfxxPOlswTlnnCIHCYKThfPgs0afRk+DIdH2XezEMcPlkDZim5eDEXL2JjRWys0BuFh9l2tncD3wj5l5zDDMpk52uAtxKaDqx4jgCUpD+ThPEUz51JUfkEeC9AKvNzSsDkJ1ghKA9ElWxYWtpXSLYW6epFugYR2Df84fpQ5wUsMP8omvcHysDdCbM1n+9TLK/OFr9xHewbzpawk7hQWjlfvma+9wJrBGcnmy+QMtNrt/gFFAJlsg8Z4kx7PZk30wyaHrCCk1YS5yJ+thNavlvHvqjECtM64FBkW1zkWCJyF4pZlbZOizajIK0DnB0tAgpSCNKLoH04NaJFRsTyPg0aZoPbO/vO9Y0+2DnwQOfAo50DT/SOPDUS/ZTTtwvMVX14VJVFHHv74fi5NzpPv9p29tvt5741dM93Bs+8MnL2G9EzL3Gh05/Qdt8paxPr+oqUbSJlq0TVptB1aYl+lB4iaMAUABFQgQLEgYIDmTg1hNJDGTuCUgA0c1tyFKVGMXrsIyk7c4wxEYwBgRXoJORvLENNEa0louNxo3TGpM6wzBWRuUPZkrpDUncoBzdgIxe/0WKueApEVTnBlPA4X1Q1O1kzO1uc/ebjyRxXQHyEpyGSyR8X+qKFvmh2SFUcGC8OwH0XoKBe7I8UZ/I+BYEY2CXoDxdzYYUvovKOSUv7ivCmAk2tOHcJ8Rx7Qj8WJM2LGHB5w7TmI8t877NpMucZXuQi2PnIMl+0JYAGHsBaYrgtlL+PQTgvKvHeXlQFY6tsOx1nLRK5sgVCrawIa1GJPd2eI7bDtM4SkTMjt0xVodbVY2Q7QXfDXDKoXmH9Km2PUjeg0AyrkIiT3TIQfjA6+VTH4OWuoYe7h652DTzZM/T0YOgpOwvmqm4rqkLKwmpLSEqOOtsOJ85+GxKn9fybHedebzz21dYTLwye/1ri9Fd7N3xSY1+ap+wQaTrFqjappkOF9aLMMFgKQQ9piX6MHMZ5mgBLDKdFjeD6EUw/02ZuIIT3EGbZEDZzEiw7CzXnmdCH4TouuCIH3o4ILWUCVyZipTHEGteBNhwwxil3R0EzjjeSLcgaflcx6LUVpARDRnP0CmdaaUClabb46Ck8u1wFvZhiLl7iS6TJwueG50voSCum5pS4YnxOzZ3fmZ84ovIkH1ilc8YlwfHiwHiJP1nMRYu5cDEXLeQihVykgIvk+yJ5/ghI8fjDBexYCTsq844qnMMSY2cx3lSsBm7OrVWirBeUTYfs80dycG7x4dneDXzD3/RSM9tmOzjwDHet81fQ1GbvXU9/NbM1PSeFPF+QBZciZy0bLZ+x8Y/f/gcugRH7F0sDi6W+rLQxlyfzC5puCxT6A/ltFXxU5RI2AS6SZoVXYEFXZqxcDKbJ8yUuoTeHpw/o1lkisi8ROQslXrEiqNI26LA2kNABWeQ+BB1QqLqLJZ2MaWlzx6nh8JXekQe6Bu/vGHiga+iRnpGnugef6Rp4cmDsSQe3U02GPnx2HNwD9b/LO+/nJq69D88N974X3DC2eltpi4ptcLeBJCQhGFu25SqttEVlJVlyN72aElcI1UBy7zu5VGOKbXpJQgudBAi577zvzPvvvHPOkdZrSQZz5/72zjzzzNHZo0VIux8f2bvnuyyoKwjISD+a47Qc+6P++/+u//v/1P/tvxr+9q7x72+ajr9ix15Fv38bHHlsj5zSFberbP5skzsLc+WYPHKSU1G8gmDVJK8meQ3p11BeDeFT45wa96pJsCk1ONwkGucVECXhnScq3KvCvWrCh1CRPhUZUFCBmC1BhVmQWfy5eYHcpYElhUJ2kZBVFFhc7E8gs8SfkowSf0aJP7M0AAmKTi8LvofMinBmRRA6LHX2iuji5ZHFyyNZlW2oP70ilF4Rko6Z1V7elpmKrBWRzJXheTprRThrRUhCGPYAo51nVIbRy0grD6aVhReVhrIq27IrgNHrzKgMpleGFy0PLioPLv4skv1pJKs8sLiEl5X61cVeZQGzUGVPV85FdbrSnqGoTpfXpMvXSp0pAz1SZ+RWp8mq5u8sOdhzgrPk9vSctSnJyK1OyaIlq6Wk5XyNkHYuzP5qhqwvF2atWpjCq2B/ov8j63ORv4Aym4AFWZ/9JXMVrL35xYLMVX/O+PwTyIKszz7J/PSTzJVxPoUPgf+UsTIVK/6UWZnMgozKufhzZsWCjPJP0ss+SS9bkFH658yyvy6uWLh4xYK0sr9mrVycu1quqoO/n3VqdU6Nzm1b2v1V1TAXOO8VLjXSp1rZc2xg0uW90OSeaGWnWjzTrZ5JNnC14vNBLSEYbR/6WxVuDerNAlnUnYHzeY7RzlP/23ribf2Jd9Un3tZ+/8+67/9o+P6fTd+9az3xznX8HX3sHTv2Wjjwgtn1Y03XRCV7YqljX17NUIF9eGntyLKaYUD16NLqoaVrR0QXrB1MYGnVIGR4adVgUdVIUdUQ9EhR1UjhmuHC6hmK1w7DrUMpXVw1VLx2ZjB6AQV28DIK7MOF9fuW1o0CHPsK6kdt9SPW+hFr4z6qYYhsTIRqGhZJ2Eo1DEFGZnuEaBgmGobJxhEE1TQao3E/1bifaholG0eohn8d0jEskrSfIbMDvB6pLQ2j5sZhqc2OEbNjyAoYiIMeAlvqhpMYtdSNknVDZN2QuTYGWTdgrh1CNtcNWGoHLLV7rfY9tpo9trW786t2mz/bbP50E1m5nqhYh5f34eV95or1lsoN5or15krYrugzl68zl/ciU2V9VFmPpXS+Npf0kqXd87S5pJdY1k0s602GLOxDUEXrJPQShaAe+fwBlcuXduKwxjy5rJtc1kUu6waFzPPb8QJQ6RwBi5rDyvSgVHmceAlzvKCDyIc7kRjP78YLOvG8DjyvPQGTLSr2mGxRBOrBbBEpxryoMa/NlNdmtIUlBI22GJhVQKAeUL8AQuaF4bK/oCBKfnHf8lX9VfZ9jqbjrG+C8V5k+MsMP+XhJiHTNDfd6rnsYqfc/JVm5zjjvVhc3q/Hw2jtYPHrSIrVKnBr0La0U2cO51iDpfRh4djrliMvXD/80fz3d47jgKZj75rHAE3HAK1jb92HX3GHX/mOvA6MvQkfexc5/q597I/2o79HDr+NHH4TPTTbB19HD72NHgL9ojsOvu049Kb9wJv2g687D77tPPgGuePAm44Dr9u//S164FX0AHD7t7+1f/squv/X6P6XoiP7XkRHXkZHn0eGX0RGnoVHXoQlDo2CntDos9Doi+DI0+DI89Dos+DIc9/wY//wM//oU37kMTv6eC5zw78wI78gs0OP2KFH/NAvkCcJZr555Bl4kORHnr0P6T0P3XseuPc8oHffd+954NkN2/336P579K6f6F0/efpn7N75o6v/x/fYufMuveMuMmhsuz1PWrfecm655d562731poTbsOc2veXWLDbfoSGtm2+3bLndulnkpmszwLnphmvzTXrTTXrTdYR703Vm43Vu4y1+/U1+/U1u3Q2+L4Zv3XXfuuvevmvevmv+XoCvd9rfc9XXc9XbfSUB3xz9aBjfNf1RcJ1XPo6OSa7jEjdfT3KRS1zkEhu+zEUu8ZEpb/skH73MR8FDLnIBti8ie9svedsv8G0X+Mh54BiX+DYAF77IhS/HCE1xIsFLXPACFzcrTLDCRVaYQD2oLe1xBybcgXFkj3DBI5xHgCcGx2MOjoM2hPafof1n3IGzCI9wDsEI59AALnSeC51ng+Nc4Bz4GsWM08wFmoFX+rFTbnbKw017uGnWO+10n6eZCy7mnC94ufKzvaStx5zfBf56E7+DPEXiEGBZz5DJEpJbg8vqBiNjLwPf/dZy+GnToWfuE797jv/Ojf3OHn3LHn3LjL1lxl7TY7/Rx36lj71kj7/mTvzGH3/DHX3JHHxB73/MHHzBHHzGHpgx8+1z5tunnv3PPPufSM3ue8buf+IZecLse8yMPp3xyBPP6C/s/ifsfmBm3yOwad8jdvQxOxozM/KLZ/iBZ/iRe+g+PfjAM3iPG3jo/eY+v/cBv/cev/cB+03cg4+4gfv84CN+8AE38JAZuMd884AbuM/s/ZnZ+zO3J9Ge/rv0rrue/ruu/jvunXeQ3TvveBA7fgQNiZmdP3n67zI7fwJjdvxI77jt3n6X3nGb6Qc7AY4/l91xh+m/y2y/KcLCNrJnC4iD95jecsO9+Qaye/MN18ZrKXFuuCqldf0VwIap1nWTrj4p064+gLN3ahY9V5w9V1p6rzT3AVp6r7T0TSHQsNaeydaeSWf3pKvnMsLdc5numnS1T9IdV9ydVz1d15hOgKfjKtsxPUN0io1Ose2X+cgUE5n0tF1GMJFJKWJ/QsMdvpSShGHiQzo8kRJ32wWEdKsrdI4WztLC6XkbnKjwpD0Hz9txj3AOnbou32mX/yTYFDgVc+CUWzhF+07Svn9An4Q+TfsAnsBZj388zoTHjxinvWfBAO9Zl/eUiz8jGvWLPWgM7Tvt8p11wfFiD+077fafcfInnfwPNHeS5n4QcfI/OH3/QIBXC17bSbf/lNuPXudJxneK9Z9mfKc83pNu/h/g6exZmh13cxNubsLDXYKTncsMf9krTLmYc5z/Ei9MML4zReWb9XhQhwc+nDgmnCNtIRXp0xZ3Nm+ajIw9D469iv7nu9CJt+Fjv0fHYrQde9N27E3wxG/+Y6+8x17yR57zR577jr4Qjv8a+e5N9Pu34bFfQ8d+RQ4dfRUce4UcHANtKaGjYFMy4SMvw0deCkeeIQKHnyKCh54GDz0VDj5JJnjgSeTA0+i3TyP7nyQQHnooDD0IDz0MDoNGYPB+YPC+MPQgNPggNPBzMpHhByJtQ/dFIoMP2wceRgYTCe29F9p7L7jn5+Cen4XdPwm7fwrs+jGw605g1x1//22EsPO20H8r5v5bQv+t4E6RG6gd2H7zgwg7bon4t91IiW/rde+WaynYOO3dOO1D3nDFu/GKL4WveTde820A5uJ4N17zbgTjY09ZP+2F+NZP+9ZPeddN8n2Xfb2T3u4rvp7r/t4bgb6bMXqvBXqvBXtiCN1Xhe7pYBcg0DUV6Lri674yf/s7p71d0/O0v3PS13ExJf7OSyKzBrRP+D6OC772GbzRCW/0vDd6nms7x0fGRWDnOW/0nDdyNkbbuFcCFzoHAROKJNCmD5sPj4OwCJxy+894AjDFgAFs8CwbPMMLZ3mphbNoPHzKKTRSHM8IZ1DWeLwnPd5Y+ni8pz3eswB+HDLh4QGc/wLNnfaFLrL+s3VNR/OL+2DtA1CR5QNznDxbEJRzyQ/KKE5ZFCG+3mKt+4aq2W2pHbDZB/LsA/k1AwX2wfzab/LqAPn1A6Bh32ur2WOt3m1bC7BW7SpYuyeveg9yfhXoRDZ/vTMlljX9ljX9tq9nsK7eaV29k1q9g1q9g/xqO/nVdvOX26kvtiVj+XK7iPmLbclQq7bmfbnD8uV22xfbrV+BBrVqK7Vqq/mLrdZVM1g+3yJCfbqJ+nQTuXKjCLFiA7FiA7VyfUrMn25AJGwllvcRy3sQ5PIecnlX3F2wLbrTXNllruwiKruJit5k8PIevLxH2k9W9gHKe1KCl3YlAAqTlnTipR14aQdRkmwwnihJNF7aZYRI90aUdBElYCdESQcFIYvbiaIoURSlisFOiJIu+NuWbnMJgCruMhd3iFBF7ebCOMVgD+biDrK4nSoCOyELwX7M8X60VTRV1I5GzsdUUbuluDslVGGniLmoS8Ra3P1RmAs7LUVdyUh3YivpEiko6Y7TW1Ayw7KyDTOUblyGKNtQULKuoGTd0tL17wc9t6BsQ2Hl5sLKzUXLtxYt31JSubVk+RZEYfnGwvL1yEVlG4vK1heVbQQP4fjCys3iSLFRumJr2cptZSu3la/YVrZ8a2nllpKKmWHFFVsg24orthWVby2p3F5UvrlsxfZlZRvIvIjWxIHST7YPXXNMWMEK52BxiXxwB7kmX8ix8Jkkm23251iFXKsgswDk1oDMFmMJyeeSvIz0y80+hVlQWPxKs6CgfEqzoDSDttLsV1ABBeVDziG4lCzB2RyCy8UBOSYWscTILMHZGYwM6DEy2ZhHbGRjnhxDjGzMk21iFhs9szC4F0Oy9LTYyNA6M7TOLD2doXWm61oytC3IadrmdE1zmrY5U9eaoW9FFrdmaFsydE0pSVc5FqkdqVy/SF2fpqwDqOzp6lpEmsoOHiqRq9OVCHuaonaRoi5NXvd+L5TXLpIB0uRgcDILc+2pkdUsTMlc4+W1C+OgfzH278rsaZB0eW2mDJCRi3qqF8kBC2VrF+UC0mTVaTLwh6H03DXgz0bQ4A9AS6qAwdaqNFn1otw1cPyahTlVCyX9aOu/6uoMRV2GvD5LXp/gTFlduqxONNqaJa9frHAsVjiy5fM12nOmwpGlbEAsVjVmq5uWaJql5OiaEXJdi1zXmoxM45RAyzQx1BiTEo2RTUBr4rQmTmPkVaYYGiOvNXkhnA736XAeWW/y6XEe2OTTGHmN0YfQmvwJ6PCAnhAwImgkQxDBQAYMpC9OAKMEjAphVMhABg1k0GgOok24LUDNXlY99fo4hNWflx/KyxeMBGuweqmiiDZPUFl8ZGm3IS+M2cLGfPCrbGN+CCsQENSyKLjUxdZmsghGcxBU0TQHMcqP2vAF+TFKgK8DvlZLwBAHDoaFN8GzZsAoP0b50UvXELyG4HU4H39DZ73RWiMrokGfDc6piDgmVhVHT3jhO86jhgY9EWdUJo8S96hMHoXJrTS6RSswWm6kFRgtw1xygwtZjjnlWEtKwLXXWEuyZTpHjs4h0zlytfUy2JDpHHJ9A2rLQTmdOrl2BpmmPlcD7h2ZyzlqR67aEbOqPhc+THaOqj4l2Sp7SpaoawGq+tSgrdA5qtocVe0SpX2J0o7aMmUtIkcFrjZOeTEOvOpvLTK87qYKWaa15+qqc+dtma5WpgcrEM7Lulq5vkGub1DoEq3UNyoMjQlW6ptVhhaV3qnRO+dphb5VaXCqMJeI2khrTO4EtDiN0BNuPc4kg5F8SnQmJhk9zkoxEJyB4DCSN1A8OneQ0TllMgdMZh9G+uD+Z2wiQKeJCqaEskVIa5uJCmJEwID7DbjfSApjxIQKAAAFz0lEQVRgpBVcJRe7UA5d028Dpz9uDROgEaLy28wFEcuyNjI/iJl58SvVXIkTMNsCpIWn8gRbUUQDLqthqWVRzCqA6+hsIXRPNqrEAm7CyhPvORAIayA+ACxgjtqwnGaAsAbhnQoCbvEbKa8RXGT8AWMkfAcJFr5N4A01EKyBALXP4XsNjOEMZkq0nuS0FKsnOR3B6AhWRzBanNGZPPBji1lr9GgNLq2e1mG0BqPVRqfaCAwPmtYEKw0tSoNzxliTEmtQGWJWGUBbZQDHNCjqpJ2xUuOQa0GJLqnFwk/xGk91sFD3jMXqF+9pxJ8LakjJ1faUyFQ1yeQqq2WqGumFdmI7V21PSY6qJoa6OgfsE+wh0YpqUMpSvjZXDmo/LVGtAUWgNKDMS65m7Vx3JKFbk2SqKnRxXa4GDtZWyyCoM9lyXc1HAZZkNtSr9Y65rNCD6kbIKl29Rt8EaZmnlfpmJdYEDg+sCdzuo3PIdU0gy2APsgprVRmbERpji8bonBOMBpsk1hrdOpwGB/BsgxMBhRfhBqcG6YGnDGegOJA7Zq8IPNfA5fsJ4CS4i8hI+QGkkGCMCBgpv4kK4vG6uKjKNpkfJPOFOEEyP0jlt6GUMRdEwNcoayyVjBYvWN4v/oeq1ImD2wKE1U/AK32NtgBm9WMoz+BSxOItS7DKZYDIA+A2PwQ0YPiBkhGYbZYNFp/B6kXGzDxmZudv+A4yBorTkx49yUptID3ovRYNSk2QjJpya0hGQ85YR7hhAMWsxWc+P/jZo4NgltVYqxprTjaIGAysfIisgasgigbLIRrAKmVxw9URQSUvUEs3blBDLmVBbrC4zEeuoTfXeFS7MsHJRVckPWJBqFkNybISVTJVNVjMQTm3ldVyEGqJBp2KteCJyhqEQmVHpIzL93QqNLUfBVzdHdXVmmVQjkJnTzAsYQw+Jrje04et1jvQzxvRaqwRHjazDFOmSWME6PAWHe5MRk+4IKA6E4iSuMFBTtLJxigGo9xJZuCZBW4beg8zNwOQ4l1EYB6EZkPIIG4kPeKMIX6+i2c9/GsUnOyg2xilvyqWxs2ciYNmLmDZiqTEIawBygLuzEYlwMXEATMdG5jvgKCBGPJ8s7B6QeJAMDO4rwqGzrxsoBgRGDceqeEn4RENE8cNs2bGMG5ApS0RNL8FPzRwGh4NLcmGx01zkhs1BpAmyWjBcogpgIcvOohFvzdxNNXKfwcJJbfFh3LNmkRgxW5J9IC5CaRGrp41Q5GuHTNnG4YODBeQOxJiWSMmjlIJQicWLqo60JiHFep6kDjzNkh2WOgmwWqdPSViicdUH5z4CUoaYJIbA8YNWI03AZQ1ksRJETrxxEG5M2MYN3SyYdy4Uxj+OH9P3KB7GMXQmedNizN3U8dmGP+mxAEpkycBzXHQ/ZBwdgSKLoAy3oIIyjw4LfKbrD6EGD2oYbR4ESazF6fAbZwII0yf91v6nia/70aCTkBPuHTkLJI/S/QTxmACP2qSswb1JGUNSp9GNMdRYQ44x5mJnuS40ekdOr1Dq3VotY3QksNU54ivPz9TAzdWa+Uj4wYuSVOd7HhqiPERbyQnDuqZI3fAdyL11ylIVcBbpqqaTxJJZ17xlSvssPFhwwmOff5WaWvUmhRotPaUiHXT59MA8WQARwJCbWxIBGuUxg2c46SY4OhwZ/JRinqSj3nUIz0vZrWTfpzPOr8kcx8UOvNKnPjvbhLvc0yY2qR8+P5vVShxDPkgdNA0B3xRkiQOmiaJcUPkgboIUhKy5v2Jg+4gn/WOJGUQZgHFzsX3NOUHIA0dDHclAMokzwYzOQ0mJ/JciTNX7nxc4uga5kqceAHvOjWo3g1Av9D52AlOctagnrkSB2zVViUz13jQnzKk5kgohXqNQr16NmsU6jVy1dcicAzoBP1z7Geu/rn+v3P1q3WpkyVl3Gi09vkEjThGmjjSrNGYGtFDadxoTc1aU3Py9ynU8/8hcf4PQdnjxB+DjC0AAAAASUVORK5CYII=;" vertex="1" parent="1">
          <mxGeometry x="436" y="428.5" width="379" height="213" as="geometry" />
        </mxCell>
      </root>
    </mxGraphModel>
  </diagram>
</mxfile>
